<svg width="116.602" xmlns="http://www.w3.org/2000/svg" height="149" id="screenshot-8431dadd-a01c-8014-8007-78b02e8ff87b" viewBox="0 0 116.602 149" xmlns:xlink="http://www.w3.org/1999/xlink" fill="none" version="1.1"><g id="shape-8431dadd-a01c-8014-8007-78b02e8ff87b" rx="0" ry="0"><g id="shape-8431dadd-a01c-8014-8007-78afb64d36da" rx="0" ry="0"><g id="shape-8431dadd-a01c-8014-8007-78ae9db80558"><g class="fills" id="fills-8431dadd-a01c-8014-8007-78ae9db80558"><path d="M57.68231201171875,0C67.10906982421875,0,84.29864501953125,7.228424072265625,97.89349365234375,29.0611572265625C106.187255859375,42.3804931640625,113.14306640625,61.13519287109375,116.1822509765625,87C121,128,83.26068115234375,148.99996948242188,57.68231201171875,149C31.18231201171875,149,-2.78948974609375,130.0101318359375,0.18231201171875,89C5.18231201171875,20,42.50469970703125,0,57.68231201171875,0"/></g><g id="strokes-62a5de91-a419-80de-8007-78b0fa07582e-8431dadd-a01c-8014-8007-78ae9db80558" class="strokes"><g class="inner-stroke-shape"><defs><clipPath id="inner-stroke-render-3-8431dadd-a01c-8014-8007-78ae9db80558-0"><use href="#stroke-shape-render-3-8431dadd-a01c-8014-8007-78ae9db80558-0"/></clipPath><path d="M57.68231201171875,0C67.10906982421875,0,84.29864501953125,7.228424072265625,97.89349365234375,29.0611572265625C106.187255859375,42.3804931640625,113.14306640625,61.13519287109375,116.1822509765625,87C121,128,83.26068115234375,148.99996948242188,57.68231201171875,149C31.18231201171875,149,-2.78948974609375,130.0101318359375,0.18231201171875,89C5.18231201171875,20,42.50469970703125,0,57.68231201171875,0" id="stroke-shape-render-3-8431dadd-a01c-8014-8007-78ae9db80558-0" style="fill: none; stroke-width: 20; stroke: rgb(251, 44, 54); stroke-opacity: 1;"/></defs><use href="#stroke-shape-render-3-8431dadd-a01c-8014-8007-78ae9db80558-0" clip-path="url('#inner-stroke-render-3-8431dadd-a01c-8014-8007-78ae9db80558-0')"/></g></g></g></g><g id="shape-8431dadd-a01c-8014-8007-78af498fb030"><g class="fills" id="fills-8431dadd-a01c-8014-8007-78af498fb030"><rect rx="0" ry="0" x="91" y="32" transform="matrix(1.000000, 0.000000, 0.000000, 1.000000, 0.000000, 0.000000)" width="7" height="95" style="fill: rgb(251, 44, 54); fill-opacity: 1;"/></g></g><g id="shape-8431dadd-a01c-8014-8007-78af6c3579b5"><g class="fills" id="fills-8431dadd-a01c-8014-8007-78af6c3579b5"><rect rx="0" ry="0" x="67" y="10" transform="matrix(1.000000, 0.000000, 0.000000, 1.000000, 0.000000, 0.000000)" width="7" height="130.99999999999994" style="fill: rgb(251, 44, 54); fill-opacity: 1;"/></g></g><g id="shape-8431dadd-a01c-8014-8007-78af6d7fe070"><g class="fills" id="fills-8431dadd-a01c-8014-8007-78af6d7fe070"><rect rx="0" ry="0" x="22" y="25" transform="matrix(1.000000, 0.000000, 0.000000, 1.000000, 0.000000, 0.000000)" width="7" height="110" style="fill: rgb(251, 44, 54); fill-opacity: 1;"/></g></g><g id="shape-8431dadd-a01c-8014-8007-78af706deae3"><g class="fills" id="fills-8431dadd-a01c-8014-8007-78af706deae3"><rect rx="0" ry="0" x="43" y="10" transform="matrix(1.000000, 0.000000, 0.000000, 1.000000, 0.000000, 0.000000)" width="7" height="131" style="fill: rgb(251, 44, 54); fill-opacity: 1;"/></g></g></g></svg>