<svg viewBox="60 56 103 129" fill="none" xmlns="http://www.w3.org/2000/svg">
  <path d="M110.662 63.7346C131.3 63.7346 155.417 97.2934 155.417 132.675C155.417 168.056 128.75 176.997 110.662 176.997C94.4076 176.997 67.7402 162.223 67.7402 132.675C67.7402 108.788 86.1867 63.7346 110.662 63.7346Z" fill="#22C55E"/>
  <path d="M151.677 132.675C151.677 118.624 146.839 102.046 139.032 89.0319C131.103 75.8164 120.891 67.4691 110.662 67.4691C100.551 67.4692 90.788 75.904 83.2837 89.2471C75.9068 102.364 71.4803 118.973 71.4803 132.675C71.4803 148.983 77.6648 158.947 85.3971 164.93C93.2923 171.04 103.156 173.262 110.662 173.262C119.125 173.262 129.449 170.94 137.56 164.788C145.505 158.762 151.677 148.809 151.677 132.675ZM159.157 132.675C159.157 151.01 151.995 163.218 142.085 170.736C132.34 178.127 120.287 180.731 110.662 180.731C101.914 180.731 90.3167 178.187 80.8146 170.834C71.1496 163.355 64 151.157 64 132.675C64 117.613 68.7968 99.7522 76.7618 85.5898C84.5996 71.6538 96.2978 60 110.662 60C124.969 60 137.134 71.3337 145.449 85.1937C153.885 99.2556 159.157 117.148 159.157 132.675Z" fill="#242233"/>
  <path d="M94.1611 102.537C113.836 102.537 124.111 116.894 126.555 119.771C128.998 122.648 133.637 125.098 135.998 130.424C138.359 135.758 139.519 138.75 138.326 139.958C137.133 141.165 131.597 138.461 123.298 137.697C114.998 136.933 110.112 135.667 105.555 139.891C100.998 144.116 96.1929 152.656 94.1611 158.491C92.1293 164.326 89.7686 172.784 89.7686 172.784C89.7005 172.735 74.2141 161.669 70.4795 145.218C66.7434 128.796 69.3968 119.003 69.418 118.926C69.418 118.926 74.4851 102.537 94.1611 102.537ZM113.492 143.237C119.877 142.689 120.95 143.541 120.961 143.55C120.955 143.613 120.117 152.226 114.355 153.905C108.573 155.59 103.818 153.799 103.818 153.799V153.79C103.835 153.74 107.092 143.786 113.492 143.237ZM101.408 113.674C99.1464 113.674 97.3205 115.572 97.3203 117.914C97.3203 120.256 99.1545 122.155 101.408 122.155C103.67 122.155 105.497 120.256 105.497 117.914C105.497 115.572 103.67 113.674 101.408 113.674ZM84.3799 84.1922C88.0075 82.8772 91.1507 75.1597 98.1592 75.7186C105.167 76.2778 105.406 84.7592 110.638 87.2166C115.869 89.6737 118.453 83.8142 125.346 87.7674C130.273 90.595 129.269 99.1344 127.756 102.537C126.242 105.948 126.267 108.027 126.267 108.027C126.267 108.027 112.036 95.2055 96.9492 94.7781C81.9119 94.3523 72.6525 104.207 72.5928 104.27C73.9831 98.7305 79.5439 85.1942 79.5439 85.1942C79.5665 85.1998 80.7866 85.4947 84.3799 84.1922Z" fill="#242233"/>
</svg>
