<svg viewBox="60 56 103 129" fill="none" xmlns="http://www.w3.org/2000/svg">
  <path d="M109.555 64.4268C130.032 64.4268 153.961 97.5763 153.961 132.526C153.961 167.476 127.502 176.307 109.555 176.307C93.4277 176.307 66.9688 161.714 66.9688 132.526C66.9688 108.931 85.2711 64.4268 109.555 64.4268Z" fill="#242233"/>
  <g transform="translate(110 120) scale(1.06) translate(-110 -120)">
    <path d="M111.499 67.0655C108.911 67.0656 106.38 67.671 103.926 68.7743V86.8933C102.824 85.2216 101.1 82.7526 98.3578 81.0079V72.2021C93.9035 74.9444 88.697 82.4208 86.6504 85.8165C87.896 84.9345 89.3728 84.4433 91.0233 84.4433C94.763 84.4434 96.7982 86.4817 98.479 88.8033C98.5647 88.9216 98.6498 89.0404 98.7338 89.16C98.7904 89.2406 98.8465 89.3217 98.9025 89.4026C98.9668 89.4955 99.0309 89.5888 99.0946 89.6821C99.262 89.9276 99.429 90.1735 99.5939 90.4185C100.846 92.2777 102.07 94.0637 103.924 94.9203C105.331 95.5703 107.101 95.6868 109.523 94.8904C113.427 93.607 116.37 94.2175 118.355 95.847L118.367 95.8563L118.367 95.8568C118.378 95.8652 118.388 95.8739 118.398 95.8824C118.456 95.9307 118.513 95.9803 118.569 96.0303C118.59 96.0491 118.612 96.0678 118.633 96.0869C118.686 96.1351 118.738 96.1844 118.789 96.2342L118.806 96.25C118.82 96.2636 118.834 96.2771 118.848 96.2908C118.904 96.3462 118.959 96.4022 119.014 96.4594C119.025 96.4716 119.037 96.4842 119.048 96.4964C119.171 96.6277 119.289 96.7636 119.403 96.9037C119.411 96.9142 119.419 96.9251 119.428 96.9358L119.461 96.9777C121.856 100.011 122.074 104.952 120.114 108.819C119.357 110.387 118.879 112.072 118.701 113.799C114.383 109.798 109.342 106.722 103.895 104.694C102.106 104.027 100.272 103.474 98.4064 103.038C95.1315 102.274 91.7557 101.871 88.3399 101.855C86.6963 101.877 85.0558 102.016 83.4328 102.272C80.586 103.013 78.6484 104.05 77.3528 104.874C76.4661 107.251 75.6637 109.636 74.9522 111.994C79.2209 110.098 83.7895 108.819 88.3399 108.819C91.741 108.878 95.1092 109.381 98.3578 110.307C98.3962 110.318 98.4347 110.33 98.473 110.341C98.498 110.348 98.5233 110.355 98.5483 110.363C98.6835 110.402 98.8189 110.441 98.9538 110.482C99.0342 110.507 99.1146 110.532 99.195 110.557C99.3444 110.603 99.4935 110.651 99.6425 110.699C99.6667 110.707 99.6913 110.714 99.7156 110.722C99.7475 110.732 99.7794 110.742 99.8111 110.752C100.02 110.821 100.229 110.891 100.436 110.964C100.451 110.969 100.466 110.973 100.481 110.978L100.844 111.107C100.888 111.123 100.932 111.139 100.976 111.155L101.052 111.183L101.118 111.207C101.165 111.224 101.213 111.242 101.261 111.259C101.454 111.331 101.647 111.405 101.84 111.48L101.916 111.511L101.978 111.535C102.151 111.603 102.323 111.673 102.495 111.744C102.541 111.763 102.586 111.782 102.632 111.801C102.813 111.876 102.993 111.953 103.173 112.031L103.217 112.05C103.235 112.057 103.253 112.065 103.27 112.072C103.483 112.166 103.695 112.261 103.907 112.358L103.926 112.367C104.207 112.496 104.486 112.628 104.764 112.764C109.874 115.264 114.358 118.852 117.889 123.271C119.622 125.247 121.485 127.108 123.467 128.842C127.16 132.18 129.641 136.62 130.528 141.483C130.576 141.715 130.562 141.955 130.487 142.179C130.412 142.405 130.279 142.606 130.101 142.764C129.922 142.923 129.705 143.032 129.471 143.082C129.236 143.132 128.992 143.121 128.763 143.049C127.056 142.611 125.337 142.223 123.609 141.884C122.274 141.622 120.934 141.39 119.59 141.187H119.594C115.097 140.51 110.55 140.166 105.992 140.159C105.282 140.159 104.588 140.239 103.91 140.39C101.97 140.821 100.161 141.84 98.4861 143.272C92.8529 148.091 88.7505 157.601 86.3901 165.26C88.5234 166.941 93.9034 170.596 98.3578 171.767V161.143C99.7108 161.377 101.084 161.495 102.462 161.494L102.467 161.494C102.964 161.494 103.45 161.474 103.926 161.438V173.232C106.379 173.693 108.911 173.934 111.499 173.934C113.767 173.934 115.991 173.748 118.156 173.393V150.089C118.299 149.521 118.421 148.966 118.523 148.432L118.864 146.654C120.492 146.901 122.112 147.198 123.724 147.538V172.067C129.112 170.374 134.009 167.592 138.153 163.982V88.8033C134.009 81.6208 129.112 75.4272 123.724 71.5092V93.4264C122.336 91.7214 120.48 90.3092 118.156 89.4765V68.386C115.991 67.5295 113.767 67.0655 111.499 67.0655ZM143.693 158.08C148.723 151.505 151.747 143.343 151.86 134.486L151.864 133.969C151.864 124.913 148.822 112.024 143.693 99.9737V158.08ZM106.612 145.732C109.154 145.732 111.449 145.733 113.673 146.011C112.756 150.791 110.502 155.45 104.546 156.1L104.533 156.101L104.521 156.103C104.414 156.114 104.306 156.125 104.197 156.134L104.189 156.135C104.082 156.143 103.974 156.151 103.865 156.156C103.857 156.157 103.848 156.157 103.839 156.158L103.809 156.16C103.72 156.165 103.63 156.167 103.539 156.171C103.504 156.171 103.468 156.173 103.433 156.174L103.31 156.175L103.267 156.176C103.205 156.177 103.144 156.179 103.082 156.179H103.041C103.008 156.179 102.976 156.178 102.943 156.178C102.85 156.177 102.757 156.176 102.665 156.174C102.59 156.173 102.516 156.17 102.441 156.167C102.357 156.164 102.273 156.161 102.188 156.156C102.13 156.154 102.071 156.152 102.013 156.149C101.866 156.14 101.718 156.129 101.571 156.117L101.546 156.115C101.523 156.113 101.5 156.111 101.477 156.109C101.338 156.097 101.199 156.084 101.061 156.069L101.025 156.065L100.995 156.061C100.84 156.044 100.686 156.025 100.531 156.004C100.515 156.001 100.499 155.998 100.482 155.996L100.48 155.995L100.442 155.99C100.305 155.971 100.167 155.949 100.03 155.926C100.011 155.923 99.9912 155.919 99.9715 155.916C99.1249 155.772 98.2881 155.57 97.4683 155.308C97.938 154.23 98.4437 153.202 98.9783 152.247L98.9947 152.218L99.0083 152.194C99.0929 152.044 99.1776 151.895 99.2637 151.748L99.2757 151.729L99.3068 151.676C99.3875 151.539 99.4688 151.404 99.5508 151.272C99.5601 151.256 99.5698 151.241 99.5792 151.226C99.5921 151.204 99.6047 151.183 99.6179 151.162C99.9243 150.67 100.24 150.204 100.563 149.766C100.569 149.757 100.576 149.748 100.582 149.74L100.597 149.718C100.688 149.596 100.78 149.475 100.873 149.357C100.897 149.326 100.922 149.295 100.946 149.263C101.042 149.143 101.138 149.025 101.234 148.91C101.243 148.899 101.252 148.888 101.261 148.878L101.275 148.86C101.31 148.819 101.345 148.779 101.38 148.738L101.4 148.715L101.462 148.643C101.49 148.612 101.517 148.58 101.545 148.549C101.57 148.521 101.595 148.493 101.621 148.465L101.657 148.426C101.713 148.364 101.768 148.304 101.824 148.245C101.868 148.198 101.912 148.153 101.956 148.108C102.015 148.047 102.074 147.987 102.134 147.929L102.19 147.873C102.209 147.855 102.227 147.838 102.246 147.82C102.307 147.762 102.369 147.703 102.431 147.646C102.469 147.611 102.507 147.577 102.545 147.544C102.609 147.487 102.672 147.431 102.736 147.377C102.77 147.349 102.803 147.321 102.837 147.294C102.909 147.233 102.982 147.174 103.055 147.117C103.081 147.098 103.106 147.078 103.131 147.059L103.164 147.034C103.225 146.988 103.285 146.944 103.346 146.9C103.377 146.879 103.408 146.857 103.439 146.835C103.518 146.78 103.598 146.727 103.678 146.676C103.694 146.666 103.71 146.656 103.726 146.645C103.733 146.64 103.741 146.635 103.749 146.63C103.829 146.58 103.909 146.532 103.989 146.486C104.839 145.999 105.716 145.732 106.612 145.732ZM95.2646 119.135C93.2146 119.135 91.5527 120.78 91.5526 122.81C91.5526 124.84 93.2145 126.485 95.2646 126.485C97.3148 126.485 98.9767 124.84 98.9767 122.81C98.9766 120.78 97.3147 119.135 95.2646 119.135Z" fill="#FF584B"/>
  </g>
</svg>