<svg width="307" height="217" viewBox="0 0 307 217" fill="none" xmlns="http://www.w3.org/2000/svg">
<g clip-path="url(#clip0_2483_2860)">
<rect width="307" height="217" fill="#3C1212"/>
<path d="M1.2802 146.907C5.13728 145.348 9.97774 144.178 14.0182 142.928C9.3663 148.48 1.93747 150.208 -3.30042 155.128C-3.54498 156.318 -2.31703 155.929 -1.63937 155.755C1.03053 155.058 3.66476 153.265 6.37541 152.887C6.38051 153.201 1.76935 156.064 4.09785 156.367C5.06595 156.497 8.14345 154.072 9.39178 153.584C10.1866 153.27 10.6197 153.086 10.4516 154.117C6.03914 157.831 1.63686 161.75 -1.95528 166.152C-5.73593 170.788 -9.62868 176.554 -13.3176 181.434C-13.9749 182.3 -14.9786 183.286 -15.4729 184.068C-15.8703 184.7 -15.9773 186.08 -16.0996 186.184C-16.9913 186.946 -27.6402 184.292 -29.8006 185.253L-27.7677 186.737C-30.3152 185.92 -32.8934 187.459 -35.1761 187.294C-36.4193 187.205 -35.5022 186.144 -36.4193 186.244V188.729C-35.5786 188.943 -36.2003 187.872 -35.5888 187.728C-33.9482 187.344 -32.6845 187.538 -32.3482 189.226H-34.3915L-34.6309 188.241C-35.5634 188.594 -34.8245 189.69 -34.8908 189.724C-35.064 189.824 -37.846 189.032 -38.4575 190.476L-36.669 190.232C-35.5583 191.826 -38.5899 191.348 -39.7109 191.497C-43.1756 191.965 -42.1718 191.318 -44.3526 191.218C-45.1322 191.183 -46.0952 192.095 -46.6098 191.472C-44.6379 189.072 -42.4317 190.332 -39.9911 190.715L-41.0101 188.734L-37.9581 187.738C-38.646 187.763 -39.3134 187.354 -40.0115 187.533C-41.1884 187.837 -45.6009 190.456 -46.8798 190.526C-48.3269 190.606 -52.3572 187.135 -54.7672 187.738C-51.3636 190.516 -51.6591 194.36 -55.7863 190.471C-54.5431 189.147 -54.1303 191.995 -53.2438 191.213C-52.6731 190.71 -55.7914 188.584 -55.8066 188.395C-55.8627 187.484 -55.0271 187.145 -55.7455 185.98C-56.841 184.192 -58.5988 185.512 -60.3771 185.248C-58.5275 187.713 -60.428 192.373 -59.8777 194.355C-59.7401 194.843 -58.7619 194.793 -58.4409 195.535C-57.9416 196.691 -58.2269 198.648 -57.8244 199.922C-59.1135 199.549 -59.6484 198.558 -59.8624 200.674C-56.7136 201.182 -58.446 201.366 -58.3848 203.408C-58.3492 204.633 -58.0179 206.679 -56.8155 207.152L-57.3199 204.668C-55.6181 204.224 -56.5659 205.912 -56.3009 206.156C-55.7303 206.689 -54.9914 205.942 -55.2716 205.166C-53.366 207.217 -50.472 204.17 -49.1166 207.351C-48.4237 208.975 -48.4695 209.727 -47.4607 211.644C-47.2925 211.962 -47.6849 212.605 -47.639 212.63C-47.4658 212.734 -44.1029 212.968 -44.0825 211.883C-44.4035 211.365 -45.4735 211.345 -45.6111 210.787C-45.7487 210.23 -45.871 205.833 -44.587 207.152C-43.8023 207.954 -45.1016 212.047 -42.5387 211.141C-44.2812 213.894 -40.9847 213.322 -40.5057 214.377C-40.3172 214.791 -41.3821 214.422 -41.5248 214.945C-41.9935 216.663 -41.112 219.053 -40.9897 220.821C-40.9388 221.578 -41.591 222.459 -41.5095 223.31C-41.4127 224.371 -39.4816 226.995 -39.4663 227.812C-39.4612 228.106 -40.4904 228.021 -40.5464 228.365C-40.6433 228.992 -39.6548 230.72 -40.0013 231.053C-40.6739 231.706 -42.7527 229.594 -43.8176 229.594C-44.9691 229.594 -46.6353 231.113 -47.9142 231.023C-48.6733 230.969 -49.1472 230.157 -49.9166 230.102C-51.1343 230.013 -52.6578 231.208 -54.3902 230.969C-55.4347 230.824 -56.6575 229.749 -57.0804 229.739C-57.6511 229.724 -58.3084 230.62 -59.0319 230.486C-61.0445 230.112 -65.4315 224.132 -69.0389 224.585C-69.5026 226.985 -68.1473 225.596 -67.1282 226.193C-66.9397 226.303 -64.2341 228.28 -63.7501 228.648C-61.1414 230.625 -59.0727 233.852 -56.306 235.794C-60.158 235.978 -55.6028 238.926 -56.306 239.523C-59.3274 240.206 -60.912 237.477 -63.0775 236.436C-64.7233 235.649 -67.1945 235.595 -68.509 234.773C-69.7115 234.016 -69.7268 232.517 -70.5828 231.82C-71.6069 230.984 -74.6742 230.844 -75.4487 229.565C-75.948 228.733 -75.1176 227.911 -75.25 227.647C-75.357 227.433 -78.4447 225.168 -79.0001 224.605C-82.1642 221.398 -84.4468 217.594 -89.4249 217.116C-88.4262 215.448 -85.848 218.401 -85.6086 216.12C-85.15 218.142 -84.7577 216.289 -83.5705 216.285C-82.9591 216.285 -81.9502 217.295 -81.7922 217.121C-80.7885 216.05 -83.1985 215.418 -82.8011 215.134C-79.8357 213.705 -79.7236 216.509 -78.6332 217.305C-77.4868 218.142 -76.2894 217.933 -75.1837 218.386C-74.4551 218.685 -74.2208 219.88 -73.1253 219.606L-73.6399 215.129L-74.6488 217.116C-73.8029 213.302 -77.7721 216.792 -77.2065 213.626L-78.2205 214.133C-78.2664 213.621 -78.0676 212.968 -78.246 212.51C-79.0816 210.324 -82.0725 207.083 -83.6265 204.976C-84.6558 203.587 -84.7628 201.909 -86.8824 200.933C-84.7322 200.121 -86.4799 200.664 -86.8824 199.698L-85.955 199.604C-86.1385 198.513 -85.9296 196.397 -84.8545 195.715C-85.4965 198.369 -81.1401 199.076 -80.7528 199.509C-79.9529 200.395 -79.479 202.427 -78.888 203.557C-78.2103 204.857 -77.981 205.723 -77.4766 206.714C-77.4002 206.868 -75.3978 207.013 -74.6284 208.382C-73.859 209.752 -74.4348 211.524 -72.626 212.142C-72.1012 210.633 -73.4718 208.935 -73.5176 207.825C-73.5431 207.187 -72.2081 204.259 -72.6208 203.677C-72.6718 203.607 -73.7673 204.429 -74.0781 203.368C-74.4195 202.193 -73.8336 200.609 -74.2259 199.504C-74.4501 198.867 -75.3927 198.916 -75.6627 198.309C-75.999 197.547 -75.8462 196.481 -76.3913 195.386C-76.9875 194.181 -80.3299 193.285 -81.0178 191.716C-82.0929 189.266 -81.0484 188.778 -83.1374 186.089C-83.4839 185.646 -83.3667 184.86 -83.8049 184.511C-84.0647 184.307 -84.8188 184.8 -84.8494 184.76C-85.313 184.048 -84.5131 181.269 -84.345 180.279L-85.8633 180.771C-85.8022 179.412 -85.8226 178.112 -86.0977 176.763C-86.2812 175.887 -89.002 170.215 -90.4541 172.565C-88.7778 175.005 -87.2441 177.878 -90.9586 174.298L-91.2133 175.787L-93.2871 174.293C-92.7011 171.171 -95.5086 170.623 -98.0919 169.563C-98.2702 169.06 -96.9251 169.573 -97.0779 169.07C-97.4142 167.935 -99.4982 169.877 -98.097 167.327C-99.009 167.023 -99.3147 168.099 -99.8752 168.144C-100.731 168.208 -105.526 165.838 -106.744 165.559C-107.452 165.395 -110.111 165.853 -110.249 165.734C-110.871 165.166 -113.342 158.016 -112.873 163.329C-115.156 162.582 -114.172 166.804 -115.675 163.837C-116.333 166.491 -118.85 164.668 -118.987 164.827C-119.105 164.967 -118.717 165.968 -119.288 166.376C-119.986 166.874 -121.662 166.799 -122.559 166.824L-120.521 168.313L-126.121 168.323C-125.565 170.449 -122.238 167.397 -122.559 169.807C-125.545 168.627 -128.108 172.461 -130.472 172.192C-132.255 171.993 -130.503 171.395 -130.202 170.813L-131.725 169.817C-130.212 171.042 -128.312 169.189 -128.164 169.314C-127.975 169.468 -128.582 170.504 -127.654 170.305L-127.14 168.821C-128.571 169.573 -130.263 167.337 -130.452 167.337C-130.615 167.337 -131.939 169.045 -133.101 169.224C-134.135 169.379 -138.553 168.039 -138.701 167.103C-138.762 166.725 -138.12 165.485 -138.344 165.335C-138.568 165.186 -139.679 165.559 -140.275 165.231C-141.121 164.763 -141.676 161.332 -142.93 160.854C-143.108 162.422 -141.615 165.48 -140.606 166.819C-140.535 166.914 -138.094 168.318 -139.633 168.333C-141.386 168.348 -142.329 167.676 -144.463 168.826C-144.56 169.867 -142.894 169.06 -142.42 169.324C-142.318 169.379 -142.925 170.902 -142.695 171.555C-142.492 172.132 -141.208 173.153 -141.406 173.297C-142.476 174.069 -144.718 170.225 -146.751 170.808C-146.537 172.421 -144.27 170.982 -144.978 173.307C-146.42 172.222 -145.717 173.995 -147.245 174.313C-149.875 174.856 -152.223 173.512 -154.409 172.316L-154.654 173.8L-159.749 172.814L-156.182 174.796C-158.078 175.344 -159.015 174.652 -160.768 174.308C-156.463 177.883 -159.902 178.053 -163.825 177.296L-161.792 179.273C-162.383 179.581 -165.15 181.673 -165.267 181.852C-165.364 182.001 -164.788 182.689 -164.844 182.743C-168.492 183.396 -166.108 183.59 -165.532 184.421C-163.637 187.17 -165.741 187.304 -165.39 188.913C-165.288 189.371 -164.151 189.341 -163.902 190.038C-163.652 190.735 -163.621 193.036 -164.299 193.499C-165.186 194.106 -167.173 193.115 -167.387 194.211L-164.844 194.709C-168.024 194.231 -166.317 195.545 -167.127 197.208C-167.779 198.538 -170.663 198.946 -171.927 199.489C-172.604 199.778 -173.068 200.664 -173.98 200.968C-175.274 201.396 -179.666 201.441 -179.6 203.931C-179.559 205.444 -176.599 203.448 -176.558 204.668C-183.034 206.51 -188.955 209.035 -194.544 212.734C-195.482 213.352 -198.809 215.508 -199.242 216.11C-199.497 216.464 -199.787 216.982 -199.222 217.126C-198.249 217.166 -197.866 216.045 -197.184 215.632C-195.905 214.855 -197.449 217.509 -196.18 216.618C-195.222 215.951 -195.859 214.666 -194.906 214.631C-195.538 217.3 -194.402 217.151 -193.515 218.286C-192.868 219.118 -194.152 220.089 -190.825 219.611C-190.754 220.756 -190.641 220.497 -191.579 220.607C-195.197 221.02 -196.43 220.432 -198.967 223.843C-197.367 225.327 -194.916 223.928 -192.608 224.087C-189.133 224.326 -193.428 226.104 -193.923 226.791C-194.656 227.812 -194.147 228.967 -194.478 229.485C-194.6 229.674 -196.073 229.983 -196.705 230.545C-197.688 231.422 -197.785 232.811 -198.998 233.782C-199.772 234.405 -206.314 236.556 -206.803 236.466C-207.415 236.356 -208.113 235.211 -208.653 234.798C-206.605 232.831 -201.963 232.044 -201.632 228.738C-201.418 226.597 -205.056 228.549 -205.091 226.836C-203.313 226.104 -203.257 224.998 -202.513 223.983C-202.452 223.898 -200.409 222.519 -201.79 222.593C-202.452 222.628 -204.235 223.953 -204.072 222.354C-202.585 222.031 -202.712 220.552 -202.422 220.258C-201.943 219.77 -200.001 220.168 -200.516 218.371C-202.162 216.339 -203.649 220.412 -205.601 220.607C-205.81 220.358 -204.144 217.599 -206.37 217.609C-206.671 217.609 -206.574 218.336 -206.783 218.431C-207.965 218.973 -209.54 219.934 -210.329 220.248C-211.236 220.612 -212.204 219.825 -213.244 220.333C-214.1 220.751 -214.426 222.534 -215.929 223.216C-217.738 224.042 -220.245 223.744 -222.023 224.232C-223.801 224.72 -226.043 227.254 -227.383 226.751C-229.742 225.865 -228.321 223.31 -228.168 222.28C-228.086 221.722 -228.693 220.781 -228.54 220.607C-227.577 219.521 -227.73 221.961 -226.767 221.593C-226.232 221.388 -225.121 220.213 -224.463 219.855C-224.341 219.641 -226.496 219.521 -225.483 218.62C-225.289 218.451 -221.473 217.171 -220.683 216.648C-220.28 216.379 -220.831 215.772 -220.443 215.353C-219.985 214.855 -218.991 214.691 -218.9 214.572C-218.808 214.452 -219.598 212.032 -219.842 211.858C-220.815 211.166 -226.761 212.256 -228.025 209.652C-226.135 210.747 -224.469 207.093 -224.963 206.659C-225.228 206.43 -226.659 207.142 -226.491 206.166L-223.949 205.658L-225.982 204.175L-223.949 203.179L-221.906 203.667C-222.43 202.412 -224.3 202.322 -225.472 202.173C-225.212 200.848 -224.224 201.745 -223.771 201.635C-223.317 201.526 -223.714 200.828 -222.736 200.699C-221.274 200.51 -219.455 201.451 -217.835 200.181L-218.849 199.688C-218.905 197.014 -216.168 199.066 -215.368 198.633C-215.037 198.453 -214.095 196.163 -214.227 195.54C-214.344 194.983 -215.771 195.022 -215.791 194.221C-213.656 193.972 -211.781 196.083 -212.485 193.225C-211.19 194.291 -209.917 194.993 -208.149 194.709C-209.698 192.921 -212.551 192.543 -214.772 192.717C-212.225 189.406 -212.877 191.726 -210.834 192.124C-210.477 192.194 -207.858 191.786 -207.68 191.686C-207.614 191.646 -208.301 190.601 -207.379 190.242C-206.177 189.774 -207.038 191.437 -206.121 191.233L-205.861 189.744C-204.776 191.134 -202.804 190.566 -202.804 188.748C-202.192 190.207 -200.587 189.132 -200.511 189.241C-200.338 189.485 -200.786 190.76 -200.434 191.168C-200.276 191.353 -197.168 192.682 -197.454 191.248L-198.982 190.247L-191.854 188.255C-192.527 187.802 -196.129 185.895 -196.323 185.676C-196.419 185.567 -195.533 184.003 -197.963 184.262C-197.545 182.355 -195.049 183.391 -194.911 183.271C-194.662 183.052 -195.625 181.115 -195.767 180.458C-195.869 179.985 -195.273 179.203 -195.472 178.874C-195.548 178.75 -197.561 177.794 -197.958 177.296L-198.218 180.279L-200.012 176.3C-200.822 176.081 -200.327 176.987 -200.638 177.137C-201.306 177.455 -202.554 177.968 -203.318 178.287C-203.716 178.451 -203.43 177.301 -203.869 177.251C-204.633 177.161 -205.443 177.958 -206.64 177.6C-207.838 177.241 -209.57 174.413 -210.324 173.94C-211.078 173.467 -212.668 173.955 -213.249 172.939C-214.319 171.067 -213.259 169.135 -213.412 167.656C-213.651 165.261 -215.256 163.513 -214.125 160.744C-213.687 159.664 -212.311 159.27 -212.739 157.632C-213.341 155.312 -214.859 159.385 -215.048 159.38C-216.586 158.997 -218.105 158.085 -217.829 156.372C-217.233 156.567 -216.709 157.403 -216.831 156.153C-217.34 151.02 -219.108 144.352 -219.934 138.76C-220.759 133.168 -222.16 127.382 -221.911 121.522C-222.115 121.303 -224.953 122.513 -225.004 122.821C-225.141 123.633 -223.205 131.401 -222.991 133.283C-222.706 135.778 -222.96 138.825 -222.736 141.101C-222.543 143.077 -221.055 147.798 -221.396 149.073C-221.498 149.461 -222.436 149.406 -222.41 149.625C-222.298 150.616 -220.591 153.499 -220.494 154.231C-220.377 155.143 -220.662 155.989 -220.347 158.08C-220.122 159.559 -219.057 164.21 -221.228 164.783C-221.442 164.837 -225.243 164.354 -225.63 164.24C-227.093 163.812 -229.391 158.787 -228.968 157.234C-228.891 156.95 -227.383 155.048 -227.011 154.615C-226.277 153.753 -224.958 154.246 -225.992 152.892H-223.444L-225.483 149.655L-223.444 149.157C-224.973 147.355 -228.351 146.907 -227.521 149.904C-229.166 148.883 -229.895 150.741 -231.342 151.383C-233.034 150.532 -231.994 146.224 -232.162 146C-232.33 145.776 -233.278 145.846 -233.548 145.104C-238.333 132.003 -232.809 117.857 -232.274 105.244C-232.259 104.826 -232.443 103.8 -232.865 103.596C-233.553 104.174 -233.864 105.115 -234.022 105.951C-235.78 115.412 -237.252 125.112 -237.222 134.732C-237.222 136.062 -236.626 137.137 -236.723 138.621C-236.88 140.951 -240.355 147.763 -241.38 150.547C-241.665 151.328 -241.874 152.045 -241.792 152.887C-243.667 152.165 -242.332 150.372 -242.297 149.147C-242.246 147.24 -242.322 145.328 -242.297 143.431C-242.572 143.127 -246.561 145.244 -247.412 143.595L-246.872 139.448C-246.735 139.353 -244.977 141.444 -244.416 139.099C-244.085 137.72 -246.409 134.369 -243.316 134.961C-244.595 132.501 -246.765 135.618 -248.926 134.966C-249.333 136.978 -247.417 134.946 -246.888 135.464C-245.67 136.659 -249.884 137.077 -250.454 136.739C-251.137 136.335 -251.32 134.483 -252.227 133.98C-254.841 135.584 -258.163 137.954 -259.554 140.752C-260.945 143.551 -261.628 151.528 -261.174 154.66C-261.052 155.521 -259.722 157.478 -260.13 157.866C-260.242 157.971 -262.346 157.408 -262.046 159.539C-261.878 160.729 -259.768 162.298 -260.634 164.339C-258.724 164.822 -260.079 162.477 -259.57 161.895C-259.468 161.775 -257.898 161.646 -257.307 161.377C-254.963 160.316 -252.987 158.285 -251.03 161.666C-250.775 162.104 -248.956 166.306 -248.956 166.575C-248.956 168.811 -251.285 170.399 -252.207 171.838C-253.557 173.95 -254.337 177.286 -257.073 177.784C-257.154 175.887 -257.99 175.772 -259.62 175.294C-259.228 179.611 -255.718 182.878 -253.012 186.01C-251.183 188.131 -249.94 190.247 -247.407 191.975L-249.945 193.469C-249.022 195.127 -246.291 194.335 -245.461 194.823C-245.176 194.993 -245.135 196.033 -244.569 196.153C-244.09 196.257 -243.01 195.506 -242.811 195.705C-242.735 195.779 -242.964 196.601 -242.679 197.039C-242.378 197.502 -241.13 197.701 -240.58 198.682C-240.147 199.449 -239.403 202.925 -238.694 204.289C-238.272 205.106 -236.651 204.145 -239.234 206.415C-242.006 208.85 -244.06 209.508 -246.689 212.6C-247.407 213.446 -248.34 212.575 -247.387 214.621L-248.921 214.631L-247.907 215.368C-249.568 218.117 -249.16 218.948 -252.487 217.619C-252.008 221.055 -251.677 221.319 -255.035 222.852C-255.101 224.451 -252.151 222.14 -251.473 222.603C-252.029 223.634 -253.353 224.157 -252.997 225.586C-249.766 224.496 -250.444 225.969 -248.9 227.309C-248.202 227.911 -246.933 227.732 -246.888 228.569C-248.141 228.977 -250.964 227.837 -251.947 228.335C-253.369 229.057 -255.983 231.641 -256.823 233.055L-261.149 227.578C-260.854 229.445 -259.366 231.183 -258.785 232.921C-258.494 233.787 -259.437 234.977 -258.097 236.038L-261.149 235.047C-261.037 235.624 -261.74 236.282 -261.633 236.745C-261.45 237.527 -260.008 237.193 -260.135 238.03C-260.904 237.97 -261.908 238.273 -262.576 237.9C-262.637 237.865 -262.876 236.028 -263.697 237.039C-264.064 237.492 -262.978 239.852 -262.683 240.514C-266.703 240.295 -268.379 236.755 -268.792 242.77C-268.904 244.408 -269.092 246.002 -267.549 247.022C-266.846 247.49 -265.689 247.177 -265.745 247.988C-268.731 248.272 -270.825 246.848 -272.873 245.006C-273.627 247.251 -271.421 247.914 -270.993 248.636C-270.565 249.358 -270.743 250.667 -269.821 251.474C-270.397 251.897 -273.663 249.447 -272.873 251.225C-272.557 251.942 -271.294 252.206 -270.993 252.624C-270.3 253.585 -270.377 255.906 -268.802 256.956L-272.873 254.471C-273.25 254.885 -270.269 258.136 -271.421 259.391C-271.589 259.575 -275.044 260.895 -275.676 261.946C-276.649 263.559 -275.507 266.019 -278.738 267.971C-279.614 268.503 -280.603 266.99 -279.497 269.41C-281.932 269.051 -280.679 270.127 -281.036 271.561C-281.082 271.755 -281.907 274.14 -282.182 275.011C-282.712 276.68 -284.353 279.553 -284.602 281.116C-284.872 282.809 -283.16 281.236 -282.559 280.872C-282.447 282.739 -284.776 283.546 -285.107 285.349L-285.861 284.358C-288.189 286.728 -284.898 287.813 -284.083 289.83C-287.145 288.565 -289.963 288.232 -293.249 287.848L-289.81 290.209L-285.611 291.08C-286.707 291.628 -286.732 293.769 -287.257 294.202C-287.731 294.595 -289.387 294.531 -289.626 294.874C-290.049 295.492 -289.045 297.747 -290.706 298.559C-292.367 299.371 -294.558 297.867 -296.306 298.3C-296.566 299.59 -295.221 300.257 -295.277 301.487C-295.358 303.279 -297.508 304.141 -297.768 305.127C-298.079 306.307 -296.571 308.035 -298.1 308.747C-299.103 309.215 -299.623 305.948 -299.883 308.01C-299.429 310.524 -297.799 310.908 -296.342 312.018C-294.884 313.129 -296.077 314.184 -297.575 314.154C-300.831 314.09 -301.804 310.246 -304.744 309.778C-306.593 309.484 -309.875 309.389 -310.975 311.107C-312.779 313.91 -308.856 313.298 -307.51 313.985C-306.756 314.374 -306.675 315.454 -306.395 315.618C-305.269 316.281 -302.645 315.011 -302.42 315.225C-302.216 316.236 -303.174 316.495 -303.623 317.217C-303.918 317.7 -302.639 318.501 -304.963 318.213C-303.251 320.633 -296.785 317.401 -296.81 321.688C-298.823 321.539 -301.468 324.218 -303.2 324.178C-304.03 324.158 -304.57 323.177 -305.35 322.819C-309.9 320.722 -308.448 322.525 -310.802 325.209C-311.342 325.826 -313.558 328.415 -313.737 328.565C-314.073 328.839 -315.097 328.6 -315.632 328.933C-316.468 329.451 -317.222 330.736 -318.205 330.98C-319.102 331.199 -321.955 329.222 -321.777 332.653L-319.749 331.657C-318.944 332.683 -322.699 336.417 -323.637 336.572C-323.841 336.606 -327.071 335.237 -327.479 334.983C-328.951 334.077 -329.721 331.901 -331.968 332.16C-332.38 334.515 -328.763 336.193 -326.709 337.224C-326.006 337.577 -323.907 338.021 -323.815 338.14C-323.458 338.618 -325.048 340.316 -324.87 341.337C-324.814 341.646 -323.978 341.601 -323.912 341.695C-323.321 342.552 -325.609 343.717 -325.991 344.748C-326.531 346.212 -324.681 347.457 -327.387 347.103C-326.347 348.642 -327.83 349.428 -327.876 350.335C-327.901 350.793 -325.4 358.028 -324.936 358.904C-323.82 361.02 -322.129 360.776 -322.822 364.262C-322.964 364.979 -324.274 366.358 -323.8 367.006C-323.642 367.225 -319.056 369.202 -318.781 369.246C-316.875 369.555 -313.085 368.738 -311.291 369.973C-309.936 370.905 -309.87 373.613 -309.07 374.769C-308.473 375.63 -305.034 377.796 -304.708 378.463C-304.295 379.295 -304.596 380.311 -304.331 381.087C-303.455 383.642 -302.38 385.459 -302.93 388.432L-300.897 387.939C-300.555 388.87 -302.008 389.259 -301.697 389.926C-301.08 391.26 -298.018 392.201 -297.452 393.78C-297.075 394.835 -297.366 397.624 -297.249 397.788C-297.019 398.092 -295.863 398.221 -295.812 398.635C-295.776 398.914 -297.34 400.293 -297.325 401.129C-297.315 401.717 -296.627 402.21 -296.449 402.783C-295.715 405.178 -295.053 405.073 -294.833 405.676C-294.385 406.901 -295.435 408.135 -295.312 409.032C-295.267 409.365 -293.366 413.458 -293.274 415.102C-293.208 416.257 -293.927 419.976 -293.682 420.947C-293.514 421.605 -292.464 421.993 -292.398 422.526C-292.22 423.885 -296.275 431.559 -296.301 433.744L-290.197 423.293C-291.389 427.934 -289.698 425.489 -288.291 426.918C-287.211 428.013 -287.252 433.909 -285.616 432.749L-285.097 430.762C-281.138 431.524 -284.118 436.488 -283.573 439.222L-280.521 436.239C-280.006 438.042 -281.851 442.593 -281.484 443.892C-281.418 444.131 -278.529 446.731 -277.979 447.453C-277.275 448.384 -276.491 449.449 -275.996 450.49C-275.151 452.278 -274.239 458.397 -273.887 458.641C-272.211 459.826 -272.328 455.544 -272.868 454.658C-269.898 455.255 -271.1 455.654 -270.84 457.895C-267.686 458.831 -268.333 453.264 -266.254 452.168L-265.495 456.655L-263.707 455.659C-263.024 459.702 -262.295 463.676 -261.149 467.609C-259.33 467.176 -260.68 463.402 -258.612 463.631L-259.116 467.609L-257.582 465.623L-256.568 467.116L-253.521 466.115L-253.012 469.596C-253.318 466.738 -251.621 466.23 -249.445 465.12C-249.435 469.262 -248.482 467.56 -246.164 468.137C-243.627 468.77 -240.865 471.608 -239.387 473.47C-239.178 473.734 -239.331 474.361 -239.199 474.561C-239.031 474.81 -236.977 473.619 -236.697 473.829C-236.075 474.292 -234.802 478.967 -234.149 480.063C-233.263 480.182 -233.671 478.927 -233.645 478.33C-233.594 477.085 -233.686 475.83 -233.64 474.59C-232.315 474.874 -231.566 476.592 -231.092 477.075C-230.552 477.623 -230.68 475.183 -229.579 476.089C-229.472 476.174 -228.698 478.146 -228.545 478.574C-226.476 477.862 -229.294 475.387 -227.026 474.59C-226.935 475.472 -226.502 477.289 -225.498 477.573L-225.488 473.595L-223.969 474.59L-224.469 471.11C-224.056 470.692 -220.561 472.992 -219.108 472.539C-218.742 472.424 -219.006 471.513 -218.619 471.608C-217.641 471.842 -216.128 474.043 -215.363 473.515C-215.262 473.445 -215.348 472.609 -215.012 472.579C-213.85 472.484 -209.973 473.51 -208.393 473.614C-207.532 473.674 -206.712 473.211 -205.937 473.251C-205.107 473.291 -204.123 474.142 -203.39 474.008C-202.539 473.848 -201.504 470.726 -201.031 472.863C-200.893 473.49 -208.062 481.845 -207.15 484.056L-208.159 483.548C-207.313 485.251 -208.785 488.065 -209.764 489.708C-210.554 491.027 -213.794 493.796 -210.207 491.52C-210.645 494 -214.151 496.136 -214.314 498.75C-214.395 500.07 -213.728 501.19 -213.769 502.226C-213.82 503.521 -215.109 509.984 -214.783 510.447L-213.774 509.944C-214.604 512.508 -212.938 512.678 -212.474 513.893C-212.057 514.983 -211.888 518.638 -211.72 518.912C-211.664 519.002 -210.849 518.011 -210.085 519.534C-207.726 524.235 -208.755 530.962 -209.229 536.041C-210.518 549.829 -208.179 563.786 -208.791 577.908C-209.127 585.696 -209.657 597.327 -211.257 604.772C-211.695 606.808 -213.478 609.263 -213.743 610.807C-214.095 612.863 -213.285 614.412 -213.239 616.239C-213.142 620.143 -215.878 628.254 -217.824 631.72C-218.12 632.248 -219.868 634.817 -220.143 634.932C-220.637 635.136 -220.153 633.752 -220.647 633.941C-222.298 634.563 -221.228 636.914 -221.478 637.332C-221.615 637.561 -225.314 640.499 -225.671 640.728C-232.621 645.115 -242.215 645.817 -249.282 651.025C-250.052 651.593 -250.607 654.187 -251.218 651.867C-252.89 653.062 -255.121 657.125 -254.469 659.017C-254.24 659.674 -253.246 659.719 -252.981 660.182C-251.855 662.144 -252.411 664.405 -249.476 665.097C-245.731 665.983 -239.657 665.864 -236.554 663.344C-235.663 662.617 -235.479 660.456 -234.832 660.312C-233.915 660.103 -232.504 660.471 -231.373 660.312C-230.241 660.152 -228.076 658.315 -228.04 660.556C-228.03 661.377 -231.831 667.054 -232.616 667.925C-233.828 669.28 -236.697 671.311 -238.272 672.496C-238.888 672.959 -239.887 673.149 -240.315 673.542C-240.789 673.98 -240.218 674.742 -240.269 674.772C-240.625 674.986 -244.126 673.238 -245.364 674.284L-243.841 675.768C-246.133 675.633 -247.937 675.633 -249.95 676.774L-246.898 677.272C-247.983 679.368 -248.87 678.183 -250.475 678.452C-250.959 678.531 -255.86 680.782 -256.074 680.996C-258.087 682.983 -257.149 688.371 -254.719 690.143C-250.266 693.395 -242.475 689.546 -237.849 688.854C-235.026 688.43 -231.882 688.694 -228.937 688.102C-220.887 686.478 -217.249 685.129 -208.485 686.289C-203.772 686.912 -203.853 689.187 -200.648 691.692C-197.917 693.823 -194.493 695.641 -191.864 697.931C-188.394 700.958 -186.458 702.955 -182.688 705.893C-179.554 708.333 -177.771 713.94 -174.663 714.981C-173.598 715.339 -171.896 714.926 -170.974 715.857C-170.052 716.788 -170.21 719.427 -169.466 720.732C-169.399 720.846 -167.672 722.534 -167.555 722.599C-165.135 723.968 -161.624 722.938 -161.013 720.104C-160.06 715.683 -159.571 710.733 -160.396 706.018C-160.84 703.483 -161.67 702.477 -164.355 702.413C-164.37 701.999 -160.738 700.784 -161.288 702.656C-160.488 702.796 -160.682 701.944 -160.875 701.506C-161.859 699.251 -165.252 699.002 -167.407 699.171C-166.959 697.373 -162.893 699.221 -163.331 697.189L-169.445 696.183C-168.824 694.46 -164.783 695.994 -164.35 695.685C-165.731 693.365 -169.109 694.406 -171.483 694.192L-169.45 692.21L-174.541 692.703C-173.97 691.358 -172.273 691.179 -170.974 691.209L-174.535 690.213L-171.483 688.729H-175.554L-173.521 687.723C-174.046 685.612 -178.423 687.42 -178.612 687.23C-178.948 685.657 -176.874 685.786 -176.579 684.746C-177.801 684.596 -179.585 685.084 -180.66 684.502C-182.52 683.486 -178.316 683.381 -178.617 682.759L-183.707 682.251L-181.164 680.767L-184.726 679.771C-183.819 679.936 -180.568 679.477 -180.186 679.841C-180.038 679.98 -180.257 680.787 -180.003 681.091C-178.642 682.719 -175.697 684.502 -173.792 686.254C-171.529 688.336 -165.41 688.898 -162.042 689.217C-155.627 689.825 -148.937 689.451 -142.573 690.377C-141.299 690.562 -139.704 691.518 -138.018 691.687C-137.177 691.772 -135.965 691.219 -135.873 691.284C-135.746 691.368 -135.644 692.245 -135.007 692.658C-133.514 693.624 -129.596 694.087 -128.306 695.337C-125.662 697.891 -125.662 706.63 -124.281 707.088C-123.369 707.392 -116.481 707.277 -115.309 707.018C-113.964 706.725 -109.999 704.2 -109.092 703.134C-108.379 702.293 -107.503 699.529 -107.161 699.295C-106.688 698.972 -103.61 698.633 -102.693 698.19C-103.462 699.529 -103.544 701.163 -104.104 702.532C-104.497 703.503 -105.536 704.394 -105.745 704.917C-106.04 705.654 -102.999 706.356 -105.745 706.655C-105.984 707.626 -104.619 706.64 -104.731 707.641L-108.563 708.627L-114.366 714.876C-114.279 715.583 -108.293 717.689 -108.272 719.84C-108.257 721.733 -110.483 720.642 -111.385 719.88C-113.235 718.322 -112.527 716.878 -116.195 716.609C-121.515 716.225 -113.785 719.756 -113.607 720.094C-113.709 726.344 -116.19 718.974 -118.223 718.596C-119.507 718.357 -121.204 718.755 -122.559 718.605C-122.6 719.143 -116.323 723.037 -119.257 723.575C-120.501 723.804 -120.735 721.15 -122.177 720.463C-122.758 720.189 -125.28 719.641 -125.902 719.661C-128.057 719.736 -128.098 721.494 -129.04 722.106C-130.457 723.032 -133.188 722.768 -134.283 724.825C-133.259 725.183 -132.622 725.308 -133.794 726.294C-136.591 727.16 -140.133 728.246 -142.716 729.525C-143.2 729.764 -146.288 731.502 -146.41 731.676C-146.69 732.075 -146.42 732.926 -146.517 733.036C-146.665 733.205 -147.78 732.214 -148.463 732.603C-148.616 732.687 -148.733 733.434 -149.095 733.718C-151.984 735.969 -154.715 737.109 -157.196 740.266C-158.699 742.178 -160.498 744.419 -156.921 744.946C-151.077 745.813 -147.021 738.254 -142.094 737.642C-140.031 737.383 -140.693 740.55 -136.856 741.272C-129.779 742.601 -125.738 739.33 -120.001 737.273C-116.883 736.153 -113.449 735.516 -110.341 734.266C-99.1415 729.769 -81.0229 717.978 -69.4007 725.641C-67.5358 726.871 -66.8531 728.699 -65.4774 729.774C-60.856 733.389 -54.4717 735.929 -49.9675 739.514C-46.8238 742.014 -44.1437 746.371 -41.2955 748.467C-39.3338 749.906 -36.3786 750.578 -34.6513 752.43C-32.333 754.91 -32.4858 760.188 -28.537 760.895C-27.8645 761.015 -24.6443 761.07 -24.3029 760.851C-23.6762 760.457 -20.1452 748.412 -21.1999 746.754C-24.4099 742.273 -21.5311 736.233 -26.2646 732.782C-24.1246 731.701 -23.238 734.271 -21.6839 735.023C-22.0661 733.957 -23.08 731.069 -23.6609 730.347C-24.0634 729.849 -28.7867 729.58 -29.8312 729.54C-28.6899 727.329 -25.9334 729.929 -24.2265 729.296C-27.3753 725.148 -30.5242 723.844 -35.9455 724.561L-33.403 722.579C-34.8704 721.708 -37.9173 723.56 -38.2434 723.56C-38.6154 723.56 -39.1962 722.948 -38.4829 722.34C-37.6065 721.598 -35.8538 721.588 -35.4411 720.587L-39.0026 720.333L-35.9506 718.596C-36.8015 718.421 -40.2357 718.825 -40.5312 718.586C-41.6063 717.724 -38.4422 717.46 -39.5173 716.599C-39.7924 716.375 -42.7986 716.753 -43.5883 716.594L-43.0788 715.11C-45.5856 715.289 -47.8785 715.095 -45.6264 712.62L-49.7026 712.61L-47.155 710.628L-51.2311 710.619C-52.0565 710.026 -45.2239 707.327 -43.3539 710.658C-43.0329 711.226 -43.2317 712.232 -42.9871 712.521C-42.8801 712.645 -40.6942 713.173 -39.8535 713.696C-38.8345 714.328 -37.1887 716.619 -36.292 716.534C-35.599 716.469 -34.366 715.239 -33.3163 714.946C-26.2187 712.939 -17.4294 714.343 -10.2758 713.561C-1.35403 712.585 6.06969 709.309 15.7404 710.111C19.7656 710.444 28.8963 713.467 32.1165 709.677C33.9151 707.561 31.5509 706.172 33.0896 704.663C35.5455 707.457 37.013 704.972 38.9644 705.33C41.293 705.759 44.0189 709.822 47.1168 707.382C45.8939 706.142 46.8569 704.852 46.3474 703.687C45.0277 700.66 37.4002 695.461 34.073 694.734C31.6273 694.201 28.4173 694.719 26.4506 694.47C25.8595 694.396 25.3347 693.579 24.7131 693.43C20.5809 692.439 16.8563 692.05 12.6884 692.185C11.2923 692.23 9.77391 693.714 8.10269 693.639C7.16516 693.599 6.45694 692.817 5.5347 692.703C4.87741 692.623 -6.91293 693.096 -7.55493 693.27C-8.29373 693.469 -8.65039 694.575 -9.73058 694.714C-10.1076 694.764 -14.5303 695.028 -14.7952 695.013C-15.2436 694.983 -15.6716 694.112 -16.7263 694.251C-17.6944 694.381 -19.2332 696.119 -19.9057 696.074C-20.5324 696.029 -21.2254 694.231 -22.4329 694.206C-23.6405 694.182 -24.9958 695.875 -26.4939 695.7C-27.2632 695.611 -27.7575 694.784 -28.537 694.739C-29.9484 694.665 -31.1763 696.397 -30.8604 693.699C-33.0768 695.362 -34.9417 692.703 -35.1914 692.713C-35.4105 692.723 -36.506 695.192 -38.7224 694.64C-39.7465 694.381 -39.3185 692.444 -40.0013 691.911C-40.7809 691.304 -42.2891 692.503 -43.2775 692.18C-44.1998 691.881 -44.0265 690.372 -44.587 689.924C-44.8315 689.73 -46.8085 690.437 -47.8377 690.213C-48.2504 690.123 -48.0059 689.182 -48.9281 689.157C-49.7332 689.137 -51.4451 689.845 -51.6744 689.67C-51.8477 689.541 -52.0005 688.625 -52.4845 688.181C-53.045 687.669 -54.3138 688.107 -55.1494 687.569C-55.4704 687.365 -59.9287 683.476 -60.1172 683.207C-60.5503 682.59 -60.8611 681.519 -60.9121 680.752C-60.4841 680.379 -57.0958 681.419 -56.841 680.259C-57.6512 679.931 -62.298 677.207 -62.4865 676.943C-63.7399 675.21 -63.8979 672.252 -60.9171 672.536C-62.9043 669.997 -68.0148 670.629 -68.0148 667.054C-68.0148 666.063 -66.7054 664.977 -66.9958 663.663C-67.1333 663.026 -70.4147 662.055 -70.8528 661.333C-71.2299 660.705 -71.0464 659.674 -71.3776 658.858C-71.9687 657.404 -74.5214 657.02 -70.0936 656.109C-70.8681 653.077 -71.1942 655.178 -72.6208 654.63C-74.3481 653.968 -74.4246 651.279 -74.0577 649.731C-73.7775 648.555 -72.5954 648.082 -72.6362 646.897C-76.05 647.131 -73.7622 642.017 -74.9341 639.428C-75.4283 638.333 -78.2052 637.476 -78.6587 635.554C-78.7097 635.345 -78.618 631.675 -78.5517 631.451C-78.195 630.271 -76.6359 629.783 -76.7174 628.474C-77.2982 627.931 -78.7453 630.346 -79.2549 628.713C-79.7134 627.249 -78.2409 627.513 -78.2052 627.184C-78.0269 625.506 -80.9617 623.17 -81.3031 621.253C-81.5935 619.61 -78.9593 621.393 -79.2497 619.755C-80.2739 618.296 -80.014 616.463 -80.5592 615.049C-80.8853 614.193 -82.8113 612.465 -82.8113 612.286C-82.8113 611.917 -80.7732 610.911 -80.7885 609.806C-80.7987 609.039 -82.577 606.739 -82.7961 605.28C-83.3005 601.889 -82.1948 598.572 -83.4533 594.464C-83.7386 593.533 -85.4557 592.612 -85.4099 591.392C-85.3997 591.158 -84.5692 591.173 -84.4061 590.735C-83.1374 587.359 -86.1945 584.321 -86.3168 581.264C-86.3627 580.054 -85.3742 579.601 -85.3437 578.441C-85.2978 576.573 -86.9792 575.174 -85.7869 572.545C-85.3997 571.699 -84.4673 571.703 -84.1208 571.171C-83.3361 569.961 -84.0953 568.835 -81.4254 567.844C-80.6 567.541 -72.8043 565.365 -72.2438 565.32C-71.0363 565.225 -70.1497 565.808 -69.4007 565.748C-69.2682 565.738 -68.7179 564.608 -67.4135 564.13C-59.9083 561.391 -61.5642 564.483 -58.6345 569.697C-56.8104 567.825 -58.4663 562.118 -55.3277 566.221L-54.3087 564.727C-53.2386 569.044 -52.3368 565.798 -52.7699 563.239L-51.2464 564.727C-53.794 560.047 -53.8246 556.77 -52.617 551.681C-52.0922 549.471 -50.9305 548.246 -50.7267 545.816L-49.2083 547.802L-47.1601 542.823C-44.1335 543.072 -47.1601 546.742 -45.9066 548.823C-45.3309 549.64 -44.0673 548.485 -43.6036 548.793C-43.303 548.992 -43.5424 551.323 -42.5846 551.283C-41.8559 549.062 -42.4215 546.612 -42.5744 544.317C-40.4853 543.734 -42.4724 547.379 -40.7961 546.807C-40.4242 546.677 -40.307 544.406 -39.0128 544.312L-37.739 547.294C-37.6829 546.463 -35.9659 545.148 -35.9659 545.004C-35.9608 544.511 -36.4958 543.879 -36.348 543.191C-36.0219 541.658 -35.6092 539.616 -34.6768 538.337C-33.6832 539.88 -35.1557 541.991 -34.9417 543.455C-34.8653 543.973 -31.8438 545.034 -32.8884 546.797C-31.8438 546.752 -31.7725 544.282 -31.1101 544.317C-30.6974 544.337 -30.3968 546.578 -28.8376 545.791C-29.821 543.759 -24.7411 538.994 -24.7411 541.568V548.788L-22.4126 541.852L-20.4051 539.83L-19.651 541.319C-19.6051 539.845 -18.6268 538.591 -17.6282 537.57C-17.2613 537.196 -13.7864 534.273 -13.5418 534.164C-12.1355 533.521 -8.79306 534.343 -8.94083 531.365L-7.42244 532.361C-7.84534 530.394 -6.95877 530.384 -5.634 529.374L-4.87993 530.863L-4.86974 527.88L-3.35136 529.369C-4.12584 526.062 -1.83298 526.615 -0.941315 525.744C-0.594849 525.405 -0.691666 524.369 -0.0700378 523.822C0.648376 523.189 1.48911 523.906 1.67253 523.797C1.912 523.652 2.46738 522.054 4.02142 521.372C5.04047 520.924 6.1716 521.417 7.31293 520.615C8.11798 520.052 9.92677 517.498 10.5688 517.075C13.0145 515.441 18.7823 514.839 21.3706 512.444C21.8139 514.864 17.7938 514.993 17.0346 516.915C18.4715 517.348 19.0269 515.8 19.9083 515.571C20.479 515.426 21.2636 515.894 22.3948 515.481C25.2889 514.426 29.4211 507.868 32.0298 506.434C33.2884 505.741 34.394 506.19 35.3825 505.727C36.4168 505.243 37.8333 501.599 40.4726 502.485L40.972 503.476C41.5375 499.766 47.0862 499.691 50.2554 498.347C50.6732 498.168 55.7481 494.782 54.7341 496.744C54.2501 497.685 52.0286 497.954 51.6821 498.984C54.7086 499.756 56.7518 496.579 58.8358 495.753C59.595 495.454 60.2726 496.181 61.1235 495.564C62.5757 494.503 65.3984 490.151 66.7639 488.587C67.9562 487.223 69.8262 485.754 71.0388 484.3C71.2019 483.857 69.9026 484.221 70.0198 483.817C70.7433 481.243 73.7036 478.096 74.1367 475.118L75.1099 475.591C74.8042 473.709 76.4398 471.907 76.8321 470.622C77.0155 470.019 77.4639 465.787 77.6677 465.632C77.7136 465.598 78.6307 466.2 78.6766 466.135C78.111 462.446 80.4089 459.378 80.2102 455.669C81.6624 456.371 82.34 455.106 83.7718 455.181L84.2813 457.168L84.2915 454.683C84.9895 453.737 86.1614 460.419 85.8201 461.151C87.1703 460.797 86.6506 459.07 86.5487 458.228C86.457 457.466 85.8302 456.585 87.099 457.66C88.2301 460.374 85.7844 462.411 86.3296 465.139C87.741 464.497 87.7715 462.456 87.8581 461.161L88.867 462.152L89.6415 458.671C90.7267 460.558 89.5192 463.158 91.9292 464.642C91.6439 461.544 92.8668 458.781 93.1521 455.738C93.3049 454.125 92.4591 447.084 94.2323 446.223C96.0054 445.361 94.2476 449.908 94.4819 450.201C96.5404 448.21 97.2486 450.674 97.0295 452.691C98.7059 452.422 96.6576 448.698 98.2982 448.717C98.925 448.722 99.2001 450.585 99.0625 451.202C101.595 451.411 102.782 448.055 99.5721 448.205C100.189 447.069 101.223 445.989 102.629 446.223C102.802 446.377 101.574 450.276 103.134 450.699C103.714 449.365 102.604 444.858 103.913 444.231C105.59 443.429 104.739 447.249 104.728 447.498C104.718 447.746 106.44 447.577 105.426 449.215C105.289 449.439 102.115 452.557 101.656 452.97C100.907 453.652 99.7758 453.722 99.0167 454.399L97.0244 457.168C98.3084 458.148 106.69 451.516 108.494 450.704C109.447 450.346 109.375 451.292 109.227 451.919C108.942 453.149 107.515 454.892 106.705 455.928C107.215 456.52 109.426 454.728 110.012 454.18C111.403 452.875 112.218 450.625 114.093 449.703C114.878 451.242 111.434 453.622 111.291 453.936C111.215 454.1 113.156 454.07 111.291 456.67C113.951 457.402 115.566 454.912 117.915 455.684C118.251 455.285 117.115 453.224 118.934 453.692C119.01 456.311 116.086 458.313 118.934 459.662C119.229 458.427 119.082 456.306 120.462 455.684C120.488 457.003 120.034 459.154 119.194 460.165C118.399 461.121 116.987 461.051 116.87 461.47C116.631 462.361 116.396 465.374 117.395 465.891C116.799 467.156 115.826 465.951 115.469 466.185C114.751 466.668 112.784 471.443 110.776 472.858C106.833 475.646 103.669 472.414 100.448 473.126C100.27 473.166 98.0893 475.113 97.5391 475.352C101.615 476.383 105.676 475.716 109.757 475.103C109.895 476.831 107.546 476.727 106.705 477.842C108.321 478.903 109.564 477.259 110.782 476.841C111.245 476.682 111.897 476.941 112.31 476.751C116.091 475.024 123.357 466.569 124.304 462.645C125.415 458.064 122.241 452.706 124.814 448.732C126.093 446.756 127.372 447.846 128.579 447.448C128.834 447.363 132.986 444.853 133.124 444.629C133.735 443.648 131.346 440.984 134.724 441.233C134.953 440.397 134.031 440.94 133.802 440.676C133.43 440.253 137.042 431.857 137.531 430.289C138.342 427.714 139.442 423.94 140.013 421.356C140.431 419.454 139.142 415.993 142.367 416.834C142.54 415.819 140.935 416.775 140.808 416.068C140.441 414.066 141.032 410.899 140.833 408.628C140.634 406.358 139.727 404.157 139.819 401.901L138.785 407.1C136.971 409.784 140.232 412.582 137.531 415.331L136.263 412.358C134.642 415.032 137.766 415.724 137.827 416.162C137.863 416.416 137.348 418.254 137.266 418.328C136.456 419.09 135.147 415.928 134.454 415.829L134.724 412.358L132.691 412.851C135.147 410.705 134 407.777 134.214 404.889L132.696 405.387C132.523 404.416 132.462 403.191 132.136 402.285C131.916 401.672 131.769 401.757 131.366 400.378C131.004 399.133 129.384 394.626 129.608 393.775C129.746 393.247 130.943 393.441 131.183 392.196C131.483 390.628 129.904 387.521 131.127 386.679C133.134 385.3 134.332 388.442 134.734 389.946C135.509 390.09 135.34 389.184 135.259 388.686C134.918 386.505 132.049 382.701 130.653 380.988C132.604 380.764 135.539 383.861 137.058 383.99C138.311 384.095 138.668 382.99 139.564 382.96C139.778 382.955 139.906 384.852 140.843 383.965C140.991 383.826 139.335 382.92 142.362 382.477L142.372 384.473L143.381 383.965C142.749 385.26 143.574 386.052 143.646 386.968C143.661 387.192 143.32 388.487 142.876 387.7L142.367 386.699C142.066 387.058 139.356 390.847 141.083 390.429C148.603 388.611 151.818 376.437 155.686 371.338C156.323 370.496 157.413 370.287 157.887 369.505C158.422 368.629 158.61 366.612 159.186 365.547C160.052 365.407 159.736 366.747 159.65 367.24C159.436 368.455 158.733 369.336 158.677 370.521C160.164 369.655 160.755 367.623 160.715 366.045L161.224 370.521L162.743 369.645C165.474 360.642 167.456 352.919 166.248 343.443C165.443 337.129 162.916 331.224 160.944 325.199C160.781 324.701 161.183 324.053 161.076 323.804C161.01 323.65 158.794 321.554 158.641 321.474C158.04 321.175 156.965 321.35 156.71 321.141C155.905 320.478 157.117 315.837 154.595 315.489L156.119 314.747L153.576 314.737C153.041 312.755 155.996 314.622 155.614 313.004C155.431 312.217 153.724 313.378 153.576 313.248C152.649 312.412 154.85 312.063 155.049 311.451C155.186 311.027 153.856 304.061 153.546 303.807C153.296 303.603 151.946 303.762 151.482 304.016C151.054 304.25 151.559 305.724 150.764 306.77C150.101 307.636 147.819 309.285 146.947 310.261C146.779 308.224 147.228 304.056 149.133 302.946C149.78 302.567 151.762 303.12 151.564 301.098C151.518 300.625 150.147 300.596 149.999 300.033C149.785 299.231 151.441 298.096 151.487 297.08C151.533 296.064 150.514 294.087 149.74 293.331C149.001 295.512 152.124 299.709 148.471 295.82C149.424 297.907 148.374 298.688 146.942 300.302C147.401 298.947 147.172 296.836 147.549 295.676C147.788 294.949 148.787 294.541 148.899 294.008C149.108 293.047 147.447 291.727 147.452 291.588C147.487 290.99 149.077 291.209 148.97 290.348L147.559 290.094L147.951 289.357C146.657 289.462 145.694 288.132 145.908 289.84C145.072 290.074 145.638 289.103 145.174 288.944C144.655 288.765 139.442 287.813 139.009 287.828C138.627 287.843 132.176 289.387 131.626 289.571C130.21 290.059 129.537 291.882 127.575 291.334C127.061 289.511 128.493 289.925 129.14 289.118C129.501 288.665 129.16 287.794 129.557 287.584C130.714 286.977 132.538 288.087 132.161 286.359C128.07 286.105 124.055 285.075 119.933 285.359L122.475 284.363L120.952 283.377C123.407 283.128 125.018 284.995 127.575 284.368C127.637 282.869 127.473 280.021 128.064 278.711C128.37 278.024 129.435 278.537 129.613 278.392C130.938 277.307 125.756 276.675 125.537 276.396C125.828 275.758 126.251 274.822 126.791 274.394C127.84 273.562 129.914 273.991 129.608 272.422L121.971 273.413C123.464 272.138 123.489 268.961 125.537 269.435V268.698L114.307 258.226C114.19 256.359 114.42 257.13 115.851 257.484C116.188 256.354 114.476 255.866 114.358 255.179C114.175 254.108 120.559 248.441 121.456 247.032C120.636 246.3 116.677 252.007 113.915 250.408C112.723 249.721 113.146 246.37 108.591 247.137C105.9 247.59 106.109 249.512 105.916 249.522C104.081 249.617 102.787 245.304 100.571 247.022C102.313 244.423 97.5136 242.63 97.5238 241.794C97.5238 241.575 99.7504 240.435 98.9912 238.368C98.6447 237.432 97.1416 237.656 96.7238 237.088C95.5723 235.5 99.6077 227.169 96.2296 226.592C92.8515 226.014 93.0655 228.419 90.9 223.365C91.384 222.354 92.5305 223.236 92.9279 222.917C93.4374 222.509 93.361 221.498 93.9265 220.925C95.1086 219.73 98.2218 221.443 98.5275 221.134V219.143C98.6753 218.958 99.8064 219.845 100.056 219.641C101.065 218.799 99.0218 218.59 99.0268 218.396C99.0523 217.355 100.301 217.126 100.454 216.344C100.606 215.562 99.6689 213.77 100.056 212.664C99.3937 213.297 95.6487 214.198 97.0092 212.674C97.106 212.57 98.5173 212.401 98.5275 211.923C98.5275 211.758 97.3047 210.892 97.4677 208.92C97.5085 208.427 99.7351 206.336 99.5618 205.2C100.347 205.031 99.8115 205.808 100.454 206.156C100.836 206.366 101.6 206.385 102.094 206.689C102.588 205.37 101.182 205.883 101.07 205.375C100.922 204.702 101.136 203.911 101.07 203.209L100.061 204.2L101.08 195.237C105.666 196.337 103.577 198.428 103.169 201.516C103.098 202.043 102.736 203.328 103.623 203.199L104.142 200.216L105.666 200.714C106.017 200.345 104.693 197.975 104.677 197.442C104.672 197.228 105.686 197.258 105.702 196.954C105.732 196.302 104.637 195.122 105.37 194.206C105.773 193.703 108 193.618 108.723 192.747L109.233 194.236L110.257 192.747C110.42 193.912 108.845 196.467 110.257 197.223C110.119 196.437 111.133 192.11 111.373 191.841C111.551 191.637 113.757 191.353 114.333 190.755C114.781 192.413 115.24 194.704 114.741 196.377C114.129 198.418 110.547 198.702 109.752 200.709C111.765 200.296 113.304 198.921 114.842 197.726L115.403 200.321L117.39 203.204C117.548 202.098 117.1 200.525 117.466 199.529C117.67 198.976 120.508 197.826 117.905 196.486L118.924 195.486L117.91 194.749C119.24 193.982 120.264 196.954 121.41 196.198C121.543 196.108 122.215 194.271 122.776 193.733C123.061 193.459 124.427 193.583 125.033 192.259L126.561 195.74C127.484 191.97 128.6 188.221 128.61 184.292L129.619 190.76C130.22 189.436 129.94 187.618 130.469 186.393C130.755 185.736 131.652 185.666 132.069 184.954C133.124 183.147 133.899 178.282 134.204 176.066C134.311 175.309 134.062 173.034 134.214 172.839C135.126 171.694 135.111 174.134 135.733 173.83L136.757 172.341L137.771 175.329C136.63 170.584 139.575 171.251 141.643 168.677C142.372 167.77 142.571 166.56 143.371 165.614C144.476 164.305 146.642 163.443 147.712 161.89C148.603 164.145 146.555 169.782 150.29 169.832C153.235 169.872 154.442 165.953 155.895 163.911C157.072 162.263 159.227 158.743 160.18 157.647C162.457 155.028 166.33 153.33 168.561 150.402C169.606 149.033 171.308 144.068 171.659 143.969C172.306 143.79 173.234 144.113 173.412 144.766C173.809 146.234 170.905 148.898 171.404 149.436C172.357 150.462 172.429 147.564 174.202 147.942C174.834 148.077 174.085 149.297 174.711 149.436C177.014 148.186 175.048 145.224 177.33 145.134C179.898 145.039 188.529 146.862 191.383 147.594C199.153 149.586 210.047 154.132 217.914 157.02C219.799 157.712 225.669 161.7 227.233 159.43C227.386 159.211 227.992 154.834 227.997 154.172C228.155 141.28 222.02 128.538 212.66 119.839C210.75 118.066 206.73 115.382 205.201 113.475C204.9 113.097 205.135 110.238 203.509 111.598C202.923 110.428 203.576 108.202 203.112 107.271C202.312 105.662 200.712 105.393 200.208 104.592C199.163 102.939 198.679 100.877 198.037 99.2887C197.67 98.3875 196.503 97.6455 195.861 96.9036C196.87 96.0671 198.679 97.1675 199.606 97.0181C200.167 96.9235 206.281 93.6769 206.786 93.1491C208.452 91.4063 207.861 88.6478 208.564 86.422C209.741 82.7024 212.915 78.0118 212.905 73.5054C212.905 71.444 211.871 68.7153 211.657 66.5293C211.325 63.1134 211.193 52.0642 209.445 50.0127C209.262 49.7986 207.417 48.5089 207.198 48.4491C202.399 47.0848 196.213 59.0154 188.973 53.324C187.057 51.8202 184.367 46.9603 183.083 46.1536C182.787 45.9694 179.068 44.3561 178.838 44.371C175.18 44.5652 173.707 50.3911 170.044 51.1579C165.983 52.0094 163.955 48.4242 161.54 46.0192C156.863 41.3684 152.644 35.682 145.76 32.8388C139.473 30.2445 137.48 33.9691 136.237 39.3966C135.239 39.5609 135.962 38.1368 135.733 37.9028C135.585 37.7534 133.165 38.8837 131.774 37.3053C131.687 37.2057 132.11 36.7177 131.998 36.5484C131.916 36.4289 131.483 36.399 131.208 35.9957C130.994 35.682 131.229 35.0098 131.147 34.9251C130.714 34.4819 128.921 36.2447 128.864 34.4222C127.239 38.3609 127.591 35.2239 126.495 34.462C126.159 34.228 123.153 36.0305 122.236 32.9284C121.436 35.3235 121.553 32.6695 120.682 32.4753C120.106 32.3508 118.353 33.272 117.395 32.9284C116.916 34.9301 119.301 33.2769 119.423 33.4213C119.479 33.4861 119.367 34.3326 119.744 34.8604C121.273 37.0065 122.373 35.7865 122.485 35.911C123.52 37.0513 121.217 37.7136 120.926 38.097C119.627 39.8099 120.641 41.7967 122.236 42.8772C122.796 40.7261 123.591 42.9419 124.437 43.3204C126.215 44.1171 127.473 44.4208 126.816 42.3842C128.691 46.2482 131.346 42.4689 134.714 43.3851L131.152 43.883C131.224 45.2175 133.593 45.2673 133.7 45.3769C133.99 45.6706 133.277 46.8358 132.936 46.8557C132.645 46.8757 131.483 45.5362 130.643 45.8748L133.185 48.3595C131.183 48.6483 129.583 45.7802 129.369 48.8574C128.467 48.2948 127.081 46.1985 126.307 45.8748C126.174 45.82 125.328 47.5678 124.019 47.3636C124.314 46.7064 124.355 44.2067 124.009 43.8781C123.086 43.0067 122.939 44.8291 122.781 44.8241C121.741 44.7893 119.326 44.2366 118.654 43.3851L118.414 44.869L116.881 45.1179C117.354 46.1785 120.238 46.1785 120.447 46.3727C122.664 48.4093 115.235 46.2134 114.909 45.8051C114.649 45.4864 115.026 43.156 113.823 42.3892C114.399 41.961 118.042 44.1918 116.672 41.5178C116.585 41.3485 115.464 41.5776 116.371 40.3975C114.639 40.5568 112.779 39.2771 112.04 41.3884C111.148 40.99 111.795 40.0389 111.709 39.9493C111.587 39.8248 107.276 39.5759 110.919 38.9036C112.672 38.58 108.779 36.3841 108.219 36.9069C109.788 40.7659 106.726 38.1119 106.695 37.1509C106.644 35.448 111.581 37.0762 111.775 36.9019C112.871 35.9061 110.231 36.0953 110.761 35.1641C111.821 34.8355 112.611 33.2172 113.171 32.8786C113.89 32.4454 114.791 32.9931 114.827 32.9234C115.484 31.7084 113.385 30.1897 116.865 30.1847L113.813 29.4328C113.579 28.5963 114.776 29.1789 114.858 28.6859C115.143 26.9332 113.156 26.7041 112.285 25.6983C110.894 24.0949 110.089 21.9239 108.703 20.2359C106.609 17.6815 103.674 15.5204 100.831 13.942L98.5275 14.9926C98.2575 14.41 99.144 13.1054 99.037 13.0058C98.823 12.8116 94.9456 12.0349 94.2017 12L94.9558 13.9918L91.8936 13.4938L92.4082 12.5079C89.3561 11.9353 87.5066 16.2922 87.3028 18.7321C87.1244 20.8384 88.2709 23.4327 87.7308 25.1107C87.4403 26.017 86.2379 26.2162 85.601 27.0676C80.8624 33.4064 90.2376 38.7443 93.4323 43.1212C93.6157 43.3751 96.199 47.6973 95.9799 47.8516C95.7914 47.9861 94.8539 47.6873 94.4972 47.8964C94.4259 47.9412 95.0628 49.0616 94.1864 49.3504L89.3561 48.3595L91.8986 49.3554C90.5688 51.2924 88.2199 49.1761 87.048 48.8475C86.778 48.7728 86.8646 49.7986 86.4875 49.8782C85.8863 49.9977 79.8994 49.0965 79.6752 49.3504C80.1491 52.2534 77.8817 49.3803 76.6181 51.5961L77.632 52.3331L73.561 51.8451L75.0895 53.085C73.7087 54.3248 72.7152 54.9323 70.7892 54.8477C68.9906 54.763 66.0048 52.6916 65.9232 55.3257L71.5229 55.8336C71.5891 56.5357 69.5918 56.7647 69.1536 56.7896C66.657 56.934 64.2214 56.4261 61.847 55.8336C61.8012 56.7199 64.1858 56.5954 63.1209 57.8154C60.8586 56.5357 58.2294 56.3465 55.7277 55.8336C56.4206 57.2527 58.2906 56.1722 57.7709 58.3183C57.9645 57.2776 62.1783 58.149 62.3515 58.3183C62.7897 58.7565 61.6025 60.0661 60.9656 60.2354C59.8395 60.5291 58.8714 59.6876 57.7709 59.8121L60.3134 60.808L58.7899 61.3059C58.5555 62.1474 59.7988 61.535 59.8395 62.0777C59.8803 62.6802 59.2536 64.6222 58.2855 64.2985C57.8881 64.6919 59.5797 65.1899 60.13 65.7625C62.1273 67.8489 59.651 67.7044 58.9173 68.1028C57.4142 68.9294 55.9162 70.5128 54.8768 71.6929C53.2106 73.5851 53.3686 72.7784 51.5089 73.2614C51.0707 73.376 51.1675 74.1428 50.7904 74.2324C49.4708 74.5461 47.4887 74.0382 46.0468 74.2474L48.0798 75.7312C46.4034 75.5022 46.434 77.3445 44.508 76.7371L45.0226 77.723C41.1095 78.0267 37.0741 77.7777 33.2985 76.7371L33.5584 77.7329C32.0451 78.1811 29.7676 76.6225 29.2275 78.2259L30.756 79.2218C29.9153 79.5255 28.9676 78.7935 28.4275 78.7736C28.1931 78.7637 28.3256 80.1828 26.9295 79.7346C26.4557 79.5803 27.011 78.4749 26.1754 78.7288C26.3894 80.5363 25.0494 79.3263 23.9386 79.3861C21.9005 79.5006 22.8635 81.1289 22.1247 82.3638C21.605 83.2252 19.1185 83.4543 19.037 85.1921C21.0904 85.7498 21.0242 84.3904 21.8598 83.8277C22.0993 83.6684 23.9896 83.6883 23.1081 84.6891C22.7362 85.1124 19.6179 85.8593 19.144 86.3074C17.8906 87.4975 16.1073 91.1673 14.8691 92.8305C12.5763 95.9177 9.10135 97.6256 6.85945 100.444C5.10161 102.66 5.38695 102.232 3.47624 104.109C3.02277 104.552 0.00639343 107.883 -0.100616 108.127C-0.564285 109.158 0.378342 110.408 0.179626 110.592C0.0930176 110.672 -0.946411 110.428 -1.58841 111.1C-2.07755 111.613 -3.02527 113.779 -3.91693 114.814C-6.83139 118.195 -9.14972 119.565 -10.2452 124.061C-10.3012 124.28 -11.9062 127.353 -10.0057 125.799C-8.23257 124.35 -5.17546 118.041 -3.20871 115.761C-2.86732 115.362 0.459869 111.981 0.704453 111.852C1.19868 111.588 2.49794 112.026 3.22656 111.1V113.585C4.04179 109.905 6.24803 107.022 9.09117 104.627C8.47464 109.163 10.635 104.821 10.8694 105.125L11.3789 106.613L11.6439 105.115C13.2183 106.036 14.9048 106.011 16.7289 106.115L16.4741 107.106C17.3862 107.395 17.6664 106.374 18.3288 106.245C19.2052 106.071 21.3553 107.047 22.5884 106.618L18.874 107.709C18.0791 107.828 17.2894 108.864 16.6627 108.964C16.413 109.004 12.1126 108.351 14.5634 110.482C16.2296 111.931 20.8662 111.339 22.8584 110.607L23.103 111.593L16.4792 112.599L19.5313 113.585C15.1647 114.023 12.2502 117.787 7.81737 118.096C7.87341 119.719 8.35745 119.256 8.8313 120.058C7.10912 120.192 5.7538 121.537 4.25072 122.308L5.78438 122.557C4.97424 125.973 1.68272 127.96 -1.35403 129.534C-1.74127 131.5 0.363068 129.698 1.80501 129.379C2.53363 129.22 2.81895 128.513 2.71196 129.768L0.169434 132.267L1.18338 132.76C-0.574463 134.737 -2.26099 139.134 -2.86731 141.753C-3.1985 143.182 -1.31837 141.255 -1.87885 142.709C-2.47499 144.263 -3.88127 146.976 -4.28889 148.321C-4.84427 150.143 -5.36908 152.508 -5.43532 154.416L-3.41251 149.675C-2.5616 148.6 -0.115891 147.474 1.18338 146.946C0.867477 147.101 -1.39989 145.891 -2.37817 146.946C-1.65465 145.363 -1.55783 142.311 -1.01775 140.971C-0.875076 140.618 3.87366 135.464 4.22012 135.29C4.5666 135.115 5.25957 135.399 5.75381 135.23C6.21747 135.076 10.4159 133.323 9.09117 135.001C8.43388 135.832 6.1716 135.549 5.76909 136.983C8.92812 136.156 8.32178 136.47 8.8313 139.477C9.12683 139.771 10.7114 137.63 11.1241 137.491C12.1279 137.147 11.7713 138.292 11.9292 138.412C13.0094 139.253 13.1724 136.853 14.1762 136.495C14.6042 136.34 14.273 137.152 14.594 137.331C15.1188 137.62 15.8984 137.446 15.9544 137.496C17.3964 138.75 12.6986 139.642 12.4285 139.771C10.6044 140.653 2.92087 144.148 2.04449 144.93C1.45854 145.458 1.37701 146.857 1.1783 146.951L1.2802 146.907ZM-238.19 144.945C-234.842 143.675 -234.628 147.111 -234.588 149.655C-234.572 150.596 -235.158 151.523 -235.148 152.1C-235.143 152.429 -234.221 152.369 -233.956 152.986C-232.932 155.367 -234.338 156.646 -234.634 158.862C-242.883 157.209 -237.461 150.118 -238.19 144.95V144.945ZM9.11664 159.549C9.52936 159.221 11.6337 157.358 11.4655 159.101C9.88602 159.4 9.15739 161.994 8.78545 162.248C8.39311 162.517 7.51674 162.248 7.38936 162.348C7.2314 162.472 8.76508 165.365 8.3167 166.207C6.96138 167.023 -1.64955 176.136 -2.27628 175.782C-2.3476 175.742 -2.51065 174.438 -3.3055 174.547C-0.396133 172.451 0.143967 168.706 2.17186 165.958C3.47624 164.19 7.27217 161.013 9.11664 159.554V159.549ZM105.727 191.726C105.416 191.487 104.683 192.712 104.463 192.707C103.083 192.707 103.73 184.66 104.214 183.256L105.218 188.49L105.987 188.236C104.392 187.205 106.802 186.672 106.766 185.248C110.557 186.174 110.415 193.554 106.043 192.752C105.6 192.672 105.773 191.756 105.732 191.721L105.727 191.726ZM-234.012 197.313C-231.383 195.889 -232.565 198.807 -232.025 199.14C-231.439 199.504 -228.402 199.046 -228.01 200.679C-229.788 201.013 -235.974 203.682 -237.181 202.945C-240.085 201.167 -236.483 200.191 -235.622 199.474C-234.944 198.911 -234.134 197.378 -234.017 197.313H-234.012ZM-35.8079 220.188C-35.5786 220.059 -31.7216 220.646 -31.319 220.846C-30.8553 221.075 -29.5306 223.46 -29.4032 223.983C-28.6797 227.025 -31.2834 227.423 -31.6757 228.892C-31.8285 229.46 -31.2731 230.73 -31.854 231.536C-37.1072 231.337 -34.5239 230.7 -34.957 228.917C-35.2474 227.722 -37.79 227.349 -36.4193 225.083L-37.4231 225.581C-37.5862 224.57 -38.2689 223.48 -37.8868 222.429C-37.8358 222.285 -35.9404 220.263 -35.8028 220.188H-35.8079ZM-97.6333 230.491C-97.4295 230.301 -97.6129 229.256 -97.0728 228.783C-96.9149 228.643 -93.3329 228.559 -92.8438 228.658C-90.6325 229.121 -89.8274 231.805 -87.9014 232.791C-87.7995 234.564 -91.6362 234.305 -92.9712 233.782C-93.4196 233.608 -93.7864 232.731 -94.2399 232.667C-95.1264 232.537 -95.5137 233.922 -95.8907 234.026C-96.5429 234.2 -97.4244 233.917 -98.1887 234.175C-99.5949 234.644 -100.833 235.933 -102.657 235.535C-102.28 233.588 -102.132 231.965 -104.69 232.547L-103.167 231.561L-105.2 230.565C-104.191 230.984 -97.9034 230.745 -97.6231 230.491H-97.6333ZM-219.236 249.587C-218.976 249.134 -214.212 246.958 -213.229 247.49C-212.113 251.922 -216.27 253.321 -219.852 253.466C-219.302 252.475 -219.603 250.234 -219.236 249.587ZM-68.988 258.983C-67.4186 257.823 -65.5895 260.367 -64.6265 260.86C-63.0062 261.697 -57.7021 262.862 -60.6165 265.421C-61.498 266.198 -66.364 265.959 -68.0097 266.905C-68.509 265.536 -66.9805 264.131 -67.0009 263.16C-67.0212 261.906 -70.649 260.213 -68.988 258.978V258.983ZM-41.8457 272.074C-40.9439 271.591 -38.0243 270.898 -37.469 271.421C-37.3416 271.541 -36.8779 274.439 -37.153 274.872C-37.6728 275.699 -41.968 275.888 -42.5285 275.644C-44.5106 274.772 -43.0125 272.701 -41.8457 272.074ZM80.3733 294.187C80.2102 294.008 79.7364 291.518 79.823 291.15C80.3835 288.799 84.5361 289.551 86.0952 289.292C87.4913 289.063 87.8785 288.117 90.2172 288.272C91.6388 288.366 92.2247 289.078 92.826 289.163C93.6871 289.282 97.2435 288.008 97.5798 289.571C97.9518 291.314 95.3226 290.358 95.0271 290.547C94.5329 290.866 95.7201 292.21 93.096 292.205C90.8592 292.205 90.6248 289.75 88.4084 293.55L89.9319 294.292C88.5103 293.789 84.0215 297.598 82.8343 296.761C82.6865 296.657 82.605 295.307 82.0394 294.785C81.5452 294.326 80.5924 294.426 80.3733 294.187ZM-296.275 310.729C-297.157 309.788 -292.092 303.947 -289.157 306.511C-288.429 307.148 -288.434 308.224 -287.98 308.602C-287.654 308.876 -286.814 308.822 -286.335 309.205C-284.592 310.594 -285.29 312.437 -286.849 313.706L-287.109 310.231C-288.689 309.19 -292.546 313.871 -293.218 313.213C-292.948 311.48 -290.834 310.539 -290.289 308.861C-289.601 306.76 -290.956 306.795 -292.485 307.711C-293.05 308.05 -295.613 311.431 -296.275 310.719V310.729ZM98.4358 311.067C98.7619 310.639 98.6804 309.743 99.0727 309.454C99.3784 309.225 100.245 309.783 100.785 309.643C101.524 309.454 103.342 306.815 104.148 309.056C105.156 311.879 99.9338 311.824 98.0995 312.227C99.7147 314 100.076 314.423 98.7211 316.569C98.5428 316.848 98.6906 317.56 97.8499 317.197C97.3709 316.993 95.3736 314.443 95.0424 313.721L97.59 313.711C96.2856 311.52 97.8295 311.884 98.4409 311.067H98.4358ZM149.098 309.295C149.133 309.23 150.132 309.718 150.565 309.235C151.059 310.046 149.159 316.311 151.584 317.207L151.594 314.717C152.761 316.151 155.191 318.501 152.099 317.212L151.844 320.184C149.357 319.079 149.816 316.604 149.546 314.219L148.022 315.21C148.394 313.756 147.095 312.671 147.477 310.997C147.594 310.495 148.664 310.928 148.945 310.644C149.225 310.36 148.935 309.578 149.092 309.295H149.098ZM109.304 322.186C111.612 322.141 114.45 323.237 116.661 323.197C118.873 323.157 120.722 321.429 122.827 321.629C123.779 321.718 123.499 322.639 123.881 322.664C126.658 322.863 129.201 323.431 131.983 323.665C133.231 323.77 137.863 323.227 138.275 323.73C138.336 323.799 137.924 324.432 138.112 324.681C138.515 325.209 139.524 324.885 139.366 325.657C135.942 326.478 132.737 325.458 129.18 326.165C128.757 327.853 132.141 327.076 133.45 327.22C134.041 327.285 136.589 327.385 136.309 328.395L127.28 331.518C122.765 332.274 123.571 330.278 121.69 329.745C120.488 329.401 117.354 330.158 116.952 328.893C116.468 327.36 118.338 327.265 118.74 326.668C120.254 324.422 117.95 325.642 117.278 325.532C116.677 325.433 116.116 324.566 115.444 324.392C113.737 323.954 112.249 324.019 110.43 323.297C109.666 322.993 109.049 323.595 109.309 322.181L109.304 322.186ZM147.003 340.112C148.022 339.32 148.231 342.193 149.21 342.218C150.845 344.479 149.959 347.511 149.551 350.066C148.935 349.095 147.584 349.657 147.523 349.568C146.779 348.472 148.608 348.567 148.542 348.333C148.028 346.466 145.337 344.404 144.965 341.845C144.782 340.585 145.933 341.188 146.759 341.103C148.272 340.939 146.718 340.336 147.003 340.112ZM-287.471 341.765C-285.305 340.978 -280.093 342.009 -279.991 344.803C-280.282 345.714 -284.776 346.605 -285.84 346.625C-287.221 346.65 -293.009 346.028 -293.927 345.525C-294.772 345.062 -295.837 343.971 -295.007 343.095C-292.383 343.498 -290.533 343.304 -288.016 342.557C-287.629 342.442 -287.598 341.81 -287.476 341.765H-287.471ZM-281.504 351.062C-282.366 350.28 -278.784 347.382 -278.091 347.178C-277.785 347.088 -272.022 346.63 -271.681 346.68C-269.841 346.924 -268.975 348.94 -270.509 350.111C-271.283 350.703 -273.041 350.648 -274.147 351.032C-275.324 351.445 -277.403 353.019 -278.457 352.316C-278.789 352.092 -278.768 351.181 -279.313 351.047C-279.91 350.897 -281.346 351.206 -281.504 351.057V351.062ZM133.756 349.573C134.474 348.945 138.917 353.92 139.722 354.443C140.609 355.015 142.443 355.239 143.432 356.046L143.941 354.552L144.461 357.535L145.47 355.05L145.984 358.033H143.192L143.442 359.029C142.071 359.94 140.91 356.071 139.87 358.526C141.348 358.675 142.795 360.373 143.987 360.771C144.736 361.02 145.419 360.473 145.47 360.522C146.341 361.389 145.291 368.604 145.47 369.988C143.799 371.602 139.172 365.592 138.092 364.496C137.689 364.088 136.013 363.963 136.813 363.017C136.961 362.838 138.031 363.426 137.822 362.524C133.542 360.946 132.421 358.645 131.203 354.557L139.865 358.033C138.556 356.141 133.022 355.17 136.298 352.814L133.751 349.578L133.756 349.573ZM-263.253 363.421C-262.943 363.092 -263.916 362.355 -263.213 361.259C-262.673 360.413 -260.023 358.227 -259.085 359.029C-258.856 360.298 -260.629 360.607 -260.619 361.757C-260.619 362.375 -257.608 366.154 -259.656 367.429C-260.084 367.698 -263.529 367.13 -263.656 366.976C-263.982 366.592 -262.78 364.322 -264.165 363.52C-263.9 363.495 -263.391 363.56 -263.248 363.416L-263.253 363.421ZM138.729 370.397C139.126 369.764 138.525 368.793 139.106 368.495C139.549 369.56 141.771 370.914 142.122 371.477C142.301 371.766 141.867 372.443 141.908 372.473C142.137 372.622 142.892 372.035 143.457 372.244C145.312 372.926 146.983 375.974 144.945 377.681C141.134 380.878 137.231 375.207 136.813 371.975C139.294 371.537 138.77 374.878 140.879 375.456C141.2 374.5 139.671 373.967 139.86 373.225C140.023 372.583 141.531 372.792 141.394 371.975C139.539 372.423 139.192 371.602 137.837 370.964C137.608 370.153 138.556 370.666 138.729 370.392V370.397ZM-258.52 386.968C-258.433 386.834 -256.283 386.161 -255.549 385.634C-254.586 384.931 -250.373 379.872 -249.44 382.741C-248.508 385.609 -252.023 385.365 -253.139 385.962C-254.255 386.56 -255.03 388.093 -256.186 388.552C-257.628 389.124 -259.381 388.288 -258.52 386.973V386.968ZM-262.739 392.794C-262.515 392.664 -262.275 391.469 -261.648 391.126C-260.869 390.698 -260.099 391.345 -260.11 391.644C-260.135 392.246 -263.906 394.9 -264.512 395.548C-264.945 396.006 -268.226 401.363 -269.271 400.358C-269.648 399.476 -268.247 398.849 -268.262 398.615C-268.287 398.221 -271.248 398.047 -269.485 393.924C-267.161 388.492 -264.583 393.855 -262.739 392.794ZM105.737 397.873C106.639 397.509 107.271 398.869 107.521 398.854C108.03 398.829 108.611 395.488 111.189 397.529C113.166 399.093 110.868 401.772 111.846 403.843C110.496 402.912 109.584 401.856 109.808 404.346C107.057 403.634 107.735 401.717 106.991 399.88C106.71 399.187 105.457 398.939 105.737 397.873ZM-230.547 400.861L-218.359 403.634C-217.666 404.037 -216.423 405.422 -216.372 406.164C-216.362 406.328 -217.218 409.171 -217.335 409.286C-217.565 409.5 -219.012 409.096 -219.847 409.57C-220.566 409.978 -221.264 412.258 -222.757 412.702C-225.849 413.618 -229.859 414.335 -232.973 415.186C-234.776 415.679 -235.795 413.996 -235.133 413.314C-235.046 413.224 -234.022 413.404 -233.609 413.08C-232.947 412.567 -233.237 411.487 -232.799 410.839C-230.838 407.936 -231.729 408.389 -230.588 405.551C-230.247 404.695 -229.126 403.893 -229.054 403.53C-228.866 402.554 -230.868 402.061 -230.542 400.866L-230.547 400.861ZM-220.871 416.8C-220.922 416.73 -222.369 416.526 -222.39 416.043C-222.4 415.794 -218.415 413.344 -218.161 413.374C-217.193 413.488 -216.286 414.967 -214.757 413.802C-213.794 414.808 -218.543 418.508 -218.706 418.881C-218.798 419.085 -218.263 419.742 -218.314 419.772C-221.814 419.887 -224.993 422.013 -227.816 423.686C-230.252 425.125 -230.374 422.501 -229.309 421.739C-228.611 421.236 -227.633 421.361 -226.991 420.997C-226.242 420.574 -226.196 419.698 -225.584 419.259C-225.065 418.886 -220.326 417.552 -220.861 416.8H-220.871ZM59.9924 481.641C60.6395 481.034 62.5502 481.138 63.4368 480.531C64.1144 482.468 62.3413 483.165 61.9693 483.932C61.0013 485.923 61.1592 487.98 58.6065 488.508L57.8422 487.507C57.9747 489.225 56.8741 489.802 55.2946 490.002C55.1417 490.749 57.3174 490.395 55.7888 491.232C55.2029 491.55 52.0846 492.755 51.7229 492.481C53.0935 490.858 51.7025 486.546 54.7749 488.005C53.766 485.635 54.6985 487.004 55.6156 486.362C55.8653 486.187 58.9377 483.688 59.0956 483.523C59.6154 482.996 59.6001 482.015 59.9873 481.651L59.9924 481.641ZM-141.977 526.232C-141.564 525.983 -140.413 522.955 -138.838 523.354C-139.241 524.753 -139.944 525.221 -139.343 526.839L-138.334 526.336V529.324L-135.786 528.831C-136.219 532.78 -135.246 536.424 -134.757 540.284C-132.311 538.277 -134.227 540.338 -132.215 540.284C-132.678 539.372 -133.03 538.068 -131.445 538.785C-131.216 538.889 -130.548 541.484 -129.407 541.782C-128.898 541.374 -129.468 540.523 -128.398 540.791C-124.944 542.833 -124.811 546.244 -123.053 549.032C-122.416 550.038 -119.13 552.249 -118.809 552.871C-115.716 558.837 -116.068 567.76 -112.96 575.005C-105.755 591.8 -101.567 609.895 -98.9784 628.065C-98.688 630.107 -97.5518 632.696 -97.6893 635.026C-97.8167 637.148 -99.6816 639.274 -99.6408 641.096C-99.5848 643.596 -96.5633 646.519 -96.2015 649.178C-96.0894 650.009 -96.7162 651.055 -96.599 652.081C-96.3391 654.312 -95.4118 658.026 -95.4933 660.043C-95.6054 662.707 -100.645 673.323 -102.443 675.703C-104.42 678.317 -107.482 680.419 -110.463 681.808C-111.492 682.286 -117.138 684.452 -117.917 684.482C-118.396 684.502 -121.489 682.047 -122.59 681.519C-126.467 679.657 -129.692 679.268 -133.381 678.123C-134.115 677.894 -134.497 676.963 -135.119 676.794C-136.688 676.37 -138.619 678.97 -138.833 678.721C-137.87 676.465 -138.823 677.491 -140.484 676.689C-145.274 674.374 -149.136 674.802 -154.358 674.249C-156.116 674.065 -158.384 673.124 -160.004 673.188C-160.651 673.213 -161.415 675.081 -163.295 674.234C-162.47 672.905 -163.734 670.674 -164.819 671.749C-165.125 672.053 -163.805 673.686 -166.617 673.273C-167.988 673.074 -167.448 671.57 -168.645 670.754C-168.752 672.143 -169.664 671.232 -169.838 671.361C-170.108 671.56 -169.562 672.452 -170.418 672.242C-170.21 670.5 -170.408 669.334 -172.166 670.803C-172.492 671.077 -172.217 671.939 -172.966 671.744C-173.104 671.107 -172.783 668.981 -172.976 668.762C-173.812 667.801 -174.016 669.693 -174.321 669.763C-179.106 670.848 -176.079 665.515 -180.609 667.268C-180.38 663.045 -180.532 664.863 -182.805 664.295C-183.518 664.116 -183.299 661.975 -185.709 663.284C-185.251 661.293 -186.596 662.094 -187.273 661.462C-187.544 661.208 -189.943 657.737 -190.05 657.319C-190.315 656.298 -190.392 655.357 -190.295 654.312C-186.244 655.437 -190.397 652.146 -190.779 650.054C-190.937 649.188 -190.764 648.222 -190.804 647.345C-187.829 649.053 -190.015 644.786 -190.779 644.074C-192.038 642.914 -193.627 644.079 -192.832 640.718C-192.736 640.305 -192.022 640.32 -191.839 640.016C-190.31 637.556 -192.848 637.436 -193.276 636.012C-193.52 635.191 -192.929 634.14 -193.255 633.099C-193.53 632.223 -194.672 632.552 -194.371 631.66C-193.846 630.097 -192.496 632.138 -192.343 631.899C-191.92 629.937 -194.916 629.37 -195.385 628.15C-195.798 627.074 -193.067 626.845 -192.827 626.153C-192.139 624.146 -194.631 626.034 -194.371 623.937L-191.829 623.927C-194.753 621.612 -193.352 622.498 -193.031 620.601C-192.939 620.068 -193.255 619.481 -193.128 618.938C-192.929 618.082 -191.987 616.677 -192.012 616.219C-192.048 615.602 -194.101 613.754 -194.269 612.126C-194.448 610.418 -192.853 607.61 -192.904 607.321C-192.985 606.858 -196.083 604.692 -193.108 603.522C-192.766 603.387 -192.618 605.494 -191.324 605.011C-191.151 604.831 -192.506 602.252 -192.69 601.679C-192.822 601.256 -192.333 600.674 -192.358 600.335C-192.379 600.026 -193.918 600.201 -193.357 598.298C-192.893 596.74 -190.855 599.484 -190.83 597.8C-190.825 597.352 -192.685 595.565 -192.364 593.887C-192.308 593.588 -190.764 593.648 -191.319 591.875C-191.457 591.437 -192.843 591.805 -192.343 590.585C-188.598 589.853 -191.441 586.985 -191.355 584.824C-191.304 583.53 -190.122 582.967 -190.295 581.413C-190.417 580.323 -191.589 579.392 -191.319 578.127L-189.291 580.114L-189.796 572.904C-186.372 569.861 -189.047 565.803 -188.797 562.472C-188.771 562.168 -187.758 562.208 -187.732 561.909C-187.661 561.097 -188.863 559.265 -188.777 558.209L-186.744 560.196C-187.279 557.462 -187.493 555.834 -185.725 553.469L-184.96 554.719L-180.879 550.242C-180.39 550.163 -180.767 551.009 -180.573 551.159C-179.534 551.945 -172.574 545.323 -171.463 544.013C-171.346 542.843 -171.626 543.361 -172.38 543.625C-175.182 544.611 -175.728 547.673 -178.077 548.749L-177.068 546.259C-177.669 546.538 -179.87 548.968 -179.61 547.016C-179.447 545.791 -177.807 539.447 -176.039 541.035C-175.605 541.737 -177.547 544.287 -175.794 544.272C-175.111 544.267 -175.203 541.573 -174.958 541.344C-174.739 541.14 -173.083 541.304 -172.482 540.781L-173.246 543.266C-170.79 539.497 -168.686 541.618 -165.349 540.781C-165.593 542.664 -165.853 544.621 -166.872 546.254C-164.666 546.777 -164.289 544.74 -163.734 544.372C-163.652 544.317 -161.894 544.247 -161.813 544.302C-161.288 544.67 -161.752 547.17 -160.763 547.25C-157.956 544.008 -156.473 539.736 -153.864 536.315C-152.789 534.906 -153.462 537.062 -152.611 536.793C-153.09 535.882 -151.75 533.113 -151.082 532.551C-150.537 532.092 -150.257 533.203 -149.803 533.198C-149.166 533.193 -147.312 529.433 -146.736 528.811C-146.364 528.413 -144.891 528.672 -144.453 527.576L-145.467 526.839C-144.688 526.227 -142.14 526.321 -141.987 526.232H-141.977ZM-69.0237 670.256C-68.6109 669.837 -64.2953 671.012 -63.9896 672.063C-63.8571 672.516 -64.9118 675.862 -65.2124 676.251C-65.722 676.898 -66.4455 676.062 -66.8684 676.335C-67.0416 676.45 -66.9295 677.212 -67.2454 677.227C-68.8708 677.301 -71.7139 672.73 -70.0478 671.51C-69.8491 671.366 -69.1306 671.769 -69.0695 671.68C-68.8657 671.366 -69.1663 670.405 -69.0185 670.251L-69.0237 670.256ZM-63.9081 694.59C-64.0609 694.435 -63.2966 690.97 -61.2229 692.21C-59.3122 693.355 -60.1478 694.864 -59.2102 696.004C-58.3542 697.045 -54.3953 698.539 -53.7482 700.615C-56.2448 700.301 -60.3821 700.525 -58.8434 697.139L-61.9005 697.129L-60.372 695.148C-61.1465 695.172 -63.4698 695.048 -63.9081 694.595V694.59Z" fill="#FFC3C3"/>
<path d="M195.5 163.5L223.5 119L243.5 163.5L189 176.5L195.5 163.5Z" fill="#3C1212"/>
<path d="M228.709 175.007C225.305 169.398 217.596 163.552 214.167 161.33L233.38 143.571C234.649 143.527 237.285 144.012 237.681 146.31C238.177 149.183 238.941 159.667 237.706 165.623C236.471 171.579 232.963 182.017 228.709 175.007Z" fill="#FFC3C3"/>
<path d="M254.951 66.0001C253.735 67.8995 252.52 69.7989 251.305 71.6983C229.43 105.887 207.555 140.077 185.68 174.266C184.465 176.165 183.25 178.064 182.035 179.964C183.743 181.004 185.451 182.044 187.159 183.085C188.289 181.133 189.419 179.182 190.549 177.23C210.886 142.105 231.224 106.98 251.561 71.8543C252.691 69.9029 253.821 67.9515 254.951 66.0001Z" fill="#FF584B"/>
</g>
<defs>
<clipPath id="clip0_2483_2860">
<rect width="307" height="217" fill="white"/>
</clipPath>
</defs>
</svg>
