<svg width="307" height="217" viewBox="0 0 307 217" fill="none" xmlns="http://www.w3.org/2000/svg">
<rect width="307" height="217" fill="#3C1212"/>
<path d="M141.822 53.7998C140.94 53.444 139.834 53.1768 138.91 52.8915C139.973 54.159 141.671 54.5535 142.869 55.6767C142.925 55.9484 142.644 55.8597 142.489 55.8199C141.879 55.6608 141.277 55.2515 140.657 55.1651C140.656 55.2367 141.71 55.8904 141.178 55.9597C140.956 55.9893 140.253 55.4357 139.968 55.3243C139.786 55.2526 139.687 55.2106 139.725 55.4459C140.734 56.294 141.74 57.1886 142.561 58.1936C143.425 59.252 144.315 60.5684 145.158 61.6825C145.309 61.8803 145.538 62.1054 145.651 62.2838C145.742 62.4282 145.766 62.7431 145.794 62.767C145.998 62.9409 148.432 62.335 148.926 62.5544L148.461 62.8932C149.043 62.7067 149.633 63.058 150.155 63.0205C150.439 63 150.229 62.7579 150.439 62.7806V63.3479C150.247 63.3968 150.389 63.1524 150.249 63.1194C149.874 63.0319 149.585 63.0762 149.508 63.4616H149.975L150.03 63.2365C150.243 63.3172 150.074 63.5673 150.089 63.5753C150.129 63.598 150.765 63.4173 150.905 63.7469L150.496 63.6912C150.242 64.055 150.935 63.9459 151.191 63.98C151.983 64.0868 151.754 63.9391 152.252 63.9163C152.43 63.9084 152.65 64.1164 152.768 63.9743C152.317 63.4263 151.813 63.714 151.255 63.8015L151.488 63.349L150.79 63.1217C150.948 63.1274 151.1 63.0341 151.26 63.0751C151.529 63.1444 152.537 63.7424 152.83 63.7583C153.16 63.7765 154.082 62.9841 154.633 63.1217C153.855 63.756 153.922 64.6336 154.865 63.7458C154.581 63.4434 154.487 64.0937 154.284 63.9152C154.154 63.8004 154.867 63.3149 154.87 63.2717C154.883 63.0637 154.692 62.9864 154.856 62.7204C155.107 62.3123 155.508 62.6135 155.915 62.5533C155.492 63.116 155.926 64.1801 155.801 64.6325C155.769 64.7439 155.546 64.7326 155.472 64.9019C155.358 65.1657 155.423 65.6124 155.331 65.9035C155.626 65.8182 155.748 65.592 155.797 66.0751C155.077 66.1911 155.473 66.2331 155.459 66.6992C155.451 66.9789 155.376 67.4461 155.101 67.5541L155.216 66.9869C154.827 66.8857 155.044 67.2711 154.983 67.3268C154.853 67.4484 154.684 67.2779 154.748 67.1005C154.312 67.5689 153.651 66.8732 153.341 67.5996C153.183 67.9702 153.193 68.1419 152.962 68.5795C152.924 68.6523 153.014 68.7989 153.003 68.8046C152.964 68.8285 152.195 68.8819 152.19 68.6341C152.264 68.5159 152.508 68.5113 152.54 68.384C152.571 68.2567 152.599 67.2529 152.306 67.5541C152.126 67.7372 152.423 68.6716 151.837 68.4647C152.236 69.0934 151.482 68.9626 151.373 69.2037C151.33 69.298 151.573 69.2139 151.606 69.3332C151.713 69.7254 151.511 70.2711 151.483 70.6747C151.472 70.8475 151.621 71.0487 151.602 71.2431C151.58 71.4852 151.139 72.0843 151.135 72.2708C151.134 72.3379 151.369 72.3185 151.382 72.397C151.404 72.5402 151.178 72.9347 151.257 73.0108C151.411 73.1598 151.886 72.6778 152.13 72.6778C152.393 72.6778 152.774 73.0245 153.066 73.004C153.24 72.9915 153.348 72.8062 153.524 72.7937C153.802 72.7733 154.15 73.0461 154.546 72.9915C154.785 72.9586 155.065 72.713 155.161 72.7107C155.292 72.7073 155.442 72.9119 155.607 72.8813C156.067 72.796 157.07 71.4307 157.895 71.5341C158.001 72.0821 157.691 71.7649 157.458 71.9013C157.415 71.9263 156.796 72.3776 156.686 72.4618C156.089 72.9131 155.617 73.6497 154.984 74.0931C155.865 74.1352 154.824 74.8082 154.984 74.9446C155.675 75.1003 156.037 74.4773 156.532 74.2397C156.908 74.0601 157.473 74.0476 157.773 73.8601C158.048 73.6873 158.052 73.3451 158.247 73.1859C158.482 72.9949 159.183 72.9631 159.36 72.6709C159.474 72.4811 159.284 72.2935 159.314 72.2333C159.339 72.1844 160.045 71.6671 160.171 71.5387C160.895 70.8066 161.416 69.938 162.554 69.8289C162.326 69.4481 161.737 70.1222 161.682 69.6015C161.577 70.0631 161.487 69.6402 161.216 69.639C161.076 69.639 160.846 69.8698 160.81 69.83C160.58 69.5856 161.131 69.4412 161.04 69.3764C160.362 69.0502 160.337 69.6902 160.088 69.8721C159.826 70.0631 159.552 70.0153 159.299 70.1188C159.133 70.187 159.079 70.4598 158.829 70.3973L158.946 69.3753L159.177 69.8289C158.984 68.9581 159.891 69.755 159.761 69.032L159.993 69.1479C160.004 69.0309 159.958 68.8819 159.999 68.7773C160.19 68.2783 160.874 67.5382 161.229 67.0573C161.464 66.7402 161.489 66.3571 161.973 66.1342C161.482 65.9489 161.881 66.0729 161.973 65.8523L161.761 65.8307C161.803 65.5818 161.755 65.0986 161.51 64.9429C161.656 65.5488 160.661 65.7102 160.572 65.8091C160.389 66.0115 160.281 66.4753 160.146 66.7333C159.991 67.0301 159.939 67.2279 159.823 67.4541C159.806 67.4893 159.348 67.5223 159.172 67.8349C158.996 68.1475 159.128 68.5523 158.715 68.6932C158.595 68.3488 158.908 67.9611 158.918 67.7076C158.924 67.5621 158.619 66.8936 158.713 66.7606C158.725 66.7447 158.975 66.9323 159.046 66.6901C159.124 66.4219 158.991 66.0604 159.08 65.808C159.131 65.6625 159.347 65.6738 159.409 65.5351C159.485 65.3612 159.451 65.1179 159.575 64.8678C159.711 64.5927 160.475 64.3881 160.633 64.03C160.878 63.4707 160.64 63.3593 161.117 62.7454C161.196 62.6442 161.17 62.4646 161.27 62.385C161.329 62.3384 161.501 62.451 161.508 62.4419C161.614 62.2793 161.432 61.645 161.393 61.4187L161.74 61.5313C161.726 61.2209 161.731 60.9242 161.794 60.6161C161.836 60.4161 162.458 59.1212 162.79 59.6578C162.406 60.2148 162.056 60.8708 162.905 60.0534L162.963 60.3933L163.437 60.0523C163.303 59.3395 163.945 59.2144 164.535 58.9723C164.576 58.8575 164.269 58.9746 164.304 58.8598C164.38 58.6006 164.857 59.0439 164.536 58.4619C164.745 58.3925 164.815 58.6381 164.943 58.6483C165.139 58.6631 166.234 58.122 166.513 58.0583C166.675 58.0208 167.283 58.1254 167.314 58.0981C167.456 57.9685 168.021 56.336 167.914 57.549C168.436 57.3785 168.211 58.3425 168.554 57.665C168.705 58.2709 169.28 57.8548 169.311 57.8912C169.338 57.923 169.25 58.1515 169.38 58.2447C169.54 58.3584 169.923 58.3414 170.128 58.347L169.662 58.687L170.942 58.6892C170.815 59.1746 170.054 58.4778 170.128 59.028C170.81 58.7586 171.396 59.6339 171.936 59.5725C172.344 59.5271 171.943 59.3906 171.875 59.2576L172.223 59.0303C171.877 59.3099 171.443 58.887 171.409 58.9155C171.366 58.9507 171.504 59.1872 171.292 59.1417L171.175 58.8029C171.502 58.9746 171.889 58.4641 171.932 58.4641C171.969 58.4641 172.272 58.8541 172.537 58.895C172.774 58.9302 173.784 58.6244 173.817 58.4107C173.831 58.3243 173.685 58.0412 173.736 58.0071C173.787 57.973 174.041 58.0583 174.177 57.9833C174.371 57.8764 174.497 57.0931 174.784 56.984C174.825 57.3421 174.483 58.0401 174.253 58.3459C174.237 58.3675 173.679 58.6881 174.03 58.6915C174.431 58.6949 174.647 58.5414 175.135 58.8041C175.157 59.0416 174.776 58.8575 174.667 58.9177C174.644 58.9302 174.783 59.2781 174.73 59.427C174.684 59.5589 174.39 59.7919 174.436 59.8249C174.68 60.0011 175.193 59.1235 175.657 59.2565C175.608 59.6248 175.09 59.2963 175.252 59.8272C175.582 59.5794 175.421 59.9841 175.77 60.0568C176.371 60.1807 176.908 59.8738 177.408 59.601L177.464 59.9397L178.628 59.7146L177.813 60.1671C178.246 60.2921 178.461 60.1341 178.861 60.0557C177.877 60.8719 178.663 60.9106 179.56 60.7378L179.095 61.1891C179.23 61.2596 179.863 61.737 179.89 61.778C179.912 61.8121 179.78 61.9689 179.793 61.9815C180.627 62.1304 180.082 62.1747 179.95 62.3646C179.517 62.9921 179.998 63.0228 179.918 63.39C179.894 63.4946 179.635 63.4877 179.578 63.6469C179.52 63.806 179.513 64.3312 179.668 64.437C179.871 64.5757 180.325 64.3494 180.374 64.5995L179.793 64.7132C180.52 64.6041 180.13 64.9042 180.315 65.2839C180.464 65.5874 181.123 65.6807 181.412 65.8046C181.567 65.8705 181.673 66.0729 181.881 66.1422C182.177 66.24 183.181 66.2502 183.166 66.8186C183.156 67.1642 182.48 66.7083 182.47 66.9869C183.951 67.4075 185.304 67.9838 186.582 68.8285C186.796 68.9695 187.556 69.4617 187.655 69.5993C187.714 69.68 187.78 69.7982 187.651 69.8312C187.428 69.8403 187.341 69.5845 187.185 69.4901C186.893 69.3128 187.245 69.9187 186.955 69.7152C186.736 69.5629 186.882 69.2696 186.664 69.2616C186.809 69.871 186.549 69.8369 186.346 70.0961C186.198 70.2859 186.492 70.5076 185.731 70.3984C185.715 70.6599 185.689 70.6008 185.904 70.6258C186.731 70.7202 187.012 70.586 187.592 71.3647C187.227 71.7035 186.667 71.3841 186.139 71.4204C185.345 71.475 186.327 71.8809 186.439 72.0377C186.607 72.2708 186.491 72.5345 186.566 72.6528C186.594 72.6959 186.931 72.7664 187.075 72.8949C187.3 73.095 187.322 73.4121 187.599 73.6338C187.776 73.7759 189.272 74.267 189.384 74.2466C189.523 74.2216 189.683 73.9601 189.806 73.8657C189.338 73.4167 188.277 73.2371 188.202 72.4822C188.153 71.9934 188.984 72.439 188.992 72.048C188.586 71.8809 188.573 71.6285 188.403 71.3966C188.389 71.3772 187.922 71.0623 188.238 71.0794C188.389 71.0874 188.797 71.3898 188.759 71.0248C188.419 70.9509 188.448 70.6133 188.382 70.5462C188.273 70.4348 187.829 70.5258 187.947 70.1154C188.323 69.6516 188.663 70.5815 189.109 70.6258C189.157 70.569 188.776 69.9392 189.285 69.9414C189.353 69.9414 189.331 70.1074 189.379 70.129C189.649 70.2529 190.009 70.4723 190.19 70.544C190.397 70.6269 190.618 70.4473 190.856 70.5633C191.051 70.6588 191.126 71.0658 191.469 71.2215C191.883 71.4102 192.456 71.342 192.862 71.4534C193.269 71.5648 193.781 72.1435 194.088 72.0286C194.627 71.8263 194.302 71.2431 194.267 71.0078C194.248 70.8805 194.387 70.6656 194.352 70.6258C194.132 70.378 194.167 70.935 193.947 70.8509C193.824 70.8043 193.57 70.536 193.42 70.4542C193.392 70.4053 193.885 70.378 193.653 70.1722C193.609 70.1336 192.737 69.8414 192.556 69.722C192.464 69.6607 192.59 69.522 192.501 69.4265C192.397 69.3128 192.169 69.2753 192.148 69.248C192.128 69.2207 192.308 68.6682 192.364 68.6284C192.586 68.4704 193.945 68.7194 194.234 68.1248C193.802 68.3749 193.421 67.5405 193.534 67.4416C193.595 67.3893 193.922 67.5519 193.884 67.329L193.303 67.2131L193.767 66.8743L193.303 66.6469L192.836 66.7584C192.956 66.4719 193.383 66.4514 193.651 66.4173C193.591 66.1149 193.365 66.3195 193.262 66.2945C193.158 66.2695 193.249 66.1104 193.025 66.0808C192.691 66.0376 192.275 66.2525 191.905 65.9626L192.137 65.85C192.15 65.2396 191.524 65.7079 191.341 65.609C191.266 65.5681 191.05 65.0452 191.08 64.9031C191.107 64.7757 191.433 64.7848 191.438 64.6018C190.95 64.545 190.521 65.027 190.682 64.3745C190.386 64.6177 190.095 64.778 189.691 64.7132C190.045 64.3051 190.697 64.2187 191.205 64.2585C190.623 63.5025 190.772 64.0323 190.305 64.1232C190.223 64.1391 189.625 64.0459 189.584 64.0232C189.569 64.0141 189.726 63.7753 189.515 63.6935C189.24 63.5866 189.437 63.9663 189.228 63.9197L189.168 63.5798C188.92 63.897 188.469 63.7674 188.469 63.3525C188.33 63.6855 187.963 63.44 187.945 63.465C187.906 63.5207 188.008 63.8117 187.928 63.9049C187.892 63.947 187.181 64.2505 187.247 63.9231L187.596 63.6946L185.967 63.2399C186.12 63.1365 186.944 62.7011 186.988 62.651C187.01 62.626 186.808 62.2691 187.363 62.3282C187.268 61.8928 186.697 62.1292 186.665 62.102C186.608 62.0519 186.828 61.6097 186.861 61.4597C186.884 61.3517 186.748 61.1732 186.794 61.0981C186.811 61.0697 187.271 60.8515 187.362 60.7378L187.421 61.4187L187.831 60.5104C188.016 60.4604 187.903 60.6673 187.974 60.7014C188.127 60.7742 188.412 60.8912 188.587 60.964C188.678 61.0015 188.613 60.7389 188.713 60.7275C188.888 60.7071 189.073 60.889 189.346 60.8071C189.62 60.7253 190.016 60.0796 190.188 59.9716C190.361 59.8636 190.724 59.975 190.857 59.7431C191.101 59.3156 190.859 58.8745 190.894 58.5369C190.949 57.9901 191.316 57.5911 191.057 56.959C190.957 56.7123 190.643 56.6225 190.74 56.2485C190.878 55.7187 191.225 56.6486 191.268 56.6475C191.62 56.56 191.967 56.3519 191.904 55.9609C191.768 56.0052 191.648 56.1962 191.676 55.9109C191.792 54.7388 192.196 53.2166 192.385 51.9399C192.574 50.6633 192.894 49.3423 192.837 48.0043C192.883 47.9543 193.532 48.2305 193.544 48.301C193.575 48.4863 193.133 50.2597 193.084 50.6894C193.018 51.259 193.077 51.9547 193.025 52.4743C192.981 52.9256 192.641 54.0033 192.719 54.2943C192.742 54.383 192.957 54.3705 192.951 54.4205C192.925 54.6467 192.535 55.3049 192.513 55.472C192.486 55.6801 192.551 55.8733 192.479 56.3508C192.428 56.6884 192.185 57.7502 192.681 57.881C192.73 57.8935 193.598 57.7832 193.687 57.757C194.021 57.6593 194.546 56.5122 194.45 56.1575C194.432 56.0927 194.088 55.6585 194.003 55.5596C193.835 55.3629 193.533 55.4754 193.77 55.1662H193.187L193.653 54.4273L193.187 54.3136C193.537 53.9021 194.309 53.7998 194.119 54.4841C194.495 54.2511 194.662 54.6751 194.992 54.8218C195.379 54.6274 195.142 53.644 195.18 53.5929C195.218 53.5417 195.435 53.5576 195.497 53.3883C196.59 50.3973 195.328 47.1676 195.206 44.288C195.202 44.1925 195.244 43.9584 195.341 43.9117C195.498 44.0436 195.569 44.2585 195.605 44.4495C196.007 46.6094 196.343 48.8239 196.336 51.0203C196.336 51.3238 196.2 51.5693 196.222 51.9081C196.258 52.4401 197.053 53.9953 197.287 54.6308C197.352 54.8093 197.4 54.973 197.381 55.1651C197.81 55.0003 197.505 54.591 197.496 54.3114C197.485 53.8759 197.502 53.4394 197.496 53.0063C197.559 52.9369 198.471 53.4201 198.666 53.0438L198.542 52.0968C198.511 52.0752 198.109 52.5527 197.981 52.0173C197.905 51.7024 198.436 50.9373 197.729 51.0726C198.022 50.511 198.518 51.2226 199.012 51.0737C199.105 51.533 198.667 51.0691 198.546 51.1874C198.267 51.4602 199.231 51.5557 199.361 51.4784C199.517 51.3863 199.559 50.9634 199.766 50.8486C200.364 51.2147 201.123 51.7558 201.441 52.3947C201.759 53.0336 201.915 54.8547 201.811 55.5698C201.783 55.7665 201.479 56.2132 201.573 56.3019C201.598 56.3258 202.079 56.1973 202.01 56.6839C201.972 56.9556 201.49 57.3137 201.688 57.7798C201.251 57.89 201.561 57.3546 201.444 57.2216C201.421 57.1943 201.062 57.1648 200.927 57.1034C200.392 56.8612 199.94 56.3974 199.493 57.1693C199.434 57.2693 199.019 58.2288 199.019 58.2902C199.019 58.8006 199.551 59.1633 199.762 59.4918C200.07 59.9738 200.248 60.7355 200.874 60.8492C200.892 60.4161 201.083 60.3899 201.456 60.2808C201.366 61.2664 200.564 62.0121 199.946 62.7272C199.527 63.2115 199.243 63.6946 198.665 64.0891L199.244 64.4302C199.034 64.8087 198.409 64.628 198.22 64.7394C198.154 64.778 198.145 65.0156 198.016 65.0429C197.906 65.0668 197.659 64.8951 197.614 64.9406C197.597 64.9576 197.649 65.1452 197.584 65.2453C197.515 65.351 197.23 65.3964 197.104 65.6204C197.005 65.7955 196.835 66.589 196.673 66.9005C196.576 67.0869 196.206 66.8675 196.796 67.3859C197.43 67.9418 197.899 68.0918 198.5 68.7978C198.665 68.9911 198.878 68.7921 198.66 69.2594L199.01 69.2616L198.779 69.4299C199.158 70.0574 199.065 70.2472 199.826 69.9437C199.716 70.7281 199.64 70.7884 200.408 71.1385C200.423 71.5034 199.749 70.9759 199.594 71.0817C199.721 71.317 200.024 71.4364 199.942 71.7626C199.204 71.5137 199.359 71.8502 199.006 72.156C198.846 72.2935 198.556 72.2526 198.546 72.4436C198.832 72.5368 199.477 72.2765 199.702 72.3901C200.027 72.555 200.625 73.145 200.817 73.4678L201.805 72.2174C201.738 72.6437 201.398 73.0404 201.265 73.4372C201.199 73.635 201.414 73.9067 201.108 74.1488L201.805 73.9226C201.78 74.0544 201.941 74.2045 201.916 74.3102C201.874 74.4887 201.545 74.4125 201.574 74.6035C201.75 74.5899 201.979 74.6592 202.132 74.574C202.146 74.566 202.2 74.1465 202.388 74.3773C202.472 74.4808 202.224 75.0196 202.156 75.1708C203.075 75.1208 203.458 74.3125 203.552 75.6858C203.578 76.0598 203.621 76.4236 203.268 76.6566C203.108 76.7635 202.843 76.6919 202.856 76.8772C203.538 76.942 204.017 76.6168 204.485 76.1962C204.658 76.7089 204.153 76.8601 204.056 77.025C203.958 77.1898 203.998 77.4888 203.788 77.6729C203.919 77.7696 204.666 77.2103 204.485 77.6161C204.413 77.7798 204.124 77.84 204.056 77.9355C203.897 78.1549 203.915 78.6847 203.555 78.9246L204.485 78.3573C204.571 78.4517 203.89 79.194 204.153 79.4805C204.192 79.5225 204.981 79.8238 205.126 80.0637C205.348 80.432 205.087 80.9936 205.826 81.4392C206.026 81.5608 206.252 81.2153 205.999 81.7677C206.556 81.6859 206.269 81.9314 206.351 82.2588C206.362 82.3032 206.55 82.8477 206.613 83.0467C206.734 83.4275 207.109 84.0834 207.166 84.4404C207.228 84.8269 206.837 84.4677 206.699 84.3847C206.674 84.811 207.206 84.9952 207.282 85.4067L207.454 85.1805C207.986 85.7216 207.234 85.9694 207.047 86.4298C207.747 86.1411 208.391 86.0649 209.143 85.9774L208.356 86.5162L207.397 86.7152C207.647 86.8402 207.653 87.3291 207.773 87.428C207.881 87.5178 208.26 87.503 208.315 87.5814C208.411 87.7224 208.182 88.2374 208.561 88.4227C208.941 88.608 209.442 88.2647 209.841 88.3636C209.901 88.658 209.593 88.8103 209.606 89.0911C209.625 89.5004 210.116 89.697 210.176 89.9221C210.247 90.1916 209.902 90.586 210.251 90.7486C210.481 90.8555 210.6 90.1097 210.659 90.5804C210.555 91.1544 210.183 91.242 209.85 91.4955C209.516 91.749 209.789 91.99 210.131 91.9832C210.876 91.9684 211.098 91.0908 211.77 90.9839C212.193 90.9168 212.943 90.8952 213.194 91.2875C213.607 91.9275 212.71 91.7877 212.402 91.9445C212.23 92.0332 212.211 92.2799 212.147 92.3174C211.89 92.4686 211.29 92.1787 211.239 92.2276C211.192 92.4584 211.411 92.5175 211.514 92.6823C211.581 92.7926 211.289 92.9756 211.82 92.9097C211.429 93.4622 209.951 92.7244 209.957 93.7032C210.417 93.6691 211.021 94.2807 211.417 94.2716C211.607 94.2671 211.73 94.0431 211.909 93.9612C212.949 93.4826 212.617 93.8942 213.155 94.5069C213.278 94.6479 213.785 95.239 213.826 95.2731C213.902 95.3357 214.137 95.2811 214.259 95.3573C214.45 95.4755 214.622 95.7688 214.847 95.8245C215.052 95.8745 215.704 95.4232 215.663 96.2065L215.2 95.9791C215.016 96.2133 215.874 97.0659 216.088 97.1011C216.135 97.1091 216.873 96.7965 216.967 96.7385C217.303 96.5316 217.479 96.0348 217.993 96.0939C218.087 96.6316 217.26 97.0147 216.791 97.2501C216.63 97.3308 216.15 97.4319 216.129 97.4592C216.048 97.5684 216.411 97.956 216.37 98.1891C216.357 98.2595 216.166 98.2493 216.151 98.2709C216.016 98.4665 216.539 98.7325 216.626 98.9678C216.75 99.302 216.327 99.5862 216.946 99.5055C216.708 99.8568 217.047 100.036 217.057 100.243C217.063 100.348 216.491 102 216.385 102.2C216.13 102.683 215.744 102.627 215.902 103.423C215.935 103.587 216.234 103.902 216.126 104.049C216.09 104.099 215.041 104.551 214.979 104.561C214.543 104.631 213.676 104.445 213.267 104.727C212.957 104.939 212.942 105.558 212.759 105.822C212.622 106.018 211.836 106.513 211.762 106.665C211.668 106.855 211.736 107.087 211.676 107.264C211.475 107.847 211.23 108.262 211.355 108.941L210.891 108.829C210.813 109.041 211.145 109.13 211.074 109.282C210.933 109.587 210.233 109.802 210.103 110.162C210.017 110.403 210.084 111.04 210.057 111.077C210.004 111.147 209.74 111.176 209.728 111.27C209.72 111.334 210.078 111.649 210.074 111.84C210.072 111.974 209.915 112.087 209.874 112.217C209.706 112.764 209.555 112.74 209.505 112.878C209.402 113.158 209.642 113.439 209.614 113.644C209.604 113.72 209.169 114.655 209.148 115.03C209.133 115.294 209.298 116.143 209.242 116.364C209.203 116.515 208.963 116.603 208.948 116.725C208.907 117.035 209.834 118.787 209.84 119.286L208.445 116.9C208.718 117.959 208.331 117.401 208.009 117.728C207.763 117.978 207.772 119.324 207.398 119.059L207.279 118.605C206.374 118.779 207.056 119.913 206.931 120.537L206.233 119.856C206.116 120.267 206.537 121.306 206.453 121.603C206.438 121.658 205.778 122.251 205.652 122.416C205.492 122.628 205.312 122.872 205.199 123.109C205.006 123.517 204.797 124.914 204.717 124.97C204.334 125.241 204.361 124.263 204.484 124.061C203.805 124.197 204.08 124.288 204.021 124.8C203.3 125.013 203.448 123.742 202.972 123.492L202.799 124.517L202.39 124.289C202.234 125.212 202.068 126.12 201.805 127.018C201.39 126.919 201.698 126.057 201.226 126.109L201.341 127.018L200.99 126.564L200.758 126.905L200.062 126.677L199.946 127.471C200.015 126.819 199.628 126.703 199.13 126.449C199.128 127.395 198.91 127.006 198.38 127.138C197.8 127.282 197.169 127.93 196.831 128.356C196.784 128.416 196.819 128.559 196.788 128.605C196.75 128.661 196.281 128.39 196.216 128.437C196.074 128.543 195.783 129.611 195.634 129.861C195.432 129.888 195.525 129.602 195.519 129.465C195.507 129.181 195.528 128.894 195.518 128.611C195.215 128.676 195.044 129.068 194.935 129.179C194.812 129.304 194.841 128.747 194.59 128.954C194.565 128.973 194.388 129.423 194.353 129.521C193.88 129.358 194.524 128.793 194.006 128.611C193.985 128.813 193.886 129.228 193.657 129.292L193.654 128.384L193.307 128.611L193.421 127.817C193.327 127.721 192.528 128.246 192.196 128.143C192.112 128.117 192.173 127.909 192.084 127.93C191.861 127.984 191.515 128.486 191.34 128.366C191.317 128.35 191.337 128.159 191.26 128.152C190.994 128.131 190.108 128.365 189.747 128.389C189.55 128.402 189.363 128.297 189.186 128.306C188.996 128.315 188.771 128.509 188.603 128.478C188.409 128.442 188.172 127.729 188.064 128.217C188.033 128.36 189.671 130.268 189.463 130.773L189.693 130.657C189.5 131.045 189.837 131.688 190.06 132.063C190.241 132.364 190.982 132.996 190.162 132.477C190.262 133.043 191.063 133.53 191.1 134.127C191.119 134.429 190.966 134.684 190.976 134.921C190.987 135.216 191.282 136.692 191.207 136.798L190.977 136.683C191.167 137.268 190.786 137.307 190.68 137.584C190.584 137.833 190.546 138.668 190.508 138.73C190.495 138.751 190.308 138.524 190.134 138.872C189.594 139.945 189.83 141.481 189.938 142.641C190.233 145.789 189.698 148.975 189.838 152.199C189.915 153.977 190.036 156.633 190.402 158.332C190.502 158.797 190.909 159.358 190.97 159.71C191.05 160.18 190.865 160.533 190.855 160.95C190.832 161.842 191.458 163.694 191.903 164.485C191.97 164.605 192.37 165.192 192.433 165.218C192.546 165.265 192.435 164.949 192.548 164.992C192.925 165.134 192.681 165.671 192.738 165.766C192.769 165.818 193.615 166.489 193.696 166.541C195.285 167.543 197.478 167.703 199.093 168.892C199.269 169.022 199.396 169.614 199.536 169.084C199.918 169.357 200.428 170.285 200.279 170.717C200.226 170.867 199.999 170.877 199.939 170.983C199.681 171.431 199.808 171.947 199.137 172.105C198.281 172.307 196.893 172.28 196.184 171.705C195.98 171.539 195.938 171.045 195.79 171.012C195.581 170.965 195.258 171.049 194.999 171.012C194.741 170.976 194.246 170.557 194.238 171.068C194.235 171.256 195.104 172.552 195.284 172.751C195.561 173.06 196.216 173.524 196.576 173.794C196.717 173.9 196.946 173.943 197.043 174.033C197.152 174.133 197.021 174.307 197.033 174.314C197.114 174.363 197.915 173.964 198.198 174.202L197.849 174.541C198.373 174.51 198.786 174.51 199.246 174.771L198.548 174.884C198.796 175.363 198.999 175.092 199.366 175.154C199.476 175.172 200.597 175.686 200.646 175.735C201.106 176.188 200.891 177.418 200.336 177.823C199.318 178.565 197.537 177.687 196.48 177.529C195.834 177.432 195.116 177.492 194.443 177.357C192.603 176.986 191.771 176.678 189.768 176.943C188.691 177.085 188.709 177.605 187.977 178.177C187.353 178.663 186.57 179.078 185.969 179.601C185.176 180.292 184.733 180.748 183.871 181.419C183.155 181.976 182.748 183.256 182.037 183.494C181.794 183.575 181.405 183.481 181.194 183.694C180.983 183.906 181.019 184.509 180.849 184.807C180.834 184.833 180.439 185.218 180.413 185.233C179.859 185.546 179.057 185.31 178.917 184.663C178.699 183.654 178.588 182.524 178.776 181.447C178.878 180.869 179.067 180.639 179.681 180.624C179.685 180.53 178.854 180.252 178.98 180.68C178.797 180.712 178.841 180.517 178.886 180.417C179.111 179.902 179.886 179.845 180.379 179.884C180.276 179.474 179.347 179.896 179.447 179.432L180.845 179.202C180.703 178.809 179.779 179.159 179.68 179.088C179.996 178.559 180.768 178.796 181.31 178.747L180.846 178.295L182.009 178.407C181.879 178.1 181.491 178.06 181.194 178.066L182.008 177.839L181.31 177.5H182.241L181.776 177.271C181.896 176.789 182.897 177.201 182.94 177.158C183.017 176.799 182.543 176.828 182.475 176.591C182.755 176.557 183.162 176.668 183.408 176.535C183.833 176.303 182.872 176.279 182.941 176.137L184.104 176.021L183.523 175.682L184.337 175.455C184.13 175.493 183.387 175.388 183.3 175.471C183.266 175.503 183.316 175.687 183.258 175.756C182.947 176.128 182.274 176.535 181.838 176.935C181.321 177.41 179.922 177.539 179.152 177.612C177.686 177.75 176.157 177.665 174.702 177.877C174.411 177.919 174.047 178.137 173.661 178.176C173.469 178.195 173.192 178.069 173.171 178.083C173.142 178.103 173.119 178.303 172.973 178.397C172.632 178.618 171.736 178.723 171.441 179.009C170.837 179.592 170.837 181.587 170.521 181.692C170.313 181.761 168.738 181.735 168.471 181.676C168.163 181.609 167.257 181.032 167.05 180.789C166.887 180.597 166.686 179.966 166.608 179.913C166.5 179.839 165.797 179.761 165.587 179.66C165.763 179.966 165.781 180.339 165.91 180.652C165.999 180.873 166.237 181.077 166.285 181.196C166.352 181.364 165.657 181.525 166.285 181.593C166.339 181.814 166.027 181.589 166.053 181.818L166.929 182.043L168.255 183.47C168.235 183.631 166.867 184.112 166.862 184.603C166.859 185.035 167.368 184.786 167.574 184.612C167.997 184.256 167.835 183.927 168.673 183.865C169.889 183.778 168.122 184.584 168.082 184.661C168.105 186.088 168.672 184.405 169.137 184.319C169.43 184.264 169.818 184.355 170.128 184.321C170.137 184.444 168.702 185.333 169.373 185.456C169.657 185.508 169.711 184.902 170.04 184.745C170.173 184.683 170.75 184.558 170.892 184.562C171.384 184.579 171.394 184.98 171.609 185.12C171.933 185.332 172.557 185.272 172.808 185.741C172.574 185.823 172.428 185.851 172.696 186.076C173.335 186.274 174.145 186.522 174.735 186.814C174.846 186.869 175.551 187.266 175.579 187.305C175.643 187.396 175.582 187.591 175.604 187.616C175.638 187.654 175.893 187.428 176.049 187.517C176.084 187.536 176.11 187.707 176.193 187.771C176.853 188.285 177.478 188.546 178.045 189.266C178.388 189.703 178.8 190.214 177.982 190.335C176.646 190.533 175.719 188.807 174.593 188.667C174.121 188.608 174.273 189.331 173.396 189.496C171.778 189.799 170.855 189.053 169.543 188.583C168.83 188.327 168.045 188.182 167.335 187.896C164.775 186.87 160.634 184.178 157.977 185.927C157.551 186.208 157.395 186.625 157.081 186.871C156.024 187.696 154.565 188.276 153.535 189.095C152.817 189.665 152.204 190.66 151.553 191.139C151.105 191.467 150.429 191.621 150.035 192.044C149.505 192.61 149.54 193.815 148.637 193.976C148.483 194.003 147.747 194.016 147.669 193.966C147.526 193.876 146.719 191.126 146.96 190.748C147.694 189.724 147.036 188.345 148.118 187.558C147.628 187.311 147.426 187.898 147.071 188.069C147.158 187.826 147.39 187.167 147.522 187.002C147.614 186.888 148.694 186.827 148.933 186.818C148.672 186.313 148.042 186.906 147.652 186.762C148.372 185.815 149.091 185.517 150.33 185.681L149.749 185.228C150.085 185.029 150.781 185.452 150.856 185.452C150.941 185.452 151.073 185.312 150.91 185.174C150.71 185.004 150.309 185.002 150.215 184.774L151.029 184.716L150.332 184.319C150.526 184.279 151.311 184.371 151.379 184.317C151.624 184.12 150.901 184.06 151.147 183.863C151.21 183.812 151.897 183.898 152.077 183.862L151.961 183.523C152.534 183.564 153.058 183.52 152.543 182.955L153.475 182.952L152.893 182.5L153.824 182.498C154.013 182.362 152.451 181.746 152.024 182.507C151.95 182.636 151.996 182.866 151.94 182.932C151.915 182.96 151.416 183.081 151.224 183.2C150.991 183.345 150.615 183.868 150.41 183.848C150.251 183.833 149.969 183.553 149.729 183.486C148.107 183.027 146.098 183.348 144.463 183.17C142.424 182.947 140.727 182.199 138.516 182.382C137.596 182.458 135.509 183.148 134.773 182.283C134.362 181.8 134.903 181.483 134.551 181.138C133.99 181.776 133.654 181.209 133.208 181.29C132.676 181.388 132.053 182.316 131.345 181.759C131.624 181.476 131.404 181.181 131.521 180.915C131.822 180.224 133.566 179.037 134.326 178.871C134.885 178.75 135.619 178.868 136.068 178.811C136.204 178.794 136.323 178.607 136.466 178.573C137.41 178.347 138.261 178.258 139.214 178.289C139.533 178.299 139.88 178.638 140.262 178.621C140.477 178.612 140.638 178.434 140.849 178.407C140.999 178.389 143.694 178.497 143.841 178.537C144.01 178.582 144.092 178.835 144.338 178.867C144.425 178.878 145.435 178.938 145.496 178.935C145.599 178.928 145.696 178.729 145.937 178.761C146.159 178.791 146.51 179.187 146.664 179.177C146.807 179.167 146.966 178.756 147.242 178.751C147.518 178.745 147.828 179.132 148.17 179.092C148.346 179.071 148.459 178.883 148.637 178.872C148.96 178.855 149.24 179.251 149.168 178.635C149.675 179.014 150.101 178.407 150.158 178.41C150.208 178.412 150.459 178.976 150.965 178.85C151.199 178.791 151.101 178.348 151.257 178.227C151.436 178.088 151.78 178.362 152.006 178.288C152.217 178.22 152.177 177.875 152.306 177.773C152.361 177.729 152.813 177.89 153.049 177.839C153.143 177.819 153.087 177.604 153.298 177.598C153.482 177.593 153.873 177.755 153.926 177.715C153.965 177.686 154 177.476 154.111 177.375C154.239 177.258 154.529 177.358 154.72 177.235C154.793 177.189 155.812 176.301 155.855 176.24C155.954 176.099 156.025 175.854 156.037 175.679C155.939 175.594 155.165 175.831 155.107 175.567C155.292 175.491 156.354 174.87 156.397 174.809C156.683 174.414 156.72 173.739 156.038 173.803C156.492 173.224 157.661 173.368 157.661 172.552C157.661 172.325 157.361 172.078 157.428 171.778C157.459 171.632 158.209 171.41 158.309 171.245C158.395 171.102 158.353 170.867 158.429 170.68C158.564 170.349 159.148 170.261 158.136 170.053C158.313 169.361 158.387 169.84 158.713 169.715C159.108 169.564 159.126 168.95 159.042 168.597C158.978 168.328 158.708 168.22 158.717 167.95C159.497 168.003 158.974 166.836 159.242 166.245C159.355 165.995 159.99 165.799 160.093 165.36C160.105 165.312 160.084 164.475 160.069 164.423C159.987 164.154 159.631 164.043 159.65 163.744C159.782 163.62 160.113 164.171 160.23 163.798C160.335 163.464 159.998 163.524 159.99 163.449C159.949 163.066 160.62 162.533 160.698 162.095C160.764 161.72 160.162 162.127 160.229 161.753C160.463 161.42 160.403 161.002 160.528 160.679C160.602 160.483 161.043 160.089 161.043 160.048C161.043 159.964 160.577 159.734 160.58 159.482C160.583 159.307 160.989 158.781 161.039 158.448C161.154 157.674 160.902 156.917 161.189 155.979C161.255 155.767 161.647 155.556 161.637 155.278C161.634 155.224 161.444 155.228 161.407 155.128C161.117 154.357 161.816 153.663 161.844 152.965C161.854 152.689 161.628 152.586 161.621 152.321C161.611 151.895 161.995 151.575 161.723 150.975C161.634 150.782 161.421 150.783 161.342 150.661C161.163 150.385 161.336 150.128 160.726 149.902C160.537 149.832 158.755 149.336 158.627 149.325C158.351 149.304 158.148 149.437 157.977 149.423C157.947 149.421 157.821 149.163 157.523 149.054C155.808 148.428 156.186 149.134 155.516 150.325C155.1 149.897 155.478 148.594 154.761 149.531L154.528 149.19C154.283 150.176 154.077 149.435 154.176 148.85L153.828 149.19C154.41 148.121 154.417 147.373 154.141 146.212C154.021 145.707 153.756 145.427 153.709 144.872L153.362 145.326L152.894 144.189C152.202 144.246 152.894 145.084 152.607 145.559C152.476 145.746 152.187 145.482 152.081 145.552C152.012 145.598 152.067 146.13 151.848 146.121C151.681 145.614 151.811 145.054 151.846 144.53C151.368 144.397 151.822 145.229 151.439 145.099C151.354 145.069 151.327 144.551 151.031 144.529L150.74 145.21C150.728 145.02 150.335 144.72 150.335 144.687C150.334 144.575 150.456 144.43 150.422 144.273C150.348 143.923 150.254 143.457 150.04 143.165C149.813 143.517 150.15 143.999 150.101 144.334C150.083 144.452 149.393 144.694 149.632 145.096C149.393 145.086 149.377 144.522 149.225 144.53C149.131 144.535 149.062 145.046 148.706 144.867C148.931 144.403 147.769 143.315 147.769 143.903V145.551L147.237 143.968L146.778 143.506L146.606 143.846C146.595 143.509 146.372 143.223 146.144 142.99C146.06 142.905 145.265 142.237 145.21 142.212C144.888 142.066 144.124 142.253 144.158 141.573L143.811 141.801C143.908 141.352 143.705 141.349 143.402 141.119L143.23 141.459L143.227 140.778L142.88 141.118C143.057 140.363 142.533 140.489 142.329 140.29C142.25 140.213 142.272 139.976 142.13 139.851C141.966 139.707 141.774 139.87 141.732 139.845C141.677 139.812 141.55 139.448 141.195 139.292C140.962 139.189 140.704 139.302 140.443 139.119C140.259 138.991 139.845 138.407 139.699 138.311C139.14 137.938 137.821 137.8 137.23 137.254C137.128 137.806 138.047 137.836 138.221 138.274C137.892 138.373 137.765 138.02 137.564 137.967C137.433 137.934 137.254 138.041 136.995 137.947C136.334 137.706 135.389 136.209 134.793 135.881C134.506 135.723 134.253 135.826 134.027 135.72C133.79 135.61 133.467 134.778 132.863 134.98L132.749 135.206C132.62 134.359 131.352 134.342 130.627 134.035C130.532 133.994 129.372 133.221 129.604 133.669C129.714 133.884 130.222 133.945 130.301 134.181C129.609 134.357 129.142 133.632 128.666 133.443C128.493 133.375 128.338 133.541 128.143 133.4C127.811 133.158 127.166 132.164 126.854 131.807C126.581 131.496 126.154 131.16 125.877 130.828C125.84 130.727 126.137 130.81 126.11 130.718C125.944 130.13 125.268 129.412 125.169 128.732L124.946 128.84C125.016 128.41 124.642 127.999 124.553 127.705C124.511 127.568 124.408 126.602 124.362 126.566C124.351 126.558 124.142 126.696 124.131 126.681C124.26 125.839 123.735 125.138 123.781 124.292C123.449 124.452 123.294 124.163 122.966 124.18L122.85 124.634L122.848 124.066C122.688 123.85 122.42 125.376 122.498 125.543C122.19 125.462 122.308 125.068 122.332 124.876C122.353 124.702 122.496 124.501 122.206 124.746C121.947 125.366 122.506 125.831 122.382 126.454C122.059 126.307 122.052 125.841 122.032 125.545L121.802 125.772L121.625 124.977C121.377 125.408 121.653 126.001 121.102 126.34C121.167 125.633 120.888 125.002 120.822 124.307C120.787 123.939 120.981 122.332 120.575 122.135C120.17 121.938 120.572 122.976 120.518 123.043C120.048 122.589 119.886 123.151 119.936 123.612C119.553 123.55 120.021 122.7 119.646 122.705C119.503 122.706 119.44 123.131 119.471 123.272C118.893 123.32 118.621 122.553 119.355 122.587C119.214 122.328 118.978 122.082 118.656 122.135C118.617 122.17 118.897 123.06 118.541 123.157C118.408 122.852 118.662 121.823 118.363 121.68C117.98 121.497 118.174 122.369 118.176 122.426C118.179 122.483 117.785 122.444 118.017 122.818C118.048 122.869 118.774 123.581 118.879 123.675C119.05 123.831 119.308 123.847 119.482 124.002L119.937 124.634C119.644 124.858 117.728 123.343 117.316 123.158C117.098 123.076 117.114 123.292 117.148 123.435C117.213 123.716 117.539 124.114 117.724 124.351C117.608 124.486 117.103 124.077 116.969 123.952C116.651 123.654 116.464 123.14 116.036 122.93C115.856 123.281 116.644 123.824 116.676 123.896C116.694 123.933 116.25 123.927 116.676 124.52C116.068 124.687 115.699 124.119 115.162 124.295C115.085 124.204 115.345 123.733 114.929 123.84C114.912 124.438 115.58 124.895 114.929 125.203C114.862 124.921 114.896 124.437 114.58 124.295C114.574 124.596 114.678 125.087 114.87 125.318C115.052 125.536 115.374 125.52 115.401 125.616C115.456 125.819 115.509 126.507 115.281 126.625C115.417 126.914 115.64 126.639 115.721 126.692C115.886 126.803 116.335 127.893 116.794 128.216C117.695 128.852 118.419 128.115 119.155 128.277C119.195 128.286 119.694 128.731 119.82 128.785C118.888 129.021 117.96 128.868 117.027 128.729C116.995 129.123 117.532 129.099 117.724 129.354C117.355 129.596 117.071 129.221 116.793 129.125C116.687 129.089 116.538 129.148 116.443 129.105C115.579 128.71 113.919 126.78 113.702 125.884C113.448 124.838 114.174 123.615 113.585 122.708C113.293 122.257 113.001 122.506 112.725 122.415C112.667 122.395 111.717 121.822 111.686 121.771C111.546 121.547 112.092 120.939 111.32 120.996C111.268 120.805 111.479 120.929 111.531 120.869C111.616 120.772 110.79 118.855 110.679 118.497C110.493 117.909 110.242 117.048 110.111 116.458C110.016 116.023 110.311 115.233 109.573 115.425C109.534 115.194 109.901 115.412 109.93 115.25C110.014 114.793 109.878 114.07 109.924 113.552C109.969 113.034 110.177 112.531 110.156 112.016L110.392 113.203C110.807 113.816 110.061 114.455 110.679 115.082L110.969 114.403C111.339 115.014 110.625 115.172 110.611 115.272C110.603 115.33 110.72 115.749 110.739 115.767C110.924 115.94 111.224 115.219 111.382 115.196L111.32 114.403L111.785 114.516C111.224 114.026 111.486 113.358 111.437 112.698L111.784 112.812C111.823 112.59 111.837 112.311 111.912 112.104C111.962 111.964 111.996 111.983 112.088 111.668C112.17 111.384 112.541 110.355 112.49 110.161C112.458 110.04 112.184 110.085 112.13 109.801C112.061 109.442 112.422 108.733 112.142 108.541C111.684 108.226 111.41 108.943 111.318 109.287C111.141 109.32 111.179 109.113 111.198 108.999C111.276 108.501 111.932 107.633 112.251 107.242C111.805 107.19 111.134 107.897 110.787 107.927C110.5 107.951 110.419 107.699 110.214 107.692C110.165 107.691 110.136 108.124 109.922 107.921C109.888 107.89 110.266 107.683 109.574 107.581L109.572 108.037L109.342 107.921C109.486 108.217 109.297 108.398 109.281 108.607C109.277 108.658 109.356 108.954 109.457 108.774L109.573 108.545C109.642 108.627 110.262 109.492 109.867 109.397C108.148 108.982 107.413 106.202 106.529 105.038C106.383 104.846 106.134 104.799 106.026 104.62C105.904 104.42 105.86 103.96 105.729 103.716C105.531 103.684 105.603 103.99 105.623 104.103C105.672 104.38 105.833 104.581 105.845 104.852C105.505 104.654 105.37 104.19 105.38 103.83L105.263 104.852L104.916 104.652C104.292 102.597 103.839 100.833 104.115 98.6699C104.299 97.2285 104.876 95.8802 105.327 94.5046C105.364 94.391 105.272 94.2432 105.297 94.1863C105.312 94.1511 105.819 93.6725 105.854 93.6543C105.991 93.5861 106.237 93.6259 106.295 93.5781C106.479 93.4269 106.202 92.3674 106.778 92.2879L106.43 92.1185L107.011 92.1162C107.133 91.6637 106.458 92.09 106.545 91.7206C106.587 91.541 106.977 91.8058 107.011 91.7763C107.223 91.5853 106.72 91.5057 106.675 91.3659C106.643 91.2693 106.947 89.6789 107.018 89.6209C107.075 89.5743 107.384 89.6106 107.49 89.6686C107.588 89.7221 107.472 90.0585 107.654 90.2973C107.805 90.4951 108.327 90.8714 108.526 91.0942C108.565 90.6292 108.462 89.6777 108.027 89.4242C107.879 89.3378 107.426 89.464 107.471 89.0024C107.482 88.8944 107.795 88.8876 107.829 88.7592C107.878 88.5761 107.499 88.3169 107.489 88.085C107.478 87.8531 107.711 87.4018 107.888 87.229C108.057 87.7269 107.343 88.6853 108.178 87.7974C107.96 88.2738 108.2 88.4522 108.527 88.8206C108.423 88.5113 108.475 88.0293 108.389 87.7645C108.334 87.5985 108.106 87.5053 108.08 87.3836C108.033 87.1642 108.412 86.863 108.411 86.8311C108.403 86.6947 108.04 86.7447 108.064 86.5481L108.387 86.4901L108.297 86.3218C108.593 86.3457 108.813 86.0422 108.764 86.4321C108.955 86.4855 108.826 86.2639 108.932 86.2275C109.05 86.1866 110.242 85.9694 110.341 85.9728C110.428 85.9762 111.903 86.3287 112.028 86.3707C112.352 86.4821 112.506 86.8982 112.954 86.7732C113.072 86.3571 112.745 86.4514 112.597 86.2673C112.514 86.1638 112.592 85.9649 112.501 85.9171C112.237 85.7784 111.82 86.0319 111.906 85.6375C112.841 85.5795 113.759 85.3442 114.701 85.409L114.12 85.1816L114.468 84.9565C113.907 84.8997 113.539 85.326 112.954 85.1827C112.94 84.8406 112.977 84.1903 112.842 83.8913C112.773 83.7344 112.529 83.8515 112.488 83.8186C112.186 83.5707 113.37 83.4264 113.42 83.3627C113.354 83.2172 113.257 83.0035 113.134 82.9057C112.894 82.7158 112.42 82.8136 112.49 82.4555L114.235 82.6817C113.894 82.3907 113.888 81.6654 113.42 81.7734V81.6052L115.987 79.2145C116.014 78.7882 115.961 78.9644 115.634 79.0451C115.557 78.787 115.948 78.6756 115.975 78.5187C116.017 78.2743 114.558 76.9806 114.353 76.6589C114.54 76.4918 115.445 77.7946 116.077 77.4297C116.349 77.2728 116.252 76.5077 117.294 76.6828C117.909 76.7862 117.861 77.225 117.905 77.2273C118.324 77.2489 118.62 76.2644 119.127 76.6566C118.728 76.0632 119.825 75.6539 119.823 75.463C119.823 75.4129 119.314 75.1526 119.488 74.6808C119.567 74.4671 119.91 74.5183 120.006 74.3887C120.269 74.026 119.347 72.1241 120.119 71.9923C120.891 71.8604 120.842 72.4095 121.337 71.2556C121.227 71.0248 120.964 71.226 120.874 71.1533C120.757 71.0601 120.775 70.8293 120.645 70.6986C120.375 70.4257 119.664 70.8168 119.594 70.7463V70.2916C119.56 70.2495 119.301 70.4519 119.244 70.4053C119.014 70.2131 119.481 70.1654 119.48 70.1211C119.474 69.8835 119.188 69.8312 119.153 69.6527C119.119 69.4742 119.333 69.065 119.244 68.8126C119.396 68.957 120.252 69.1627 119.941 68.8149C119.919 68.791 119.596 68.7523 119.594 68.6432C119.594 68.6057 119.873 68.4079 119.836 67.9577C119.827 67.8452 119.318 67.3677 119.357 67.1085C119.178 67.0698 119.3 67.2472 119.153 67.3268C119.066 67.3745 118.891 67.3791 118.778 67.4484C118.666 67.1472 118.987 67.2642 119.013 67.1483C119.046 66.9948 118.997 66.8141 119.013 66.6538L119.243 66.88L119.01 64.8337C117.962 65.085 118.44 65.5624 118.533 66.2673C118.549 66.3878 118.632 66.6811 118.429 66.6515L118.31 65.9705L117.962 66.0842C117.882 66.0001 118.185 65.459 118.188 65.3373C118.189 65.2885 117.957 65.2953 117.954 65.2259C117.947 65.077 118.197 64.8076 118.03 64.5984C117.938 64.4836 117.429 64.4643 117.263 64.2653L117.147 64.6052L116.913 64.2653C116.875 64.5313 117.235 65.1145 116.913 65.2873C116.944 65.1077 116.712 64.1198 116.658 64.0584C116.617 64.0118 116.113 63.947 115.981 63.8106C115.879 64.1892 115.774 64.7121 115.888 65.0941C116.028 65.5602 116.846 65.625 117.028 66.0831C116.568 65.9887 116.216 65.675 115.865 65.4021L115.736 65.9944L115.282 66.6526C115.246 66.4003 115.349 66.041 115.265 65.8137C115.218 65.6875 114.57 65.4249 115.165 65.1191L114.932 64.8906L115.163 64.7223C114.86 64.5472 114.625 65.2259 114.363 65.0531C114.333 65.0327 114.179 64.6132 114.051 64.4904C113.986 64.4279 113.674 64.4563 113.535 64.1539L113.186 64.9485C112.975 64.088 112.72 63.232 112.718 62.335L112.487 63.8117C112.35 63.5093 112.414 63.0944 112.293 62.8147C112.227 62.6647 112.023 62.6488 111.927 62.4862C111.686 62.0735 111.509 60.9629 111.439 60.457C111.415 60.2842 111.472 59.7647 111.437 59.7203C111.228 59.4589 111.232 60.0159 111.09 59.9465L110.856 59.6066L110.624 60.2887C110.885 59.2053 110.212 59.3577 109.739 58.7699C109.572 58.563 109.527 58.2868 109.344 58.0708C109.091 57.7718 108.596 57.5751 108.352 57.2205C108.148 57.7354 108.616 59.0223 107.762 59.0337C107.089 59.0428 106.813 58.1481 106.481 57.682C106.212 57.3057 105.72 56.502 105.502 56.2519C104.981 55.6539 104.096 55.2663 103.586 54.5978C103.347 54.2852 102.958 53.1518 102.878 53.1291C102.73 53.0881 102.518 53.162 102.477 53.311C102.386 53.6463 103.05 54.2545 102.936 54.3773C102.718 54.6115 102.702 53.9498 102.297 54.0362C102.152 54.0669 102.324 54.3455 102.18 54.3773C101.654 54.0919 102.103 53.4155 101.582 53.3951C100.995 53.3735 99.0218 53.7896 98.3697 53.9567C96.5936 54.4114 94.1036 55.4493 92.3055 56.1087C91.8746 56.2667 90.5329 57.1773 90.1754 56.6589C90.1404 56.6089 90.0018 55.6096 90.0007 55.4584C89.9646 52.5152 91.3668 49.6061 93.5062 47.62C93.9429 47.2153 94.8618 46.6026 95.2112 46.1672C95.2799 46.0808 95.2263 45.4283 95.5979 45.7386C95.7318 45.4715 95.5827 44.9633 95.6887 44.7507C95.8715 44.3835 96.2372 44.3221 96.3525 44.1391C96.5913 43.7617 96.7019 43.291 96.8487 42.9284C96.9325 42.7226 97.1992 42.5533 97.3459 42.3839C97.1154 42.1929 96.7019 42.4441 96.49 42.41C96.3618 42.3884 94.9643 41.6472 94.849 41.5267C94.4682 41.1288 94.6033 40.499 94.4425 39.9909C94.1735 39.1417 93.448 38.0708 93.4503 37.042C93.4503 36.5713 93.6867 35.9483 93.7356 35.4493C93.8113 34.6694 93.8416 32.1468 94.2411 31.6785C94.283 31.6296 94.7046 31.3351 94.7547 31.3215C95.8517 31.01 97.2656 33.7338 98.9205 32.4344C99.3584 32.0911 99.9733 30.9816 100.267 30.7974C100.334 30.7554 101.185 30.387 101.237 30.3904C102.073 30.4348 102.41 31.7649 103.247 31.9399C104.175 32.1343 104.639 31.3158 105.191 30.7667C106.26 29.7049 107.224 28.4067 108.798 27.7576C110.235 27.1653 110.69 28.0156 110.974 29.2548C111.203 29.2923 111.037 28.9672 111.09 28.9137C111.123 28.8796 111.677 29.1377 111.995 28.7773C112.014 28.7546 111.918 28.6432 111.943 28.6045C111.962 28.5772 112.061 28.5704 112.124 28.4783C112.173 28.4067 112.119 28.2532 112.138 28.2339C112.237 28.1327 112.647 28.5352 112.66 28.1191C113.031 29.0183 112.951 28.3021 113.201 28.1282C113.278 28.0748 113.965 28.4863 114.175 27.778C114.358 28.3249 114.331 27.7189 114.53 27.6746C114.662 27.6462 115.062 27.8565 115.281 27.778C115.391 28.235 114.846 27.8576 114.818 27.8906C114.805 27.9054 114.83 28.0986 114.744 28.2191C114.395 28.7091 114.143 28.4306 114.118 28.459C113.881 28.7193 114.408 28.8705 114.474 28.9581C114.771 29.3491 114.539 29.8027 114.175 30.0494C114.047 29.5583 113.865 30.0642 113.672 30.1506C113.265 30.3325 112.977 30.4018 113.128 29.9369C112.699 30.819 112.092 29.9562 111.323 30.1654L112.137 30.279C112.12 30.5837 111.579 30.5951 111.554 30.6201C111.488 30.6872 111.651 30.9532 111.729 30.9577C111.795 30.9623 112.061 30.6565 112.253 30.7338L111.672 31.301C112.13 31.367 112.495 30.7122 112.544 31.4147C112.75 31.2863 113.067 30.8077 113.244 30.7338C113.274 30.7213 113.468 31.1203 113.767 31.0737C113.7 30.9236 113.69 30.3529 113.769 30.2779C113.98 30.079 114.014 30.495 114.05 30.4939C114.288 30.4859 114.84 30.3598 114.993 30.1654L115.048 30.5041L115.399 30.561C115.29 30.8031 114.631 30.8031 114.584 30.8474C114.077 31.3124 115.775 30.8111 115.849 30.7179C115.909 30.6451 115.823 30.1131 116.098 29.938C115.966 29.8402 115.133 30.3495 115.446 29.7391C115.466 29.7004 115.723 29.7527 115.515 29.4833C115.911 29.5196 116.336 29.2275 116.505 29.7095C116.709 29.6185 116.561 29.4014 116.581 29.381C116.609 29.3525 117.594 29.2957 116.761 29.1422C116.361 29.0683 117.25 28.567 117.379 28.6864C117.02 29.5674 117.72 28.9615 117.727 28.7421C117.738 28.3533 116.61 28.725 116.566 28.6852C116.315 28.4579 116.919 28.5011 116.797 28.2885C116.555 28.2134 116.375 27.844 116.247 27.7667C116.082 27.6678 115.876 27.7928 115.868 27.7769C115.718 27.4995 116.198 27.1528 115.402 27.1517L116.1 26.98C116.153 26.789 115.88 26.922 115.861 26.8095C115.796 26.4093 116.25 26.357 116.449 26.1274C116.767 25.7613 116.951 25.2657 117.268 24.8803C117.747 24.2971 118.417 23.8037 119.067 23.4434L119.594 23.6832C119.655 23.5502 119.453 23.2524 119.477 23.2296C119.526 23.1853 120.412 23.008 120.582 23L120.41 23.4547L121.11 23.341L120.992 23.116C121.69 22.9852 122.113 23.9799 122.159 24.537C122.2 25.0178 121.938 25.6101 122.062 25.9932C122.128 26.2001 122.403 26.2456 122.548 26.44C123.631 27.8872 121.489 29.1058 120.758 30.1051C120.716 30.1631 120.126 31.1498 120.176 31.1851C120.219 31.2158 120.433 31.1476 120.515 31.1953C120.531 31.2055 120.386 31.4613 120.586 31.5273L121.69 31.301L121.109 31.5284C121.413 31.9706 121.95 31.4875 122.218 31.4124C122.279 31.3954 122.26 31.6296 122.346 31.6478C122.483 31.675 123.852 31.4693 123.903 31.5273C123.794 32.19 124.313 31.5341 124.602 32.04L124.37 32.2082L125.3 32.0968L124.951 32.3799C125.267 32.6629 125.494 32.8016 125.934 32.7823C126.345 32.763 127.027 32.2901 127.046 32.8914L125.766 33.0074C125.751 33.1677 126.208 33.22 126.308 33.2257C126.878 33.2586 127.435 33.1427 127.978 33.0074C127.988 33.2098 127.443 33.1813 127.687 33.4599C128.204 33.1677 128.805 33.1245 129.377 33.0074C129.218 33.3314 128.791 33.0847 128.91 33.5747C128.865 33.3371 127.902 33.536 127.863 33.5747C127.762 33.6747 128.034 33.9737 128.179 34.0123C128.437 34.0794 128.658 33.8873 128.91 33.9157L128.328 34.1431L128.677 34.2568C128.73 34.4489 128.446 34.3091 128.437 34.433C128.427 34.5705 128.571 35.0139 128.792 34.94C128.883 35.0298 128.496 35.1435 128.37 35.2742C127.914 35.7505 128.48 35.7176 128.647 35.8085C128.991 35.9972 129.333 36.3587 129.571 36.6282C129.952 37.0602 129.916 36.876 130.341 36.9863C130.441 37.0124 130.419 37.1875 130.505 37.2079C130.807 37.2796 131.26 37.1636 131.589 37.2113L131.125 37.5501C131.508 37.4978 131.501 37.9184 131.941 37.7798L131.823 38.0048C132.718 38.0742 133.64 38.0174 134.503 37.7798L134.444 38.0071C134.79 38.1094 135.31 37.7536 135.434 38.1197L135.084 38.347C135.277 38.4164 135.493 38.2493 135.617 38.2447C135.67 38.2424 135.64 38.5664 135.959 38.4641C136.067 38.4289 135.94 38.1765 136.131 38.2345C136.082 38.6471 136.389 38.3709 136.643 38.3845C137.108 38.4107 136.888 38.7824 137.057 39.0644C137.176 39.261 137.744 39.3133 137.763 39.7101C137.294 39.8374 137.309 39.527 137.118 39.3986C137.063 39.3622 136.631 39.3668 136.832 39.5953C136.917 39.6919 137.63 39.8624 137.739 39.9647C138.025 40.2364 138.433 41.0743 138.716 41.4539C139.24 42.1588 140.034 42.5487 140.546 43.1921C140.948 43.698 140.883 43.6003 141.32 44.0288C141.423 44.13 142.113 44.8905 142.137 44.9463C142.243 45.1816 142.028 45.4669 142.073 45.509C142.093 45.5272 142.331 45.4715 142.477 45.6249C142.589 45.742 142.806 46.2365 143.01 46.473C143.676 47.2449 144.206 47.5575 144.456 48.5841C144.469 48.6341 144.836 49.3355 144.401 48.9808C143.996 48.65 143.297 47.2097 142.848 46.689C142.77 46.598 142.009 45.8261 141.953 45.7966C141.84 45.7363 141.543 45.8364 141.377 45.6249V46.1922C141.19 45.3521 140.686 44.6939 140.036 44.1471C140.177 45.1827 139.683 44.1914 139.63 44.2607L139.513 44.6007L139.453 44.2585C139.093 44.4688 138.707 44.4631 138.291 44.487L138.349 44.7132C138.14 44.7791 138.076 44.5461 137.925 44.5165C137.725 44.4767 137.233 44.6996 136.951 44.6018L137.8 44.8508C137.982 44.878 138.162 45.1145 138.306 45.1372C138.363 45.1463 139.346 44.9974 138.786 45.484C138.405 45.8148 137.345 45.6795 136.889 45.5124L136.834 45.7375L138.348 45.9671L137.65 46.1922C138.648 46.2922 139.314 47.1517 140.327 47.2222C140.315 47.5928 140.204 47.487 140.096 47.6701C140.489 47.7008 140.799 48.0077 141.143 48.1839L140.792 48.2407C140.977 49.0206 141.73 49.4742 142.424 49.8334C142.512 50.2825 142.031 49.8709 141.702 49.7982C141.535 49.7618 141.47 49.6004 141.494 49.8869L142.076 50.4575L141.844 50.5701C142.246 51.0214 142.631 52.0252 142.77 52.6232C142.845 52.9494 142.416 52.5095 142.544 52.8414C142.68 53.1961 143.001 53.8157 143.095 54.1226C143.222 54.5387 143.342 55.0787 143.357 55.5141L142.894 54.4319C142.7 54.1863 142.141 53.9294 141.844 53.8089C141.916 53.8441 142.434 53.5679 142.658 53.8089C142.492 53.4474 142.47 52.7505 142.347 52.4447C142.314 52.364 141.229 51.1874 141.15 51.1476C141.07 51.1078 140.912 51.1726 140.799 51.1339C140.693 51.0987 139.734 50.6985 140.036 51.0817C140.187 51.2715 140.704 51.2067 140.796 51.5341C140.074 51.3454 140.212 51.417 140.096 52.1037C140.028 52.1707 139.666 51.6819 139.572 51.6501C139.342 51.5716 139.424 51.8331 139.388 51.8604C139.141 52.0525 139.103 51.5045 138.874 51.4227C138.776 51.3875 138.852 51.5728 138.779 51.6137C138.659 51.6796 138.48 51.6398 138.468 51.6512C138.138 51.9377 139.212 52.1412 139.273 52.1707C139.69 52.3719 141.447 53.17 141.647 53.3485C141.781 53.469 141.8 53.7884 141.845 53.81L141.822 53.7998ZM196.558 53.3519C195.793 53.062 195.744 53.8464 195.734 54.4273C195.731 54.6422 195.865 54.8536 195.862 54.9855C195.861 55.0605 195.65 55.0469 195.59 55.1878C195.356 55.7312 195.677 56.0234 195.745 56.5293C197.63 56.1519 196.391 54.533 196.558 53.353V53.3519ZM140.03 56.6862C139.936 56.6111 139.455 56.186 139.494 56.5838C139.855 56.6521 140.021 57.2443 140.106 57.3023C140.196 57.3637 140.396 57.3023 140.425 57.3251C140.461 57.3535 140.111 58.014 140.213 58.2061C140.523 58.3925 142.491 60.4729 142.635 60.3922C142.651 60.3831 142.688 60.0852 142.87 60.1103C142.205 59.6317 142.081 58.7768 141.618 58.1492C141.32 57.7457 140.452 57.0204 140.03 56.6873V56.6862ZM117.948 64.0323C118.019 63.9777 118.187 64.2574 118.237 64.2562C118.553 64.2562 118.405 62.4191 118.294 62.0985L118.065 63.2933L117.889 63.2354C118.253 63 117.702 62.8784 117.711 62.5533C116.844 62.7647 116.877 64.4495 117.876 64.2665C117.977 64.2483 117.938 64.0391 117.947 64.0311L117.948 64.0323ZM195.603 65.3078C195.002 64.9826 195.272 65.6488 195.149 65.725C195.015 65.808 194.32 65.7034 194.231 66.0763C194.637 66.1524 196.051 66.7618 196.327 66.5935C196.991 66.1877 196.168 65.9649 195.971 65.8012C195.816 65.6727 195.631 65.3226 195.604 65.3078H195.603ZM150.299 70.5303C150.247 70.5008 149.365 70.6349 149.273 70.6804C149.167 70.7327 148.864 71.2772 148.835 71.3966C148.67 72.0912 149.265 72.1821 149.354 72.5175C149.389 72.6471 149.262 72.937 149.395 73.1211C150.596 73.0756 150.005 72.9301 150.104 72.5232C150.171 72.2503 150.752 72.1651 150.439 71.6478L150.668 71.7615C150.705 71.5307 150.861 71.2818 150.774 71.0419C150.762 71.0089 150.329 70.5474 150.298 70.5303H150.299ZM164.43 72.8824C164.384 72.8392 164.426 72.6005 164.302 72.4925C164.266 72.4606 163.448 72.4413 163.336 72.464C162.83 72.5698 162.646 73.1825 162.206 73.4076C162.183 73.8123 163.06 73.7532 163.365 73.6338C163.467 73.594 163.551 73.394 163.655 73.3792C163.857 73.3496 163.946 73.6657 164.032 73.6895C164.181 73.7293 164.383 73.6645 164.557 73.7236C164.879 73.8305 165.162 74.1249 165.579 74.034C165.493 73.5895 165.459 73.2189 166.043 73.3519L165.695 73.1268L166.16 72.8994C165.929 72.9949 164.492 72.9404 164.428 72.8824H164.43ZM192.225 77.2421C192.166 77.1386 191.077 76.6418 190.852 76.7635C190.597 77.7752 191.548 78.0947 192.366 78.1277C192.24 77.9014 192.309 77.3899 192.225 77.2421ZM157.883 79.3873C157.524 79.1224 157.106 79.7033 156.886 79.8158C156.516 80.0068 155.303 80.2728 155.969 80.8572C156.171 81.0345 157.283 80.9799 157.659 81.1959C157.773 80.8833 157.424 80.5627 157.429 80.341C157.433 80.0546 158.263 79.668 157.883 79.3861V79.3873ZM151.679 82.3759C151.473 82.2657 150.806 82.1077 150.679 82.227C150.65 82.2543 150.544 82.9159 150.606 83.0148C150.725 83.2035 151.707 83.2467 151.835 83.191C152.288 82.9921 151.946 82.5192 151.679 82.3759ZM123.743 87.4245C123.781 87.3836 123.889 86.8152 123.869 86.7311C123.741 86.1945 122.792 86.3662 122.435 86.3071C122.116 86.2548 122.028 86.0388 121.493 86.074C121.168 86.0956 121.034 86.2582 120.897 86.2775C120.7 86.3048 119.887 86.0138 119.81 86.3707C119.725 86.7686 120.326 86.5503 120.394 86.5935C120.507 86.6663 120.235 86.9732 120.835 86.9721C121.346 86.9721 121.4 86.4116 121.907 87.279L121.558 87.4484C121.883 87.3336 122.909 88.2033 123.181 88.0123C123.215 87.9884 123.233 87.6803 123.362 87.561C123.475 87.4564 123.693 87.4791 123.743 87.4245ZM209.834 91.2011C210.036 90.9862 208.878 89.6527 208.207 90.2382C208.041 90.3837 208.042 90.6292 207.938 90.7156C207.864 90.7782 207.672 90.7657 207.562 90.8532C207.164 91.1704 207.323 91.591 207.68 91.8809L207.739 91.0874C208.1 90.8498 208.982 91.9184 209.136 91.7683C209.074 91.3727 208.591 91.1579 208.466 90.7747C208.309 90.295 208.619 90.303 208.968 90.5121C209.097 90.5894 209.683 91.3613 209.834 91.1988V91.2011ZM119.615 91.2784C119.54 91.1806 119.559 90.976 119.469 90.91C119.399 90.8577 119.201 90.9851 119.078 90.9532C118.909 90.91 118.493 90.3075 118.309 90.8191C118.079 91.4637 119.272 91.4512 119.692 91.5432C119.322 91.9479 119.24 92.0446 119.549 92.5345C119.59 92.5982 119.556 92.7608 119.749 92.6778C119.858 92.6312 120.315 92.0491 120.39 91.8843L119.808 91.882C120.106 91.3818 119.753 91.4648 119.614 91.2784H119.615ZM108.035 90.8737C108.027 90.8589 107.798 90.9703 107.699 90.86C107.586 91.0453 108.021 92.4754 107.467 92.6801L107.464 92.1116C107.197 92.439 106.642 92.9756 107.349 92.6812L107.407 93.3599C107.975 93.1075 107.871 92.5425 107.932 91.998L108.281 92.2242C108.196 91.8922 108.493 91.6444 108.405 91.2624C108.378 91.1476 108.134 91.2465 108.07 91.1817C108.006 91.1169 108.072 90.9385 108.036 90.8737H108.035ZM117.131 93.8169C116.603 93.8066 115.954 94.0567 115.449 94.0476C114.943 94.0386 114.521 93.6441 114.04 93.6896C113.822 93.71 113.886 93.9203 113.799 93.926C113.164 93.9715 112.583 94.1011 111.947 94.1545C111.661 94.1784 110.603 94.0545 110.508 94.1693C110.495 94.1852 110.589 94.3296 110.546 94.3864C110.454 94.5069 110.223 94.433 110.259 94.6092C111.042 94.7968 111.774 94.5638 112.587 94.7252C112.684 95.1106 111.911 94.9332 111.611 94.9662C111.476 94.981 110.894 95.0037 110.958 95.2345L113.022 95.9473C114.054 96.1201 113.87 95.6642 114.299 95.5426C114.574 95.4641 115.29 95.6369 115.382 95.3482C115.493 94.998 115.066 94.9764 114.974 94.84C114.628 94.3273 115.154 94.6058 115.308 94.5808C115.445 94.5581 115.573 94.3603 115.727 94.3205C116.117 94.2204 116.457 94.2352 116.873 94.0704C117.048 94.001 117.189 94.1386 117.129 93.8157L117.131 93.8169ZM108.514 97.9094C108.281 97.7287 108.233 98.3846 108.009 98.3903C107.635 98.9064 107.838 99.5987 107.931 100.182C108.072 99.9602 108.381 100.089 108.395 100.068C108.565 99.8181 108.147 99.8397 108.162 99.7863C108.279 99.36 108.894 98.8893 108.979 98.305C109.021 98.0174 108.758 98.155 108.569 98.1356C108.224 98.0981 108.579 97.9606 108.514 97.9094ZM207.822 98.2868C207.327 98.1072 206.136 98.3425 206.112 98.9803C206.179 99.1883 207.206 99.3918 207.449 99.3964C207.765 99.402 209.088 99.2599 209.297 99.1451C209.491 99.0394 209.734 98.7904 209.544 98.5904C208.945 98.6824 208.522 98.6381 207.947 98.4676C207.858 98.4414 207.851 98.2971 207.823 98.2868H207.822ZM206.458 100.409C206.655 100.231 205.836 99.5692 205.678 99.5226C205.608 99.5021 204.291 99.3975 204.213 99.4089C203.792 99.4646 203.594 99.925 203.945 100.192C204.122 100.327 204.524 100.315 204.776 100.402C205.045 100.497 205.521 100.856 205.762 100.696C205.837 100.645 205.833 100.437 205.957 100.406C206.094 100.372 206.422 100.442 206.458 100.408V100.409ZM111.542 100.069C111.377 99.9261 110.362 101.062 110.178 101.181C109.975 101.312 109.556 101.363 109.33 101.547L109.213 101.206L109.095 101.887L108.864 101.32L108.746 102.001H109.385L109.328 102.228C109.641 102.436 109.906 101.553 110.144 102.113C109.806 102.147 109.475 102.535 109.203 102.626C109.032 102.683 108.876 102.558 108.864 102.569C108.665 102.767 108.905 104.414 108.864 104.73C109.246 105.099 110.304 103.727 110.55 103.476C110.642 103.383 111.026 103.355 110.843 103.139C110.809 103.098 110.564 103.232 110.612 103.026C111.59 102.666 111.847 102.141 112.125 101.207L110.145 102.001C110.444 101.569 111.709 101.347 110.96 100.809L111.543 100.071L111.542 100.069ZM202.286 103.231C202.215 103.156 202.438 102.988 202.277 102.737C202.154 102.544 201.548 102.045 201.334 102.228C201.281 102.518 201.687 102.589 201.684 102.851C201.684 102.992 200.996 103.855 201.464 104.146C201.562 104.207 202.349 104.078 202.378 104.043C202.453 103.955 202.178 103.437 202.495 103.254C202.434 103.248 202.318 103.263 202.285 103.23L202.286 103.231ZM110.405 104.824C110.314 104.679 110.451 104.457 110.319 104.389C110.217 104.633 109.71 104.942 109.629 105.07C109.588 105.136 109.687 105.291 109.678 105.298C109.626 105.332 109.453 105.198 109.324 105.245C108.9 105.401 108.518 106.097 108.984 106.487C109.855 107.217 110.747 105.922 110.843 105.184C110.276 105.084 110.396 105.847 109.913 105.979C109.84 105.76 110.189 105.639 110.146 105.469C110.109 105.323 109.764 105.37 109.796 105.184C110.22 105.286 110.299 105.099 110.609 104.953C110.661 104.768 110.444 104.885 110.405 104.822V104.824ZM201.205 108.607C201.185 108.576 200.693 108.423 200.526 108.302C200.305 108.142 199.342 106.987 199.129 107.642C198.916 108.297 199.72 108.241 199.975 108.377C200.23 108.514 200.407 108.864 200.671 108.968C201.001 109.099 201.401 108.908 201.205 108.608V108.607ZM202.169 109.937C202.118 109.907 202.063 109.635 201.92 109.556C201.741 109.458 201.566 109.606 201.568 109.674C201.574 109.812 202.436 110.418 202.574 110.566C202.673 110.67 203.423 111.893 203.662 111.664C203.748 111.463 203.428 111.319 203.431 111.266C203.437 111.176 204.114 111.136 203.711 110.195C203.18 108.955 202.59 110.179 202.169 109.937ZM117.946 111.096C117.74 111.013 117.595 111.324 117.538 111.32C117.422 111.315 117.289 110.552 116.7 111.018C116.248 111.375 116.773 111.987 116.549 112.46C116.858 112.247 117.066 112.006 117.015 112.574C117.644 112.412 117.489 111.974 117.659 111.555C117.723 111.397 118.01 111.34 117.946 111.096ZM194.811 111.779L192.025 112.412C191.867 112.504 191.582 112.82 191.571 112.989C191.568 113.027 191.764 113.676 191.791 113.702C191.843 113.751 192.174 113.659 192.365 113.767C192.529 113.86 192.689 114.381 193.03 114.482C193.737 114.691 194.654 114.855 195.365 115.049C195.777 115.162 196.01 114.778 195.859 114.622C195.839 114.601 195.605 114.642 195.511 114.568C195.359 114.451 195.426 114.205 195.326 114.057C194.877 113.394 195.081 113.497 194.82 112.849C194.742 112.654 194.486 112.471 194.47 112.388C194.426 112.165 194.884 112.053 194.81 111.78L194.811 111.779ZM192.599 115.418C192.611 115.402 192.942 115.355 192.946 115.245C192.949 115.188 192.038 114.629 191.98 114.635C191.758 114.662 191.551 114.999 191.202 114.733C190.982 114.963 192.067 115.807 192.104 115.893C192.125 115.939 192.003 116.089 192.015 116.096C192.815 116.122 193.541 116.608 194.187 116.99C194.743 117.318 194.771 116.719 194.528 116.545C194.368 116.43 194.145 116.459 193.998 116.376C193.827 116.279 193.816 116.079 193.676 115.979C193.558 115.894 192.475 115.589 192.597 115.418H192.599ZM128.402 130.221C128.254 130.082 127.817 130.106 127.614 129.968C127.46 130.41 127.865 130.569 127.95 130.744C128.171 131.199 128.135 131.668 128.719 131.789L128.893 131.56C128.863 131.953 129.114 132.084 129.476 132.13C129.51 132.3 129.013 132.22 129.363 132.411C129.496 132.483 130.209 132.759 130.292 132.696C129.979 132.325 130.297 131.341 129.594 131.674C129.825 131.133 129.612 131.446 129.402 131.299C129.345 131.259 128.643 130.688 128.607 130.651C128.488 130.53 128.491 130.306 128.403 130.223L128.402 130.221ZM174.566 140.401C174.472 140.345 174.209 139.653 173.849 139.744C173.941 140.064 174.101 140.171 173.964 140.54L173.733 140.425V141.107L173.151 140.995C173.25 141.896 173.028 142.728 172.916 143.609C172.357 143.151 172.795 143.622 172.335 143.609C172.441 143.401 172.521 143.104 172.159 143.267C172.106 143.291 171.954 143.883 171.693 143.952C171.577 143.858 171.707 143.664 171.462 143.725C170.673 144.192 170.643 144.97 170.241 145.607C170.095 145.836 169.344 146.341 169.271 146.483C168.564 147.845 168.644 149.882 167.934 151.536C166.287 155.371 165.33 159.502 164.738 163.65C164.672 164.117 164.412 164.708 164.443 165.24C164.472 165.724 164.899 166.209 164.889 166.625C164.877 167.196 164.186 167.863 164.103 168.47C164.078 168.66 164.221 168.899 164.194 169.133C164.135 169.643 163.923 170.491 163.941 170.951C163.967 171.559 165.119 173.983 165.53 174.526C165.982 175.123 166.682 175.603 167.363 175.92C167.598 176.029 168.889 176.524 169.067 176.531C169.176 176.535 169.883 175.975 170.135 175.854C171.021 175.429 171.758 175.34 172.601 175.079C172.769 175.027 172.857 174.814 172.999 174.775C173.357 174.679 173.799 175.272 173.848 175.215C173.627 174.7 173.845 174.934 174.225 174.751C175.32 174.223 176.202 174.321 177.396 174.194C177.798 174.152 178.316 173.937 178.687 173.952C178.835 173.958 179.009 174.384 179.439 174.191C179.25 173.887 179.539 173.378 179.787 173.624C179.857 173.693 179.555 174.066 180.198 173.972C180.512 173.926 180.388 173.583 180.662 173.396C180.686 173.714 180.895 173.505 180.934 173.535C180.996 173.58 180.871 173.784 181.067 173.736C181.019 173.338 181.065 173.072 181.467 173.408C181.541 173.47 181.478 173.667 181.649 173.623C181.681 173.477 181.607 172.992 181.652 172.942C181.843 172.722 181.889 173.154 181.959 173.17C183.053 173.418 182.361 172.2 183.396 172.601C183.344 171.637 183.379 172.051 183.898 171.922C184.061 171.881 184.011 171.392 184.562 171.691C184.457 171.236 184.765 171.419 184.92 171.275C184.981 171.217 185.53 170.425 185.554 170.329C185.615 170.096 185.632 169.881 185.61 169.643C184.684 169.899 185.634 169.148 185.721 168.671C185.757 168.473 185.717 168.252 185.727 168.052C185.047 168.442 185.546 167.468 185.721 167.305C186.009 167.04 186.372 167.306 186.19 166.539C186.168 166.445 186.005 166.448 185.963 166.379C185.614 165.817 186.194 165.79 186.292 165.465C186.347 165.277 186.212 165.037 186.287 164.8C186.35 164.6 186.611 164.675 186.542 164.471C186.422 164.114 186.113 164.58 186.078 164.526C185.982 164.078 186.667 163.948 186.774 163.67C186.868 163.424 186.244 163.372 186.189 163.214C186.032 162.756 186.601 163.187 186.542 162.708L185.961 162.706C186.629 162.177 186.309 162.379 186.236 161.946C186.215 161.825 186.287 161.691 186.258 161.567C186.212 161.371 185.997 161.05 186.003 160.946C186.011 160.805 186.48 160.383 186.519 160.011C186.559 159.622 186.195 158.98 186.207 158.914C186.225 158.809 186.933 158.314 186.253 158.047C186.175 158.016 186.141 158.497 185.846 158.387C185.806 158.346 186.116 157.757 186.158 157.626C186.188 157.53 186.076 157.397 186.082 157.319C186.087 157.249 186.438 157.289 186.31 156.855C186.204 156.499 185.738 157.125 185.733 156.741C185.731 156.639 186.156 156.23 186.083 155.847C186.07 155.779 185.717 155.793 185.844 155.388C185.876 155.288 186.193 155.372 186.078 155.094C185.222 154.926 185.872 154.272 185.853 153.778C185.841 153.483 185.571 153.354 185.61 153C185.638 152.751 185.906 152.538 185.844 152.249L185.381 152.703L185.496 151.057C184.714 150.362 185.325 149.436 185.268 148.675C185.262 148.606 185.03 148.615 185.024 148.547C185.008 148.361 185.283 147.943 185.263 147.702L184.799 148.156C184.921 147.531 184.97 147.16 184.566 146.62L184.391 146.905L183.458 145.883C183.346 145.865 183.432 146.058 183.388 146.092C183.151 146.272 181.56 144.76 181.306 144.461C181.279 144.194 181.343 144.312 181.515 144.372C182.156 144.597 182.281 145.296 182.818 145.542L182.587 144.974C182.724 145.037 183.227 145.592 183.168 145.146C183.131 144.867 182.756 143.418 182.352 143.781C182.253 143.941 182.696 144.523 182.296 144.52C182.14 144.519 182.161 143.904 182.105 143.852C182.055 143.805 181.676 143.842 181.539 143.723L181.713 144.29C181.152 143.43 180.671 143.914 179.908 143.723C179.964 144.153 180.024 144.6 180.257 144.973C179.752 145.092 179.666 144.627 179.539 144.543C179.52 144.53 179.119 144.514 179.1 144.527C178.98 144.611 179.086 145.182 178.86 145.2C178.218 144.46 177.88 143.484 177.283 142.703C177.037 142.382 177.191 142.874 176.997 142.813C177.106 142.605 176.8 141.972 176.647 141.844C176.523 141.739 176.459 141.993 176.355 141.992C176.209 141.991 175.786 141.132 175.654 140.99C175.569 140.899 175.232 140.958 175.132 140.708L175.364 140.54C175.186 140.4 174.603 140.422 174.568 140.401H174.566ZM157.891 173.283C157.797 173.187 156.81 173.455 156.74 173.695C156.71 173.799 156.951 174.563 157.02 174.651C157.136 174.799 157.302 174.608 157.398 174.671C157.438 174.697 157.412 174.871 157.485 174.874C157.856 174.891 158.506 173.848 158.125 173.569C158.08 173.536 157.916 173.628 157.902 173.608C157.855 173.536 157.924 173.317 157.89 173.282L157.891 173.283ZM156.722 178.838C156.757 178.803 156.582 178.012 156.108 178.295C155.671 178.556 155.862 178.901 155.648 179.161C155.452 179.399 154.547 179.74 154.4 180.214C154.97 180.142 155.916 180.193 155.564 179.42L156.263 179.418L155.914 178.966C156.091 178.971 156.622 178.943 156.722 178.839V178.838Z" fill="#FFC3C3"/>
<mask id="path-2-inside-1_2483_2836" fill="white">
<path d="M72 8H236L229.74 108L236 208H72L79.5115 108L72 8Z"/>
</mask>
<path d="M236 11.375C236 9.125 236 6.875 236 4.625C223.851 4.25 211.702 3.89375 199.552 3.55625C157.035 2.37514 114.517 1.42366 72 0.701815L64.2591 0.570448L64.7223 8.54666C66.6602 41.9225 68.7397 75.2877 70.9606 108.642V107.358C68.1764 140.641 65.5334 173.935 63.0317 207.24C63.0296 207.269 63.0274 207.297 63.0253 207.326L62.2986 217L72 217C126.667 217 181.333 216.62 236 215.86L244.257 215.975L243.845 207.509C241.295 174.205 238.604 140.909 235.771 107.623V108.378C236.624 87.14 237.42 65.8989 238.158 44.6542C238.58 32.5076 238.984 20.3598 239.368 8.21085C237.123 8.07028 234.877 7.92972 232.632 7.78915C231.498 19.8912 230.384 31.9945 229.288 44.0989C227.371 65.2699 225.512 86.4444 223.71 107.623V108.378C225.05 141.758 226.532 175.129 228.155 208.491L236 200.14C181.333 199.38 126.667 199 72 199L80.9747 208.674C80.9769 208.646 80.979 208.617 80.9812 208.588C83.4828 175.284 85.8432 141.968 88.0623 108.642V107.358C85.2756 74.0456 82.3474 40.7442 79.2777 7.45334L72 15.2982C114.517 14.5763 157.035 13.6249 199.552 12.4437C211.702 12.1062 223.851 11.75 236 11.375ZM236 4.625V11.375L232.632 7.78915L239.368 8.21085L239.694 4.73898L236 4.625Z" fill="#FF584B" mask="url(#path-2-inside-1_2483_2836)"/>
<path d="M77 107.5L42.5 127.852L42.5 87.1484L77 107.5Z" fill="#FF584B"/>
<path d="M231 107.5L265.5 87.1484L265.5 127.852L231 107.5Z" fill="#FF584B"/>
<path d="M56 107.5L22.25 127.852L22.25 87.1484L56 107.5Z" fill="#FF584B"/>
<path d="M252 107.5L285.75 87.1484L285.75 127.852L252 107.5Z" fill="#FF584B"/>
</svg>
