<svg width="307" height="217" viewBox="0 0 307 217" fill="none" xmlns="http://www.w3.org/2000/svg">
<g clip-path="url(#clip0_2483_2897)">
<rect width="307" height="217" fill="#3C1212"/>
<circle cx="235" cy="109" r="52.5" stroke="#FF584B"/>
<path d="M75.263 89.2051L16.3117 -16.282L45.0836 -29.8243L82.2314 35.7835L116.476 108.495L65.0232 48.2524L75.263 89.2051Z" fill="#FFC3C3" stroke="#FFC3C3"/>
<path d="M17.8393 85.8522C16.8973 92.7885 15.9554 99.7248 15.0134 106.661C17.637 106.841 20.2606 107.021 22.8841 107.2C70.1083 110.434 117.332 113.668 164.557 116.902C167.18 117.082 169.804 117.262 172.427 117.441C169.851 116.915 167.274 116.388 164.698 115.862C118.321 106.385 71.9451 96.9084 25.5687 87.4316C22.9922 86.9051 20.4157 86.3787 17.8393 85.8522Z" fill="#FF584B"/>
<path d="M81.3653 148.064L77.2766 237.4L110.614 256.997L110.955 210.673L111.293 138.647L109.217 152.3L89.2559 96.1836L81.3653 148.064Z" fill="#FFC3C3"/>
<path d="M222.842 63.9741C222.215 63.7203 221.429 63.5296 220.772 63.3261C221.528 64.2304 222.735 64.5118 223.586 65.3132C223.626 65.507 223.427 65.4438 223.316 65.4154C222.883 65.3018 222.454 65.0098 222.014 64.9482C222.013 64.9993 222.762 65.4657 222.384 65.5151C222.227 65.5362 221.727 65.1412 221.524 65.0618C221.395 65.0107 221.324 64.9806 221.352 65.1485C222.069 65.7536 222.784 66.3919 223.368 67.1089C223.982 67.864 224.615 68.8032 225.214 69.598C225.321 69.7391 225.484 69.8997 225.564 70.0271C225.629 70.1301 225.646 70.3547 225.666 70.3718C225.811 70.4959 227.542 70.0636 227.893 70.2201L227.562 70.4618C227.976 70.3288 228.395 70.5794 228.766 70.5526C228.968 70.538 228.819 70.3653 228.968 70.3815V70.7862C228.832 70.8211 228.933 70.6467 228.833 70.6232C228.567 70.5608 228.361 70.5924 228.307 70.8673H228.639L228.678 70.7067C228.829 70.7643 228.709 70.9428 228.72 70.9484C228.748 70.9647 229.2 70.8357 229.299 71.0709L229.009 71.0312C228.828 71.2907 229.321 71.2128 229.503 71.2372C230.066 71.3134 229.903 71.208 230.257 71.1918C230.384 71.1861 230.54 71.3345 230.624 71.2331C230.304 70.8422 229.945 71.0474 229.549 71.1098L229.714 70.787L229.218 70.6248C229.33 70.6289 229.438 70.5624 229.552 70.5916C229.743 70.641 230.46 71.0677 230.668 71.079C230.903 71.092 231.558 70.5267 231.95 70.6248C231.397 71.0774 231.445 71.7035 232.115 71.0701C231.913 70.8544 231.846 71.3183 231.702 71.1909C231.609 71.109 232.116 70.7627 232.119 70.7319C232.128 70.5835 231.992 70.5283 232.109 70.3385C232.287 70.0473 232.572 70.2623 232.861 70.2193C232.561 70.6208 232.87 71.3799 232.78 71.7027C232.758 71.7822 232.599 71.7741 232.547 71.895C232.466 72.0831 232.512 72.4019 232.446 72.6095C232.656 72.5487 232.743 72.3873 232.778 72.732C232.266 72.8147 232.547 72.8447 232.538 73.1772C232.532 73.3768 232.478 73.7101 232.283 73.7872L232.364 73.3824C232.088 73.3103 232.242 73.5852 232.199 73.6249C232.106 73.7117 231.986 73.5901 232.032 73.4635C231.722 73.7977 231.252 73.3013 231.031 73.8196C230.919 74.084 230.926 74.2065 230.762 74.5187C230.735 74.5706 230.799 74.6753 230.791 74.6793C230.763 74.6964 230.217 74.7345 230.213 74.5577C230.266 74.4733 230.439 74.4701 230.462 74.3792C230.484 74.2884 230.504 73.5722 230.295 73.7872C230.168 73.9177 230.379 74.5844 229.963 74.4368C230.246 74.8853 229.71 74.7921 229.632 74.964C229.602 75.0313 229.775 74.9713 229.798 75.0565C229.874 75.3363 229.731 75.7256 229.711 76.0135C229.703 76.1368 229.809 76.2804 229.795 76.4191C229.78 76.5918 229.466 77.0192 229.463 77.1523C229.462 77.2001 229.63 77.1863 229.639 77.2423C229.655 77.3445 229.494 77.6259 229.55 77.6803C229.66 77.7865 229.997 77.4426 230.17 77.4426C230.357 77.4426 230.628 77.69 230.836 77.6754C230.959 77.6665 231.036 77.5343 231.161 77.5253C231.359 77.5107 231.607 77.7054 231.888 77.6665C232.058 77.6429 232.257 77.4678 232.326 77.4661C232.418 77.4637 232.525 77.6097 232.643 77.5878C232.97 77.527 233.683 76.5529 234.269 76.6267C234.344 77.0176 234.124 76.7913 233.958 76.8887C233.928 76.9065 233.488 77.2285 233.409 77.2885C232.985 77.6105 232.649 78.1361 232.2 78.4524C232.826 78.4824 232.085 78.9625 232.2 79.0599C232.691 79.171 232.948 78.7265 233.3 78.557C233.568 78.4289 233.969 78.4199 234.183 78.2861C234.378 78.1628 234.381 77.9187 234.52 77.8052C234.686 77.6689 235.185 77.6462 235.31 77.4377C235.392 77.3023 235.257 77.1685 235.278 77.1255C235.296 77.0906 235.797 76.7216 235.888 76.6299C236.402 76.1076 236.773 75.488 237.582 75.4101C237.419 75.1384 237 75.6193 236.961 75.2479C236.887 75.5772 236.823 75.2755 236.63 75.2746C236.531 75.2746 236.367 75.4393 236.341 75.4109C236.178 75.2365 236.57 75.1335 236.505 75.0873C236.023 74.8545 236.005 75.3111 235.828 75.4409C235.642 75.5772 235.447 75.5431 235.267 75.6169C235.149 75.6656 235.111 75.8602 234.933 75.8156L235.016 75.0865L235.18 75.4101C235.043 74.7888 235.688 75.3574 235.596 74.8415L235.761 74.9243C235.768 74.8407 235.736 74.7345 235.765 74.6599C235.901 74.3038 236.387 73.7758 236.639 73.4327C236.807 73.2064 236.824 72.9331 237.168 72.7741C236.819 72.6419 237.103 72.7303 237.168 72.573L237.018 72.5576C237.048 72.38 237.014 72.0353 236.839 71.9241C236.943 72.3564 236.235 72.4716 236.172 72.5422C236.042 72.6865 235.965 73.0175 235.869 73.2016C235.759 73.4133 235.722 73.5544 235.64 73.7158C235.628 73.7409 235.302 73.7644 235.177 73.9875C235.052 74.2105 235.146 74.4993 234.852 74.5998C234.766 74.3541 234.989 74.0775 234.997 73.8967C235.001 73.7928 234.784 73.3159 234.851 73.221C234.859 73.2097 235.037 73.3435 235.088 73.1707C235.143 72.9793 235.048 72.7214 235.112 72.5414C235.148 72.4375 235.301 72.4457 235.345 72.3467C235.4 72.2226 235.375 72.049 235.464 71.8706C235.56 71.6743 236.104 71.5283 236.215 71.2729C236.39 70.8738 236.22 70.7943 236.56 70.3564C236.616 70.2842 236.597 70.156 236.668 70.0993C236.711 70.066 236.833 70.1463 236.838 70.1398C236.913 70.0238 236.783 69.5713 236.756 69.4099L237.003 69.4901C236.993 69.2687 236.996 69.057 237.041 68.8372C237.071 68.6945 237.513 67.7707 237.749 68.1535C237.476 68.5509 237.227 69.0189 237.831 68.4358L237.872 68.6783L238.209 68.435C238.114 67.9264 238.57 67.8372 238.99 67.6644C239.019 67.5825 238.8 67.6661 238.825 67.5842C238.88 67.3992 239.218 67.7155 238.991 67.3003C239.139 67.2508 239.189 67.426 239.28 67.4333C239.419 67.4438 240.198 67.0578 240.396 67.0124C240.511 66.9856 240.943 67.0602 240.965 67.0407C241.066 66.9483 241.468 65.7836 241.392 66.649C241.763 66.5273 241.603 67.2151 241.847 66.7317C241.954 67.164 242.363 66.8672 242.385 66.8931C242.404 66.9158 242.342 67.0789 242.434 67.1454C242.548 67.2265 242.82 67.2143 242.966 67.2184L242.635 67.4609L243.545 67.4625C243.454 67.8088 242.914 67.3116 242.966 67.7042C243.451 67.512 243.868 68.1365 244.252 68.0927C244.541 68.0602 244.257 67.9629 244.208 67.868L244.455 67.7058C244.209 67.9053 243.901 67.6036 243.877 67.6239C243.846 67.649 243.945 67.8177 243.794 67.7853L243.71 67.5436C243.943 67.6661 244.218 67.3019 244.248 67.3019C244.275 67.3019 244.49 67.5801 244.679 67.6093C244.847 67.6344 245.565 67.4163 245.589 67.2638C245.599 67.2021 245.494 67.0002 245.531 66.9759C245.567 66.9515 245.748 67.0124 245.845 66.9588C245.982 66.8826 246.072 66.3238 246.276 66.2459C246.305 66.5014 246.062 66.9994 245.899 67.2176C245.887 67.233 245.49 67.4617 245.74 67.4641C246.025 67.4665 246.178 67.3571 246.525 67.5444C246.541 67.7139 246.27 67.5825 246.193 67.6255C246.177 67.6344 246.275 67.8826 246.238 67.9889C246.205 68.083 245.996 68.2492 246.029 68.2727C246.202 68.3985 246.567 67.7723 246.897 67.8672C246.862 68.13 246.494 67.8956 246.609 68.2744C246.843 68.0976 246.729 68.3863 246.977 68.4382C247.405 68.5266 247.786 68.3076 248.142 68.113L248.181 68.3547L249.009 68.1941L248.43 68.5169C248.738 68.6061 248.89 68.4934 249.175 68.4374C248.475 69.0197 249.034 69.0473 249.672 68.924L249.341 69.246C249.437 69.2963 249.887 69.6369 249.906 69.6661C249.922 69.6905 249.828 69.8024 249.837 69.8113C250.43 69.9176 250.043 69.9492 249.949 70.0847C249.641 70.5324 249.983 70.5543 249.926 70.8162C249.909 70.8909 249.725 70.886 249.684 70.9995C249.643 71.1131 249.638 71.4878 249.749 71.5632C249.893 71.6622 250.216 71.5008 250.25 71.6792L249.837 71.7603C250.354 71.6824 250.076 71.8966 250.208 72.1675C250.314 72.384 250.783 72.4505 250.988 72.5389C251.098 72.586 251.174 72.7303 251.322 72.7798C251.532 72.8496 252.246 72.8569 252.235 73.2624C252.228 73.509 251.747 73.1837 251.741 73.3824C252.793 73.6825 253.755 74.0937 254.663 74.6964C254.816 74.7969 255.356 75.1481 255.427 75.2463C255.468 75.3038 255.515 75.3882 255.424 75.4117C255.265 75.4182 255.203 75.2357 255.092 75.1684C254.885 75.0419 255.135 75.4742 254.929 75.329C254.774 75.2203 254.877 75.011 254.722 75.0054C254.825 75.4401 254.64 75.4158 254.496 75.6007C254.391 75.7361 254.6 75.8943 254.059 75.8164C254.047 76.003 254.029 75.9608 254.182 75.9786C254.769 76.046 254.97 75.9503 255.382 76.5058C255.122 76.7475 254.724 76.5196 254.349 76.5456C253.784 76.5845 254.482 76.8741 254.562 76.986C254.682 77.1523 254.599 77.3404 254.653 77.4248C254.673 77.4556 254.912 77.5059 255.015 77.5975C255.174 77.7403 255.19 77.9666 255.387 78.1247C255.513 78.2261 256.576 78.5765 256.656 78.5619C256.755 78.544 256.868 78.3575 256.956 78.2902C256.623 77.9698 255.869 77.8417 255.815 77.3031C255.78 76.9544 256.372 77.2723 256.377 76.9933C256.088 76.8741 256.079 76.694 255.958 76.5285C255.948 76.5148 255.616 76.2901 255.841 76.3023C255.948 76.3079 256.238 76.5237 256.212 76.2633C255.97 76.2106 255.991 75.9697 255.944 75.9219C255.866 75.8424 255.55 75.9073 255.634 75.6145C255.901 75.2836 256.143 75.947 256.46 75.9786C256.494 75.9381 256.223 75.4888 256.585 75.4904C256.634 75.4904 256.618 75.6088 256.652 75.6242C256.844 75.7126 257.1 75.8692 257.229 75.9202C257.376 75.9795 257.533 75.8513 257.702 75.934C257.841 76.0022 257.894 76.2925 258.138 76.4036C258.432 76.5383 258.84 76.4896 259.129 76.5691C259.418 76.6486 259.782 77.0614 260 76.9795C260.383 76.8351 260.152 76.4191 260.127 76.2512C260.114 76.1603 260.213 76.007 260.188 75.9786C260.031 75.8018 260.056 76.1993 259.9 76.1392C259.813 76.106 259.632 75.9146 259.525 75.8562C259.505 75.8213 259.856 75.8018 259.691 75.655C259.659 75.6275 259.039 75.419 258.911 75.3339C258.846 75.2901 258.935 75.1911 258.872 75.123C258.798 75.0419 258.636 75.0151 258.621 74.9956C258.606 74.9762 258.735 74.582 258.774 74.5536C258.932 74.4409 259.899 74.6185 260.104 74.1943C259.797 74.3727 259.526 73.7774 259.606 73.7069C259.65 73.6696 259.882 73.7855 259.855 73.6266L259.442 73.5438L259.772 73.3021L259.442 73.1399L259.11 73.2194C259.195 73.015 259.499 73.0004 259.689 72.9761C259.647 72.7604 259.486 72.9063 259.413 72.8885C259.339 72.8707 259.404 72.7571 259.245 72.736C259.007 72.7052 258.711 72.8585 258.448 72.6517L258.613 72.5714C258.622 72.1358 258.177 72.47 258.047 72.3994C257.994 72.3702 257.84 71.9971 257.862 71.8958C257.881 71.8049 258.113 71.8114 258.116 71.6808C257.769 71.6403 257.464 71.9842 257.579 71.5186C257.368 71.6922 257.161 71.8065 256.874 71.7603C257.126 71.4691 257.59 71.4075 257.951 71.4359C257.537 70.8965 257.643 71.2745 257.31 71.3394C257.253 71.3507 256.827 71.2842 256.798 71.268C256.787 71.2615 256.899 71.0912 256.749 71.0328C256.554 70.9565 256.694 71.2274 256.545 71.1942L256.502 70.9517C256.326 71.178 256.006 71.0855 256.006 70.7895C255.906 71.0271 255.645 70.8519 255.633 70.8698C255.605 70.9095 255.678 71.1171 255.621 71.1836C255.595 71.2137 255.09 71.4302 255.136 71.1966L255.385 71.0336L254.226 70.7092C254.336 70.6354 254.921 70.3247 254.952 70.289C254.968 70.2712 254.824 70.0165 255.219 70.0587C255.151 69.7481 254.745 69.9168 254.723 69.8973C254.683 69.8616 254.839 69.5461 254.862 69.4391C254.879 69.362 254.782 69.2347 254.814 69.1811C254.827 69.1609 255.154 69.0051 255.218 68.924L255.26 69.4099L255.552 68.7618C255.684 68.7261 255.603 68.8737 255.654 68.8981C255.762 68.95 255.965 69.0335 256.089 69.0854C256.154 69.1122 256.107 68.9248 256.179 68.9167C256.303 68.9021 256.434 69.0319 256.629 68.9735C256.824 68.9151 257.105 68.4544 257.228 68.3774C257.35 68.3003 257.609 68.3798 257.703 68.2143C257.877 67.9094 257.705 67.5947 257.729 67.3538C257.768 66.9637 258.029 66.679 257.845 66.2281C257.774 66.0521 257.551 65.988 257.62 65.7211C257.718 65.3432 257.965 66.0066 257.995 66.0058C258.245 65.9434 258.492 65.7949 258.447 65.5159C258.35 65.5476 258.265 65.6838 258.285 65.4803C258.368 64.6441 258.655 63.558 258.789 62.6472C258.923 61.7364 259.151 60.7939 259.111 59.8393C259.144 59.8036 259.605 60.0007 259.613 60.051C259.635 60.1832 259.321 61.4485 259.286 61.755C259.24 62.1614 259.281 62.6578 259.245 63.0284C259.213 63.3504 258.971 64.1193 259.027 64.3269C259.043 64.3902 259.196 64.3813 259.192 64.417C259.173 64.5784 258.896 65.048 258.88 65.1672C258.861 65.3156 258.908 65.4535 258.856 65.7941C258.82 66.035 258.647 66.7926 259 66.8858C259.034 66.8947 259.652 66.8161 259.715 66.7974C259.953 66.7277 260.326 65.9093 260.257 65.6563C260.245 65.61 260 65.3002 259.939 65.2296C259.82 65.0893 259.606 65.1696 259.774 64.949H259.36L259.691 64.4218L259.36 64.3407C259.608 64.0471 260.157 63.9741 260.022 64.4624C260.29 64.2961 260.408 64.5986 260.643 64.7033C260.918 64.5646 260.749 63.863 260.776 63.8265C260.804 63.79 260.958 63.8014 261.002 63.6805C261.779 61.5466 260.882 59.2424 260.795 57.188C260.792 57.1198 260.822 56.9527 260.891 56.9195C261.002 57.0136 261.053 57.1669 261.079 57.3031C261.364 58.8441 261.604 60.4241 261.599 61.9911C261.599 62.2076 261.502 62.3828 261.517 62.6245C261.543 63.0041 262.108 64.1136 262.274 64.567C262.321 64.6943 262.355 64.8111 262.341 64.9482C262.646 64.8306 262.429 64.5386 262.423 64.3391C262.415 64.0285 262.427 63.717 262.423 63.408C262.468 63.3585 263.116 63.7032 263.255 63.4348L263.167 62.7591C263.144 62.7437 262.859 63.0844 262.768 62.7024C262.714 62.4777 263.091 61.9319 262.589 62.0284C262.797 61.6277 263.149 62.1354 263.5 62.0292C263.567 62.3569 263.255 62.0259 263.169 62.1103C262.971 62.3049 263.656 62.3731 263.749 62.3179C263.86 62.2522 263.89 61.9505 264.037 61.8686C264.462 62.1298 265.002 62.5158 265.228 62.9716C265.454 63.4275 265.565 64.7268 265.491 65.2369C265.471 65.3773 265.255 65.696 265.321 65.7593C265.339 65.7763 265.681 65.6846 265.632 66.0318C265.605 66.2256 265.262 66.4811 265.403 66.8136C265.093 66.8923 265.313 66.5103 265.23 66.4154C265.213 66.3959 264.958 66.3749 264.862 66.3311C264.482 66.1583 264.16 65.8274 263.842 66.3781C263.801 66.4495 263.505 67.134 263.505 67.1778C263.505 67.542 263.884 67.8007 264.034 68.0351C264.253 68.379 264.38 68.9224 264.824 69.0035C264.838 68.6945 264.973 68.6758 265.238 68.598C265.175 69.3012 264.604 69.8332 264.164 70.3434C263.867 70.6889 263.665 71.0336 263.254 71.315L263.666 71.5584C263.516 71.8284 263.072 71.6995 262.937 71.779C262.891 71.8065 262.884 71.9761 262.793 71.9955C262.715 72.0126 262.539 71.8901 262.507 71.9225C262.494 71.9347 262.532 72.0685 262.485 72.1399C262.436 72.2153 262.234 72.2478 262.144 72.4075C262.074 72.5324 261.953 73.0986 261.838 73.3208C261.769 73.4538 261.506 73.2973 261.926 73.6671C262.376 74.0637 262.71 74.1708 263.137 74.6745C263.254 74.8123 263.405 74.6704 263.25 75.0037L263.5 75.0054L263.335 75.1254C263.605 75.5731 263.539 75.7086 264.079 75.492C264.001 76.0516 263.948 76.0946 264.493 76.3444C264.504 76.6048 264.025 76.2285 263.914 76.3039C264.005 76.4718 264.22 76.5569 264.162 76.7897C263.637 76.6121 263.747 76.8522 263.496 77.0703C263.383 77.1685 263.177 77.1393 263.169 77.2755C263.373 77.342 263.832 77.1563 263.991 77.2374C264.222 77.355 264.647 77.776 264.784 78.0063L265.487 77.1141C265.439 77.4183 265.197 77.7013 265.103 77.9844C265.055 78.1255 265.209 78.3194 264.991 78.4921L265.487 78.3307C265.469 78.4248 265.583 78.5319 265.565 78.6073C265.536 78.7346 265.301 78.6803 265.322 78.8166C265.447 78.8068 265.61 78.8563 265.719 78.7955C265.728 78.7898 265.767 78.4905 265.901 78.6552C265.96 78.729 265.784 79.1134 265.736 79.2213C266.389 79.1856 266.662 78.6089 266.729 79.5887C266.747 79.8555 266.778 80.1151 266.527 80.2813C266.412 80.3576 266.224 80.3065 266.234 80.4387C266.719 80.4849 267.059 80.2529 267.392 79.9529C267.514 80.3186 267.156 80.4265 267.086 80.5441C267.017 80.6617 267.046 80.875 266.896 81.0064C266.989 81.0754 267.52 80.6763 267.392 80.9659C267.341 81.0827 267.135 81.1256 267.086 81.1938C266.974 81.3503 266.986 81.7283 266.73 81.8994L267.392 81.4947C267.453 81.562 266.969 82.0916 267.156 82.296C267.183 82.326 267.745 82.541 267.847 82.7121C268.005 82.9749 267.82 83.3755 268.345 83.6935C268.487 83.7803 268.648 83.5337 268.468 83.9279C268.864 83.8695 268.66 84.0447 268.718 84.2782C268.726 84.3099 268.86 84.6984 268.905 84.8403C268.991 85.112 269.257 85.58 269.298 85.8347C269.342 86.1104 269.064 85.8541 268.966 85.7949C268.948 86.0991 269.326 86.2305 269.38 86.5241L269.502 86.3627C269.881 86.7487 269.346 86.9256 269.213 87.254C269.711 87.048 270.169 86.9937 270.703 86.9312L270.144 87.3157L269.462 87.4576C269.64 87.5468 269.644 87.8956 269.729 87.9661C269.806 88.0302 270.075 88.0197 270.114 88.0756C270.183 88.1762 270.02 88.5436 270.29 88.6758C270.56 88.808 270.916 88.5631 271.2 88.6336C271.242 88.8437 271.023 88.9524 271.032 89.1527C271.046 89.4447 271.395 89.585 271.437 89.7456C271.488 89.9378 271.243 90.2193 271.491 90.3353C271.654 90.4115 271.739 89.8794 271.781 90.2152C271.707 90.6248 271.442 90.6873 271.206 90.8681C270.969 91.049 271.162 91.2209 271.406 91.2161C271.935 91.2055 272.093 90.5794 272.571 90.5031C272.871 90.4553 273.405 90.4399 273.583 90.7197C273.877 91.1763 273.239 91.0766 273.02 91.1885C272.898 91.2518 272.885 91.4278 272.839 91.4545C272.656 91.5624 272.23 91.3556 272.193 91.3904C272.16 91.5551 272.316 91.5973 272.389 91.7149C272.437 91.7935 272.229 91.9241 272.606 91.8771C272.328 92.2713 271.278 91.7449 271.282 92.4432C271.609 92.4189 272.038 92.8552 272.32 92.8487C272.455 92.8455 272.543 92.6857 272.669 92.6273C273.409 92.2859 273.173 92.5795 273.555 93.0166C273.643 93.1172 274.003 93.539 274.032 93.5633C274.087 93.6079 274.253 93.569 274.34 93.6233C274.476 93.7077 274.599 93.9169 274.758 93.9567C274.904 93.9923 275.368 93.6703 275.339 94.2292L275.009 94.067C274.878 94.234 275.489 94.8423 275.641 94.8675C275.674 94.8731 276.199 94.6501 276.265 94.6087C276.505 94.4611 276.63 94.1067 276.995 94.1489C277.062 94.5325 276.474 94.8058 276.14 94.9737C276.026 95.0313 275.685 95.1035 275.67 95.123C275.612 95.2008 275.87 95.4774 275.841 95.6437C275.832 95.6939 275.696 95.6866 275.686 95.7021C275.59 95.8416 275.961 96.0313 276.024 96.1992C276.111 96.4377 275.811 96.6405 276.25 96.5829C276.081 96.8335 276.322 96.9616 276.33 97.1093C276.334 97.1839 275.927 98.3623 275.852 98.5051C275.671 98.8498 275.396 98.81 275.509 99.3778C275.532 99.4946 275.744 99.7193 275.667 99.8247C275.642 99.8604 274.897 100.182 274.852 100.19C274.542 100.24 273.926 100.107 273.635 100.308C273.415 100.46 273.404 100.901 273.274 101.089C273.177 101.229 272.618 101.582 272.565 101.691C272.498 101.826 272.547 101.992 272.504 102.118C272.361 102.534 272.187 102.83 272.276 103.315L271.946 103.234C271.89 103.386 272.126 103.449 272.076 103.558C271.976 103.775 271.478 103.929 271.386 104.186C271.325 104.358 271.372 104.812 271.353 104.839C271.316 104.888 271.128 104.909 271.119 104.977C271.114 105.022 271.368 105.247 271.365 105.383C271.364 105.479 271.252 105.559 271.223 105.652C271.104 106.042 270.996 106.025 270.96 106.123C270.888 106.323 271.058 106.524 271.038 106.67C271.031 106.724 270.722 107.391 270.707 107.659C270.696 107.847 270.813 108.453 270.773 108.611C270.746 108.718 270.575 108.781 270.565 108.868C270.536 109.089 271.195 110.339 271.199 110.695L270.207 108.993C270.401 109.749 270.126 109.351 269.897 109.583C269.722 109.762 269.728 110.722 269.463 110.533L269.378 110.21C268.735 110.334 269.219 111.142 269.131 111.588L268.635 111.102C268.551 111.395 268.851 112.137 268.791 112.348C268.78 112.387 268.311 112.811 268.222 112.928C268.107 113.08 267.98 113.253 267.899 113.423C267.762 113.714 267.614 114.711 267.557 114.751C267.284 114.944 267.303 114.246 267.391 114.102C266.908 114.199 267.104 114.264 267.062 114.629C266.549 114.781 266.654 113.875 266.316 113.696L266.193 114.427L265.902 114.265C265.791 114.923 265.673 115.571 265.487 116.211C265.191 116.141 265.411 115.526 265.074 115.563L265.156 116.211L264.907 115.888L264.742 116.131L264.247 115.968L264.164 116.535C264.214 116.069 263.938 115.987 263.585 115.806C263.583 116.481 263.428 116.203 263.052 116.297C262.639 116.4 262.191 116.863 261.95 117.166C261.917 117.209 261.941 117.311 261.92 117.344C261.892 117.384 261.559 117.19 261.513 117.224C261.412 117.3 261.205 118.061 261.099 118.24C260.955 118.259 261.021 118.055 261.017 117.958C261.009 117.755 261.024 117.55 261.016 117.349C260.801 117.395 260.68 117.675 260.603 117.753C260.515 117.842 260.535 117.445 260.357 117.593C260.339 117.606 260.213 117.928 260.189 117.997C259.852 117.881 260.31 117.478 259.942 117.349C259.927 117.492 259.857 117.788 259.693 117.834L259.692 117.186L259.445 117.349L259.526 116.782C259.459 116.713 258.891 117.088 258.655 117.014C258.596 116.996 258.639 116.847 258.576 116.863C258.417 116.901 258.171 117.259 258.047 117.173C258.03 117.162 258.044 117.026 257.989 117.021C257.801 117.005 257.171 117.173 256.914 117.19C256.774 117.199 256.641 117.124 256.515 117.13C256.38 117.137 256.22 117.276 256.101 117.254C255.963 117.228 255.794 116.719 255.717 117.067C255.695 117.169 256.86 118.53 256.712 118.89L256.876 118.808C256.738 119.085 256.978 119.543 257.137 119.811C257.265 120.026 257.792 120.477 257.209 120.106C257.28 120.51 257.85 120.858 257.876 121.284C257.889 121.499 257.781 121.681 257.787 121.85C257.796 122.061 258.005 123.114 257.952 123.189L257.788 123.107C257.923 123.525 257.652 123.552 257.577 123.75C257.509 123.928 257.482 124.523 257.455 124.568C257.445 124.582 257.313 124.421 257.189 124.669C256.805 125.435 256.973 126.531 257.05 127.358C257.259 129.604 256.879 131.877 256.978 134.177C257.033 135.446 257.119 137.34 257.379 138.553C257.45 138.885 257.74 139.285 257.783 139.536C257.84 139.871 257.709 140.123 257.701 140.421C257.686 141.057 258.13 142.378 258.446 142.942C258.494 143.028 258.778 143.447 258.823 143.466C258.904 143.499 258.825 143.273 258.905 143.304C259.173 143.406 259 143.788 259.04 143.856C259.062 143.894 259.664 144.372 259.722 144.41C260.851 145.124 262.41 145.239 263.558 146.087C263.683 146.179 263.774 146.602 263.873 146.224C264.145 146.419 264.507 147.08 264.401 147.389C264.364 147.496 264.203 147.503 264.159 147.578C263.976 147.898 264.067 148.266 263.59 148.379C262.981 148.523 261.994 148.504 261.49 148.093C261.345 147.975 261.315 147.623 261.21 147.6C261.061 147.565 260.832 147.625 260.648 147.6C260.464 147.574 260.112 147.274 260.107 147.639C260.105 147.773 260.723 148.698 260.85 148.84C261.047 149.06 261.513 149.391 261.769 149.584C261.869 149.66 262.032 149.69 262.101 149.755C262.178 149.826 262.085 149.95 262.094 149.955C262.152 149.99 262.72 149.705 262.922 149.875L262.674 150.117C263.047 150.095 263.34 150.095 263.667 150.281L263.171 150.362C263.347 150.703 263.491 150.51 263.752 150.554C263.831 150.567 264.627 150.934 264.662 150.969C264.989 151.292 264.837 152.17 264.442 152.459C263.718 152.988 262.452 152.361 261.7 152.249C261.242 152.18 260.731 152.223 260.252 152.126C258.944 151.862 258.353 151.642 256.929 151.831C256.163 151.932 256.176 152.303 255.655 152.711C255.212 153.058 254.655 153.354 254.228 153.727C253.664 154.22 253.349 154.545 252.737 155.024C252.228 155.421 251.938 156.335 251.433 156.504C251.26 156.563 250.983 156.495 250.833 156.647C250.683 156.799 250.709 157.228 250.588 157.441C250.577 157.46 250.297 157.735 250.278 157.745C249.884 157.968 249.314 157.8 249.215 157.339C249.06 156.619 248.98 155.812 249.114 155.044C249.186 154.631 249.321 154.468 249.758 154.457C249.76 154.39 249.17 154.192 249.259 154.497C249.129 154.519 249.161 154.381 249.192 154.309C249.352 153.942 249.903 153.901 250.254 153.929C250.181 153.636 249.52 153.937 249.591 153.606L250.585 153.442C250.484 153.162 249.827 153.412 249.757 153.361C249.981 152.983 250.53 153.153 250.916 153.118L250.586 152.795L251.413 152.875C251.32 152.656 251.044 152.627 250.833 152.632L251.412 152.47L250.916 152.228H251.578L251.247 152.064C251.333 151.721 252.044 152.015 252.074 151.984C252.129 151.728 251.792 151.749 251.744 151.579C251.943 151.555 252.233 151.635 252.407 151.54C252.709 151.374 252.026 151.357 252.075 151.256L252.902 151.173L252.489 150.931L253.068 150.769C252.921 150.796 252.392 150.721 252.33 150.781C252.306 150.803 252.342 150.935 252.3 150.984C252.079 151.249 251.601 151.54 251.291 151.825C250.924 152.164 249.929 152.256 249.382 152.308C248.339 152.407 247.252 152.346 246.218 152.497C246.011 152.527 245.752 152.682 245.478 152.71C245.341 152.724 245.144 152.634 245.129 152.644C245.109 152.658 245.092 152.801 244.989 152.868C244.746 153.026 244.109 153.101 243.9 153.305C243.47 153.721 243.47 155.144 243.246 155.219C243.098 155.268 241.978 155.249 241.788 155.207C241.569 155.159 240.925 154.748 240.778 154.575C240.662 154.438 240.519 153.987 240.464 153.949C240.387 153.897 239.887 153.841 239.738 153.769C239.863 153.987 239.876 154.253 239.967 154.477C240.031 154.635 240.2 154.78 240.234 154.865C240.282 154.985 239.787 155.099 240.234 155.148C240.272 155.306 240.051 155.146 240.069 155.309L240.691 155.469L241.634 156.487C241.62 156.602 240.648 156.945 240.644 157.296C240.642 157.604 241.004 157.426 241.15 157.302C241.451 157.048 241.336 156.813 241.932 156.769C242.796 156.707 241.54 157.282 241.511 157.337C241.528 158.355 241.931 157.155 242.261 157.093C242.47 157.054 242.746 157.119 242.966 157.095C242.972 157.182 241.952 157.816 242.429 157.904C242.631 157.941 242.669 157.509 242.904 157.397C242.998 157.353 243.408 157.263 243.509 157.267C243.859 157.279 243.866 157.565 244.019 157.665C244.249 157.816 244.693 157.773 244.871 158.108C244.705 158.166 244.601 158.186 244.792 158.347C245.246 158.488 245.822 158.665 246.241 158.873C246.32 158.912 246.822 159.195 246.842 159.224C246.887 159.289 246.843 159.427 246.859 159.445C246.883 159.473 247.064 159.311 247.175 159.375C247.2 159.388 247.219 159.51 247.278 159.556C247.747 159.923 248.191 160.109 248.594 160.623C248.839 160.934 249.131 161.299 248.55 161.385C247.6 161.526 246.941 160.295 246.14 160.195C245.805 160.153 245.913 160.669 245.289 160.787C244.139 161.003 243.483 160.47 242.55 160.135C242.043 159.953 241.485 159.849 240.98 159.645C239.16 158.913 236.216 156.992 234.328 158.241C234.025 158.441 233.914 158.739 233.69 158.914C232.939 159.503 231.902 159.916 231.17 160.5C230.659 160.907 230.223 161.617 229.761 161.959C229.442 162.193 228.962 162.302 228.681 162.604C228.304 163.008 228.329 163.868 227.687 163.983C227.578 164.002 227.055 164.011 226.999 163.976C226.897 163.912 226.324 161.95 226.495 161.68C227.017 160.95 226.549 159.966 227.318 159.404C226.97 159.228 226.826 159.646 226.574 159.769C226.636 159.595 226.801 159.125 226.895 159.007C226.96 158.926 227.728 158.882 227.898 158.876C227.712 158.516 227.264 158.939 226.987 158.836C227.498 158.16 228.01 157.948 228.891 158.065L228.478 157.742C228.716 157.6 229.212 157.902 229.265 157.902C229.325 157.902 229.419 157.802 229.303 157.703C229.161 157.582 228.876 157.58 228.809 157.417L229.388 157.376L228.892 157.093C229.03 157.065 229.588 157.13 229.636 157.091C229.811 156.951 229.297 156.908 229.472 156.768C229.516 156.731 230.005 156.793 230.133 156.767L230.05 156.525C230.458 156.554 230.83 156.523 230.464 156.12L231.127 156.118L230.713 155.795L231.375 155.794C231.509 155.697 230.399 155.258 230.095 155.8C230.043 155.893 230.075 156.056 230.035 156.104C230.018 156.124 229.663 156.21 229.526 156.295C229.361 156.398 229.093 156.771 228.947 156.757C228.835 156.747 228.634 156.546 228.464 156.498C227.311 156.172 225.882 156.4 224.72 156.273C223.27 156.114 222.064 155.58 220.492 155.711C219.838 155.765 218.354 156.258 217.831 155.64C217.539 155.296 217.923 155.069 217.673 154.824C217.274 155.279 217.035 154.874 216.718 154.932C216.34 155.002 215.897 155.664 215.394 155.266C215.592 155.065 215.436 154.854 215.519 154.665C215.733 154.172 216.972 153.325 217.513 153.206C217.911 153.12 218.432 153.204 218.752 153.163C218.848 153.151 218.933 153.018 219.034 152.994C219.706 152.832 220.311 152.769 220.988 152.791C221.215 152.798 221.462 153.04 221.733 153.028C221.886 153.021 222.001 152.894 222.151 152.875C222.257 152.862 224.173 152.94 224.278 152.968C224.398 153 224.456 153.18 224.631 153.203C224.692 153.211 225.411 153.254 225.454 153.252C225.527 153.247 225.597 153.105 225.768 153.128C225.925 153.149 226.175 153.432 226.285 153.425C226.387 153.417 226.499 153.124 226.695 153.12C226.892 153.116 227.112 153.392 227.355 153.364C227.48 153.349 227.561 153.214 227.687 153.207C227.917 153.195 228.116 153.477 228.065 153.038C228.425 153.309 228.728 152.875 228.769 152.877C228.804 152.879 228.982 153.281 229.342 153.191C229.509 153.149 229.439 152.833 229.55 152.747C229.677 152.648 229.922 152.843 230.083 152.79C230.232 152.742 230.204 152.496 230.295 152.423C230.335 152.391 230.656 152.506 230.824 152.47C230.891 152.455 230.851 152.302 231.001 152.298C231.132 152.295 231.41 152.41 231.447 152.382C231.475 152.36 231.5 152.211 231.579 152.139C231.67 152.055 231.876 152.127 232.012 152.039C232.064 152.006 232.788 151.373 232.819 151.329C232.889 151.228 232.94 151.054 232.948 150.929C232.879 150.868 232.328 151.038 232.287 150.849C232.418 150.795 233.173 150.351 233.204 150.308C233.408 150.026 233.433 149.544 232.949 149.591C233.272 149.177 234.102 149.28 234.102 148.698C234.102 148.536 233.89 148.359 233.937 148.145C233.959 148.042 234.492 147.883 234.564 147.766C234.625 147.664 234.595 147.496 234.649 147.363C234.745 147.126 235.16 147.063 234.44 146.915C234.566 146.421 234.619 146.763 234.851 146.674C235.132 146.566 235.144 146.128 235.084 145.876C235.039 145.685 234.847 145.608 234.853 145.415C235.408 145.453 235.036 144.62 235.227 144.198C235.307 144.019 235.758 143.88 235.832 143.567C235.84 143.533 235.825 142.935 235.815 142.899C235.757 142.706 235.503 142.627 235.517 142.414C235.611 142.325 235.846 142.719 235.929 142.453C236.003 142.214 235.764 142.257 235.758 142.204C235.729 141.93 236.206 141.55 236.262 141.238C236.309 140.97 235.881 141.26 235.928 140.993C236.095 140.756 236.052 140.457 236.141 140.227C236.194 140.087 236.507 139.806 236.507 139.777C236.507 139.717 236.176 139.553 236.178 139.373C236.18 139.248 236.469 138.873 236.504 138.636C236.586 138.083 236.407 137.543 236.611 136.874C236.658 136.722 236.937 136.572 236.929 136.374C236.927 136.335 236.792 136.338 236.766 136.267C236.56 135.717 237.057 135.222 237.076 134.724C237.084 134.527 236.923 134.453 236.918 134.264C236.911 133.96 237.184 133.732 236.99 133.304C236.927 133.166 236.776 133.167 236.72 133.08C236.592 132.883 236.715 132.699 236.282 132.538C236.147 132.489 234.881 132.134 234.79 132.127C234.593 132.111 234.449 132.206 234.328 132.197C234.306 132.195 234.217 132.011 234.005 131.933C232.785 131.487 233.054 131.991 232.578 132.84C232.282 132.535 232.551 131.605 232.041 132.274L231.875 132.03C231.701 132.734 231.555 132.205 231.625 131.788L231.378 132.03C231.792 131.268 231.796 130.734 231.6 129.905C231.515 129.545 231.326 129.346 231.293 128.95L231.046 129.274L230.714 128.462C230.222 128.503 230.714 129.101 230.51 129.44C230.416 129.573 230.211 129.385 230.136 129.435C230.087 129.467 230.126 129.847 229.97 129.84C229.852 129.479 229.943 129.08 229.968 128.706C229.629 128.611 229.952 129.205 229.679 129.111C229.619 129.09 229.6 128.72 229.39 128.705L229.183 129.191C229.173 129.055 228.894 128.841 228.894 128.818C228.894 128.737 228.981 128.634 228.957 128.523C228.904 128.273 228.836 127.94 228.685 127.732C228.524 127.983 228.763 128.327 228.728 128.565C228.716 128.65 228.225 128.823 228.394 129.11C228.225 129.102 228.213 128.7 228.105 128.706C228.038 128.709 227.989 129.074 227.736 128.946C227.896 128.615 227.07 127.839 227.07 128.258V129.434L226.692 128.304L226.366 127.975L226.243 128.218C226.236 127.977 226.077 127.773 225.915 127.607C225.855 127.546 225.29 127.07 225.251 127.052C225.022 126.947 224.479 127.081 224.503 126.596L224.256 126.758C224.325 126.438 224.181 126.436 223.966 126.272L223.843 126.514L223.841 126.028L223.595 126.271C223.72 125.732 223.348 125.822 223.203 125.681C223.147 125.625 223.162 125.457 223.061 125.367C222.945 125.264 222.808 125.381 222.778 125.363C222.739 125.34 222.649 125.08 222.397 124.968C222.231 124.895 222.047 124.976 221.862 124.845C221.731 124.754 221.437 124.337 221.333 124.268C220.935 124.002 219.998 123.904 219.577 123.514C219.505 123.908 220.159 123.929 220.282 124.243C220.048 124.313 219.958 124.061 219.815 124.024C219.722 124 219.595 124.076 219.411 124.009C218.941 123.837 218.269 122.769 217.845 122.535C217.641 122.423 217.461 122.495 217.3 122.42C217.132 122.341 216.902 121.748 216.473 121.892L216.392 122.053C216.3 121.449 215.398 121.437 214.883 121.218C214.816 121.189 213.991 120.637 214.156 120.957C214.234 121.11 214.595 121.154 214.652 121.322C214.16 121.448 213.828 120.93 213.489 120.796C213.366 120.747 213.256 120.865 213.117 120.765C212.881 120.592 212.423 119.883 212.201 119.628C212.007 119.406 211.703 119.167 211.506 118.93C211.48 118.858 211.691 118.917 211.672 118.851C211.554 118.432 211.073 117.919 211.003 117.434L210.845 117.512C210.894 117.205 210.629 116.911 210.565 116.702C210.535 116.604 210.462 115.915 210.429 115.889C210.422 115.884 210.273 115.982 210.265 115.971C210.357 115.37 209.984 114.871 210.016 114.266C209.78 114.381 209.67 114.175 209.437 114.187L209.354 114.511L209.353 114.106C209.239 113.952 209.049 115.04 209.104 115.159C208.885 115.102 208.969 114.82 208.986 114.683C209.001 114.559 209.103 114.416 208.896 114.591C208.713 115.033 209.11 115.365 209.021 115.809C208.792 115.704 208.787 115.372 208.773 115.161L208.609 115.322L208.483 114.756C208.307 115.063 208.503 115.486 208.112 115.728C208.158 115.224 207.959 114.773 207.913 114.278C207.888 114.015 208.025 112.868 207.737 112.728C207.449 112.588 207.735 113.328 207.697 113.376C207.362 113.051 207.247 113.453 207.283 113.781C207.01 113.738 207.343 113.131 207.077 113.134C206.975 113.135 206.93 113.438 206.952 113.539C206.541 113.573 206.348 113.026 206.87 113.051C206.769 112.866 206.601 112.69 206.373 112.728C206.345 112.753 206.544 113.388 206.291 113.457C206.196 113.24 206.377 112.506 206.164 112.403C205.892 112.273 206.03 112.895 206.032 112.936C206.033 112.976 205.753 112.948 205.918 113.215C205.941 113.252 206.456 113.76 206.531 113.827C206.653 113.938 206.836 113.949 206.96 114.06L207.284 114.511C207.075 114.67 205.713 113.59 205.42 113.458C205.265 113.399 205.277 113.554 205.301 113.656C205.347 113.856 205.579 114.14 205.71 114.309C205.628 114.405 205.268 114.113 205.173 114.024C204.947 113.811 204.815 113.445 204.51 113.295C204.382 113.545 204.942 113.933 204.965 113.984C204.978 114.011 204.662 114.006 204.965 114.429C204.533 114.549 204.271 114.143 203.889 114.269C203.834 114.204 204.019 113.868 203.723 113.944C203.711 114.371 204.186 114.697 203.723 114.917C203.675 114.716 203.699 114.37 203.475 114.269C203.471 114.484 203.544 114.834 203.681 114.999C203.81 115.155 204.04 115.143 204.059 115.211C204.097 115.357 204.136 115.847 203.973 115.932C204.07 116.138 204.228 115.941 204.286 115.979C204.403 116.058 204.723 116.836 205.049 117.066C205.69 117.52 206.204 116.994 206.727 117.11C206.756 117.117 207.11 117.434 207.2 117.473C206.538 117.64 205.878 117.532 205.214 117.432C205.192 117.713 205.574 117.696 205.71 117.878C205.448 118.051 205.246 117.783 205.048 117.715C204.973 117.689 204.867 117.731 204.8 117.701C204.185 117.419 203.005 116.042 202.851 115.403C202.67 114.657 203.186 113.784 202.768 113.137C202.56 112.815 202.352 112.992 202.156 112.927C202.114 112.914 201.44 112.505 201.417 112.468C201.318 112.309 201.706 111.875 201.157 111.915C201.12 111.779 201.27 111.867 201.307 111.824C201.368 111.755 200.781 110.388 200.701 110.132C200.569 109.713 200.391 109.098 200.298 108.677C200.23 108.368 200.44 107.804 199.915 107.941C199.887 107.776 200.148 107.931 200.169 107.816C200.228 107.49 200.132 106.974 200.165 106.604C200.197 106.235 200.344 105.876 200.329 105.509L200.497 106.355C200.792 106.793 200.262 107.248 200.701 107.696L200.907 107.212C201.171 107.647 200.663 107.76 200.653 107.831C200.647 107.873 200.731 108.172 200.744 108.184C200.876 108.308 201.089 107.793 201.201 107.777L201.157 107.212L201.488 107.292C201.089 106.943 201.275 106.466 201.24 105.995L201.487 106.076C201.515 105.918 201.525 105.719 201.578 105.571C201.614 105.471 201.638 105.485 201.703 105.26C201.762 105.058 202.025 104.324 201.989 104.185C201.966 104.099 201.772 104.131 201.733 103.928C201.684 103.672 201.941 103.166 201.742 103.029C201.416 102.805 201.221 103.316 201.156 103.561C201.03 103.585 201.057 103.437 201.07 103.356C201.126 103.001 201.592 102.381 201.819 102.102C201.502 102.066 201.025 102.57 200.778 102.591C200.574 102.608 200.517 102.428 200.371 102.423C200.336 102.423 200.315 102.732 200.163 102.587C200.139 102.564 200.408 102.417 199.916 102.345L199.915 102.67L199.751 102.587C199.853 102.798 199.719 102.927 199.708 103.076C199.705 103.113 199.761 103.324 199.833 103.195L199.915 103.032C199.964 103.091 200.405 103.708 200.124 103.64C198.902 103.344 198.38 101.361 197.751 100.53C197.648 100.393 197.47 100.359 197.393 100.232C197.306 100.089 197.276 99.7606 197.182 99.587C197.042 99.5643 197.093 99.7825 197.107 99.8628C197.142 100.061 197.256 100.204 197.265 100.397C197.023 100.256 196.927 99.9253 196.934 99.6682L196.851 100.397L196.604 100.255C196.161 98.7882 195.838 97.5302 196.035 95.9867C196.166 94.9583 196.576 93.9964 196.897 93.015C196.923 92.9339 196.858 92.8285 196.875 92.7879C196.886 92.7628 197.246 92.4213 197.271 92.4083C197.369 92.3597 197.543 92.3881 197.585 92.354C197.715 92.2461 197.518 91.4902 197.928 91.4334L197.681 91.3126L198.094 91.311C198.181 90.9882 197.701 91.2923 197.763 91.0287C197.792 90.9006 198.07 91.0895 198.094 91.0685C198.245 90.9322 197.887 90.8754 197.855 90.7757C197.832 90.7067 198.048 89.572 198.099 89.5307C198.139 89.4974 198.359 89.5234 198.434 89.5648C198.504 89.6029 198.422 89.8429 198.551 90.0133C198.659 90.1544 199.029 90.4229 199.171 90.5818C199.198 90.2501 199.126 89.5712 198.816 89.3904C198.711 89.3287 198.389 89.4188 198.421 89.0895C198.428 89.0124 198.651 89.0076 198.675 88.9159C198.71 88.7853 198.441 88.6004 198.433 88.4349C198.426 88.2695 198.591 87.9475 198.717 87.8242C198.837 88.1795 198.33 88.8632 198.923 88.2297C198.769 88.5696 198.939 88.6969 199.172 88.9597C199.097 88.7391 199.135 88.3952 199.073 88.2062C199.034 88.0878 198.872 88.0213 198.854 87.9345C198.82 87.778 199.09 87.563 199.089 87.5403C199.083 87.443 198.825 87.4787 198.842 87.3384L199.072 87.297L199.008 87.177C199.218 87.194 199.375 86.9775 199.34 87.2557C199.476 87.2938 199.384 87.1356 199.459 87.1097C199.544 87.0805 200.391 86.9256 200.461 86.928C200.523 86.9304 201.571 87.1819 201.661 87.2119C201.891 87.2913 202 87.5882 202.319 87.499C202.403 87.2021 202.17 87.2694 202.065 87.1381C202.006 87.0642 202.062 86.9223 201.997 86.8882C201.809 86.7893 201.513 86.9702 201.574 86.6887C202.239 86.6474 202.891 86.4795 203.561 86.5257L203.148 86.3635L203.395 86.2029C202.996 86.1623 202.735 86.4665 202.319 86.3643C202.309 86.1202 202.336 85.6562 202.24 85.4429C202.19 85.331 202.017 85.4145 201.988 85.391C201.773 85.2142 202.615 85.1112 202.65 85.0658C202.603 84.962 202.534 84.8095 202.447 84.7397C202.276 84.6043 201.939 84.674 201.989 84.4186L203.23 84.58C202.987 84.3723 202.983 83.8549 202.65 83.9319V83.8119L204.475 82.1062C204.494 81.8021 204.457 81.9278 204.224 81.9854C204.17 81.8013 204.448 81.7218 204.467 81.6099C204.497 81.4355 203.459 80.5125 203.313 80.283C203.447 80.1637 204.09 81.0932 204.539 80.8329C204.733 80.7209 204.664 80.1751 205.404 80.3C205.841 80.3738 205.807 80.6869 205.839 80.6885C206.137 80.7039 206.347 80.0015 206.707 80.2813C206.424 79.858 207.204 79.566 207.202 79.4297C207.202 79.394 206.841 79.2083 206.964 78.8717C207.02 78.7192 207.264 78.7557 207.332 78.6633C207.52 78.4045 206.864 77.0476 207.413 76.9535C207.962 76.8595 207.927 77.2512 208.279 76.428C208.2 76.2633 208.014 76.4069 207.949 76.355C207.866 76.2885 207.879 76.1238 207.787 76.0306C207.595 75.8359 207.089 76.1149 207.039 76.0646V75.7402C207.015 75.7102 206.831 75.8546 206.791 75.8213C206.627 75.6842 206.959 75.6502 206.958 75.6185C206.954 75.449 206.751 75.4117 206.726 75.2844C206.701 75.157 206.854 74.8651 206.791 74.685C206.899 74.788 207.507 74.9348 207.286 74.6866C207.27 74.6696 207.041 74.642 207.039 74.5642C207.039 74.5374 207.238 74.3963 207.211 74.0751C207.205 73.9948 206.843 73.6541 206.871 73.4692C206.744 73.4416 206.831 73.5682 206.726 73.6249C206.664 73.659 206.54 73.6623 206.46 73.7117C206.379 73.4968 206.608 73.5803 206.626 73.4976C206.65 73.3881 206.615 73.2592 206.626 73.1448L206.79 73.3062L206.624 71.8463C205.879 72.0255 206.219 72.3662 206.285 72.869C206.297 72.955 206.355 73.1643 206.211 73.1432L206.127 72.6573L205.879 72.7385C205.822 72.6784 206.037 72.2924 206.04 72.2056C206.041 72.1707 205.876 72.1756 205.873 72.1261C205.869 72.0198 206.047 71.8276 205.927 71.6784C205.862 71.5965 205.5 71.5827 205.383 71.4408L205.3 71.6833L205.133 71.4408C205.107 71.6305 205.363 72.0466 205.133 72.1699C205.156 72.0417 204.991 71.3369 204.952 71.2931C204.923 71.2599 204.564 71.2137 204.471 71.1163C204.398 71.3864 204.324 71.7595 204.405 72.032C204.504 72.3646 205.086 72.4108 205.215 72.7376C204.888 72.6703 204.638 72.4465 204.388 72.2518L204.297 72.6744L203.974 73.144C203.948 72.9639 204.021 72.7076 203.962 72.5454C203.929 72.4554 203.467 72.268 203.89 72.0499L203.725 71.8868L203.89 71.7668C203.674 71.6419 203.507 72.1261 203.321 72.0028C203.299 71.9882 203.19 71.6889 203.099 71.6013C203.053 71.5567 202.831 71.577 202.732 71.3613L202.484 71.9282C202.334 71.3142 202.153 70.7035 202.151 70.0636L201.987 71.1171C201.889 70.9014 201.935 70.6054 201.849 70.4058C201.802 70.2988 201.657 70.2874 201.589 70.1714C201.417 69.877 201.291 69.0846 201.242 68.7237C201.224 68.6004 201.265 68.2298 201.24 68.1981C201.092 68.0116 201.094 68.409 200.993 68.3595L200.827 68.117L200.662 68.6037C200.848 67.8307 200.369 67.9394 200.033 67.5201C199.915 67.3725 199.882 67.1754 199.752 67.0213C199.573 66.808 199.221 66.6677 199.047 66.4146C198.902 66.782 199.235 67.7001 198.628 67.7082C198.149 67.7147 197.953 67.0764 197.717 66.7439C197.526 66.4754 197.176 65.902 197.021 65.7236C196.651 65.297 196.021 65.0204 195.659 64.5435C195.489 64.3204 195.213 63.5118 195.155 63.4956C195.05 63.4664 194.9 63.5191 194.871 63.6254C194.806 63.8646 195.278 64.2985 195.197 64.3861C195.042 64.5532 195.03 64.0812 194.742 64.1428C194.64 64.1647 194.761 64.3634 194.659 64.3861C194.285 64.1826 194.605 63.7 194.234 63.6854C193.817 63.67 192.414 63.9668 191.95 64.086C190.688 64.4105 188.917 65.151 187.639 65.6214C187.333 65.7341 186.379 66.3838 186.125 66.0139C186.1 65.9782 186.001 65.2653 186 65.1575C185.975 63.0576 186.972 60.9821 188.493 59.5652C188.803 59.2764 189.456 58.8393 189.705 58.5286C189.754 58.467 189.716 58.0014 189.98 58.2229C190.075 58.0323 189.969 57.6697 190.044 57.5181C190.174 57.2561 190.434 57.2123 190.516 57.0817C190.686 56.8124 190.765 56.4767 190.869 56.2179C190.929 56.0711 191.118 55.9503 191.223 55.8294C191.059 55.6932 190.765 55.8724 190.614 55.8481C190.523 55.8327 189.529 55.3039 189.447 55.2179C189.177 54.934 189.273 54.4847 189.158 54.1221C188.967 53.5163 188.451 52.7523 188.453 52.0182C188.453 51.6825 188.621 51.238 188.656 50.8819C188.71 50.3256 188.731 48.5258 189.015 48.1916C189.045 48.1568 189.345 47.9467 189.38 47.937C190.16 47.7147 191.165 49.6581 192.342 48.731C192.653 48.4861 193.09 47.6945 193.299 47.5631C193.347 47.5331 193.952 47.2703 193.989 47.2727C194.583 47.3043 194.823 48.2533 195.418 48.3782C196.078 48.5169 196.407 47.9329 196.8 47.5412C197.56 46.7836 198.245 45.8574 199.364 45.3943C200.386 44.9717 200.709 45.5784 200.911 46.4625C201.074 46.4892 200.956 46.2573 200.993 46.2191C201.017 46.1948 201.411 46.3789 201.637 46.1218C201.651 46.1056 201.582 46.0261 201.6 45.9985C201.614 45.9791 201.684 45.9742 201.729 45.9085C201.763 45.8574 201.725 45.7479 201.739 45.7341C201.809 45.6619 202.1 45.9491 202.11 45.6522C202.374 46.2938 202.317 45.7828 202.495 45.6587C202.549 45.6206 203.038 45.9142 203.187 45.4089C203.317 45.799 203.298 45.3667 203.439 45.3351C203.533 45.3148 203.818 45.4649 203.973 45.4089C204.051 45.7349 203.664 45.4657 203.644 45.4892C203.635 45.4997 203.653 45.6376 203.592 45.7236C203.343 46.0732 203.164 45.8744 203.146 45.8947C202.978 46.0805 203.352 46.1883 203.4 46.2508C203.611 46.5298 203.446 46.8534 203.187 47.0294C203.096 46.679 202.966 47.0399 202.829 47.1016C202.54 47.2314 202.336 47.2808 202.442 46.9491C202.138 47.5785 201.706 46.9629 201.159 47.1121L201.738 47.1932C201.726 47.4106 201.341 47.4187 201.324 47.4366C201.277 47.4844 201.393 47.6742 201.448 47.6774C201.495 47.6807 201.684 47.4625 201.821 47.5177L201.407 47.9224C201.733 47.9694 201.993 47.5022 202.028 48.0035C202.174 47.9118 202.399 47.5704 202.525 47.5177C202.547 47.5087 202.684 47.7934 202.897 47.7602C202.849 47.6531 202.842 47.246 202.899 47.1924C203.048 47.0505 203.072 47.3473 203.098 47.3465C203.267 47.3408 203.659 47.2508 203.769 47.1121L203.808 47.3538L204.057 47.3944C203.98 47.5671 203.511 47.5671 203.477 47.5988C203.117 47.9305 204.324 47.5728 204.377 47.5063C204.42 47.4544 204.358 47.0748 204.554 46.9499C204.46 46.8802 203.868 47.2435 204.091 46.808C204.105 46.7804 204.287 46.8177 204.14 46.6255C204.421 46.6514 204.723 46.443 204.843 46.7869C204.988 46.722 204.883 46.5671 204.897 46.5525C204.917 46.5322 205.618 46.4917 205.026 46.3822C204.741 46.3295 205.373 45.9718 205.464 46.0569C205.209 46.6855 205.707 46.2532 205.712 46.0967C205.72 45.8193 204.918 46.0845 204.887 46.0561C204.709 45.8939 205.137 45.9247 205.051 45.7731C204.879 45.7195 204.751 45.4559 204.66 45.4008C204.543 45.3302 204.396 45.4194 204.391 45.4081C204.284 45.2102 204.625 44.9628 204.059 44.962L204.555 44.8395C204.593 44.7033 204.399 44.7982 204.386 44.7179C204.339 44.4324 204.662 44.3951 204.804 44.2312C205.03 43.9701 205.161 43.6164 205.386 43.3415C205.726 42.9254 206.203 42.5734 206.665 42.3163L207.039 42.4874C207.083 42.3926 206.939 42.1801 206.956 42.1638C206.991 42.1322 207.621 42.0057 207.742 42L207.62 42.3244L208.117 42.2433L208.034 42.0827C208.53 41.9895 208.83 42.6991 208.863 43.0966C208.892 43.4396 208.706 43.8622 208.794 44.1355C208.841 44.2831 209.036 44.3156 209.14 44.4543C209.91 45.4868 208.386 46.3562 207.867 47.0691C207.837 47.1105 207.418 47.8145 207.453 47.8396C207.484 47.8615 207.636 47.8129 207.694 47.8469C207.706 47.8542 207.602 48.0367 207.745 48.0838L208.53 47.9224L208.116 48.0846C208.333 48.4001 208.714 48.0554 208.905 48.0019C208.949 47.9897 208.935 48.1568 208.996 48.1698C209.093 48.1892 210.066 48.0424 210.103 48.0838C210.026 48.5566 210.394 48.0886 210.6 48.4496L210.435 48.5696L211.096 48.4901L210.848 48.6921C211.072 48.894 211.234 48.993 211.547 48.9792C211.839 48.9654 212.324 48.628 212.337 49.0571L211.428 49.1398C211.417 49.2541 211.741 49.2915 211.813 49.2955C212.218 49.319 212.614 49.2363 213 49.1398C213.007 49.2842 212.62 49.2639 212.793 49.4626C213.16 49.2541 213.588 49.2233 213.994 49.1398C213.882 49.3709 213.578 49.1949 213.662 49.5445C213.631 49.375 212.946 49.5169 212.918 49.5445C212.847 49.6159 213.04 49.8292 213.143 49.8568C213.326 49.9046 213.483 49.7675 213.662 49.7878L213.249 49.95L213.497 50.0311C213.535 50.1682 213.333 50.0684 213.326 50.1569C213.319 50.255 213.421 50.5713 213.579 50.5186C213.643 50.5827 213.368 50.6638 213.279 50.757C212.954 51.0969 213.357 51.0734 213.476 51.1382C213.72 51.2729 213.964 51.5308 214.133 51.723C214.403 52.0312 214.378 51.8998 214.68 51.9785C214.751 51.9972 214.735 52.1221 214.797 52.1367C215.011 52.1878 215.333 52.105 215.567 52.1391L215.237 52.3808C215.509 52.3435 215.504 52.6436 215.817 52.5446L215.734 52.7052C216.37 52.7547 217.025 52.7141 217.639 52.5446L217.597 52.7068C217.843 52.7798 218.213 52.526 218.301 52.7871L218.052 52.9493C218.189 52.9988 218.343 52.8796 218.431 52.8763C218.469 52.8747 218.447 53.1059 218.674 53.0329C218.751 53.0077 218.661 52.8277 218.796 52.869C218.762 53.1635 218.979 52.9664 219.16 52.9761C219.491 52.9948 219.335 53.26 219.455 53.4611C219.539 53.6014 219.943 53.6387 219.956 53.9218C219.623 54.0126 219.634 53.7912 219.498 53.6996C219.459 53.6736 219.152 53.6769 219.295 53.8399C219.355 53.9088 219.862 54.0305 219.939 54.1035C220.143 54.2973 220.433 54.8951 220.634 55.166C221.006 55.6688 221.571 55.947 221.935 56.4061C222.221 56.767 222.175 56.6973 222.485 57.003C222.559 57.0752 223.049 57.6178 223.066 57.6576C223.142 57.8254 222.989 58.029 223.021 58.059C223.035 58.072 223.204 58.0323 223.308 58.1418C223.388 58.2253 223.542 58.5781 223.687 58.7468C224.16 59.2975 224.537 59.5206 224.715 60.253C224.724 60.2886 224.985 60.7891 224.676 60.536C224.388 60.3 223.891 59.2724 223.571 58.9009C223.516 58.836 222.975 58.2853 222.936 58.2642C222.855 58.2212 222.644 58.2926 222.526 58.1418V58.5465C222.393 57.9471 222.035 57.4775 221.573 57.0874C221.673 57.8263 221.322 57.119 221.284 57.1685L221.201 57.411L221.158 57.1669C220.902 57.3169 220.628 57.3129 220.332 57.3299L220.373 57.4913C220.225 57.5383 220.179 57.3721 220.072 57.351C219.929 57.3226 219.58 57.4816 219.379 57.4118L219.983 57.5894C220.112 57.6089 220.24 57.7776 220.342 57.7938C220.383 57.8003 221.082 57.6941 220.683 58.0412C220.413 58.2772 219.659 58.1807 219.336 58.0615L219.296 58.2221L220.372 58.3859L219.876 58.5465C220.586 58.6179 221.059 59.231 221.78 59.2813C221.771 59.5457 221.692 59.4703 221.615 59.6009C221.895 59.6228 222.115 59.8417 222.359 59.9675L222.11 60.008C222.242 60.5644 222.777 60.888 223.27 61.1443C223.333 61.4647 222.991 61.1711 222.757 61.1192C222.638 61.0932 222.592 60.978 222.609 61.1824L223.022 61.5896L222.858 61.6699C223.143 61.9919 223.417 62.708 223.516 63.1347C223.57 63.3674 223.264 63.0536 223.355 63.2904C223.452 63.5434 223.681 63.9855 223.747 64.2045C223.837 64.5013 223.922 64.8866 223.933 65.1972L223.605 64.4251C223.466 64.2499 223.069 64.0666 222.858 63.9806C222.909 64.0057 223.277 63.8087 223.436 63.9806C223.319 63.7227 223.303 63.2255 223.215 63.0073C223.192 62.9497 222.421 62.1103 222.364 62.0819C222.308 62.0535 222.195 62.0997 222.115 62.0722C222.04 62.047 221.357 61.7615 221.573 62.0349C221.679 62.1703 222.047 62.1241 222.113 62.3577C221.599 62.223 221.698 62.2741 221.615 62.764C221.567 62.8119 221.309 62.4631 221.242 62.4404C221.079 62.3844 221.137 62.571 221.112 62.5904C220.936 62.7275 220.909 62.3366 220.746 62.2782C220.677 62.253 220.731 62.3852 220.678 62.4144C220.593 62.4615 220.467 62.4331 220.457 62.4412C220.223 62.6456 220.986 62.7908 221.03 62.8119C221.327 62.9554 222.575 63.5248 222.718 63.6521C222.813 63.7381 222.826 63.966 222.859 63.9814L222.842 63.9741ZM261.756 63.6546C261.212 63.4477 261.177 64.0074 261.171 64.4218C261.168 64.5751 261.263 64.726 261.262 64.8201C261.261 64.8736 261.111 64.8638 261.068 64.9644C260.901 65.3521 261.13 65.5605 261.178 65.9215C262.518 65.6522 261.637 64.4972 261.756 63.6554V63.6546ZM221.569 66.0334C221.501 65.9799 221.16 65.6765 221.187 65.9604C221.444 66.0091 221.562 66.4316 221.622 66.473C221.686 66.5168 221.829 66.473 221.849 66.4892C221.875 66.5095 221.626 66.9807 221.699 67.1178C221.919 67.2508 223.318 68.735 223.42 68.6775C223.431 68.671 223.458 68.4585 223.587 68.4763C223.114 68.1349 223.027 67.5249 222.697 67.0772C222.485 66.7893 221.868 66.2719 221.569 66.0342V66.0334ZM205.869 71.2745C205.92 71.2356 206.039 71.4351 206.075 71.4343C206.299 71.4343 206.194 70.1236 206.115 69.8949L205.952 70.7473L205.827 70.7059C206.086 70.538 205.695 70.4513 205.7 70.2193C205.084 70.3702 205.108 71.5721 205.818 71.4416C205.89 71.4286 205.862 71.2794 205.869 71.2737L205.869 71.2745ZM261.077 72.1845C260.65 71.9525 260.842 72.4278 260.754 72.4822C260.659 72.5414 260.165 72.4667 260.102 72.7328C260.391 72.7871 261.396 73.2218 261.592 73.1018C262.064 72.8123 261.479 72.6533 261.339 72.5365C261.228 72.4448 261.097 72.195 261.078 72.1845H261.077ZM228.869 75.9105C228.832 75.8894 228.205 75.9851 228.139 76.0176C228.064 76.0549 227.849 76.4434 227.828 76.5285C227.71 77.0241 228.134 77.089 228.197 77.3283C228.222 77.4207 228.132 77.6275 228.226 77.7589C229.08 77.7265 228.66 77.6227 228.731 77.3323C228.778 77.1377 229.191 77.0768 228.968 76.7078L229.131 76.7889C229.158 76.6243 229.269 76.4466 229.207 76.2755C229.198 76.252 228.89 75.9227 228.868 75.9105H228.869ZM238.915 77.5886C238.882 77.5578 238.912 77.3875 238.824 77.3104C238.799 77.2877 238.217 77.2739 238.137 77.2901C237.778 77.3656 237.647 77.8027 237.334 77.9633C237.317 78.2521 237.941 78.2099 238.158 78.1247C238.231 78.0963 238.29 77.9536 238.364 77.943C238.508 77.922 238.571 78.1474 238.632 78.1645C238.738 78.1928 238.881 78.1466 239.006 78.1888C239.234 78.265 239.435 78.4751 239.732 78.4102C239.671 78.0931 239.647 77.8287 240.062 77.9236L239.815 77.763L240.145 77.6008C239.981 77.6689 238.959 77.63 238.914 77.5886H238.915ZM258.676 80.699C258.634 80.6252 257.859 80.2708 257.7 80.3576C257.518 81.0794 258.194 81.3073 258.776 81.3308C258.687 81.1694 258.735 80.8045 258.676 80.699ZM234.261 82.2295C234.006 82.0405 233.708 82.455 233.552 82.5353C233.289 82.6715 232.427 82.8613 232.9 83.2782C233.043 83.4047 233.834 83.3658 234.102 83.5199C234.183 83.2969 233.934 83.0681 233.938 82.91C233.941 82.7056 234.53 82.4298 234.261 82.2287V82.2295ZM229.85 84.3618C229.703 84.2831 229.229 84.1704 229.139 84.2555C229.118 84.275 229.043 84.747 229.087 84.8176C229.172 84.9522 229.87 84.9831 229.961 84.9433C230.283 84.8014 230.04 84.464 229.85 84.3618ZM209.989 87.9637C210.016 87.9345 210.093 87.529 210.079 87.469C209.988 87.0861 209.313 87.2086 209.06 87.1664C208.833 87.1291 208.77 86.975 208.39 87.0002C208.159 87.0156 208.063 87.1316 207.966 87.1454C207.826 87.1648 207.248 86.9572 207.193 87.2119C207.133 87.4957 207.56 87.34 207.608 87.3708C207.688 87.4227 207.495 87.6417 207.922 87.6409C208.285 87.6409 208.323 87.2411 208.684 87.8599L208.436 87.9807C208.667 87.8988 209.397 88.5193 209.589 88.383C209.613 88.366 209.627 88.1462 209.719 88.061C209.799 87.9864 209.954 88.0026 209.989 87.9637ZM271.195 90.6581C271.338 90.5048 270.515 89.5534 270.038 89.9711C269.92 90.0749 269.921 90.2501 269.847 90.3117C269.794 90.3563 269.657 90.3474 269.579 90.4099C269.296 90.6362 269.41 90.9363 269.663 91.1431L269.705 90.577C269.962 90.4074 270.589 91.1698 270.698 91.0628C270.654 90.7805 270.311 90.6272 270.222 90.3539C270.11 90.0116 270.33 90.0173 270.579 90.1666C270.671 90.2217 271.087 90.7724 271.195 90.6564V90.6581ZM207.054 90.7132C207.001 90.6435 207.014 90.4975 206.951 90.4504C206.901 90.4131 206.76 90.504 206.672 90.4813C206.552 90.4504 206.257 90.0206 206.126 90.3855C205.962 90.8454 206.811 90.8365 207.109 90.9022C206.846 91.1909 206.788 91.2599 207.008 91.6094C207.037 91.6549 207.013 91.7708 207.149 91.7116C207.227 91.6784 207.552 91.2631 207.606 91.1455L207.192 91.1439C207.404 90.787 207.153 90.8462 207.053 90.7132H207.054ZM198.822 90.4245C198.816 90.4139 198.654 90.4934 198.583 90.4147C198.503 90.5469 198.812 91.5673 198.418 91.7133L198.416 91.3077C198.226 91.5413 197.831 91.9241 198.334 91.7141L198.375 92.1983C198.779 92.0182 198.705 91.6151 198.749 91.2266L198.996 91.388C198.936 91.1512 199.147 90.9744 199.085 90.7019C199.066 90.6199 198.892 90.6905 198.846 90.6443C198.801 90.598 198.848 90.4707 198.822 90.4245H198.822ZM205.288 92.5243C204.913 92.517 204.452 92.6954 204.093 92.689C203.733 92.6825 203.433 92.401 203.091 92.4335C202.936 92.4481 202.981 92.5981 202.919 92.6022C202.468 92.6346 202.055 92.7271 201.603 92.7652C201.4 92.7822 200.647 92.6938 200.58 92.7757C200.57 92.7871 200.637 92.8901 200.607 92.9307C200.541 93.0166 200.377 92.9639 200.403 93.0896C200.959 93.2234 201.48 93.0572 202.058 93.1724C202.127 93.4473 201.577 93.3208 201.364 93.3443C201.268 93.3548 200.854 93.3711 200.9 93.5357L202.367 94.0442C203.101 94.1675 202.97 93.8423 203.275 93.7555C203.471 93.6995 203.98 93.8228 204.045 93.6168C204.124 93.367 203.82 93.3516 203.755 93.2543C203.509 92.8885 203.883 93.0872 203.992 93.0693C204.09 93.0531 204.181 92.912 204.29 92.8836C204.568 92.8122 204.81 92.8228 205.105 92.7052C205.229 92.6557 205.33 92.7538 205.287 92.5235L205.288 92.5243ZM199.162 95.4441C198.996 95.3152 198.962 95.7832 198.803 95.7872C198.538 96.1554 198.682 96.6494 198.748 97.0655C198.848 96.9073 199.068 96.9989 199.077 96.9843C199.198 96.8059 198.901 96.8213 198.912 96.7832C198.996 96.4791 199.433 96.1433 199.493 95.7264C199.523 95.5212 199.336 95.6193 199.202 95.6055C198.956 95.5788 199.208 95.4806 199.162 95.4441ZM269.764 95.7134C269.412 95.5853 268.565 95.7532 268.549 96.2082C268.596 96.3566 269.326 96.5018 269.499 96.505C269.723 96.5091 270.664 96.4077 270.813 96.3258C270.951 96.2503 271.124 96.0727 270.989 95.93C270.562 95.9957 270.262 95.964 269.853 95.8424C269.79 95.8237 269.785 95.7207 269.765 95.7134H269.764ZM268.794 97.2277C268.934 97.1003 268.352 96.6283 268.24 96.595C268.19 96.5804 267.254 96.5058 267.198 96.5139C266.899 96.5537 266.758 96.8822 267.008 97.0728C267.134 97.1693 267.419 97.1603 267.599 97.2228C267.79 97.2901 268.128 97.5464 268.299 97.4321C268.353 97.3956 268.35 97.2471 268.438 97.2252C268.535 97.2009 268.769 97.2512 268.794 97.2269V97.2277ZM201.315 96.9852C201.198 96.883 200.476 97.6932 200.345 97.7784C200.201 97.8716 199.903 97.9082 199.742 98.0395L199.66 97.7962L199.575 98.2821L199.411 97.8773L199.328 98.3632H199.781L199.741 98.5254C199.963 98.6738 200.152 98.0436 200.321 98.4435C200.081 98.4678 199.846 98.7444 199.652 98.8092C199.53 98.8498 199.419 98.7606 199.411 98.7687C199.27 98.9098 199.44 100.085 199.411 100.311C199.683 100.573 200.435 99.5943 200.61 99.4159C200.675 99.3494 200.948 99.3291 200.818 99.175C200.794 99.1458 200.62 99.2415 200.654 99.0947C201.349 98.8376 201.532 98.4629 201.729 97.797L200.322 98.3632C200.535 98.055 201.434 97.8968 200.902 97.5132L201.316 96.986L201.315 96.9852ZM265.829 99.2407C265.778 99.1872 265.936 99.0672 265.822 98.8887C265.734 98.7508 265.304 98.3948 265.151 98.5254C265.114 98.7322 265.402 98.7825 265.401 98.9698C265.401 99.0704 264.911 99.686 265.244 99.8936C265.314 99.9374 265.873 99.845 265.894 99.8198C265.947 99.7574 265.752 99.3875 265.977 99.2569C265.934 99.2529 265.851 99.2634 265.828 99.2399L265.829 99.2407ZM200.507 100.377C200.442 100.274 200.54 100.116 200.445 100.067C200.373 100.241 200.012 100.461 199.955 100.553C199.926 100.6 199.997 100.71 199.99 100.715C199.953 100.74 199.83 100.644 199.738 100.678C199.437 100.789 199.165 101.285 199.496 101.564C200.116 102.084 200.75 101.161 200.818 100.634C200.415 100.563 200.5 101.107 200.157 101.201C200.105 101.045 200.353 100.959 200.323 100.838C200.296 100.733 200.051 100.767 200.074 100.634C200.375 100.707 200.431 100.573 200.651 100.469C200.689 100.337 200.535 100.421 200.507 100.376V100.377ZM265.059 103.076C265.045 103.054 264.696 102.945 264.577 102.859C264.42 102.745 263.736 101.92 263.584 102.388C263.433 102.855 264.004 102.815 264.185 102.912C264.366 103.01 264.492 103.26 264.68 103.334C264.915 103.427 265.199 103.291 265.059 103.077V103.076ZM265.745 104.025C265.709 104.004 265.67 103.809 265.568 103.753C265.441 103.684 265.316 103.789 265.318 103.838C265.322 103.936 265.935 104.368 266.033 104.474C266.104 104.548 266.637 105.421 266.807 105.257C266.868 105.114 266.64 105.011 266.643 104.973C266.647 104.909 267.128 104.881 266.841 104.209C266.464 103.324 266.045 104.198 265.745 104.025ZM205.868 104.852C205.721 104.793 205.618 105.015 205.578 105.012C205.495 105.008 205.401 104.464 204.982 104.797C204.661 105.051 205.034 105.488 204.875 105.825C205.094 105.673 205.243 105.501 205.206 105.907C205.653 105.791 205.543 105.479 205.664 105.179C205.71 105.067 205.913 105.026 205.868 104.852ZM260.514 105.339L258.533 105.791C258.421 105.857 258.219 106.082 258.21 106.203C258.209 106.23 258.348 106.693 258.367 106.711C258.404 106.746 258.639 106.681 258.775 106.758C258.892 106.824 259.005 107.196 259.248 107.268C259.751 107.417 260.402 107.534 260.908 107.673C261.201 107.753 261.367 107.479 261.259 107.368C261.245 107.353 261.079 107.382 261.012 107.329C260.904 107.246 260.951 107.07 260.88 106.964C260.561 106.492 260.706 106.565 260.521 106.103C260.465 105.964 260.283 105.833 260.271 105.774C260.241 105.615 260.566 105.535 260.513 105.34L260.514 105.339ZM258.942 107.935C258.95 107.924 259.185 107.891 259.188 107.812C259.19 107.771 258.543 107.372 258.501 107.377C258.344 107.396 258.196 107.637 257.948 107.447C257.792 107.611 258.563 108.214 258.59 108.274C258.605 108.308 258.518 108.415 258.526 108.42C259.095 108.438 259.611 108.784 260.07 109.057C260.466 109.291 260.486 108.864 260.313 108.74C260.199 108.658 260.04 108.678 259.936 108.619C259.814 108.55 259.807 108.407 259.707 108.336C259.623 108.275 258.853 108.058 258.94 107.935H258.942ZM213.301 118.497C213.196 118.398 212.886 118.415 212.742 118.316C212.631 118.632 212.92 118.745 212.98 118.87C213.137 119.194 213.112 119.529 213.526 119.615L213.651 119.452C213.629 119.732 213.808 119.826 214.065 119.859C214.089 119.98 213.736 119.923 213.984 120.059C214.08 120.111 214.586 120.307 214.645 120.263C214.422 119.998 214.648 119.296 214.149 119.534C214.313 119.147 214.162 119.37 214.012 119.266C213.972 119.237 213.473 118.83 213.447 118.804C213.363 118.718 213.365 118.558 213.302 118.499L213.301 118.497ZM246.121 125.76C246.054 125.719 245.867 125.226 245.611 125.291C245.677 125.519 245.791 125.595 245.693 125.859L245.529 125.777V126.264L245.115 126.183C245.186 126.827 245.028 127.42 244.948 128.049C244.551 127.722 244.862 128.058 244.535 128.049C244.61 127.9 244.667 127.688 244.41 127.805C244.373 127.822 244.264 128.244 244.079 128.293C243.996 128.226 244.089 128.088 243.915 128.132C243.353 128.464 243.332 129.02 243.046 129.474C242.943 129.638 242.409 129.998 242.356 130.099C241.854 131.071 241.911 132.524 241.406 133.704C240.235 136.44 239.555 139.388 239.134 142.347C239.087 142.68 238.902 143.101 238.925 143.481C238.945 143.826 239.248 144.173 239.242 144.47C239.233 144.877 238.742 145.353 238.683 145.786C238.665 145.921 238.766 146.092 238.747 146.259C238.705 146.622 238.554 147.227 238.568 147.556C238.586 147.99 239.405 149.719 239.697 150.106C240.018 150.532 240.516 150.875 241 151.101C241.167 151.179 242.085 151.532 242.212 151.536C242.289 151.54 242.792 151.14 242.971 151.054C243.601 150.75 244.125 150.687 244.724 150.501C244.844 150.463 244.906 150.312 245.007 150.284C245.262 150.215 245.576 150.639 245.61 150.598C245.454 150.231 245.609 150.398 245.879 150.267C246.657 149.89 247.285 149.96 248.133 149.87C248.419 149.84 248.787 149.686 249.051 149.697C249.156 149.701 249.28 150.005 249.586 149.867C249.451 149.651 249.657 149.287 249.833 149.463C249.883 149.512 249.668 149.778 250.125 149.711C250.348 149.678 250.26 149.433 250.455 149.3C250.472 149.527 250.62 149.378 250.649 149.399C250.692 149.432 250.604 149.577 250.743 149.543C250.709 149.259 250.741 149.069 251.027 149.308C251.08 149.353 251.035 149.493 251.157 149.462C251.179 149.358 251.127 149.012 251.159 148.976C251.294 148.819 251.328 149.128 251.377 149.139C252.155 149.316 251.663 148.447 252.399 148.733C252.362 148.045 252.387 148.341 252.756 148.248C252.872 148.219 252.836 147.87 253.228 148.084C253.153 147.759 253.372 147.89 253.482 147.787C253.526 147.745 253.916 147.18 253.933 147.112C253.976 146.946 253.989 146.793 253.973 146.622C253.315 146.805 253.989 146.269 254.052 145.929C254.077 145.788 254.049 145.63 254.056 145.488C253.572 145.766 253.927 145.071 254.052 144.955C254.256 144.766 254.514 144.955 254.385 144.408C254.37 144.341 254.254 144.343 254.224 144.294C253.975 143.893 254.388 143.873 254.457 143.642C254.497 143.508 254.401 143.337 254.454 143.167C254.499 143.024 254.684 143.078 254.635 142.933C254.55 142.678 254.331 143.011 254.306 142.972C254.237 142.652 254.724 142.56 254.8 142.361C254.867 142.186 254.423 142.148 254.384 142.036C254.273 141.709 254.678 142.016 254.635 141.675L254.222 141.673C254.697 141.296 254.47 141.44 254.418 141.131C254.403 141.045 254.454 140.949 254.433 140.86C254.401 140.721 254.248 140.492 254.252 140.418C254.258 140.317 254.591 140.016 254.619 139.751C254.648 139.473 254.389 139.015 254.397 138.968C254.41 138.893 254.914 138.54 254.43 138.349C254.374 138.327 254.35 138.671 254.14 138.592C254.112 138.563 254.332 138.143 254.362 138.049C254.384 137.98 254.304 137.885 254.308 137.83C254.312 137.78 254.562 137.808 254.471 137.499C254.395 137.245 254.064 137.692 254.06 137.417C254.059 137.344 254.361 137.053 254.309 136.78C254.3 136.731 254.049 136.741 254.139 136.452C254.162 136.381 254.387 136.441 254.306 136.242C253.697 136.123 254.159 135.656 254.145 135.304C254.137 135.093 253.945 135.001 253.973 134.748C253.993 134.571 254.183 134.419 254.139 134.213L253.81 134.537L253.892 133.362C253.335 132.867 253.77 132.206 253.73 131.663C253.725 131.613 253.561 131.62 253.556 131.571C253.545 131.439 253.74 131.141 253.726 130.969L253.396 131.292C253.483 130.847 253.518 130.582 253.23 130.197L253.106 130.4L252.443 129.671C252.363 129.658 252.425 129.796 252.393 129.82C252.224 129.948 251.093 128.87 250.913 128.656C250.894 128.466 250.939 128.55 251.062 128.593C251.517 128.754 251.606 129.252 251.987 129.428L251.824 129.022C251.921 129.068 252.279 129.463 252.237 129.145C252.21 128.946 251.944 127.913 251.656 128.171C251.586 128.286 251.901 128.701 251.617 128.699C251.506 128.698 251.52 128.259 251.481 128.222C251.445 128.188 251.176 128.215 251.078 128.13L251.203 128.535C250.803 127.921 250.461 128.266 249.919 128.13C249.959 128.437 250.001 128.755 250.167 129.021C249.808 129.106 249.747 128.775 249.657 128.715C249.643 128.706 249.358 128.694 249.345 128.703C249.259 128.763 249.335 129.171 249.174 129.184C248.718 128.656 248.477 127.96 248.053 127.402C247.878 127.173 247.988 127.524 247.849 127.48C247.927 127.332 247.709 126.881 247.601 126.789C247.512 126.715 247.467 126.896 247.393 126.895C247.29 126.894 246.988 126.282 246.895 126.18C246.834 126.115 246.595 126.157 246.524 125.979L246.688 125.859C246.562 125.759 246.148 125.775 246.123 125.76H246.121ZM234.266 149.219C234.199 149.151 233.498 149.342 233.448 149.514C233.427 149.587 233.598 150.132 233.647 150.196C233.73 150.301 233.847 150.165 233.916 150.21C233.944 150.228 233.926 150.352 233.977 150.355C234.242 150.367 234.704 149.622 234.433 149.424C234.4 149.4 234.284 149.466 234.274 149.451C234.241 149.4 234.29 149.244 234.266 149.218L234.266 149.219ZM233.435 153.183C233.46 153.158 233.336 152.593 232.999 152.795C232.688 152.982 232.824 153.227 232.672 153.413C232.533 153.583 231.889 153.826 231.784 154.164C232.19 154.113 232.862 154.15 232.612 153.598L233.109 153.597L232.86 153.274C232.986 153.278 233.364 153.257 233.435 153.184V153.183Z" fill="#FFC3C3"/>
<path d="M283.649 140.638C284.146 139.401 284.644 138.163 285.141 136.926C284.288 136.62 283.436 136.313 282.584 136.006C267.241 130.487 251.899 124.968 236.556 119.449C235.704 119.142 234.852 118.836 233.999 118.529C234.827 118.897 235.654 119.266 236.482 119.634C251.377 126.267 266.272 132.9 281.167 139.532C281.994 139.901 282.822 140.269 283.649 140.638Z" fill="#FF584B"/>
<path d="M180.174 102.547C180.679 103.781 181.184 105.015 181.688 106.249C182.513 105.876 183.339 105.503 184.164 105.129C199.019 98.4077 213.874 91.6861 228.729 84.9646C229.554 84.5912 230.38 84.2178 231.205 83.8443C230.355 84.1561 229.504 84.4678 228.653 84.7795C213.344 90.3903 198.035 96.0011 182.726 101.612C181.875 101.924 181.025 102.235 180.174 102.547Z" fill="#FF584B"/>
<path d="M277.339 155.437C277.78 153.146 278.222 150.854 278.663 148.563C277.819 148.46 276.974 148.357 276.13 148.253C260.931 146.394 245.733 144.535 230.535 142.676C229.69 142.573 228.846 142.47 228.001 142.366C228.824 142.584 229.646 142.802 230.468 143.02C245.269 146.941 260.071 150.862 274.872 154.783C275.694 155.001 276.516 155.219 277.339 155.437Z" fill="#FF584B"/>
<path d="M204.829 140.509C206.273 142.343 207.716 144.176 209.159 146.01C209.79 145.439 210.421 144.868 211.051 144.297C222.405 134.024 233.759 123.751 245.113 113.477C245.743 112.907 246.374 112.336 247.005 111.765C246.302 112.244 245.599 112.723 244.896 113.202C232.244 121.826 219.591 130.449 206.938 139.072C206.235 139.551 205.532 140.03 204.829 140.509Z" fill="#FF584B"/>
<path d="M270.309 56.3008C267.196 54.3642 264.082 52.4276 260.969 50.491C260.607 51.2461 260.246 52.0011 259.884 52.7562C253.373 66.3472 246.863 79.9382 240.352 93.5292C239.991 94.2843 239.629 95.0394 239.267 95.7944C239.785 95.1362 240.302 94.478 240.819 93.8197C250.132 81.9717 259.445 70.1236 268.757 58.2755C269.275 57.6173 269.792 56.9591 270.309 56.3008Z" fill="#FF584B"/>
<path d="M242.178 34.8862C239.057 32.962 235.936 31.0378 232.815 29.1136C232.456 29.8701 232.097 30.6266 231.739 31.3831C225.282 45 218.826 58.6168 212.37 72.2337C212.011 72.9902 211.653 73.7467 211.294 74.5032C211.809 73.8429 212.323 73.1826 212.838 72.5223C222.103 60.6372 231.369 48.7521 240.634 36.867C241.149 36.2067 241.664 35.5465 242.178 34.8862Z" fill="#FF584B"/>
</g>
<defs>
<clipPath id="clip0_2483_2897">
<rect width="307" height="217" fill="white"/>
</clipPath>
</defs>
</svg>
