<svg width="307" height="217" viewBox="0 0 307 217" fill="none" xmlns="http://www.w3.org/2000/svg">
<g clip-path="url(#clip0_2483_2848)">
<rect width="307" height="217" fill="#3C1212"/>
<path d="M113.352 33.0628C118.033 39.3725 119.572 47.3404 120.378 55.0132L127.902 50.1749L127.629 41.7498C127.96 41.6992 128.029 42.0779 128.155 42.2682C129.279 43.9734 130.252 46.0802 130.862 48.0316C131.134 48.2323 134.788 44.8444 135.167 44.4796C135.677 43.9874 136.279 43.017 136.888 42.6207C137.116 42.4724 137.278 42.4392 137.325 42.7133C137.414 43.2142 132.721 48.8519 131.908 49.5169C132.448 49.6513 133.056 48.906 133.602 48.5901C134.477 48.0839 135.415 47.8221 136.09 47.0227C136.764 46.2233 139.721 41.4531 140.215 41.2331C140.409 41.1476 140.699 41.1249 140.626 41.4653C140.491 42.0884 139.069 46.1081 139.247 46.2844C142.055 45.4064 145.249 44.532 147.793 43.0431C151.386 40.9417 153.792 37.2483 156.616 34.309C156.907 34.0053 158.145 32.7975 157.867 33.9006L154.1 41.399L167.467 37.0406C167.667 37.2431 167.825 37.2361 167.547 37.4665C165.843 38.8908 162.875 39.6221 161.085 41.0481C164.073 40.5769 167.19 38.9414 170.129 38.4771C170.533 38.4125 170.994 38.2537 170.869 38.7773C165.99 40.8457 161.073 42.9245 156.064 44.6751C153.685 45.5059 151.162 46.4781 148.678 46.8115C148.464 47.0122 149.972 49.7665 149.695 50.1034C149.621 50.1941 149.303 50.0091 149.378 50.3006C151.959 49.7857 154.505 48.9113 157.156 48.7332C162.585 48.3684 168.172 49.4506 173.586 49.0875C178.567 48.7542 183.084 45.6456 187.903 44.539L187.97 45.0416L180.481 49.6007L188.924 48.4033C189.123 48.4505 189.322 48.7629 189.217 48.9025C189.104 49.0526 186.135 50.0336 185.681 50.1714C180.914 51.6306 176.109 52.0932 171.125 51.8785C167.15 51.7074 161.498 50.4647 157.72 51.0407C155.808 51.3322 156.236 53.6029 155.546 54.9731C155.455 55.1529 155.347 55.2192 155.146 55.1913C155.083 55.2943 155.312 55.4531 155.45 55.495C156.238 55.7376 158.892 56.1722 159.77 56.242C161.959 56.4166 164.225 55.9279 166.408 55.879C171.382 55.7673 177.816 57.1043 181.447 53.0968C181.845 52.6569 182.017 51.6498 182.833 51.8628C183.234 51.9675 183.285 55.8528 182.577 56.4078C187.966 56.3293 193.334 56.8651 198.653 57.6296C197.112 56.4462 195.286 55.6294 193.722 54.4826C192.668 53.7094 191.057 52.341 190.089 51.4386C189.654 51.0319 188.027 49.5989 189.34 49.2813C190.737 48.9427 196.151 54.4006 198.127 54.4914C198.281 54.3308 197.812 51.2972 197.723 50.7946C197.444 49.2115 195.943 45.0626 196.822 43.8495C197.922 42.331 199.146 44.5809 199.439 45.5915C199.951 47.3508 199.942 49.7141 200.248 51.5905C200.741 54.6118 201.375 57.6349 202.537 60.4747C204.592 65.4945 208.819 69.4584 209.836 74.9146C210.141 74.9547 210 74.5183 210.009 74.3072C210.136 71.3382 209.091 67.418 207.942 64.6759C207.749 64.2151 206.516 62.0682 206.518 61.9129C206.518 61.8152 206.703 61.5743 206.94 61.8361C207.622 62.5831 208.682 64.435 209.163 65.3758C210.734 68.453 211.674 72.0765 211.936 75.522C212.022 76.6425 211.796 77.8661 211.971 78.9779C212.277 80.9328 213.516 83.0919 213.83 85.4988C213.907 86.0853 214.124 87.6212 214.029 88.1012C213.931 88.6039 213.545 88.37 213.502 88.7051C214.595 89.2061 215.565 90.0177 216.638 90.5483C216.998 90.7263 218.289 91.4228 218.441 90.934C221.866 83.31 225.764 75.8798 230.134 68.7567C231.165 67.0741 232.263 65.2327 233.383 63.6234C233.837 62.9706 236.818 58.4692 237.253 61.2287C237.676 63.9149 233.799 69.5771 232.453 72.1184C231.291 74.3124 230.29 76.6006 229.055 78.758L234.352 75.7611C235.441 75.405 236.421 74.7453 237.496 74.363C238.301 74.0768 239.248 73.5409 239.884 74.3089C239.877 74.9722 234.503 78.2309 233.612 78.8627C230.999 80.7163 227.9 82.8475 226.194 85.5913C225.953 85.9788 225.2 87.3001 225.109 87.6561C225.053 87.8778 224.962 87.9319 225.21 88.0977L232.893 90.3685C232.376 90.8485 231.634 91.03 230.975 91.2412C229.996 91.5519 224.069 92.8121 223.813 93.0774C223.556 93.3427 223.877 93.3776 224.034 93.4649C224.422 93.6761 226.731 94.6448 227.047 94.6588C227.77 94.6902 231.426 92.5695 232.315 92.0581C236.334 89.7454 243.777 84.8076 245.511 80.4545C246.994 76.7298 246.486 72.382 246.351 68.4652C246.748 68.3919 246.631 68.4844 246.741 68.6869C247.823 70.6784 248.572 72.7328 249.813 74.6929C249.888 74.8133 250 75.1781 250.195 75.0123C253.645 68.8981 256.767 62.5866 259.661 56.1897C260.442 54.4634 261.677 50.4909 262.626 49.2027C263.304 48.2846 267.405 45.1551 268.558 44.3068C268.867 44.0799 269.161 43.7989 269.589 43.8548L262.077 61.9199C263.398 62.1258 264.829 62.0735 266.131 62.4086C266.304 62.454 266.772 62.4976 266.617 62.7891C266.332 63.3232 261.56 64.6532 260.774 65.505C260.143 66.1857 259.191 68.8632 258.677 69.8685C255.514 76.0438 251.981 81.973 247.314 87.143C245.813 88.8046 244.041 90.6583 242.158 91.8556C242.111 92.1558 242.364 91.9988 242.542 91.9796C245.245 91.6724 248.273 90.7822 251.036 90.3371C254.836 89.7245 258.649 89.2968 262.497 89.0891C262.687 89.131 262.874 89.4487 262.776 89.5813C262.673 89.721 259.935 90.6024 259.493 90.7543C251.985 93.3218 244.204 95.1231 236.568 97.2647C236.65 97.5684 237.302 97.6557 237.578 97.7377C246.369 100.344 255.762 101.757 264.752 103.581L265.049 104.068C259.308 103.934 253.549 103.295 247.864 102.473C242.453 101.691 237.056 100.661 231.738 99.4063C229.446 100.284 227.398 101.871 225.037 102.675C225.853 103.468 224.919 104.098 224.948 104.941C226.793 103.972 228.677 102.976 230.631 102.239C231.51 101.908 232.703 101.33 233.598 101.537C231.132 103.482 228.464 105.201 226.049 107.221C224.076 108.872 222.638 110.238 221.337 112.504C219.558 115.599 218.658 119.077 217.171 122.308C217.073 122.9 218.097 122.207 218.34 122.078C221.471 120.383 224.464 118.377 227.575 116.639C228.308 116.424 227.173 118.178 227.129 118.288L222.069 125.013C224.157 124.432 226.187 123.668 228.284 123.107C230.973 122.39 234.475 122.085 236.919 121.261C238.406 120.76 243.065 116.127 244.606 114.801C246.701 112.998 248.836 111.219 250.987 109.481L250.847 110.389L246.007 119.603C248.749 119.041 251.513 118.555 254.253 117.979C257.805 117.232 263.005 115.51 266.386 115.26C268.52 115.103 272.303 116.408 270.548 119.072C269.26 121.029 263.984 121.154 261.696 121.575C251.609 123.423 241.703 126.029 231.679 128.159L236.97 129.415C237.33 129.567 237.831 129.777 237.793 130.25C234.999 130.885 232.147 130.69 229.311 130.766C228.434 130.791 227.522 130.728 226.699 130.779C225.782 130.834 224.868 131.259 223.989 131.475C224.043 131.803 224.356 131.761 224.578 131.843C225.646 132.236 230.723 133.763 231.59 133.758C232.009 133.754 232.81 133.606 233.306 133.552C234.922 133.372 245.897 131.526 246.355 131.997C246.495 132.569 246.009 132.643 245.596 132.896C243.423 134.238 240.69 135.174 238.399 136.353C238.237 136.437 237.983 136.458 237.968 136.706C239.345 137.245 240.711 137.849 242.049 138.478C244.8 139.771 250.763 142.197 252.907 143.864C254.115 144.801 254.772 146.299 252.745 146.493C249.579 146.795 240.804 142.419 237.312 141.115C230.503 138.57 222.872 135.989 215.661 134.99C214.933 134.889 212.986 134.519 212.411 134.645C211.754 134.788 210.14 136.149 209.663 136.704C211.405 136.935 214.524 137.226 216.019 138.123C216.898 138.65 214.459 138.778 214.117 138.799C212.507 138.9 207.924 138.657 206.78 139.324C206.098 139.722 205.223 140.7 204.595 141.242L225.738 138.626C226.315 139.214 224.157 140.366 223.758 140.574C222.369 141.296 220.563 141.871 219.058 142.337C214.421 143.771 209.422 144.766 204.595 145.259C205.951 147.755 207.655 150.088 209.014 152.591C210.805 155.89 212.532 159.548 213.456 163.2C213.545 163.549 214.139 166.095 214.031 166.202C214.007 166.225 213.547 166.27 213.502 166.083C208.162 159.655 203.268 152.862 197.791 146.559L197.183 146.299L189.967 149.929L189.745 150.317C192.733 151.619 196.731 153.483 199.13 155.693C199.317 155.866 199.616 155.874 199.528 156.253C199.392 156.375 196.481 155.27 196.042 155.111C193.481 154.185 189.789 152.361 187.3 151.802C186.144 151.542 184.665 151.924 183.704 152.579L180.309 158.175L192.277 157.477C192.656 157.915 191.316 158.147 190.966 158.262C183.76 160.632 170.991 163.097 163.886 160.355C162.653 159.878 161.526 158.716 160.215 159.4L165.716 161.671C171.943 164.636 179.312 165.457 185.644 167.596C188.679 168.623 187.98 169.682 185.122 169.88C180.673 170.187 175.195 169.061 170.837 168.075C169.902 167.864 167.489 166.938 166.764 166.98C166.464 166.998 164.033 168.206 163.404 168.431C160.528 169.462 157.355 170.511 154.276 170.394L154.437 169.771C157.355 167.987 160.846 167.331 164.059 166.204L162.707 165.551L158.244 163.959C151.169 170.445 144.058 176.915 137.587 184.009L137.238 183.663C138.641 181.757 140.058 179.849 141.526 177.992C145.352 173.156 149.511 168.642 153.574 164.02C153.768 163.8 154.73 162.687 154.625 162.544C153.315 162.301 152.101 161.702 150.82 161.369C147.14 160.414 141.804 161.29 137.757 161.152C134.844 161.053 134.18 160.22 131.269 161.639C126.244 164.088 120.675 168.59 117.591 173.248C116.506 174.236 117.526 171.325 117.673 170.923C118.704 168.083 120.582 165.101 122.56 162.889C123.474 161.868 124.599 161.013 125.445 159.925C120.577 161.519 115.735 163.182 110.626 163.884C96.8432 165.78 82.3753 161.138 69.6146 156.262C69.1271 156.075 66.431 155.064 66.2947 154.864C66.1759 154.689 66.4153 154.481 66.6022 154.553L93.1179 159.225L88.5731 144.74C88.4246 144.628 87.6226 145.297 87.4443 145.442C85.4716 147.051 83.2874 149.75 81.4195 151.118C81.1802 151.293 81.0666 151.448 80.7136 151.371C80.4795 151.137 82.2216 148.421 82.4924 148.001C83.6282 146.24 84.9701 144.604 86.3033 142.995L77.8061 142.492C75.7425 142.607 73.6073 142.298 71.5402 142.471C69.1009 142.675 66.611 144.334 64.3744 145.266C64.1175 145.302 64.0564 145.266 64.1071 144.999C64.2643 144.182 65.7565 143.557 66.0326 142.646C56.1218 143.257 46.3892 144.934 37.0288 148.229C36.8261 148.041 37.7556 147.227 37.9129 147.107C40.2386 145.313 45.0874 143.696 47.9443 142.815C56.6897 140.12 65.968 138.993 75.1169 138.802L68.8842 135.517C65.4141 133.165 60.6386 131.098 57.4847 128.403C57.2261 128.181 56.7316 127.934 57.2069 127.637L78.0035 136.357C77.9022 135.009 77.2399 133.727 77.3902 132.344C77.9878 131.763 79.7561 134.262 80.0951 134.615C81.7935 136.373 84.1663 139.089 86.8223 138.624C86.527 136.556 86.3802 134.367 87.7239 132.632C87.9703 132.313 88.6238 132.006 88.5661 131.744L85.9906 129.213C79.9029 127.811 73.7401 126.68 67.6681 125.211C65.4927 124.684 62.8158 124.149 60.7504 123.394C60.5373 123.315 59.267 122.809 59.2163 122.743C58.9577 122.401 59.7475 122.184 59.91 122.13C64.1839 120.72 72.3352 121.713 76.8608 122.313C77.046 122.338 77.4252 122.556 77.3867 122.224C74.743 120.44 72.302 118.423 69.4172 117.007C64.3534 114.523 58.0386 113.707 53.2981 111.291C53.1199 111.2 50.6736 109.771 51.6172 109.654C62.4925 109.429 73.5478 113.719 81.6712 120.824C81.8127 120.493 81.2536 119.952 81.0544 119.695C79.5185 117.711 77.5143 115.232 75.8211 113.403C75.6045 113.169 73.1564 110.703 73.0219 110.877C73.0097 111.474 74.1454 114.454 73.8921 114.715C71.2396 114.064 70.691 111.113 69.8645 108.879L59.9432 103.255C58.4981 102.84 56.9919 103.032 55.5364 103.276C54.841 103.393 51.3271 104.468 51.1052 104.412C50.5793 104.28 50.9899 103.725 51.1786 103.461C51.6591 102.792 54.9039 100.386 54.8462 100.145C53.7629 99.4796 52.6516 98.8146 51.5298 98.2194C49.3946 97.0867 46.7439 96.2349 44.7694 95.0236C44.4339 94.8176 42.7984 93.5766 42.7932 93.3357C42.7897 93.1507 43.2143 93.0827 43.3925 93.0652C44.1893 92.9832 44.9861 92.9971 45.8213 92.8732C47.2244 92.6638 47.9565 92.1157 49.426 92.6428C51.542 93.4003 55.2114 96.1703 57.4131 97.4061C58.6292 98.0885 59.9012 98.7099 61.1366 99.3575C60.5617 97.8738 59.8785 96.3955 59.1324 94.9904C58.4055 93.622 55.6587 89.7629 55.8911 88.4538C56.1026 87.2617 57.6961 88.8849 58.1067 89.2951C59.9379 91.1173 62.0085 94.4982 63.2648 96.7969C63.8083 97.7918 65.124 101.035 65.6727 101.548C66.5166 102.339 68.5103 103.025 69.5238 103.721C69.6618 103.272 68.9803 101.293 69.1778 101.103C69.197 101.084 69.6076 101.082 69.6775 101.126C69.9588 101.302 71.0998 104.911 72.1413 105.208L76.8643 107.907L71.9683 103.632C71.9997 103.466 71.8757 103.22 72.0679 103.194C73.3836 103.014 74.6906 104.107 75.9906 103.983C67.1806 93.4893 62.3213 80.5296 55.0262 69.0691L55.2831 68.638C61.2624 73.8481 65.9505 80.28 71.2711 86.0905C71.507 85.024 71.9962 84.0187 72.2391 82.954C74.6609 72.3139 68.7043 59.7451 65.8876 49.6653C65.8579 49.5605 65.5189 49.0526 65.9435 49.0928C66.1549 49.112 67.752 51.7022 67.9879 52.1089C74.6679 63.6775 79.1707 78.4159 76.0325 91.7439C79.0677 95.4652 82.1132 99.1951 85.4262 102.672L81.2326 92.374C80.8132 92.278 80.9495 92.4508 80.8447 92.6027C80.3257 93.3497 79.9134 94.1962 79.2214 94.8159C78.9383 94.9311 78.8318 94.5069 78.8353 94.3481C78.8562 93.43 80.5564 91.3879 80.6822 90.674C80.808 89.9601 80.2366 88.0942 80.1859 87.2233C79.9885 83.8406 81.0089 81.8648 82.2006 78.9378C82.281 78.7405 82.0923 78.4962 82.2565 78.1418C82.6182 77.3599 84.4896 75.906 85.0732 75.131C85.206 74.9564 85.4034 74.7016 85.4104 74.4852C84.1838 70.0885 83.1354 65.6167 82.6409 61.0646C82.7353 60.911 82.8576 60.7295 83.0638 60.7801C83.6823 60.9285 87.9738 69.7865 88.7059 71.0292C88.7898 71.1724 88.6535 71.3207 89.0012 71.2492C90.4567 69.9122 92.1708 68.8475 93.6753 67.5803C94.9735 66.4877 96.1058 65.1926 97.4006 64.1052C99.562 62.2899 103.707 60.0418 105.132 57.8653C107.083 54.8911 108.536 51.5433 111.021 48.9113C111.435 50.3216 110.107 51.9553 110.146 53.4476L115.665 48.6564C115.84 48.5098 115.814 48.4033 115.758 48.2096C115.616 47.7209 114.266 45.9301 113.871 45.3663C112.082 42.811 109.913 40.5594 108.134 38.0058C108.056 37.5817 108.409 37.7371 108.667 37.8226C111.11 38.6394 113.631 41.9296 115.475 43.6767L112.901 33.7697C112.815 33.2147 112.69 32.8603 113.345 33.0715L113.352 33.0628ZM149.207 50.4734C145.546 47.3892 142.235 48.5063 138.395 50.4088C134.917 52.1316 131.477 54.549 128.589 57.106C133.409 54.8003 138.066 52.1368 143.18 50.4804L143.257 50.9028L135.244 55.9889L134.269 56.935C139.109 54.4896 143.925 51.861 149.207 50.4734ZM116.53 49.4262L114.519 51.3444C111.952 54.521 109.803 57.9962 107.968 61.6424L116.965 56.4061C117.269 54.0602 116.932 51.7266 116.53 49.4262ZM127.661 52.6901L127.804 51.6969C127.358 51.7737 127.121 52.4143 126.979 52.5138C126.93 52.547 126.698 52.4649 126.476 52.6185C124.5 53.9869 122.632 55.5212 120.588 56.7918L120.553 57.9787L127.661 52.6901ZM152.876 53.2661L150.042 53.8403L145.887 55.5351C148.325 55.214 150.76 55.1145 153.224 55.186L152.876 53.2661ZM153.224 57.8077C149.579 57.9281 145.94 58.5617 142.363 59.2599C142.134 59.3052 141.517 59.2808 141.519 59.5496L149.27 58.8305L153.224 57.8077ZM203.198 67.7531L198.885 58.7101C194 58.3296 188.399 58.1358 183.982 60.5096C184.896 61.2758 185.765 62.1014 186.595 62.9497C187.143 63.51 187.821 64.6794 188.459 65.1105C189.955 66.1211 194.37 67.3412 196.421 68.3273C197.498 68.844 199.837 70.4515 200.669 70.7186C200.758 70.7465 200.954 70.7657 200.928 70.6348C199.972 69.6137 199.17 68.4268 198.223 67.4023C196.767 65.8279 193.523 63.4367 192.534 61.9146C192.432 61.7576 192.259 61.4137 192.368 61.2968C192.736 60.8971 198.289 63.9987 198.992 64.5398L203.199 67.7531H203.198ZM106.399 66.8804C109.581 65.217 112.81 63.6863 116.183 62.4295C116.434 62.1904 116.976 59.5025 116.882 59.3768L106.401 66.8821L106.399 66.8804ZM183.278 63.5676C181.085 62.7961 178.878 61.117 176.465 61.6476L182.57 63.6618L183.276 63.5676H183.278ZM99.9325 66.3602C99.2353 66.6133 98.5643 67.1771 97.9545 67.6117C96.976 68.3099 90.095 73.3053 90.0007 73.801C89.9535 74.0523 90.3099 74.4817 90.4113 74.733L99.9325 66.3585V66.3602ZM92.9414 82.2401L97.135 73.1639C96.1128 74.1902 94.9491 75.3143 94.0911 76.4924C93.9391 76.7001 93.0742 77.9586 93.0462 78.0476C92.9851 78.2518 93.1633 78.5049 93.1161 78.5765C93.1039 78.5939 92.8069 78.3862 92.6811 78.559C92.0485 79.4335 92.1953 81.4616 92.9397 82.2401H92.9414ZM84.2048 86.9545C84.3446 86.8393 84.8024 83.9506 84.9544 83.4252C85.2794 82.3099 86.9219 79.0739 86.824 78.3303C86.7786 77.983 86.499 77.709 86.4763 77.3547C84.4354 79.4143 83.1686 83.4916 83.4989 86.3523C83.5443 86.7503 83.8606 87.2372 84.2048 86.9545ZM213.332 88.3508L211.588 83.2908C211.835 84.3276 211.176 85.9125 211.448 86.8323C211.532 87.1116 213.255 88.4451 213.332 88.3508ZM216.981 94.1352L211.412 90.6199C211.857 93.4125 212.921 96.1214 212.811 98.9961L214.905 95.7671L215.081 95.5926C215.749 95.2906 215.226 97.3589 215.17 97.6033C214.885 98.867 214.239 100.148 214.035 101.44L216.921 94.6326L216.981 94.1352ZM219.624 107.203L215.693 109.645L214.557 111.214L219.013 108.249L219.624 107.203ZM89.6232 123.432C89.3175 122.729 89.6617 121.905 89.2004 121.325L83.3608 117.21C82.4487 116.676 82.4784 117.04 82.9869 117.758C83.6771 118.732 84.6748 119.545 85.4349 120.423C86.6703 121.851 87.2626 123.795 89.6232 123.432ZM94.3393 139.141C93.3765 137.327 93.2839 134.873 91.1399 134.037C90.9617 133.967 90.8901 133.864 90.6716 133.98C89.5813 134.559 89.1585 137.842 89.6407 138.947C91.2098 139.02 92.7911 138.846 94.3393 139.139V139.141ZM97.1367 143.855H90.4969C92.246 149.455 95.0207 154.7 98.3634 159.473C103.17 159.742 108.01 158.765 112.691 157.733L118.978 156.075C112.379 153.49 105.63 150.479 100.544 145.426C100.486 147.494 101.874 149.643 103.546 150.806C103.988 151.113 105.964 151.975 106.048 152.148C106.263 152.593 104.956 152.397 104.781 152.366C100.679 151.619 97.923 147.713 97.1385 143.855H97.1367ZM117.579 148.744C114.599 147.739 111.9 145.732 108.844 145.079L110.123 145.979C112.277 146.999 114.669 148.365 117.009 148.877C117.184 148.915 117.622 149.053 117.577 148.744H117.579ZM182.057 152.933C181.424 153.151 180.468 153.317 179.911 153.631C179.567 153.825 177.821 155.637 177.425 156.071C176.862 156.686 176.205 157.457 175.766 158.166C176.422 158.257 176.937 157.833 177.423 157.466C179.083 156.211 180.564 154.392 182.057 152.933ZM174.716 154.502C174.014 154.439 173.359 154.644 172.702 154.844C170.834 155.417 168.024 156.611 166.194 157.421C165.983 157.515 165.677 157.508 165.63 157.815C167.037 157.826 168.525 158.276 169.913 158.339C171.492 158.41 171.575 158.496 172.614 157.375L174.714 154.501L174.716 154.502Z" fill="#FFC3C3"/>
<path d="M32.0003 41.8094C35.5676 44.5317 39.1516 47.2231 42.7522 49.8838C75.1577 73.8297 108.91 95.2812 144.01 114.238C179.11 133.195 215.557 149.658 253.352 163.626C257.551 165.178 261.767 166.7 266 168.19C262.433 165.468 258.849 162.776 255.248 160.116C222.842 136.17 189.09 114.718 153.99 95.761C118.89 76.8039 82.4427 60.3413 44.6483 46.3731C40.4489 44.8211 36.2329 43.2998 32.0003 41.8094Z" fill="#FF584B"/>
<path d="M35.777 174.73C39.9182 173.001 44.041 171.243 48.1455 169.455C85.0861 153.364 120.54 134.859 154.507 113.94C188.475 93.0215 220.955 69.6887 251.949 43.9419C255.393 41.0811 258.818 38.1906 262.225 35.2702C258.084 36.9985 253.961 38.7566 249.857 40.5445C212.916 56.6355 177.462 75.1405 143.495 96.0593C109.528 116.978 77.0472 140.311 46.0532 166.058C42.6094 168.919 39.184 171.809 35.777 174.73Z" fill="#FF584B"/>
</g>
<defs>
<clipPath id="clip0_2483_2848">
<rect width="307" height="217" fill="white"/>
</clipPath>
</defs>
</svg>
