<svg width="47" height="60" viewBox="0 0 47 60" fill="none" xmlns="http://www.w3.org/2000/svg">
<path d="M43.2616 36.037C43.2615 29.0696 40.8745 20.849 37.0223 14.396C33.1102 7.84286 28.071 3.7037 23.0241 3.7037C18.035 3.70373 13.2178 7.8863 9.515 14.5027C5.87508 21.0068 3.69096 29.2428 3.69094 36.037C3.69094 44.1239 6.74248 49.0645 10.5578 52.0316C14.4534 55.0612 19.3202 56.1628 23.0241 56.1628C27.1997 56.1628 32.2937 55.0118 36.296 51.9611C40.2161 48.9729 43.2616 44.0375 43.2616 36.037ZM46.9525 36.037C46.9525 45.129 43.4187 51.1827 38.5286 54.9103C33.7205 58.5752 27.7731 59.8665 23.0241 59.8665C18.7075 59.8665 12.9852 58.6053 8.2967 54.9591C3.52776 51.2503 0 45.2019 0 36.037C1.55196e-05 28.5683 2.36682 19.7118 6.29695 12.6892C10.1643 5.77872 15.9364 2.37242e-05 23.0241 0C30.0834 0 36.0859 5.62001 40.1888 12.4928C44.3513 19.4656 46.9525 28.3377 46.9525 36.037Z" fill="#EF7D19"/>
<path d="M14.8816 21.0925C24.5903 21.0925 29.6605 28.2129 30.8659 29.6393C32.0714 31.0656 34.3603 32.2801 35.5251 34.9206C36.6899 37.5655 37.2619 39.049 36.6735 39.6481C36.085 40.2472 33.3538 38.9071 29.2585 38.528C25.1632 38.149 22.7522 37.5212 20.5036 39.6159C18.2551 41.7107 15.8841 45.9449 14.8816 48.8386C13.879 51.7322 12.7146 55.9264 12.7146 55.9264C12.7146 55.9264 5.04375 50.432 3.19698 42.2565C1.35336 34.1127 2.66245 29.2567 2.67257 29.2194C2.67257 29.2194 5.17316 21.0927 14.8816 21.0925ZM24.4196 41.2751C27.5397 41.006 28.0899 41.4174 28.1052 41.4294C28.1052 41.4294 27.6997 45.7296 24.8464 46.5651C22.0034 47.3975 19.6642 46.5178 19.6472 46.5114V46.5075C19.6611 46.4646 21.2679 41.5474 24.4196 41.2751ZM18.4577 26.6149C17.3416 26.615 16.4401 27.5569 16.4401 28.7184C16.4404 29.8797 17.3458 30.8209 18.4577 30.821C19.5738 30.821 20.4751 29.8798 20.4753 28.7184C20.4753 27.5569 19.5739 26.6149 18.4577 26.6149ZM16.8542 7.79461C20.3123 8.07174 20.4301 12.2771 23.0114 13.4958C25.5928 14.7143 26.8671 11.8091 30.2683 13.7692C32.6994 15.1711 32.2045 19.4051 31.4577 21.0925C30.7143 22.7761 30.7233 23.8058 30.7233 23.8151C30.7233 23.8151 23.7014 17.4577 16.2575 17.2458C8.81366 17.0339 4.23897 21.9528 4.23897 21.9528C4.92142 19.2199 7.64098 12.5616 7.66866 12.4938C7.66866 12.4938 8.26555 12.6478 10.0554 11.9958C11.8453 11.3437 13.3961 7.51747 16.8542 7.79461Z" fill="#EF7D19"/>
</svg>
