<svg width="47" height="60" viewBox="0 0 47 60" fill="none" xmlns="http://www.w3.org/2000/svg">
<path d="M23.3997 0C27.3842 0 30.8242 2.01342 33.5628 4.60949C36.3187 7.22178 38.6745 10.704 40.5822 14.3756C44.366 21.6579 46.8 30.5058 46.8 36.6791C46.8 49.5587 36.3231 60 23.3997 60C10.4764 59.9999 7.19548e-05 49.5587 0 36.6791C0 30.5058 2.43411 21.6579 6.21778 14.3756C8.12549 10.7039 10.4815 7.22176 13.2372 4.60949C15.9758 2.01347 19.4154 7.19555e-05 23.3997 0ZM23.3997 3.50357C22.1245 3.50359 20.8775 3.80382 19.669 4.35088V13.3355C19.1261 12.5066 18.2768 11.2823 16.9257 10.4171V6.05062C14.7314 7.41044 12.1665 11.1177 11.1583 12.8016C11.7719 12.3642 12.4994 12.1207 13.3125 12.1207C15.1548 12.1207 16.1574 13.1314 16.9854 14.2826C17.0277 14.3413 17.0696 14.4002 17.111 14.4595C17.1388 14.4994 17.1665 14.5397 17.1941 14.5798C17.2257 14.6259 17.2573 14.6721 17.2887 14.7184C17.3712 14.8402 17.4534 14.962 17.5347 15.0835C18.1516 16.0055 18.7544 16.8911 19.6679 17.3159C20.3611 17.6382 21.2328 17.6959 22.426 17.301C24.3492 16.6646 25.7992 16.9673 26.7772 17.7754L26.7828 17.78L26.7831 17.7802C26.7882 17.7844 26.7931 17.7887 26.7982 17.7929C26.8267 17.8169 26.8549 17.8415 26.8826 17.8663C26.893 17.8756 26.9035 17.8849 26.9138 17.8943C26.9399 17.9183 26.9656 17.9427 26.9909 17.9674L26.999 17.9752C27.0059 17.9819 27.0128 17.9886 27.0197 17.9954C27.0473 18.0229 27.0747 18.0507 27.1014 18.079C27.1071 18.0851 27.1127 18.0913 27.1184 18.0974C27.1789 18.1625 27.2372 18.2299 27.2931 18.2994C27.2973 18.3046 27.3013 18.31 27.3055 18.3153L27.3219 18.336C28.5015 19.8402 28.6091 22.29 27.6434 24.2079C27.2707 24.9852 27.0353 25.8207 26.9476 26.6772C24.8204 24.6932 22.3371 23.1678 19.6537 22.1621C18.7721 21.8317 17.869 21.5572 16.9497 21.3413C15.3363 20.9622 13.6734 20.7625 11.9906 20.7545C11.1809 20.7652 10.3728 20.8344 9.57319 20.9616C8.1708 21.3285 7.21626 21.8428 6.57802 22.2517C6.14118 23.4303 5.74589 24.6129 5.39539 25.7822C7.49828 24.8421 9.74895 24.2079 11.9906 24.2079C13.6661 24.2368 15.3254 24.4863 16.9257 24.9457C16.9447 24.9511 16.9636 24.9568 16.9825 24.9624C16.9948 24.9661 17.0072 24.9696 17.0196 24.9732C17.0862 24.9927 17.1529 25.0123 17.2193 25.0325C17.259 25.0446 17.2986 25.0571 17.3382 25.0695C17.4118 25.0924 17.4852 25.116 17.5586 25.1398C17.5705 25.1437 17.5827 25.1474 17.5946 25.1512C17.6103 25.1562 17.626 25.1611 17.6417 25.1663C17.7447 25.2003 17.8474 25.2354 17.9498 25.2712C17.957 25.2737 17.9643 25.2759 17.9715 25.2785L18.1506 25.3424C18.1722 25.3502 18.1938 25.3581 18.2154 25.3661L18.2528 25.3801L18.2853 25.392C18.3087 25.4006 18.3323 25.4091 18.3557 25.4179C18.451 25.4536 18.5462 25.4901 18.641 25.5274L18.6786 25.5425L18.7092 25.5546C18.7943 25.5884 18.8792 25.6231 18.9638 25.6582C18.9864 25.6675 19.0088 25.6771 19.0313 25.6865C19.1204 25.7238 19.2094 25.7616 19.298 25.8003L19.3195 25.8097C19.3283 25.8135 19.3371 25.8172 19.3459 25.821C19.4507 25.8672 19.5553 25.9145 19.6593 25.9626L19.669 25.9669C19.8073 26.0309 19.9448 26.0967 20.0817 26.1641C22.5992 27.4034 24.8079 29.183 26.5476 31.3738C27.4011 32.3538 28.3191 33.2769 29.2954 34.1366C31.1146 35.7917 32.3369 37.9935 32.774 40.4046C32.7975 40.5197 32.7905 40.6387 32.7538 40.75C32.7168 40.8617 32.651 40.9618 32.5632 41.0402C32.4755 41.1186 32.3682 41.1731 32.253 41.1977C32.1374 41.2226 32.0171 41.2169 31.9045 41.1815C31.0634 40.9643 30.2163 40.7719 29.3651 40.6036C28.7077 40.4738 28.0476 40.3585 27.3853 40.2582H27.3875C25.172 39.9222 22.932 39.7516 20.6866 39.7485C20.3369 39.7485 19.9951 39.7881 19.6609 39.8628C18.7053 40.0767 17.814 40.5816 16.9889 41.2921C14.2138 43.6816 12.1929 48.3974 11.03 52.1949C12.081 53.0287 14.7313 54.8411 16.9257 55.4218V50.1538C17.5923 50.2695 18.2688 50.3283 18.9474 50.3277L18.9499 50.3274C19.1947 50.3274 19.4345 50.3175 19.669 50.2997V56.148C20.8774 56.3766 22.1245 56.4962 23.3997 56.4962C24.5167 56.4962 25.6123 56.4041 26.6791 56.2278V44.6721C26.7496 44.3907 26.8095 44.1153 26.86 43.8505L27.0278 42.9692C27.8297 43.0916 28.628 43.2385 29.4221 43.4071V55.5704C32.0761 54.731 34.4888 53.3516 36.5302 51.5612V14.2826C34.4888 10.7211 32.0761 7.64986 29.4221 5.70706V16.5751C28.7381 15.7296 27.8239 15.0294 26.6791 14.6165V4.15833C25.6123 3.73366 24.5167 3.50357 23.3997 3.50357ZM39.2595 48.6347C41.7374 45.3744 43.2271 41.327 43.2827 36.935L43.2846 36.6791C43.2846 32.188 41.7858 25.7972 39.2595 19.8217V48.6347ZM20.992 42.5115C22.2441 42.5115 23.3749 42.512 24.4705 42.6502C24.0188 45.0203 22.9085 47.3306 19.9744 47.6531L19.968 47.6536L19.9618 47.6544C19.9092 47.66 19.8561 47.6652 19.8024 47.6698L19.7983 47.6701C19.7458 47.6741 19.6926 47.6781 19.6389 47.6809C19.6346 47.6812 19.6303 47.6814 19.626 47.6817L19.6112 47.6825C19.5674 47.6849 19.523 47.6863 19.4784 47.6879C19.4609 47.6882 19.4433 47.6892 19.4257 47.6895L19.3652 47.6903L19.344 47.6906C19.3138 47.6909 19.2834 47.6922 19.2528 47.6922H19.2329C19.2168 47.6919 19.2007 47.6914 19.1846 47.6914C19.1389 47.6911 19.0931 47.6907 19.0474 47.6895C19.0108 47.6889 18.9741 47.6875 18.9375 47.6863C18.8959 47.6847 18.8543 47.683 18.8127 47.6809C18.784 47.6796 18.7552 47.6786 18.7264 47.6771C18.6538 47.6728 18.5812 47.6673 18.5087 47.6615L18.4963 47.6601C18.4851 47.6592 18.4737 47.6583 18.4624 47.6574C18.394 47.6516 18.3256 47.6448 18.2573 47.6375L18.2396 47.6353L18.2248 47.6337C18.1486 47.6251 18.0725 47.6156 17.9965 47.6051C17.9885 47.6039 17.9804 47.6025 17.9723 47.6013L17.9713 47.601L17.9525 47.5984C17.8848 47.5888 17.8172 47.5782 17.7497 47.5668C17.74 47.5653 17.7304 47.5632 17.7207 47.5617C17.3036 47.4903 16.8914 47.39 16.4875 47.2602C16.7189 46.7254 16.968 46.216 17.2314 45.7425L17.2395 45.7282L17.2462 45.716C17.2879 45.6416 17.3296 45.5675 17.372 45.4949L17.3779 45.4852L17.3933 45.459C17.433 45.3914 17.4731 45.3245 17.5134 45.2587C17.518 45.251 17.5228 45.2434 17.5274 45.236C17.5338 45.2253 17.54 45.2147 17.5465 45.2042C17.6975 44.9605 17.8531 44.7295 18.0121 44.512C18.0153 44.5077 18.0184 44.5033 18.0215 44.499L18.0291 44.4885C18.0739 44.4276 18.1192 44.3679 18.1646 44.3094C18.1767 44.2938 18.1888 44.2785 18.2009 44.2628C18.2478 44.2031 18.2952 44.1447 18.3428 44.0875C18.3472 44.082 18.3516 44.0768 18.356 44.0716L18.363 44.063C18.38 44.0427 18.3972 44.0225 18.4143 44.0026L18.4245 43.9907L18.4552 43.9554C18.4686 43.9397 18.4822 43.9241 18.4958 43.9087C18.5082 43.8949 18.5207 43.8807 18.5332 43.8669L18.5509 43.8475C18.5784 43.8171 18.6058 43.7869 18.6334 43.7577C18.655 43.7346 18.6769 43.7122 18.6985 43.69C18.7276 43.6599 18.7565 43.6299 18.7859 43.601L18.8138 43.5732C18.8227 43.5643 18.832 43.556 18.841 43.5473C18.8713 43.5181 18.9018 43.4891 18.9324 43.4608C18.951 43.4436 18.9698 43.4267 18.9886 43.4101C19.0198 43.3818 19.0512 43.3543 19.0827 43.3276C19.0991 43.3134 19.1157 43.2996 19.1321 43.286C19.168 43.2562 19.2038 43.2267 19.2399 43.1984C19.2523 43.1889 19.2648 43.1793 19.2773 43.1698L19.2934 43.1574C19.3233 43.1347 19.3532 43.1126 19.3832 43.0911C19.3984 43.0803 19.4137 43.0695 19.4289 43.0587C19.468 43.0313 19.5073 43.0052 19.5467 42.98C19.5545 42.9747 19.5623 42.9698 19.5701 42.9646C19.5739 42.9621 19.5778 42.9595 19.5816 42.957C19.6209 42.9325 19.6604 42.9086 19.6999 42.8858C20.1185 42.6443 20.5507 42.5119 20.992 42.5115ZM15.402 29.323C14.392 29.323 13.5733 30.1388 13.5733 31.1454C13.5733 32.1519 14.392 32.9679 15.402 32.9679C16.4119 32.9679 17.2306 32.1519 17.2306 31.1454C17.2306 30.1388 16.4119 29.323 15.402 29.323Z" fill="#730A00"/>
</svg>
