<svg width="157" height="51" viewBox="0 0 157 51" fill="none" xmlns="http://www.w3.org/2000/svg">
<path d="M19.9512 0C23.3483 5.84154e-05 26.2813 1.71135 28.6162 3.91797C30.9659 6.13838 32.975 9.0979 34.6016 12.2188C37.8276 18.4086 39.9023 25.9295 39.9023 31.1768C39.9023 42.1244 30.9698 50.9999 19.9512 51C8.93252 50.9999 6.13499e-05 42.1244 0 31.1768C5.16664e-05 25.9295 2.07578 18.4086 5.30176 12.2188C6.92824 9.09803 8.93671 6.13828 11.2861 3.91797C13.6211 1.71136 16.5541 6.1162e-05 19.9512 0ZM19.9512 2.97754C18.864 2.97755 17.8008 3.23332 16.7705 3.69824V11.335C16.3077 10.6304 15.5833 9.58983 14.4316 8.85449V5.14258C12.5608 6.29838 10.3734 9.44954 9.51367 10.8809C10.0368 10.5091 10.6574 10.3027 11.3506 10.3027C12.9213 10.3028 13.7765 11.1612 14.4824 12.1396C14.5184 12.1894 14.5536 12.2397 14.5889 12.29C14.6126 12.324 14.6367 12.3585 14.6602 12.3926C14.6871 12.4317 14.7135 12.4715 14.7402 12.5107C14.8105 12.6141 14.881 12.7172 14.9502 12.8203C15.4762 13.604 15.9906 14.3567 16.7695 14.7178C17.3605 14.9917 18.1038 15.0417 19.1211 14.7061C20.7608 14.1652 21.9973 14.4216 22.8311 15.1084L22.8359 15.1133C22.8402 15.1167 22.8444 15.1205 22.8486 15.124C22.8729 15.1443 22.8973 15.1655 22.9209 15.1865C22.9296 15.1943 22.9386 15.2021 22.9473 15.21C22.9695 15.2303 22.9911 15.2515 23.0127 15.2725L23.0195 15.2783C23.0254 15.284 23.0313 15.2902 23.0371 15.2959C23.0606 15.3193 23.0847 15.3431 23.1074 15.3672C23.1121 15.3722 23.1164 15.3778 23.1211 15.3828C23.1727 15.4382 23.2229 15.4956 23.2705 15.5547C23.274 15.559 23.2778 15.563 23.2812 15.5674L23.2949 15.585C24.3007 16.8634 24.3926 18.946 23.5693 20.5762C23.2516 21.2369 23.0503 21.9477 22.9756 22.6758C21.1619 20.9893 19.0448 19.6927 16.7568 18.8379C16.0052 18.5571 15.2349 18.3232 14.4512 18.1396C13.0758 17.8176 11.6581 17.6475 10.2236 17.6406C9.53327 17.6498 8.84384 17.7093 8.16211 17.8174C6.96653 18.1293 6.15254 18.5665 5.6084 18.9141C5.23599 19.9158 4.89939 20.9213 4.60059 21.915C6.3935 21.116 8.31241 20.5762 10.2236 20.5762C11.6521 20.6008 13.0672 20.8127 14.4316 21.2031C14.4476 21.2077 14.4635 21.2131 14.4795 21.2178C14.4898 21.2208 14.5004 21.2235 14.5107 21.2266C14.5675 21.2431 14.625 21.2602 14.6816 21.2773C14.7154 21.2876 14.7495 21.2981 14.7832 21.3086C14.8458 21.3281 14.9083 21.3479 14.9707 21.3682C14.9809 21.3715 14.9918 21.3747 15.002 21.3779C15.0152 21.3821 15.0288 21.3863 15.042 21.3906C15.1297 21.4195 15.2174 21.4501 15.3047 21.4805C15.3107 21.4825 15.3172 21.4842 15.3232 21.4863L15.4756 21.541C15.4938 21.5476 15.5121 21.5538 15.5303 21.5605L15.5625 21.5732L15.5908 21.583C15.6106 21.5902 15.6306 21.5971 15.6504 21.6045C15.7317 21.6349 15.8127 21.6666 15.8936 21.6982L15.9258 21.7109L15.9521 21.7207C16.0246 21.7494 16.0969 21.7798 16.1689 21.8096C16.1881 21.8175 16.2074 21.825 16.2266 21.833C16.3025 21.8647 16.3786 21.8968 16.4541 21.9297L16.4717 21.9385C16.479 21.9416 16.4869 21.9441 16.4941 21.9473C16.5836 21.9865 16.673 22.0275 16.7617 22.0684L16.7705 22.0713C16.8883 22.1256 17.0054 22.182 17.1221 22.2393C19.2685 23.2927 21.1515 24.8058 22.6348 26.668C23.3624 27.5008 24.1452 28.285 24.9775 29.0156C26.5286 30.4224 27.5707 32.2943 27.9434 34.3438C27.9634 34.4415 27.958 34.543 27.9268 34.6377C27.8952 34.7325 27.8384 34.8172 27.7637 34.8838C27.6889 34.9504 27.5973 34.9967 27.499 35.0176C27.4006 35.0387 27.298 35.0339 27.2021 35.0039C26.485 34.8193 25.7628 34.6557 25.0371 34.5127C24.4767 34.4024 23.9141 34.304 23.3496 34.2188H23.3506C21.4618 33.9332 19.552 33.7887 17.6377 33.7861C17.3398 33.7861 17.0484 33.8193 16.7637 33.8828C15.949 34.0646 15.1887 34.4939 14.4854 35.0977C12.1193 37.1287 10.3958 41.1374 9.4043 44.3652C10.3004 45.074 12.5607 46.6148 14.4316 47.1084V42.6309C14.9998 42.7291 15.5769 42.7788 16.1553 42.7783H16.1572C16.3659 42.7783 16.5706 42.77 16.7705 42.7549V47.7256C17.8007 47.9198 18.8641 48.0215 19.9512 48.0215C20.9035 48.0215 21.8376 47.9428 22.7471 47.793V37.9707C22.8072 37.7316 22.8583 37.4975 22.9014 37.2725L23.0439 36.5234C23.7277 36.6275 24.409 36.7522 25.0859 36.8955V47.2344C27.3487 46.5209 29.406 45.3489 31.1465 43.8271V12.1396C29.4059 9.11244 27.3487 6.50193 25.0859 4.85059V14.0889C24.5028 13.3702 23.7232 12.7748 22.7471 12.4238V3.53418C21.8376 3.17323 20.9034 2.97756 19.9512 2.97754ZM33.4736 41.3389C35.5862 38.5677 36.8558 35.1275 36.9033 31.3945L36.9053 31.1768C36.9052 27.3595 35.6274 21.9276 33.4736 16.8486V41.3389ZM17.8984 36.1348C18.9659 36.1348 19.9302 36.1345 20.8643 36.252C20.4791 38.2666 19.5319 40.2308 17.0303 40.5049H17.0254L17.0195 40.5059C16.9748 40.5106 16.9296 40.5156 16.8838 40.5195H16.8809C16.8361 40.5229 16.7899 40.526 16.7441 40.5283C16.7406 40.5286 16.737 40.529 16.7334 40.5293L16.7207 40.5303C16.6834 40.5324 16.6454 40.5329 16.6074 40.5342C16.5926 40.5344 16.5774 40.5359 16.5625 40.5361H16.5107L16.4932 40.5371C16.4674 40.5374 16.4411 40.5381 16.415 40.5381H16.3984C16.3848 40.5378 16.371 40.5371 16.3574 40.5371C16.3185 40.5368 16.2791 40.5372 16.2402 40.5361C16.209 40.5356 16.1777 40.5342 16.1465 40.5332C16.1111 40.5319 16.0755 40.5302 16.04 40.5283C16.0157 40.5273 15.9912 40.5267 15.9668 40.5254C15.905 40.5217 15.8429 40.5167 15.7812 40.5117L15.7705 40.5107C15.7609 40.51 15.7508 40.5096 15.7412 40.5088C15.6829 40.5038 15.6246 40.4975 15.5664 40.4912L15.5518 40.4893L15.5391 40.4883C15.4741 40.481 15.4085 40.4728 15.3438 40.4639C15.337 40.4628 15.33 40.462 15.3232 40.4609H15.3223L15.3066 40.458C15.249 40.4499 15.1912 40.4413 15.1338 40.4316C15.1256 40.4304 15.1175 40.4281 15.1094 40.4268C14.7538 40.3661 14.402 40.2813 14.0576 40.1709C14.2549 39.7164 14.4669 39.2833 14.6914 38.8809L14.6982 38.8691L14.7041 38.8584C14.7396 38.7951 14.7754 38.7316 14.8115 38.6699L14.8164 38.6621L14.8301 38.6396C14.8639 38.5822 14.8983 38.5256 14.9326 38.4697C14.9365 38.4632 14.9404 38.4564 14.9443 38.4502C14.9497 38.4411 14.9545 38.4317 14.96 38.4229C15.0886 38.2158 15.2219 38.0198 15.3574 37.835C15.36 37.8314 15.3627 37.8278 15.3652 37.8242L15.3721 37.8154C15.4102 37.7638 15.4487 37.7127 15.4873 37.6631C15.4976 37.6498 15.5082 37.6364 15.5186 37.623C15.5586 37.5723 15.5991 37.5222 15.6396 37.4736C15.6432 37.4692 15.6469 37.4651 15.6504 37.4609L15.6562 37.4531C15.6706 37.436 15.6857 37.4192 15.7002 37.4023L15.709 37.3916L15.7354 37.3613C15.7467 37.3482 15.7581 37.3352 15.7695 37.3223C15.7801 37.3105 15.7911 37.2979 15.8018 37.2861L15.8164 37.2705C15.8399 37.2447 15.8631 37.2182 15.8867 37.1934C15.9051 37.1737 15.9239 37.1546 15.9424 37.1357L16.041 37.0371C16.0486 37.0295 16.0568 37.022 16.0645 37.0146C16.0901 36.99 16.1157 36.9653 16.1416 36.9414C16.1575 36.9268 16.1745 36.9125 16.1904 36.8984C16.217 36.8744 16.2437 36.8508 16.2705 36.8281C16.2844 36.8162 16.2985 36.8044 16.3125 36.793C16.343 36.7677 16.3736 36.7428 16.4043 36.7188C16.4149 36.7107 16.4259 36.7024 16.4365 36.6943L16.4502 36.6836C16.4756 36.6643 16.5008 36.6452 16.5264 36.627C16.5393 36.6178 16.5525 36.6088 16.5654 36.5996C16.5988 36.5764 16.6325 36.5537 16.666 36.5322C16.6725 36.5279 16.6791 36.5239 16.6855 36.5195C16.6887 36.5175 16.6922 36.5157 16.6953 36.5137C16.7288 36.4928 16.7632 36.4724 16.7969 36.4531C17.1537 36.2479 17.5222 36.135 17.8984 36.1348ZM13.1318 24.9238C12.2708 24.9239 11.5733 25.6181 11.5732 26.4736C11.5734 27.3289 12.2709 28.0224 13.1318 28.0225C13.9929 28.0225 14.6913 27.329 14.6914 26.4736C14.6914 25.618 13.9929 24.9238 13.1318 24.9238Z" fill="black"/>
<path d="M152.58 39.8042C151.634 39.8042 150.82 39.6283 150.139 39.2765C149.468 38.9136 148.951 38.4078 148.588 37.7591C148.236 37.0993 148.061 36.3241 148.061 35.4335H150.732C150.732 36.1262 150.881 36.6595 151.178 37.0334C151.486 37.3962 151.953 37.5776 152.58 37.5776C153.075 37.5776 153.465 37.4732 153.751 37.2643C154.048 37.0444 154.196 36.7365 154.196 36.3406C154.196 36.0437 154.086 35.8128 153.866 35.6479C153.657 35.472 153.371 35.329 153.009 35.2191C152.657 35.0981 152.266 34.9882 151.838 34.8892C151.42 34.7793 150.996 34.6473 150.568 34.4934C150.15 34.3394 149.759 34.136 149.397 33.8831C149.045 33.6302 148.759 33.3003 148.539 32.8935C148.33 32.4867 148.225 31.9699 148.225 31.3431C148.225 30.6944 148.401 30.1116 148.753 29.5948C149.116 29.078 149.616 28.6657 150.254 28.3578C150.892 28.0499 151.64 27.896 152.497 27.896C153.278 27.896 154.004 28.0499 154.674 28.3578C155.345 28.6547 155.889 29.089 156.307 29.6608C156.725 30.2326 156.945 30.9363 156.967 31.772H154.246C154.224 31.3981 154.125 31.0902 153.949 30.8483C153.784 30.6064 153.569 30.425 153.305 30.304C153.053 30.1831 152.783 30.1226 152.497 30.1226C152.09 30.1226 151.744 30.2216 151.458 30.4195C151.172 30.6064 151.029 30.8868 151.029 31.2607C151.029 31.5465 151.134 31.772 151.343 31.9369C151.563 32.1018 151.849 32.2393 152.2 32.3492C152.563 32.4482 152.954 32.5471 153.371 32.6461C153.8 32.7451 154.224 32.8715 154.641 33.0255C155.07 33.1684 155.461 33.3718 155.812 33.6357C156.175 33.8996 156.461 34.2515 156.67 34.6913C156.89 35.1201 157 35.6699 157 36.3406C157 37.0114 156.808 37.6106 156.423 38.1384C156.049 38.6552 155.527 39.062 154.856 39.3589C154.196 39.6558 153.437 39.8042 152.58 39.8042Z" fill="black"/>
<path d="M137.63 39.6062V28.0938H146.157V30.3204H140.352V32.547H144.096V34.7736H140.352V37.3795H146.223V39.6062H137.63Z" fill="black"/>
<path d="M129.69 39.6062V30.3204H126.325V28.0938H135.776V30.3204H132.411V39.6062H129.69Z" fill="black"/>
<path d="M117.908 35.9941V33.7675H120.53C121.058 33.7675 121.481 33.6081 121.8 33.2892C122.119 32.9593 122.278 32.5305 122.278 32.0027C122.278 31.4969 122.119 31.0901 121.8 30.7822C121.481 30.4743 121.058 30.3204 120.53 30.3204H117.908V28.0938H120.547C121.459 28.0938 122.256 28.2532 122.938 28.5721C123.62 28.8909 124.148 29.3473 124.522 29.941C124.895 30.5238 125.082 31.211 125.082 32.0027C125.082 32.8054 124.895 33.5091 124.522 34.1139C124.148 34.7076 123.62 35.1694 122.938 35.4993C122.267 35.8292 121.47 35.9941 120.547 35.9941H117.908ZM115.961 39.6062V28.0938H118.683V39.6062H115.961Z" fill="black"/>
<path d="M104.492 39.6062L105.283 28.0938H108.582L109.357 33.2562L109.638 35.6148L109.918 33.2562L110.759 28.0938H113.942L114.751 39.6062H112.095L111.996 34.1963V30.9306L111.551 34.1963L110.66 39.6062H108.549L107.625 34.1963L107.18 30.8811L107.197 34.1963L107.048 39.6062H104.492Z" fill="black"/>
<path d="M98.8939 39.8042C97.8823 39.8042 96.9917 39.5678 96.222 39.095C95.4633 38.6112 94.8695 37.924 94.4407 37.0334C94.0229 36.1427 93.814 35.0816 93.814 33.8501C93.814 32.6076 94.0229 31.541 94.4407 30.6504C94.8695 29.7598 95.4633 29.078 96.222 28.6052C96.9917 28.1324 97.8823 27.896 98.8939 27.896C99.9055 27.896 100.791 28.1324 101.549 28.6052C102.308 29.078 102.896 29.7598 103.314 30.6504C103.743 31.53 103.957 32.5966 103.957 33.8501C103.957 35.0816 103.743 36.1427 103.314 37.0334C102.896 37.924 102.308 38.6112 101.549 39.095C100.791 39.5678 99.9055 39.8042 98.8939 39.8042ZM98.8939 37.5776C99.3228 37.5776 99.7076 37.4347 100.048 37.1488C100.389 36.8519 100.659 36.4286 100.857 35.8788C101.055 35.318 101.154 34.6418 101.154 33.8501C101.154 33.0474 101.055 32.3712 100.857 31.8214C100.659 31.2607 100.389 30.8373 100.048 30.5514C99.7076 30.2656 99.3228 30.1226 98.8939 30.1226C98.4651 30.1226 98.0748 30.2711 97.7229 30.5679C97.382 30.8538 97.1126 31.2771 96.9147 31.8379C96.7168 32.3877 96.6178 33.0584 96.6178 33.8501C96.6178 34.6418 96.7168 35.318 96.9147 35.8788C97.1126 36.4286 97.382 36.8519 97.7229 37.1488C98.0748 37.4347 98.4651 37.5776 98.8939 37.5776Z" fill="black"/>
<path d="M88.2657 39.8042C87.2322 39.8042 86.336 39.5623 85.5773 39.0785C84.8296 38.5837 84.2468 37.891 83.829 37.0004C83.4222 36.0987 83.2188 35.0486 83.2188 33.8501C83.2188 32.6406 83.4277 31.5905 83.8455 30.6999C84.2633 29.8092 84.8571 29.122 85.6268 28.6382C86.3965 28.1434 87.3091 27.896 88.3647 27.896C89.1894 27.896 89.9481 28.0554 90.6408 28.3743C91.3335 28.6932 91.8998 29.155 92.3396 29.7598C92.7904 30.3645 93.0378 31.1012 93.0818 31.9699H90.113C90.058 31.4091 89.8821 30.9638 89.5852 30.6339C89.2883 30.293 88.8815 30.1226 88.3647 30.1226C87.9249 30.1226 87.5235 30.2656 87.1607 30.5514C86.8088 30.8263 86.5284 31.2442 86.3195 31.8049C86.1216 32.3547 86.0226 33.0364 86.0226 33.8501C86.0226 34.6528 86.1216 35.3345 86.3195 35.8953C86.5174 36.4451 86.7813 36.8629 87.1112 37.1488C87.4521 37.4347 87.8369 37.5776 88.2657 37.5776C88.6286 37.5776 88.942 37.5062 89.2059 37.3632C89.4808 37.2093 89.7007 36.9894 89.8656 36.7035C90.0415 36.4176 90.146 36.0712 90.179 35.6644H93.1478C93.0598 36.5111 92.8069 37.2478 92.3891 37.8745C91.9823 38.4903 91.4325 38.9686 90.7398 39.3094C90.047 39.6393 89.2224 39.8042 88.2657 39.8042Z" fill="black"/>
<path d="M71.8922 39.8042C70.9466 39.8042 70.1329 39.6283 69.4512 39.2765C68.7805 38.9136 68.2637 38.4078 67.9008 37.7591C67.549 37.0993 67.373 36.3241 67.373 35.4335H70.045C70.045 36.1262 70.1934 36.6595 70.4903 37.0334C70.7982 37.3962 71.2655 37.5776 71.8922 37.5776C72.387 37.5776 72.7774 37.4732 73.0633 37.2643C73.3602 37.0444 73.5086 36.7365 73.5086 36.3406C73.5086 36.0437 73.3986 35.8128 73.1787 35.6479C72.9698 35.472 72.6839 35.329 72.3211 35.2191C71.9692 35.0981 71.5789 34.9882 71.15 34.8892C70.7322 34.7793 70.3089 34.6473 69.88 34.4934C69.4622 34.3394 69.0719 34.136 68.709 33.8831C68.3572 33.6302 68.0713 33.3003 67.8514 32.8935C67.6424 32.4867 67.538 31.9699 67.538 31.3431C67.538 30.6944 67.7139 30.1116 68.0658 29.5948C68.4286 29.078 68.9289 28.6657 69.5667 28.3578C70.2044 28.0499 70.9521 27.896 71.8098 27.896C72.5905 27.896 73.3162 28.0499 73.9869 28.3578C74.6576 28.6547 75.2019 29.089 75.6198 29.6608C76.0376 30.2326 76.2575 30.9363 76.2795 31.772H73.5581C73.5361 31.3981 73.4371 31.0902 73.2612 30.8483C73.0963 30.6064 72.8819 30.425 72.618 30.304C72.3651 30.1831 72.0957 30.1226 71.8098 30.1226C71.4029 30.1226 71.0566 30.2216 70.7707 30.4195C70.4848 30.6064 70.3419 30.8868 70.3419 31.2607C70.3419 31.5465 70.4463 31.772 70.6552 31.9369C70.8752 32.1018 71.161 32.2393 71.5129 32.3492C71.8758 32.4482 72.2661 32.5471 72.6839 32.6461C73.1128 32.7451 73.5361 32.8715 73.9539 33.0255C74.3828 33.1684 74.7731 33.3718 75.125 33.6357C75.4878 33.8996 75.7737 34.2515 75.9826 34.6913C76.2025 35.1201 76.3125 35.6699 76.3125 36.3406C76.3125 37.0114 76.1201 37.6106 75.7352 38.1384C75.3614 38.6552 74.8391 39.062 74.1683 39.3589C73.5086 39.6558 72.7499 39.8042 71.8922 39.8042Z" fill="black"/>
<path d="M56.9429 39.6062V28.0938H65.47V30.3204H59.6643V32.547H63.4083V34.7736H59.6643V37.3795H65.5359V39.6062H56.9429Z" fill="black"/>
<path d="M45.9023 39.6062V28.0938H49.7783C50.647 28.0938 51.4221 28.2312 52.1039 28.5061C52.7966 28.77 53.3849 29.1548 53.8687 29.6606C54.3525 30.1554 54.7208 30.7547 54.9737 31.4584C55.2266 32.1621 55.3531 32.9483 55.3531 33.817C55.3531 34.6966 55.2266 35.4938 54.9737 36.2085C54.7208 36.9122 54.3525 37.5225 53.8687 38.0393C53.3849 38.5451 52.7966 38.9354 52.1039 39.2103C51.4221 39.4742 50.647 39.6062 49.7783 39.6062H45.9023ZM48.6238 37.3795H49.7783C50.3721 37.3795 50.8724 37.2366 51.2792 36.9507C51.697 36.6538 52.0104 36.236 52.2193 35.6972C52.4392 35.1584 52.5492 34.5317 52.5492 33.817C52.5492 33.1023 52.4392 32.4865 52.2193 31.9697C52.0104 31.4419 51.697 31.0351 51.2792 30.7492C50.8724 30.4633 50.3721 30.3204 49.7783 30.3204H48.6238V37.3795Z" fill="black"/>
<path d="M110.579 23.8298V12.3174H119.106V14.544H113.3V16.7706H117.044V18.9972H113.3V21.6032H119.172V23.8298H110.579Z" fill="black"/>
<path d="M101.633 19.525V17.2984H104.222C104.552 17.2984 104.838 17.2379 105.08 17.117C105.333 16.996 105.525 16.8256 105.657 16.6057C105.8 16.3858 105.871 16.1384 105.871 15.8635C105.871 15.5996 105.805 15.3687 105.674 15.1707C105.553 14.9728 105.382 14.8189 105.162 14.7089C104.942 14.599 104.689 14.544 104.404 14.544H101.633V12.3174H104.404C105.239 12.3174 105.976 12.4603 106.614 12.7462C107.262 13.0211 107.768 13.4224 108.131 13.9502C108.494 14.478 108.675 15.1158 108.675 15.8635C108.675 16.3143 108.565 16.7596 108.345 17.1994C108.137 17.6283 107.829 18.0186 107.422 18.3705C107.026 18.7223 106.542 19.0027 105.97 19.2116C105.41 19.4206 104.772 19.525 104.057 19.525H101.633ZM99.6699 23.8298V12.3174H102.391V23.8298H99.6699ZM105.937 23.8298C105.937 23.346 105.849 22.8567 105.674 22.3619C105.498 21.8561 105.239 21.3778 104.898 20.927C104.568 20.4651 104.156 20.0473 103.661 19.6734C103.167 19.2996 102.595 18.9972 101.946 18.7663L104.964 18.1561C105.602 18.4749 106.157 18.8543 106.63 19.2941C107.103 19.7339 107.493 20.2067 107.801 20.7125C108.12 21.2183 108.356 21.7406 108.51 22.2794C108.664 22.8072 108.741 23.324 108.741 23.8298H105.937Z" fill="black"/>
<path d="M93.2805 24.0277C92.2799 24.0277 91.4277 23.8518 90.724 23.4999C90.0203 23.1371 89.4815 22.6313 89.1076 21.9825C88.7338 21.3338 88.5469 20.5751 88.5469 19.7064V12.3174H91.2683V19.7064C91.2683 20.1353 91.3508 20.5036 91.5157 20.8115C91.6806 21.1194 91.9115 21.3613 92.2084 21.5372C92.5163 21.7021 92.8736 21.7846 93.2805 21.7846C93.6983 21.7846 94.0557 21.7021 94.3526 21.5372C94.6494 21.3613 94.8803 21.1194 95.0453 20.8115C95.2102 20.5036 95.2927 20.1353 95.2927 19.7064V12.3174H98.0141V19.7064C98.0141 20.5751 97.8272 21.3338 97.4533 21.9825C97.0795 22.6313 96.5407 23.1371 95.837 23.4999C95.1332 23.8518 94.2811 24.0277 93.2805 24.0277Z" fill="black"/>
<path d="M78.3975 23.8298V12.3174H86.9246V14.544H81.1189V16.7706H84.8629V18.9972H81.1189V21.6032H86.9905V23.8298H78.3975Z" fill="black"/>
<path d="M73.7722 23.8298V12.3174H76.4936V23.8298H73.7722ZM67.1748 23.8298V12.3174H69.8962V23.8298H67.1748ZM69.6158 18.9972V16.7706H74.0361V18.9972H69.6158Z" fill="black"/>
<path d="M59.8291 14.0492V11.1958H62.8144V14.0492L61.5939 16.6881H59.2354L59.994 15.3851L61.3795 14.0492H59.8291Z" fill="black"/>
<path d="M46.3809 23.8298V12.3174H49.1023V21.6032H54.6771V23.8298H46.3809Z" fill="black"/>
</svg>
