<svg width="589" height="426" viewBox="0 0 589 426" fill="none" xmlns="http://www.w3.org/2000/svg">
  <g clip-path="url(#clip0_3013_6332)">
    <rect width="589" height="426" fill="#FF584B"/>
    <path d="M135.224 68.9016C176.274 68.9016 210.286 143.76 210.286 191.287C210.286 238.815 173.843 264.967 135.224 264.967C96.6051 264.967 63.2363 234.723 63.2363 188.133C63.2363 141.543 94.1742 68.9016 135.224 68.9016Z" fill="#3C1213" stroke="#FF584B" stroke-width="4" stroke-miterlimit="10"/>
    <path d="M275.738 64C316.788 64 350.799 138.858 350.799 186.386C350.799 233.913 314.357 260.066 275.738 260.066C237.119 260.066 203.75 229.821 203.75 183.231C203.75 136.641 234.688 64 275.738 64Z" fill="#3C1213" stroke="#FF584B" stroke-width="4" stroke-miterlimit="10"/>
    <path d="M399.912 64C440.961 64 474.973 138.858 474.973 186.386C474.973 233.913 438.531 260.066 399.912 260.066C361.293 260.066 327.924 229.821 327.924 183.231C327.924 136.641 358.862 64 399.912 64Z" fill="#3C1213" stroke="#FF584B" stroke-width="4" stroke-miterlimit="10"/>
    <path d="M453.83 137.525C494.879 137.525 528.891 212.383 528.891 259.91C528.891 307.438 492.449 333.59 453.83 333.59C415.211 333.59 381.842 303.346 381.842 256.756C381.842 210.166 412.78 137.525 453.83 137.525Z" fill="#3C1213" stroke="#FF584B" stroke-width="4" stroke-miterlimit="10"/>
    <path d="M328.056 137.525C368.194 137.525 401.449 212.383 401.449 259.91C401.449 307.438 365.817 333.59 328.056 333.59C290.295 333.59 257.668 303.346 257.668 256.756C257.668 210.166 287.918 137.525 328.056 137.525Z" fill="#3C1213" stroke="#FF584B" stroke-width="4" stroke-miterlimit="10"/>
    <path d="M199.813 142.426C239.494 142.426 272.372 217.284 272.372 264.812C272.372 312.34 237.144 338.492 199.813 338.492C162.481 338.492 130.225 308.248 130.225 261.657C130.225 215.067 160.131 142.426 199.813 142.426Z" fill="#3C1213" stroke="#FF584B" stroke-width="4" stroke-miterlimit="10"/>
    <path d="M135.218 337.368L117 239L282 267.742L260.344 363H164.712L135.218 337.368Z" fill="#3C1213"/>
    <path d="M267.49 338.356L258 265H413L390.066 362H288.051L267.49 338.356Z" fill="#3C1213"/>
    <path d="M373 314.016L388.775 264.345L529 257L499.651 358H412.418L373 314.016Z" fill="#3C1213"/>
    <path d="M63.7023 271.354L49 160L125.197 238.698L156 301H94.7405L63.7023 271.354Z" fill="#3C1213"/>
    <path d="M48 159C90.6201 205.366 98.2069 215.299 131.199 241.97C160.226 265.436 190.092 268 248.985 268C384.772 268 306.502 268 438.734 268C556.78 268 560.384 239.837 511.12 193.978" stroke="#FF584B" stroke-width="5"/>
    <path d="M28 433V0" stroke="#FFC3C3" stroke-width="11"/>
    <path d="M87 433V0" stroke="#FFC3C3" stroke-width="11"/>
    <path d="M147 433V0" stroke="#FFC3C3" stroke-width="11"/>
    <path d="M208 433V0" stroke="#FFC3C3" stroke-width="11"/>
    <path d="M267 433V0" stroke="#FFC3C3" stroke-width="11"/>
    <path d="M326 433V0" stroke="#FFC3C3" stroke-width="11"/>
    <path d="M386 433V0" stroke="#FFC3C3" stroke-width="11"/>
    <path d="M445 433V0" stroke="#FFC3C3" stroke-width="11"/>
    <path d="M506 433V0" stroke="#FFC3C3" stroke-width="11"/>
    <path d="M565 433V0" stroke="#FFC3C3" stroke-width="11"/>
  </g>
  <defs>
    <clipPath id="clip0_3013_6332">
      <rect width="589" height="426" fill="white"/>
    </clipPath>
  </defs>
</svg>
