<svg width="589" height="426" viewBox="0 0 589 426" fill="none" xmlns="http://www.w3.org/2000/svg">
  <g clip-path="url(#clip0_3013_6359)">
    <rect width="589" height="426" fill="#FF584B"/>
    <path d="M246.096 166.621C242.556 165.158 238.113 164.06 234.405 162.887C238.674 168.098 245.493 169.72 250.301 174.337C250.525 175.454 249.398 175.09 248.776 174.926C246.326 174.272 243.908 172.589 241.42 172.234C241.415 172.529 245.647 175.216 243.51 175.501C242.622 175.623 239.797 173.347 238.651 172.889C237.922 172.594 237.524 172.421 237.678 173.389C241.728 176.875 245.769 180.553 249.066 184.685C252.536 189.036 256.109 194.448 259.495 199.028C260.098 199.841 261.02 200.767 261.473 201.5C261.838 202.094 261.936 203.388 262.049 203.487C262.867 204.202 272.641 201.711 274.624 202.613L272.758 204.005C275.097 203.239 277.463 204.683 279.558 204.529C280.699 204.445 279.857 203.449 280.699 203.543V205.875C279.928 206.076 280.498 205.071 279.937 204.935C278.431 204.575 277.271 204.758 276.962 206.342H278.838L279.058 205.417C279.914 205.749 279.235 206.777 279.296 206.809C279.455 206.903 282.009 206.16 282.57 207.515L280.928 207.286C279.909 208.782 282.691 208.333 283.72 208.473C286.9 208.913 285.979 208.305 287.981 208.212C288.696 208.179 289.58 209.034 290.053 208.45C288.243 206.197 286.218 207.38 283.978 207.739L284.913 205.879L282.112 204.945C282.743 204.968 283.356 204.585 283.996 204.753C285.077 205.038 289.127 207.496 290.3 207.562C291.629 207.637 295.328 204.379 297.54 204.945C294.416 207.553 294.687 211.161 298.475 207.51C297.334 206.267 296.955 208.941 296.142 208.207C295.618 207.735 298.48 205.739 298.494 205.562C298.545 204.706 297.778 204.389 298.438 203.295C299.443 201.617 301.057 202.856 302.689 202.608C300.991 204.921 302.736 209.296 302.231 211.156C302.104 211.614 301.206 211.567 300.912 212.264C300.453 213.348 300.715 215.185 300.346 216.381C301.529 216.03 302.02 215.1 302.217 217.087C299.326 217.563 300.917 217.736 300.86 219.652C300.828 220.802 300.524 222.723 299.42 223.167L299.883 220.835C298.321 220.419 299.191 222.003 298.948 222.232C298.424 222.732 297.746 222.031 298.003 221.302C296.254 223.228 293.597 220.367 292.353 223.354C291.717 224.878 291.76 225.583 290.834 227.383C290.679 227.682 291.039 228.285 290.997 228.308C290.838 228.406 287.752 228.626 287.733 227.607C288.028 227.121 289.01 227.102 289.136 226.579C289.262 226.055 289.374 221.928 288.196 223.167C287.476 223.919 288.668 227.761 286.316 226.911C287.915 229.495 284.89 228.958 284.45 229.948C284.277 230.336 285.254 229.99 285.385 230.481C285.816 232.094 285.006 234.337 284.894 235.996C284.847 236.706 285.446 237.534 285.371 238.333C285.282 239.328 283.51 241.791 283.496 242.558C283.491 242.833 284.436 242.754 284.487 243.076C284.576 243.665 283.669 245.287 283.987 245.6C284.604 246.212 286.512 244.231 287.49 244.231C288.547 244.231 290.076 245.656 291.25 245.572C291.947 245.521 292.382 244.759 293.088 244.708C294.205 244.623 295.604 245.745 297.194 245.521C298.153 245.385 299.275 244.376 299.663 244.366C300.187 244.352 300.79 245.194 301.454 245.067C303.302 244.717 307.328 239.104 310.639 239.529C311.065 241.782 309.821 240.478 308.886 241.039C308.713 241.142 306.229 242.997 305.785 243.343C303.39 245.198 301.492 248.227 298.952 250.049C302.488 250.222 298.307 252.989 298.952 253.55C301.726 254.19 303.18 251.629 305.168 250.652C306.678 249.914 308.946 249.862 310.153 249.091C311.257 248.381 311.271 246.974 312.056 246.32C312.996 245.535 315.812 245.404 316.523 244.203C316.981 243.422 316.219 242.651 316.34 242.403C316.438 242.202 319.272 240.076 319.782 239.548C322.686 236.538 324.782 232.967 329.351 232.519C328.434 230.953 326.068 233.725 325.848 231.584C325.427 233.482 325.067 231.743 323.977 231.738C323.416 231.738 322.49 232.687 322.345 232.523C321.424 231.519 323.636 230.925 323.271 230.659C320.549 229.317 320.446 231.949 319.445 232.696C318.393 233.482 317.294 233.285 316.279 233.711C315.611 233.991 315.396 235.113 314.39 234.856L314.862 230.654L315.788 232.519C315.012 228.939 318.655 232.215 318.136 229.243L319.067 229.719C319.109 229.238 318.926 228.626 319.09 228.196C319.857 226.144 322.602 223.102 324.029 221.125C324.973 219.821 325.072 218.246 327.017 217.33C325.043 216.568 326.648 217.077 327.017 216.171L326.166 216.082C326.334 215.058 326.143 213.072 325.156 212.432C325.745 214.923 321.746 215.586 321.391 215.993C320.657 216.825 320.222 218.732 319.679 219.793C319.057 221.012 318.847 221.826 318.384 222.756C318.314 222.901 316.476 223.036 315.77 224.321C315.063 225.607 315.592 227.27 313.932 227.85C313.45 226.434 314.708 224.84 314.75 223.798C314.773 223.2 313.548 220.452 313.927 219.905C313.974 219.839 314.979 220.611 315.265 219.615C315.578 218.512 315.04 217.026 315.4 215.988C315.606 215.39 316.471 215.437 316.719 214.867C317.028 214.152 316.887 213.151 317.388 212.123C317.935 210.992 321.003 210.151 321.634 208.679C322.621 206.379 321.662 205.921 323.58 203.398C323.898 202.982 323.79 202.243 324.192 201.916C324.431 201.725 325.123 202.187 325.151 202.15C325.577 201.482 324.842 198.874 324.688 197.944L326.082 198.406C326.026 197.13 326.044 195.911 326.297 194.644C326.465 193.822 328.963 188.498 330.295 190.704C328.757 192.994 327.349 195.691 330.758 192.331L330.992 193.728L332.896 192.326C332.358 189.396 334.935 188.882 337.306 187.886C337.469 187.414 336.235 187.895 336.375 187.423C336.684 186.358 338.597 188.181 337.31 185.788C338.148 185.503 338.428 186.512 338.943 186.554C339.728 186.615 344.129 184.39 345.247 184.129C345.897 183.974 348.338 184.404 348.464 184.292C349.035 183.759 351.303 177.048 350.873 182.035C352.968 181.334 352.065 185.297 353.445 182.512C354.048 185.003 356.359 183.292 356.485 183.442C356.592 183.572 356.237 184.512 356.761 184.895C357.401 185.362 358.94 185.292 359.763 185.316L357.893 186.713L363.032 186.722C362.522 188.718 359.469 185.853 359.763 188.115C362.504 187.007 364.856 190.606 367.026 190.354C368.663 190.167 367.054 189.606 366.778 189.059L368.177 188.124C366.788 189.274 365.043 187.536 364.908 187.652C364.734 187.797 365.291 188.769 364.44 188.582L363.968 187.19C365.282 187.895 366.834 185.797 367.007 185.797C367.157 185.797 368.373 187.4 369.439 187.568C370.389 187.713 374.443 186.456 374.579 185.577C374.635 185.222 374.046 184.058 374.252 183.918C374.457 183.778 375.477 184.129 376.024 183.82C376.8 183.381 377.31 180.161 378.461 179.712C378.624 181.184 377.254 184.054 376.328 185.311C376.263 185.4 374.022 186.718 375.435 186.732C377.044 186.746 377.909 186.115 379.868 187.194C379.957 188.171 378.428 187.414 377.993 187.662C377.899 187.713 378.456 189.143 378.245 189.756C378.058 190.298 376.88 191.256 377.062 191.391C378.044 192.116 380.102 188.508 381.968 189.055C381.772 190.569 379.691 189.218 380.341 191.401C381.664 190.382 381.019 192.046 382.422 192.345C384.835 192.854 386.991 191.592 388.997 190.471L389.222 191.863L393.898 190.938L390.625 192.798C392.364 193.312 393.225 192.663 394.834 192.34C390.882 195.696 394.039 195.855 397.64 195.144L395.774 197C396.316 197.289 398.856 199.252 398.963 199.421C399.052 199.561 398.524 200.206 398.575 200.257C401.923 200.869 399.735 201.052 399.206 201.832C397.467 204.412 399.398 204.538 399.075 206.048C398.982 206.478 397.939 206.45 397.71 207.104C397.481 207.758 397.453 209.917 398.075 210.352C398.888 210.922 400.712 209.992 400.909 211.02L398.575 211.488C401.493 211.039 399.927 212.273 400.67 213.834C401.269 215.082 403.916 215.465 405.076 215.974C405.698 216.245 406.123 217.077 406.96 217.362C408.148 217.764 412.179 217.806 412.119 220.143C412.081 221.564 409.364 219.69 409.327 220.835C415.271 222.564 420.705 224.934 425.835 228.406C426.696 228.986 429.75 231.009 430.147 231.575C430.381 231.907 430.648 232.393 430.129 232.528C429.235 232.566 428.885 231.514 428.258 231.126C427.084 230.397 428.501 232.888 427.337 232.051C426.457 231.425 427.042 230.219 426.167 230.187C426.747 232.692 425.704 232.552 424.891 233.617C424.297 234.398 425.475 235.309 422.421 234.86C422.356 235.935 422.253 235.692 423.114 235.795C426.434 236.183 427.566 235.631 429.895 238.833C428.426 240.226 426.177 238.912 424.058 239.062C420.869 239.286 424.811 240.955 425.265 241.6C425.938 242.558 425.471 243.642 425.775 244.128C425.887 244.306 427.238 244.595 427.818 245.123C428.721 245.946 428.81 247.25 429.923 248.161C430.634 248.745 436.638 250.764 437.087 250.68C437.649 250.578 438.289 249.503 438.785 249.115C436.905 247.269 432.645 246.53 432.341 243.427C432.144 241.417 435.483 243.249 435.516 241.642C433.884 240.955 433.832 239.917 433.15 238.964C433.094 238.884 431.218 237.59 432.486 237.66C433.094 237.692 434.73 238.936 434.581 237.435C433.215 237.132 433.332 235.744 433.065 235.468C432.626 235.01 430.844 235.384 431.316 233.697C432.827 231.79 434.193 235.613 435.984 235.795C436.175 235.561 434.646 232.972 436.69 232.981C436.966 232.981 436.877 233.664 437.069 233.753C438.154 234.262 439.599 235.164 440.324 235.458C441.156 235.8 442.045 235.061 442.999 235.538C443.784 235.931 444.084 237.604 445.463 238.244C447.124 239.02 449.425 238.739 451.057 239.197C452.689 239.655 454.747 242.034 455.977 241.562C458.142 240.73 456.837 238.333 456.697 237.365C456.622 236.842 457.178 235.959 457.038 235.795C456.154 234.776 456.295 237.066 455.411 236.72C454.92 236.529 453.9 235.426 453.297 235.089C453.185 234.888 455.163 234.776 454.232 233.93C454.054 233.771 450.552 232.57 449.827 232.079C449.457 231.827 449.962 231.257 449.607 230.864C449.186 230.397 448.274 230.243 448.19 230.131C448.106 230.018 448.831 227.747 449.055 227.584C449.948 226.934 455.406 227.957 456.566 225.513C454.831 226.541 453.302 223.111 453.755 222.704C453.998 222.489 455.312 223.158 455.158 222.242L452.824 221.765L454.69 220.372L452.824 219.437L450.949 219.895C451.431 218.718 453.147 218.634 454.223 218.493C453.984 217.25 453.077 218.091 452.661 217.989C452.245 217.886 452.609 217.232 451.711 217.11C450.369 216.932 448.7 217.816 447.212 216.624L448.143 216.161C448.195 213.652 445.683 215.577 444.949 215.17C444.645 215.002 443.78 212.852 443.901 212.268C444.009 211.745 445.318 211.782 445.337 211.03C443.378 210.796 441.657 212.778 442.302 210.095C441.114 211.095 439.945 211.754 438.322 211.488C439.744 209.81 442.363 209.455 444.402 209.618C442.063 206.51 442.662 208.688 440.787 209.062C440.459 209.128 438.056 208.744 437.892 208.651C437.831 208.613 438.462 207.632 437.616 207.296C436.512 206.856 437.303 208.417 436.461 208.226L436.222 206.828C435.226 208.132 433.416 207.599 433.416 205.893C432.855 207.263 431.382 206.253 431.312 206.356C431.153 206.585 431.564 207.782 431.242 208.165C431.097 208.338 428.244 209.586 428.506 208.24L429.909 207.3L423.366 205.431C423.983 205.005 427.29 203.215 427.468 203.01C427.556 202.907 426.743 201.439 428.973 201.683C428.59 199.893 426.298 200.865 426.172 200.752C425.943 200.547 426.827 198.729 426.958 198.112C427.051 197.668 426.504 196.934 426.687 196.626C426.757 196.509 428.604 195.612 428.969 195.144L429.207 197.944L430.853 194.209C431.597 194.004 431.143 194.854 431.429 194.995C432.041 195.294 433.187 195.775 433.889 196.074C434.253 196.228 433.992 195.149 434.394 195.102C435.095 195.018 435.839 195.766 436.938 195.429C438.037 195.093 439.627 192.438 440.319 191.994C441.011 191.55 442.47 192.008 443.003 191.055C443.986 189.298 443.013 187.484 443.153 186.096C443.373 183.848 444.846 182.208 443.808 179.609C443.406 178.595 442.143 178.226 442.536 176.688C443.088 174.51 444.481 178.333 444.654 178.329C446.067 177.969 447.46 177.114 447.208 175.506C446.661 175.688 446.179 176.473 446.291 175.3C446.759 170.482 448.382 164.224 449.139 158.975C449.897 153.727 451.183 148.296 450.954 142.795C451.141 142.59 453.746 143.725 453.793 144.015C453.919 144.777 452.142 152.068 451.945 153.834C451.683 156.176 451.917 159.036 451.711 161.172C451.534 163.027 450.168 167.458 450.481 168.654C450.575 169.019 451.436 168.967 451.412 169.173C451.309 170.103 449.743 172.809 449.654 173.496C449.546 174.351 449.808 175.146 449.518 177.109C449.312 178.497 448.335 182.862 450.327 183.399C450.524 183.451 454.012 182.998 454.368 182.89C455.71 182.488 457.819 177.772 457.431 176.314C457.361 176.048 455.977 174.263 455.635 173.856C454.962 173.048 453.75 173.51 454.7 172.239H452.361L454.232 169.201L452.361 168.734C453.764 167.042 456.865 166.621 456.103 169.435C457.613 168.477 458.282 170.22 459.61 170.823C461.163 170.024 460.209 165.981 460.363 165.771C460.518 165.56 461.388 165.626 461.635 164.929C466.027 152.633 460.957 139.356 460.466 127.517C460.452 127.125 460.621 126.162 461.009 125.971C461.64 126.513 461.925 127.396 462.07 128.181C463.684 137.061 465.035 146.165 465.007 155.194C465.007 156.442 464.46 157.452 464.549 158.844C464.694 161.032 467.883 167.425 468.823 170.038C469.085 170.771 469.277 171.444 469.202 172.234C470.923 171.557 469.698 169.874 469.665 168.724C469.618 166.934 469.689 165.14 469.665 163.359C469.918 163.074 473.58 165.06 474.361 163.513L473.865 159.62C473.739 159.531 472.125 161.494 471.611 159.293C471.307 157.999 473.439 154.853 470.601 155.409C471.774 153.101 473.767 156.026 475.75 155.414C476.124 157.302 474.365 155.395 473.879 155.881C472.761 157.003 476.629 157.396 477.153 157.078C477.779 156.699 477.948 154.961 478.78 154.489C481.179 155.994 484.228 158.218 485.505 160.845C486.782 163.471 487.409 170.958 486.992 173.898C486.88 174.707 485.659 176.543 486.034 176.908C486.137 177.006 488.068 176.478 487.792 178.478C487.638 179.595 485.702 181.067 486.497 182.984C484.743 183.437 485.987 181.236 485.519 180.689C485.426 180.577 483.985 180.455 483.443 180.203C481.291 179.207 479.477 177.3 477.681 180.474C477.447 180.885 475.778 184.83 475.778 185.082C475.778 187.18 477.915 188.671 478.761 190.022C480.001 192.004 480.716 195.135 483.228 195.602C483.302 193.822 484.069 193.714 485.566 193.265C485.206 197.317 481.984 200.383 479.5 203.323C477.821 205.314 476.68 207.3 474.356 208.922L476.685 210.324C475.838 211.88 473.332 211.137 472.569 211.595C472.308 211.754 472.27 212.731 471.751 212.843C471.311 212.941 470.32 212.235 470.138 212.422C470.067 212.493 470.278 213.264 470.016 213.675C469.74 214.11 468.594 214.297 468.089 215.217C467.692 215.937 467.009 219.199 466.359 220.48C465.971 221.246 464.483 220.344 466.855 222.475C469.399 224.761 471.283 225.378 473.697 228.28C474.356 229.074 475.212 228.257 474.337 230.177L475.745 230.187L474.814 230.878C476.339 233.458 475.965 234.239 479.019 232.991C478.579 236.216 478.275 236.463 481.357 237.903C481.418 239.403 478.71 237.234 478.088 237.669C478.598 238.637 479.814 239.127 479.486 240.469C476.521 239.445 477.143 240.828 475.726 242.086C475.086 242.651 473.921 242.483 473.879 243.268C475.029 243.651 477.62 242.581 478.523 243.048C479.828 243.726 482.227 246.152 482.998 247.479L486.969 242.338C486.698 244.091 485.332 245.722 484.799 247.353C484.532 248.166 485.398 249.283 484.168 250.278L486.969 249.348C486.866 249.891 487.511 250.507 487.413 250.942C487.245 251.676 485.921 251.363 486.038 252.148C486.744 252.092 487.666 252.377 488.278 252.026C488.335 251.994 488.554 250.269 489.307 251.218C489.644 251.643 488.648 253.858 488.377 254.48C492.067 254.274 493.605 250.951 493.984 256.597C494.087 258.135 494.26 259.63 492.843 260.588C492.198 261.028 491.136 260.733 491.187 261.495C493.928 261.761 495.85 260.425 497.73 258.696C498.422 260.803 496.397 261.425 496.004 262.103C495.611 262.78 495.775 264.009 494.929 264.767C495.457 265.164 498.455 262.864 497.73 264.533C497.44 265.206 496.28 265.454 496.004 265.846C495.368 266.748 495.438 268.926 493.993 269.912L497.73 267.58C498.076 267.968 495.34 271.02 496.397 272.197C496.551 272.37 499.722 273.609 500.302 274.595C501.195 276.109 500.148 278.418 503.113 280.25C503.917 280.75 504.825 279.329 503.81 281.601C506.045 281.264 504.895 282.274 505.222 283.62C505.264 283.802 506.022 286.041 506.274 286.859C506.761 288.424 508.267 291.121 508.496 292.588C508.744 294.177 507.172 292.701 506.62 292.359C506.518 294.112 508.655 294.869 508.959 296.561L509.651 295.631C511.788 297.855 508.767 298.874 508.019 300.767C510.829 299.58 513.416 299.267 516.432 298.907L513.275 301.122L509.422 301.94C510.427 302.454 510.451 304.464 510.932 304.87C511.367 305.24 512.887 305.179 513.107 305.501C513.495 306.081 512.574 308.198 514.098 308.96C515.623 309.722 517.634 308.31 519.238 308.717C519.477 309.927 518.242 310.554 518.293 311.708C518.368 313.39 520.342 314.199 520.58 315.124C520.866 316.232 519.481 317.854 520.884 318.522C521.806 318.961 522.283 315.895 522.521 317.83C522.105 320.19 520.608 320.55 519.271 321.593C517.933 322.635 519.028 323.626 520.403 323.598C523.391 323.537 524.284 319.929 526.983 319.489C528.68 319.214 531.692 319.125 532.702 320.737C534.358 323.369 530.757 322.794 529.522 323.439C528.83 323.803 528.755 324.817 528.498 324.972C527.464 325.593 525.056 324.401 524.85 324.602C524.663 325.551 525.542 325.794 525.954 326.472C526.225 326.925 525.051 327.678 527.184 327.406C525.612 329.678 519.678 326.645 519.701 330.669C521.548 330.528 523.976 333.043 525.566 333.005C526.328 332.987 526.824 332.066 527.539 331.73C531.715 329.762 530.383 331.454 532.543 333.973C533.039 334.552 535.073 336.983 535.237 337.123C535.546 337.38 536.486 337.156 536.977 337.469C537.744 337.955 538.436 339.161 539.338 339.39C540.161 339.595 542.78 337.74 542.617 340.96L540.756 340.025C540.017 340.988 543.463 344.493 544.324 344.638C544.511 344.671 547.476 343.385 547.85 343.147C549.202 342.297 549.908 340.254 551.97 340.497C552.349 342.708 549.029 344.283 547.144 345.25C546.498 345.582 544.572 345.998 544.487 346.11C544.16 346.559 545.619 348.153 545.456 349.111C545.404 349.4 544.637 349.358 544.576 349.447C544.034 350.251 546.134 351.345 546.484 352.312C546.98 353.686 545.283 354.854 547.766 354.523C546.812 355.967 548.173 356.705 548.215 357.556C548.238 357.986 545.942 364.776 545.516 365.599C544.492 367.585 542.94 367.356 543.576 370.628C543.706 371.301 544.908 372.595 544.473 373.203C544.328 373.409 540.119 375.264 539.867 375.306C538.118 375.596 534.638 374.829 532.992 375.988C531.748 376.862 531.687 379.405 530.953 380.489C530.406 381.298 527.249 383.331 526.95 383.957C526.571 384.737 526.847 385.691 526.604 386.42C525.799 388.817 524.813 390.523 525.318 393.313L523.452 392.851C523.138 393.725 524.471 394.089 524.186 394.715C523.62 395.968 520.809 396.851 520.29 398.333C519.944 399.324 520.211 401.941 520.103 402.095C519.893 402.38 518.831 402.502 518.784 402.889C518.752 403.151 520.187 404.446 520.173 405.231C520.164 405.782 519.533 406.245 519.369 406.783C518.696 409.031 518.088 408.932 517.887 409.498C517.475 410.648 518.438 411.807 518.326 412.648C518.284 412.961 516.54 416.803 516.455 418.345C516.395 419.429 517.054 422.92 516.83 423.832C516.675 424.449 515.712 424.813 515.651 425.313C515.487 426.589 519.21 433.791 519.233 435.843L513.631 426.033C514.725 430.389 513.172 428.094 511.882 429.435C510.89 430.464 510.928 435.997 509.426 434.908L508.949 433.043C505.316 433.759 508.051 438.418 507.551 440.984L504.75 438.184C504.277 439.876 505.97 444.148 505.634 445.368C505.573 445.592 502.921 448.032 502.416 448.709C501.771 449.583 501.05 450.583 500.597 451.56C499.82 453.238 498.983 458.982 498.661 459.211C497.122 460.323 497.23 456.304 497.725 455.472C494.999 456.033 496.103 456.407 495.864 458.51C492.969 459.388 493.563 454.163 491.655 453.135L490.958 457.346L489.317 456.411C488.69 460.206 488.021 463.936 486.969 467.628C485.299 467.221 486.539 463.679 484.64 463.894L485.103 467.628L483.695 465.763L482.765 467.165L479.968 466.226L479.5 469.493C479.781 466.81 478.224 466.333 476.227 465.291C476.217 469.18 475.343 467.581 473.215 468.123C470.886 468.717 468.351 471.381 466.995 473.129C466.803 473.376 466.943 473.965 466.822 474.152C466.667 474.386 464.783 473.269 464.526 473.465C463.955 473.9 462.786 478.288 462.187 479.317C461.373 479.429 461.748 478.251 461.724 477.69C461.677 476.522 461.762 475.344 461.72 474.18C460.504 474.447 459.816 476.059 459.381 476.512C458.885 477.027 459.002 474.736 457.992 475.587C457.894 475.667 457.183 477.517 457.043 477.919C455.144 477.251 457.73 474.928 455.649 474.18C455.565 475.008 455.168 476.713 454.246 476.98L454.237 473.246L452.843 474.18L453.302 470.913C452.923 470.521 449.714 472.68 448.382 472.255C448.045 472.147 448.288 471.292 447.933 471.381C447.035 471.6 445.646 473.666 444.944 473.171C444.851 473.105 444.93 472.32 444.622 472.292C443.555 472.203 439.996 473.166 438.547 473.264C437.756 473.32 437.003 472.886 436.292 472.923C435.53 472.961 434.628 473.76 433.954 473.633C433.173 473.484 432.224 470.554 431.789 472.559C431.663 473.147 438.243 480.99 437.405 483.065L438.331 482.588C437.555 484.186 438.907 486.827 439.805 488.369C440.53 489.608 443.504 492.206 440.211 490.07C440.614 492.398 443.831 494.403 443.981 496.856C444.056 498.095 443.443 499.147 443.48 500.119C443.527 501.334 444.71 507.4 444.411 507.835L443.485 507.363C444.247 509.77 442.718 509.929 442.293 511.069C441.909 512.092 441.755 515.523 441.6 515.78C441.549 515.864 440.801 514.934 440.099 516.364C437.934 520.776 438.879 527.09 439.314 531.857C440.497 544.798 438.35 557.898 438.911 571.152C439.22 578.462 439.706 589.379 441.175 596.366C441.577 598.278 443.214 600.582 443.457 602.031C443.78 603.961 443.036 605.414 442.994 607.13C442.905 610.794 445.417 618.407 447.203 621.66C447.474 622.155 449.078 624.567 449.331 624.674C449.785 624.866 449.34 623.567 449.794 623.744C451.309 624.328 450.327 626.534 450.556 626.927C450.683 627.142 454.078 629.899 454.405 630.114C460.784 634.232 469.59 634.891 476.077 639.779C476.783 640.312 477.293 642.747 477.854 640.569C479.388 641.691 481.436 645.504 480.838 647.28C480.627 647.897 479.715 647.939 479.472 648.374C478.439 650.215 478.948 652.337 476.255 652.987C472.817 653.819 467.243 653.707 464.395 651.342C463.576 650.659 463.408 648.631 462.814 648.495C461.972 648.299 460.677 648.645 459.638 648.495C458.6 648.346 456.613 646.621 456.58 648.725C456.571 649.496 460.059 654.824 460.78 655.641C461.893 656.913 464.526 658.819 465.971 659.932C466.537 660.366 467.453 660.544 467.846 660.913C468.281 661.325 467.757 662.04 467.804 662.068C468.131 662.269 471.344 660.628 472.481 661.61L471.082 663.002C473.187 662.876 474.842 662.876 476.69 663.946L473.888 664.414C474.884 666.381 475.698 665.269 477.171 665.521C477.616 665.596 482.115 667.709 482.311 667.91C484.158 669.774 483.298 674.831 481.067 676.495C476.98 679.547 469.829 675.934 465.582 675.284C462.992 674.887 460.106 675.135 457.403 674.579C450.014 673.055 446.675 671.789 438.631 672.878C434.305 673.462 434.38 675.598 431.438 677.948C428.931 679.949 425.789 681.655 423.375 683.804C420.191 686.646 418.413 688.52 414.953 691.277C412.077 693.568 410.44 698.83 407.587 699.807C406.61 700.143 405.048 699.755 404.201 700.629C403.355 701.503 403.5 703.98 402.817 705.205C402.756 705.312 401.171 706.897 401.063 706.957C398.842 708.243 395.619 707.275 395.058 704.616C394.184 700.466 393.735 695.82 394.492 691.394C394.899 689.015 395.661 688.071 398.126 688.011C398.14 687.623 394.806 686.482 395.311 688.24C394.576 688.37 394.754 687.571 394.932 687.16C395.834 685.043 398.949 684.809 400.927 684.968C400.516 683.281 396.784 685.015 397.186 683.108L402.798 682.164C402.227 680.547 398.519 681.986 398.121 681.697C399.389 679.519 402.489 680.496 404.669 680.295L402.803 678.435L407.475 678.897C406.951 677.635 405.394 677.467 404.201 677.495L407.47 676.56L404.669 675.168H408.405L406.539 674.224C407.021 672.242 411.038 673.939 411.211 673.761C411.52 672.284 409.617 672.406 409.345 671.429C410.468 671.289 412.105 671.747 413.091 671.2C414.798 670.246 410.94 670.148 411.216 669.564L415.888 669.087L413.554 667.695L416.823 666.76C415.991 666.914 413.007 666.484 412.656 666.825C412.521 666.956 412.722 667.713 412.488 667.998C411.239 669.527 408.536 671.2 406.787 672.845C404.711 674.798 399.094 675.327 396.003 675.626C390.115 676.196 383.974 675.845 378.133 676.715C376.964 676.888 375.5 677.785 373.952 677.944C373.181 678.023 372.068 677.504 371.983 677.565C371.866 677.645 371.773 678.467 371.188 678.855C369.818 679.762 366.222 680.196 365.038 681.37C362.611 683.767 362.611 691.969 361.344 692.399C360.507 692.684 354.184 692.577 353.108 692.334C351.874 692.058 348.235 689.688 347.403 688.688C346.748 687.898 345.944 685.305 345.63 685.085C345.195 684.781 342.371 684.463 341.529 684.047C342.235 685.305 342.31 686.838 342.824 688.123C343.184 689.034 344.138 689.871 344.33 690.362C344.601 691.053 341.809 691.712 344.33 691.993C344.55 692.904 343.297 691.979 343.399 692.918L346.916 693.843L352.243 699.709C352.164 700.372 346.668 702.349 346.65 704.368C346.636 706.144 348.679 705.121 349.507 704.406C351.205 702.943 350.555 701.587 353.922 701.335C358.804 700.975 351.71 704.289 351.546 704.607C351.64 710.472 353.917 703.555 355.783 703.2C356.962 702.975 358.519 703.349 359.763 703.209C359.801 703.714 354.039 707.369 356.733 707.873C357.874 708.088 358.089 705.597 359.412 704.952C359.946 704.695 362.261 704.181 362.831 704.2C364.809 704.27 364.847 705.92 365.712 706.495C367.012 707.364 369.519 707.116 370.524 709.046C369.584 709.383 369 709.5 370.075 710.425C372.643 711.238 375.893 712.257 378.264 713.458C378.708 713.683 381.543 715.314 381.655 715.477C381.912 715.851 381.664 716.65 381.753 716.753C381.889 716.912 382.913 715.982 383.539 716.347C383.68 716.426 383.787 717.127 384.119 717.393C386.771 719.506 389.278 720.576 391.555 723.539C392.935 725.334 394.586 727.437 391.303 727.932C385.939 728.746 382.216 721.651 377.694 721.076C375.8 720.833 376.408 723.806 372.886 724.483C366.39 725.731 362.681 722.661 357.415 720.73C354.553 719.679 351.401 719.081 348.549 717.908C338.269 713.687 321.639 702.62 310.971 709.813C309.26 710.967 308.633 712.682 307.37 713.692C303.129 717.085 297.269 719.469 293.134 722.833C290.249 725.18 287.789 729.269 285.175 731.237C283.374 732.587 280.662 733.218 279.076 734.957C276.948 737.284 277.089 742.238 273.464 742.902C272.847 743.014 269.891 743.065 269.578 742.86C269.003 742.491 265.762 731.185 266.73 729.629C269.676 725.423 267.034 719.754 271.379 716.515C269.414 715.501 268.601 717.912 267.174 718.618C267.525 717.618 268.456 714.907 268.989 714.229C269.358 713.762 273.693 713.51 274.652 713.472C273.605 711.397 271.075 713.837 269.508 713.243C272.398 709.35 275.288 708.126 280.264 708.799L277.931 706.939C279.277 706.121 282.074 707.859 282.373 707.859C282.715 707.859 283.248 707.284 282.593 706.714C281.789 706.018 280.18 706.009 279.801 705.069L283.07 704.831L280.269 703.2C281.05 703.036 284.202 703.415 284.473 703.19C285.46 702.382 282.556 702.134 283.543 701.326C283.795 701.115 286.554 701.471 287.279 701.321L286.812 699.928C289.113 700.096 291.217 699.914 289.15 697.591L292.891 697.582L290.553 695.722L294.294 695.713C295.052 695.157 288.781 692.623 287.064 695.75C286.77 696.283 286.952 697.227 286.727 697.498C286.629 697.615 284.623 698.11 283.851 698.601C282.916 699.195 281.405 701.344 280.582 701.265C279.946 701.204 278.814 700.05 277.851 699.774C271.336 697.891 263.269 699.209 256.703 698.475C248.514 697.559 241.7 694.484 232.824 695.236C229.129 695.549 220.749 698.386 217.793 694.829C216.142 692.843 218.312 691.539 216.9 690.123C214.646 692.745 213.299 690.413 211.508 690.749C209.37 691.151 206.868 694.965 204.025 692.675C205.147 691.511 204.263 690.301 204.731 689.207C205.942 686.366 212.943 681.486 215.997 680.804C218.242 680.304 221.188 680.79 222.994 680.556C223.536 680.486 224.018 679.72 224.588 679.579C228.381 678.649 231.8 678.285 235.625 678.411C236.907 678.453 238.3 679.846 239.834 679.776C240.695 679.738 241.345 679.005 242.191 678.897C242.795 678.822 253.617 679.266 254.206 679.43C254.884 679.617 255.211 680.654 256.203 680.785C256.549 680.832 260.608 681.08 260.851 681.066C261.263 681.038 261.656 680.22 262.624 680.351C263.512 680.472 264.925 682.103 265.542 682.061C266.117 682.019 266.753 680.332 267.862 680.309C268.97 680.285 270.214 681.874 271.589 681.711C272.295 681.627 272.749 680.851 273.464 680.809C274.76 680.739 275.887 682.365 275.597 679.832C277.631 681.393 279.343 678.897 279.572 678.907C279.773 678.916 280.779 681.234 282.813 680.715C283.753 680.472 283.36 678.654 283.987 678.154C284.702 677.584 286.087 678.71 286.994 678.406C287.84 678.126 287.681 676.71 288.196 676.289C288.42 676.107 290.235 676.771 291.18 676.56C291.558 676.476 291.334 675.593 292.18 675.57C292.919 675.551 294.491 676.215 294.701 676.051C294.86 675.929 295 675.07 295.445 674.654C295.959 674.172 297.124 674.583 297.891 674.079C298.185 673.887 302.277 670.237 302.45 669.985C302.848 669.405 303.133 668.4 303.18 667.681C302.787 667.33 299.677 668.307 299.443 667.218C300.187 666.909 304.452 664.353 304.625 664.105C305.776 662.479 305.921 659.703 303.185 659.969C305.009 657.586 309.699 658.179 309.699 654.824C309.699 653.893 308.497 652.875 308.764 651.641C308.89 651.043 311.902 650.131 312.304 649.454C312.65 648.865 312.482 647.897 312.786 647.131C313.328 645.766 315.671 645.406 311.607 644.551C312.318 641.705 312.618 643.677 313.927 643.163C315.512 642.541 315.583 640.018 315.246 638.564C314.989 637.461 313.904 637.017 313.941 635.905C317.074 636.125 314.975 631.325 316.05 628.895C316.504 627.866 319.053 627.062 319.469 625.258C319.516 625.062 319.431 621.618 319.371 621.407C319.043 620.3 317.612 619.842 317.687 618.613C318.22 618.103 319.548 620.37 320.016 618.837C320.437 617.463 319.085 617.711 319.053 617.402C318.889 615.827 321.583 613.635 321.896 611.836C322.163 610.294 319.745 611.967 320.011 610.429C320.951 609.06 320.713 607.34 321.213 606.013C321.513 605.209 323.28 603.587 323.28 603.419C323.28 603.073 321.41 602.129 321.424 601.091C321.433 600.372 323.065 598.213 323.266 596.843C323.729 593.66 322.715 590.548 323.87 586.692C324.132 585.818 325.708 584.954 325.665 583.809C325.656 583.589 324.894 583.603 324.744 583.192C323.58 580.023 326.386 577.172 326.498 574.302C326.54 573.167 325.633 572.741 325.605 571.653C325.563 569.9 327.106 568.587 326.012 566.119C325.656 565.325 324.8 565.329 324.482 564.829C323.762 563.693 324.459 562.637 322.008 561.707C321.251 561.422 314.095 559.38 313.581 559.338C312.473 559.249 311.659 559.796 310.971 559.74C310.85 559.73 310.345 558.669 309.147 558.221C302.259 555.65 303.779 558.552 301.09 563.446C299.415 561.688 300.935 556.333 298.054 560.184L297.119 558.781C296.137 562.833 295.309 559.786 295.707 557.384L294.308 558.781C296.647 554.388 296.675 551.313 295.566 546.537C295.085 544.462 294.018 543.312 293.831 541.031L292.438 542.896L290.558 538.222C287.78 538.456 290.558 541.901 289.407 543.854C288.879 544.621 287.719 543.536 287.293 543.826C287.017 544.013 287.237 546.2 286.358 546.163C285.689 544.078 286.208 541.779 286.349 539.624C284.431 539.078 286.255 542.499 284.716 541.961C284.375 541.84 284.267 539.709 283.08 539.62L281.91 542.419C281.859 541.639 280.283 540.405 280.283 540.269C280.278 539.807 280.769 539.213 280.634 538.568C280.334 537.129 279.956 535.213 279.1 534.012C278.188 535.46 279.539 537.442 279.343 538.816C279.273 539.302 276.5 540.297 277.458 541.952C276.5 541.91 276.434 539.592 275.826 539.624C275.447 539.643 275.171 541.746 273.74 541.008C274.643 539.101 269.98 534.628 269.98 537.045V543.821L267.843 537.311L266 535.414L265.308 536.811C265.266 535.428 264.368 534.25 263.452 533.292C263.115 532.941 259.925 530.198 259.701 530.095C258.41 529.492 255.342 530.263 255.478 527.468L254.084 528.403C254.472 526.557 253.659 526.548 252.443 525.599L251.751 526.996L251.741 524.197L250.348 525.594C251.058 522.491 248.954 523.01 248.135 522.192C247.817 521.874 247.906 520.902 247.336 520.388C246.676 519.794 245.905 520.467 245.736 520.365C245.516 520.229 245.007 518.729 243.58 518.089C242.645 517.668 241.607 518.131 240.559 517.378C239.82 516.85 238.16 514.453 237.571 514.055C235.326 512.522 230.032 511.957 227.656 509.709C227.249 511.98 230.939 512.102 231.636 513.906C230.317 514.312 229.808 512.859 228.998 512.644C228.475 512.508 227.754 512.948 226.716 512.56C224.06 511.569 220.267 505.414 217.873 504.068C216.717 503.418 215.703 503.839 214.795 503.404C213.846 502.951 212.546 499.53 210.123 500.362L209.665 501.292C209.146 497.81 204.053 497.74 201.144 496.478C200.761 496.31 196.103 493.132 197.033 494.973C197.478 495.856 199.517 496.109 199.835 497.076C197.057 497.801 195.181 494.819 193.269 494.043C192.572 493.763 191.95 494.445 191.169 493.865C189.836 492.87 187.245 488.785 185.992 487.318C184.897 486.037 183.181 484.658 182.068 483.294C181.918 482.878 183.111 483.219 183.003 482.84C182.339 480.424 179.622 477.47 179.225 474.676L178.331 475.12C178.612 473.353 177.111 471.661 176.751 470.455C176.582 469.89 176.171 465.917 175.984 465.773C175.941 465.74 175.1 466.305 175.058 466.245C175.577 462.781 173.468 459.903 173.65 456.421C172.317 457.08 171.695 455.893 170.381 455.963L169.913 457.827L169.904 455.495C169.263 454.607 168.188 460.879 168.501 461.566C167.262 461.234 167.739 459.613 167.832 458.823C167.916 458.108 168.492 457.281 167.327 458.29C166.289 460.837 168.534 462.749 168.033 465.31C166.738 464.707 166.71 462.791 166.63 461.576L165.704 462.506L164.993 459.239C163.997 461.01 165.106 463.45 162.894 464.842C163.155 461.935 162.033 459.342 161.771 456.486C161.631 454.972 162.407 448.363 160.78 447.555C159.152 446.746 160.766 451.013 160.551 451.289C158.661 449.42 158.011 451.733 158.212 453.626C156.674 453.374 158.554 449.878 157.048 449.896C156.472 449.901 156.22 451.649 156.346 452.228C154.022 452.425 152.932 449.275 155.879 449.415C155.313 448.349 154.363 447.335 153.073 447.555C152.914 447.7 154.041 451.359 152.61 451.756C152.076 450.504 153.096 446.274 151.894 445.685C150.355 444.933 151.136 448.518 151.146 448.751C151.155 448.985 149.574 448.826 150.505 450.364C150.631 450.574 153.545 453.5 153.966 453.888C154.653 454.528 155.691 454.593 156.388 455.229L158.217 457.827C157.038 458.748 149.345 452.523 147.69 451.761C146.815 451.425 146.881 452.313 147.016 452.901C147.278 454.056 148.588 455.692 149.331 456.664C148.864 457.22 146.834 455.537 146.296 455.023C145.019 453.799 144.271 451.686 142.55 450.822C141.83 452.266 144.991 454.5 145.122 454.794C145.192 454.948 143.41 454.92 145.122 457.36C142.681 458.047 141.198 455.71 139.042 456.435C138.734 456.061 139.777 454.126 138.107 454.565C138.037 457.024 140.721 458.902 138.107 460.169C137.836 459.01 137.972 457.019 136.704 456.435C136.681 457.673 137.097 459.692 137.869 460.641C138.598 461.538 139.894 461.473 140.001 461.865C140.221 462.702 140.436 465.529 139.519 466.016C140.067 467.203 140.96 466.072 141.287 466.291C141.947 466.745 143.752 471.227 145.594 472.554C149.214 475.171 152.118 472.138 155.074 472.806C155.238 472.844 157.239 474.671 157.745 474.895C154.003 475.863 150.276 475.237 146.53 474.662C146.404 476.283 148.56 476.185 149.331 477.232C147.849 478.228 146.708 476.685 145.59 476.293C145.164 476.143 144.566 476.386 144.187 476.209C140.717 474.587 134.048 466.651 133.178 462.968C132.158 458.669 135.072 453.64 132.71 449.91C131.536 448.055 130.363 449.078 129.254 448.705C129.02 448.625 125.209 446.27 125.083 446.059C124.521 445.139 126.715 442.638 123.614 442.872C123.404 442.087 124.25 442.596 124.461 442.349C124.802 441.951 121.486 434.072 121.037 432.599C120.294 430.183 119.283 426.641 118.76 424.215C118.376 422.43 119.559 419.182 116.599 419.971C116.44 419.018 117.913 419.915 118.03 419.252C118.367 417.373 117.824 414.401 118.007 412.269C118.189 410.138 119.022 408.073 118.937 405.955L119.887 410.835C121.552 413.354 118.559 415.98 121.037 418.56L122.202 415.77C123.689 418.28 120.822 418.929 120.766 419.34C120.733 419.579 121.206 421.303 121.28 421.374C122.024 422.089 123.226 419.121 123.862 419.027L123.614 415.77L125.48 416.233C123.226 414.218 124.278 411.47 124.082 408.759L125.475 409.227C125.634 408.316 125.691 407.166 125.99 406.315C126.191 405.74 126.327 405.82 126.696 404.525C127.028 403.357 128.515 399.127 128.309 398.328C128.183 397.833 127.084 398.015 126.864 396.847C126.588 395.374 128.038 392.458 126.916 391.668C125.073 390.374 123.974 393.323 123.605 394.734C122.894 394.87 123.048 394.019 123.123 393.552C123.436 391.505 126.069 387.934 127.351 386.326C125.56 386.116 122.866 389.023 121.472 389.145C120.322 389.243 119.994 388.205 119.171 388.177C118.975 388.172 118.858 389.953 117.997 389.121C117.862 388.99 119.382 388.14 116.604 387.724L116.594 389.598L115.668 389.121C116.248 390.336 115.491 391.079 115.425 391.939C115.411 392.15 115.725 393.365 116.131 392.626L116.599 391.687C116.875 392.023 119.363 395.58 117.778 395.187C110.875 393.482 107.924 382.055 104.374 377.269C103.79 376.479 102.789 376.283 102.354 375.549C101.863 374.727 101.69 372.834 101.161 371.834C100.366 371.703 100.656 372.96 100.736 373.423C100.932 374.563 101.578 375.39 101.629 376.502C100.263 375.689 99.7209 373.782 99.7583 372.301L99.2907 376.502L97.897 375.68C95.3903 367.23 93.5711 359.981 94.6795 351.088C95.4184 345.161 97.738 339.619 99.5479 333.964C99.6975 333.496 99.3281 332.889 99.4263 332.655C99.4871 332.51 101.521 330.542 101.662 330.468C102.214 330.187 103.2 330.351 103.434 330.155C104.173 329.533 103.06 325.177 105.375 324.85L103.977 324.154L106.31 324.144C106.801 322.284 104.089 324.037 104.44 322.518C104.608 321.78 106.175 322.868 106.31 322.747C107.162 321.962 105.141 321.635 104.959 321.06C104.833 320.663 106.053 314.124 106.338 313.886C106.568 313.694 107.807 313.844 108.232 314.082C108.625 314.302 108.162 315.685 108.892 316.667C109.5 317.48 111.595 319.027 112.395 319.943C112.549 318.031 112.138 314.12 110.388 313.077C109.794 312.722 107.975 313.241 108.158 311.343C108.2 310.899 109.458 310.871 109.593 310.343C109.79 309.591 108.27 308.525 108.228 307.572C108.186 306.618 109.121 304.763 109.832 304.053C110.51 306.1 107.643 310.039 110.996 306.389C110.122 308.348 111.085 309.081 112.399 310.596C111.979 309.324 112.189 307.343 111.843 306.254C111.623 305.572 110.706 305.188 110.604 304.688C110.412 303.786 111.936 302.548 111.932 302.417C111.899 301.856 110.44 302.062 110.538 301.253L111.834 301.015L111.473 300.323C112.661 300.421 113.545 299.173 113.349 300.776C114.116 300.996 113.597 300.085 114.022 299.935C114.499 299.767 119.283 298.874 119.681 298.888C120.032 298.902 125.952 300.351 126.458 300.524C127.758 300.982 128.375 302.693 130.175 302.178C130.648 300.468 129.334 300.856 128.74 300.099C128.408 299.673 128.721 298.856 128.356 298.659C127.295 298.089 125.62 299.131 125.966 297.51C129.722 297.271 133.407 296.304 137.19 296.57L134.857 295.636L136.255 294.71C134.001 294.476 132.523 296.229 130.175 295.64C130.119 294.233 130.269 291.56 129.727 290.331C129.446 289.686 128.468 290.167 128.305 290.032C127.089 289.013 131.845 288.419 132.046 288.158C131.78 287.56 131.391 286.681 130.896 286.279C129.932 285.498 128.029 285.9 128.309 284.428L135.32 285.358C133.95 284.162 133.926 281.18 132.046 281.624V280.932L142.354 271.104C142.461 269.351 142.251 270.076 140.937 270.408C140.628 269.347 142.199 268.889 142.307 268.244C142.475 267.239 136.615 261.92 135.792 260.598C136.545 259.911 140.179 265.267 142.714 263.766C143.808 263.121 143.42 259.976 147.601 260.696C150.07 261.121 149.878 262.925 150.056 262.934C151.74 263.023 152.928 258.976 154.962 260.588C153.362 258.149 157.768 256.466 157.759 255.681C157.759 255.475 155.715 254.405 156.412 252.466C156.73 251.587 158.109 251.797 158.493 251.265C159.55 249.774 155.846 241.955 158.946 241.413C162.047 240.87 161.851 243.128 163.838 238.384C163.394 237.435 162.342 238.263 161.977 237.964C161.509 237.58 161.579 236.632 161.06 236.094C159.975 234.972 157.118 236.58 156.837 236.29V234.421C156.702 234.248 155.663 235.08 155.434 234.888C154.508 234.098 156.384 233.902 156.379 233.72C156.356 232.743 155.21 232.528 155.069 231.794C154.929 231.061 155.79 229.378 155.434 228.341C156.042 228.934 159.48 229.78 158.231 228.35C158.142 228.252 156.847 228.093 156.837 227.644C156.837 227.49 157.96 226.677 157.81 224.826C157.773 224.363 155.729 222.401 155.888 221.335C155.168 221.176 155.659 221.905 155.069 222.232C154.719 222.429 154.017 222.447 153.564 222.732C153.11 221.494 154.401 221.975 154.504 221.499C154.639 220.868 154.443 220.124 154.504 219.465L155.43 220.396L154.494 211.983C150.285 213.016 152.203 214.979 152.577 217.876C152.642 218.372 152.974 219.578 152.161 219.456L151.684 216.657L150.285 217.124C149.963 216.778 151.178 214.554 151.192 214.053C151.197 213.853 150.267 213.881 150.252 213.595C150.224 212.983 151.23 211.876 150.556 211.016C150.187 210.544 148.143 210.464 147.479 209.646L147.012 211.044L146.072 209.646C145.922 210.74 147.367 213.137 146.072 213.848C146.198 213.109 145.267 209.048 145.047 208.796C144.884 208.604 142.859 208.338 142.33 207.777C141.919 209.333 141.498 211.483 141.956 213.053C142.517 214.97 145.805 215.236 146.535 217.119C144.687 216.731 143.275 215.442 141.863 214.32L141.348 216.755L139.524 219.461C139.379 218.423 139.791 216.946 139.454 216.012C139.267 215.493 136.662 214.413 139.052 213.156L138.116 212.217L139.047 211.525C137.827 210.805 136.887 213.595 135.834 212.885C135.713 212.801 135.095 211.076 134.581 210.572C134.319 210.315 133.066 210.431 132.509 209.188L131.106 212.455C130.26 208.917 129.235 205.398 129.226 201.711L128.3 207.782C127.748 206.538 128.005 204.833 127.519 203.683C127.257 203.066 126.434 203 126.051 202.332C125.083 200.636 124.372 196.07 124.091 193.99C123.993 193.279 124.222 191.144 124.082 190.961C123.245 189.886 123.259 192.176 122.688 191.891L121.748 190.494L120.817 193.298C121.865 188.844 119.162 189.47 117.263 187.054C116.594 186.204 116.412 185.068 115.678 184.18C114.663 182.951 112.675 182.142 111.693 180.684C110.875 182.801 112.755 188.092 109.327 188.138C106.624 188.176 105.515 184.498 104.182 182.582C103.102 181.035 101.124 177.73 100.249 176.702C98.1589 174.244 94.6046 172.65 92.5562 169.902C91.5975 168.617 90.0355 163.957 89.7128 163.864C89.1189 163.696 88.2677 163.999 88.104 164.612C87.7393 165.99 90.405 168.491 89.9467 168.996C89.0721 169.958 89.0066 167.238 87.3791 167.593C86.7992 167.72 87.4867 168.865 86.9115 168.996C84.7976 167.822 86.6028 165.042 84.5077 164.958C82.1506 164.869 74.2283 166.579 71.6094 167.266C64.4774 169.136 54.4787 173.403 47.2579 176.113C45.5275 176.763 40.14 180.507 38.7042 178.375C38.5639 178.17 38.0074 174.062 38.0027 173.44C37.8578 161.34 43.4885 149.38 52.0795 141.216C53.8333 139.552 57.5232 137.033 58.9262 135.243C59.2021 134.888 58.987 132.205 60.4789 133.481C61.0167 132.383 60.4181 130.294 60.8437 129.42C61.5779 127.91 63.0464 127.658 63.5094 126.905C64.4681 125.354 64.9124 123.419 65.5016 121.928C65.8384 121.082 66.9093 120.386 67.4986 119.689C66.5726 118.904 64.9124 119.937 64.0612 119.797C63.5468 119.708 57.9348 116.661 57.4718 116.165C55.9425 114.53 56.485 111.94 55.8396 109.851C54.7593 106.36 51.8457 101.958 51.8551 97.7281C51.8551 95.7932 52.8044 93.2321 53.0009 91.1804C53.3048 87.9743 53.4264 77.6036 55.0305 75.6781C55.1989 75.4771 56.8919 74.2667 57.093 74.2106C61.4984 72.93 67.1759 84.1279 73.8214 78.786C75.5799 77.3746 78.0492 72.8132 79.2277 72.0561C79.4989 71.8832 82.9129 70.3689 83.1234 70.3829C86.4812 70.5652 87.8328 76.0333 91.1953 76.753C94.9226 77.5522 96.784 74.1872 99.0007 71.9299C103.294 67.5648 107.166 62.2275 113.484 59.5589C119.255 57.124 121.084 60.6198 122.225 65.714C123.142 65.8683 122.478 64.5316 122.688 64.312C122.824 64.1718 125.045 65.2327 126.322 63.7511C126.401 63.6577 126.013 63.1997 126.116 63.0408C126.191 62.9286 126.588 62.9005 126.841 62.522C127.037 62.2275 126.822 61.5966 126.897 61.5172C127.295 61.1012 128.941 62.7557 128.992 61.0451C130.484 64.7419 130.161 61.7976 131.167 61.0825C131.476 60.8629 134.235 62.5547 135.077 59.6431C135.811 61.8911 135.703 59.4 136.503 59.2178C137.031 59.1009 138.64 59.9655 139.519 59.6431C139.959 61.5218 137.77 59.9702 137.658 60.1057C137.607 60.1665 137.71 60.961 137.364 61.4564C135.961 63.4707 134.95 62.3257 134.847 62.4425C133.898 63.5128 136.012 64.1344 136.279 64.4942C137.471 66.1019 136.54 67.9667 135.077 68.9809C134.562 66.9619 133.833 69.0416 133.056 69.3968C131.424 70.1446 130.269 70.4297 130.872 68.5182C129.151 72.1449 126.715 68.5976 123.623 69.4576L126.892 69.9249C126.827 71.1775 124.652 71.2242 124.554 71.327C124.288 71.6028 124.942 72.6964 125.256 72.7151C125.522 72.7338 126.588 71.4766 127.36 71.7944L125.026 74.1265C126.864 74.3976 128.333 71.7056 128.529 74.5938C129.357 74.0657 130.629 72.0982 131.34 71.7944C131.462 71.743 132.238 73.3834 133.44 73.1918C133.169 72.5749 133.131 70.2287 133.449 69.9203C134.296 69.1024 134.431 70.8129 134.576 70.8082C135.53 70.7755 137.747 70.2568 138.364 69.4576L138.584 70.8503L139.992 71.084C139.557 72.0795 136.91 72.0795 136.718 72.2617C134.684 74.1732 141.502 72.1122 141.802 71.7289C142.04 71.4298 141.694 69.2426 142.798 68.5229C142.269 68.1209 138.926 70.2147 140.184 67.705C140.263 67.5461 141.292 67.7611 140.459 66.6534C142.05 66.803 143.757 65.6019 144.435 67.5835C145.253 67.2096 144.659 66.3169 144.739 66.2328C144.851 66.116 148.807 65.8823 145.464 65.2514C143.855 64.9476 147.428 62.8865 147.942 63.3772C146.502 66.9993 149.312 64.5083 149.341 63.6063C149.387 62.0079 144.856 63.5361 144.678 63.3726C143.672 62.4379 146.095 62.6155 145.609 61.7415C144.636 61.433 143.911 59.9141 143.396 59.5963C142.737 59.1897 141.909 59.7038 141.877 59.6384C141.273 58.498 143.2 57.0726 140.006 57.0679L142.807 56.3622C143.022 55.577 141.923 56.1239 141.848 55.6612C141.587 54.0161 143.41 53.8011 144.21 52.857C145.487 51.3521 146.226 49.3144 147.498 47.7301C149.42 45.3326 152.114 43.3042 154.723 41.8227L156.837 42.8088C157.085 42.262 156.271 41.0375 156.37 40.9441C156.566 40.7618 160.125 40.0327 160.808 40L160.116 41.8694L162.926 41.4021L162.454 40.4767C165.255 39.9392 166.953 44.0286 167.14 46.3187C167.304 48.2956 166.251 50.7305 166.747 52.3055C167.014 53.1561 168.117 53.3431 168.702 54.1423C173.051 60.0917 164.446 65.1018 161.514 69.2099C161.346 69.4482 158.974 73.5049 159.176 73.6498C159.349 73.776 160.209 73.4956 160.536 73.6918C160.602 73.7339 160.017 74.7855 160.822 75.0565L165.255 74.1265L162.922 75.0612C164.142 76.8792 166.298 74.893 167.374 74.5845C167.622 74.5144 167.542 75.4771 167.888 75.5519C168.44 75.6641 173.935 74.8182 174.141 75.0565C173.706 77.7812 175.787 75.0846 176.947 77.1643L176.016 77.856L179.753 77.398L178.35 78.5617C179.617 79.7254 180.529 80.2956 182.297 80.2162C183.948 80.1367 186.688 78.1925 186.763 80.6648L181.624 81.1415C181.563 81.8005 183.396 82.0155 183.798 82.0389C186.09 82.1744 188.325 81.6977 190.505 81.1415C190.547 81.9734 188.358 81.8566 189.335 83.0016C191.412 81.8005 193.825 81.6229 196.121 81.1415C195.485 82.4735 193.769 81.4593 194.246 83.4736C194.068 82.4969 190.201 83.3147 190.042 83.4736C189.639 83.8849 190.729 85.1141 191.314 85.273C192.347 85.5487 193.236 84.7589 194.246 84.8757L191.912 85.8104L193.311 86.2778C193.526 87.0676 192.385 86.4928 192.347 87.0022C192.31 87.5677 192.885 89.3904 193.774 89.0866C194.138 89.4558 192.586 89.9232 192.081 90.4607C190.247 92.4189 192.52 92.2833 193.194 92.6572C194.573 93.433 195.948 94.9192 196.902 96.0269C198.432 97.8028 198.287 97.0457 199.994 97.4991C200.396 97.6066 200.307 98.3263 200.653 98.4104C201.864 98.7048 203.684 98.2281 205.007 98.4244L203.141 99.8172C204.68 99.6022 204.652 101.331 206.419 100.761L205.947 101.687C209.539 101.972 213.243 101.738 216.708 100.761L216.47 101.696C217.859 102.117 219.949 100.654 220.445 102.159L219.042 103.093C219.813 103.378 220.683 102.691 221.179 102.673C221.394 102.663 221.273 103.995 222.554 103.575C222.989 103.43 222.479 102.392 223.246 102.631C223.05 104.327 224.28 103.191 225.299 103.248C227.17 103.355 226.286 104.883 226.964 106.042C227.441 106.851 229.723 107.066 229.798 108.697C227.913 109.22 227.974 107.945 227.207 107.416C226.987 107.267 225.252 107.286 226.061 108.225C226.403 108.622 229.265 109.323 229.7 109.744C230.85 110.861 232.487 114.305 233.624 115.866C235.728 118.764 238.918 120.367 240.975 123.012C242.589 125.092 242.327 124.69 244.081 126.452C244.497 126.868 247.266 129.994 247.364 130.223C247.789 131.191 246.924 132.364 247.107 132.537C247.186 132.612 248.14 132.383 248.729 133.014C249.178 133.495 250.048 135.528 250.867 136.5C253.542 139.673 255.67 140.959 256.675 145.179C256.727 145.385 258.2 148.268 256.455 146.81C254.828 145.45 252.022 139.529 250.217 137.388C249.903 137.014 246.849 133.841 246.625 133.719C246.171 133.472 244.979 133.883 244.31 133.014V135.346C243.562 131.892 241.537 129.186 238.927 126.938C239.493 131.196 237.51 127.12 237.295 127.405L236.827 128.803L236.584 127.396C235.139 128.261 233.591 128.237 231.917 128.335L232.151 129.265C231.313 129.536 231.056 128.578 230.448 128.457C229.644 128.293 227.67 129.209 226.539 128.807L229.948 129.831C230.677 129.943 231.402 130.915 231.977 131.009C232.207 131.046 236.154 130.434 233.904 132.434C232.375 133.794 228.119 133.238 226.291 132.551L226.066 133.476L232.146 134.42L229.345 135.346C233.352 135.757 236.027 139.29 240.096 139.58C240.045 141.104 239.6 140.669 239.166 141.421C240.746 141.548 241.99 142.809 243.37 143.534L241.962 143.768C242.706 146.974 245.727 148.838 248.514 150.315C248.87 152.161 246.938 150.469 245.615 150.17C244.946 150.021 244.684 149.357 244.782 150.535L247.116 152.881L246.185 153.344C247.799 155.199 249.347 159.326 249.903 161.784C250.207 163.125 248.482 161.317 248.996 162.681C249.543 164.14 250.834 166.687 251.208 167.949C251.718 169.659 252.199 171.879 252.26 173.669L250.404 169.22C249.623 168.21 247.378 167.154 246.185 166.659C246.475 166.804 248.556 165.668 249.454 166.659C248.79 165.173 248.701 162.308 248.206 161.05C248.075 160.719 243.716 155.881 243.398 155.718C243.08 155.554 242.444 155.821 241.99 155.662C241.565 155.517 237.711 153.872 238.927 155.447C239.53 156.227 241.607 155.961 241.976 157.307C239.077 156.531 239.633 156.826 239.166 159.648C238.894 159.924 237.44 157.914 237.061 157.784C236.14 157.461 236.467 158.536 236.322 158.648C235.331 159.438 235.181 157.185 234.26 156.849C233.867 156.704 234.171 157.466 233.876 157.634C233.395 157.905 232.679 157.742 232.628 157.788C231.304 158.966 235.616 159.803 235.864 159.924C237.538 160.751 244.59 164.032 245.395 164.766C245.933 165.261 246.008 166.575 246.19 166.663L246.096 166.621ZM465.896 164.78C462.823 163.588 462.627 166.813 462.589 169.201C462.575 170.084 463.113 170.954 463.104 171.496C463.099 171.804 462.253 171.748 462.01 172.328C461.069 174.562 462.36 175.763 462.632 177.843C470.203 176.291 465.227 169.636 465.896 164.785V164.78ZM238.904 178.488C238.525 178.179 236.593 176.431 236.748 178.067C238.197 178.347 238.866 180.782 239.208 181.021C239.568 181.273 240.372 181.021 240.489 181.114C240.634 181.231 239.226 183.946 239.638 184.736C240.882 185.503 248.785 194.055 249.361 193.723C249.426 193.686 249.576 192.462 250.305 192.564C247.635 190.597 247.139 187.082 245.278 184.502C244.081 182.843 240.597 179.862 238.904 178.492V178.488ZM150.229 208.688C150.514 208.464 151.188 209.614 151.389 209.609C152.656 209.609 152.062 202.056 151.618 200.738L150.697 205.65L149.991 205.412C151.454 204.445 149.242 203.945 149.275 202.608C145.796 203.477 145.927 210.403 149.939 209.651C150.346 209.576 150.187 208.716 150.224 208.684L150.229 208.688ZM462.061 213.932C459.648 212.595 460.733 215.334 460.237 215.647C459.699 215.988 456.912 215.558 456.552 217.091C458.184 217.404 463.861 219.909 464.97 219.218C467.636 217.549 464.329 216.633 463.539 215.96C462.917 215.432 462.173 213.993 462.066 213.932H462.061ZM280.138 235.402C279.928 235.281 276.387 235.832 276.018 236.019C275.592 236.234 274.376 238.473 274.259 238.964C273.595 241.819 275.985 242.193 276.345 243.572C276.485 244.105 275.976 245.296 276.509 246.053C281.331 245.867 278.959 245.268 279.357 243.595C279.624 242.474 281.957 242.123 280.699 239.997L281.62 240.464C281.77 239.515 282.397 238.492 282.046 237.506C281.999 237.37 280.26 235.473 280.133 235.402H280.138ZM336.885 245.072C336.698 244.894 336.866 243.913 336.37 243.469C336.225 243.338 332.938 243.259 332.489 243.352C330.459 243.787 329.72 246.306 327.952 247.231C327.859 248.895 331.38 248.652 332.606 248.161C333.017 247.998 333.354 247.175 333.77 247.114C334.584 246.993 334.939 248.292 335.285 248.39C335.884 248.554 336.693 248.287 337.395 248.53C338.685 248.97 339.822 250.18 341.496 249.806C341.15 247.979 341.014 246.455 343.362 247.002L341.964 246.077L343.83 245.142C342.904 245.535 337.133 245.31 336.876 245.072H336.885ZM448.499 262.995C448.26 262.57 443.887 260.528 442.985 261.028C441.961 265.187 445.777 266.5 449.064 266.636C448.559 265.706 448.835 263.603 448.499 262.995ZM310.593 271.814C309.152 270.725 307.473 273.114 306.589 273.576C305.102 274.361 300.234 275.455 302.909 277.857C303.718 278.586 308.184 278.362 309.695 279.25C310.153 277.965 308.75 276.647 308.769 275.735C308.787 274.558 312.117 272.969 310.593 271.81V271.814ZM285.68 284.101C284.852 283.648 282.172 282.998 281.663 283.489C281.546 283.601 281.12 286.321 281.373 286.728C281.85 287.503 285.792 287.681 286.307 287.452C288.126 286.634 286.751 284.69 285.68 284.101ZM173.5 304.856C173.65 304.688 174.085 302.351 174.005 302.006C173.491 299.8 169.679 300.505 168.248 300.262C166.967 300.047 166.611 299.159 164.465 299.304C163.16 299.393 162.622 300.061 162.07 300.141C161.28 300.253 158.016 299.057 157.707 300.524C157.366 302.16 159.779 301.262 160.05 301.44C160.504 301.739 159.414 303.001 161.823 302.996C163.876 302.996 164.091 300.692 166.125 304.258L164.727 304.955C166.032 304.483 170.152 308.058 171.241 307.273C171.377 307.175 171.452 305.908 171.971 305.417C172.425 304.987 173.299 305.081 173.5 304.856ZM519.21 320.382C520.019 319.499 515.37 314.017 512.677 316.424C512.008 317.022 512.013 318.031 511.596 318.387C511.297 318.644 510.525 318.592 510.086 318.952C508.486 320.256 509.127 321.985 510.558 323.177L510.797 319.915C512.246 318.938 515.787 323.331 516.404 322.714C516.156 321.088 514.215 320.204 513.715 318.63C513.084 316.657 514.328 316.69 515.731 317.55C516.25 317.868 518.602 321.041 519.21 320.373V320.382ZM156.921 320.7C156.622 320.298 156.697 319.457 156.337 319.186C156.056 318.971 155.261 319.494 154.765 319.363C154.087 319.186 152.418 316.709 151.679 318.812C150.753 321.462 155.546 321.41 157.23 321.789C155.748 323.453 155.416 323.85 156.66 325.864C156.823 326.126 156.688 326.794 157.459 326.453C157.899 326.261 159.732 323.869 160.036 323.191L157.698 323.182C158.895 321.125 157.478 321.466 156.917 320.7H156.921ZM110.421 319.036C110.388 318.975 109.472 319.433 109.074 318.98C108.621 319.742 110.365 325.621 108.139 326.462L108.13 324.126C107.059 325.472 104.828 327.678 107.667 326.467L107.9 329.257C110.183 328.22 109.762 325.897 110.01 323.658L111.408 324.588C111.067 323.224 112.259 322.205 111.908 320.634C111.801 320.162 110.819 320.569 110.561 320.303C110.304 320.036 110.571 319.303 110.426 319.036H110.421ZM146.946 331.136C144.828 331.094 142.223 332.122 140.193 332.085C138.163 332.047 136.466 330.426 134.534 330.613C133.66 330.697 133.917 331.561 133.566 331.585C131.017 331.772 128.684 332.304 126.13 332.524C124.984 332.622 120.733 332.113 120.354 332.585C120.298 332.65 120.677 333.244 120.504 333.478C120.135 333.973 119.209 333.669 119.354 334.393C122.496 335.165 125.438 334.207 128.702 334.87C129.09 336.455 125.985 335.725 124.783 335.861C124.241 335.922 121.902 336.015 122.16 336.964L130.447 339.894C134.59 340.605 133.851 338.731 135.577 338.231C136.681 337.908 139.557 338.618 139.926 337.431C140.371 335.992 138.654 335.903 138.285 335.342C136.896 333.234 139.01 334.379 139.627 334.277C140.179 334.183 140.693 333.37 141.311 333.206C142.877 332.795 144.243 332.856 145.913 332.178C146.614 331.893 147.18 332.459 146.941 331.131L146.946 331.136ZM112.343 347.961C111.408 347.218 111.216 349.914 110.318 349.938C108.817 352.06 109.631 354.906 110.005 357.303C110.571 356.392 111.81 356.92 111.866 356.836C112.549 355.808 110.87 355.897 110.931 355.677C111.403 353.924 113.873 351.99 114.214 349.587C114.382 348.405 113.325 348.97 112.568 348.891C111.179 348.737 112.605 348.171 112.343 347.961ZM511.129 349.513C509.141 348.774 504.357 349.742 504.263 352.363C504.53 353.219 508.655 354.055 509.632 354.074C510.9 354.097 516.212 353.513 517.054 353.041C517.83 352.606 518.808 351.583 518.046 350.76C515.637 351.139 513.939 350.957 511.629 350.256C511.274 350.148 511.246 349.555 511.133 349.513H511.129ZM505.652 358.238C506.443 357.504 503.155 354.784 502.519 354.593C502.238 354.509 496.949 354.079 496.636 354.125C494.947 354.354 494.152 356.247 495.56 357.345C496.271 357.902 497.884 357.85 498.899 358.21C499.979 358.598 501.888 360.075 502.856 359.416C503.16 359.206 503.141 358.35 503.641 358.224C504.189 358.084 505.507 358.374 505.652 358.233V358.238ZM124.503 356.841C123.843 356.252 119.765 360.921 119.026 361.411C118.213 361.949 116.529 362.159 115.622 362.916L115.154 361.514L114.677 364.314L113.751 361.982L113.279 364.781H115.841L115.612 365.716C116.87 366.571 117.937 362.94 118.891 365.244C117.534 365.384 116.206 366.978 115.112 367.352C114.424 367.585 113.798 367.071 113.751 367.118C112.951 367.931 113.915 374.703 113.751 376.002C115.285 377.517 119.531 371.876 120.523 370.847C120.892 370.464 122.431 370.347 121.697 369.459C121.561 369.291 120.579 369.843 120.771 368.997C124.699 367.515 125.728 365.356 126.846 361.519L118.895 364.781C120.097 363.005 125.176 362.094 122.169 359.883L124.507 356.845L124.503 356.841ZM488.9 369.838C488.615 369.529 489.508 368.838 488.863 367.81C488.367 367.015 485.935 364.963 485.075 365.716C484.864 366.908 486.492 367.197 486.483 368.277C486.483 368.856 483.719 372.404 485.599 373.6C485.992 373.853 489.153 373.32 489.27 373.175C489.569 372.815 488.465 370.684 489.738 369.931C489.494 369.908 489.027 369.969 488.896 369.833L488.9 369.838ZM119.938 376.386C119.573 375.792 120.125 374.881 119.592 374.6C119.185 375.6 117.146 376.872 116.824 377.4C116.66 377.671 117.057 378.306 117.02 378.335C116.81 378.475 116.117 377.923 115.598 378.12C113.896 378.76 112.362 381.62 114.233 383.223C117.731 386.223 121.313 380.9 121.697 377.867C119.419 377.456 119.901 380.592 117.965 381.134C117.67 380.237 119.073 379.737 118.9 379.04C118.75 378.437 117.366 378.634 117.492 377.867C119.195 378.288 119.513 377.517 120.757 376.918C120.967 376.157 120.097 376.638 119.938 376.381V376.386ZM484.556 391.939C484.476 391.813 482.503 391.182 481.829 390.687C480.945 390.028 477.078 385.279 476.222 387.971C475.366 390.663 478.593 390.434 479.617 390.995C480.641 391.556 481.352 392.996 482.414 393.426C483.737 393.963 485.346 393.178 484.556 391.944V391.939ZM488.428 397.407C488.222 397.286 488.003 396.164 487.427 395.842C486.712 395.44 486.006 396.047 486.015 396.328C486.038 396.893 489.499 399.384 490.056 399.992C490.453 400.422 493.465 405.451 494.424 404.507C494.77 403.679 493.484 403.09 493.498 402.871C493.521 402.502 496.238 402.338 494.62 398.468C492.487 393.369 490.121 398.403 488.428 397.407ZM150.22 402.174C149.392 401.833 148.812 403.109 148.583 403.095C148.115 403.072 147.582 399.936 145.216 401.852C143.401 403.319 145.51 405.834 144.612 407.778C145.852 406.904 146.689 405.913 146.483 408.25C149.008 407.582 148.386 405.782 149.069 404.058C149.326 403.408 150.477 403.175 150.22 402.174ZM458.881 404.979L447.694 407.582C447.058 407.96 445.917 409.26 445.87 409.956C445.861 410.11 446.647 412.779 446.754 412.886C446.965 413.087 448.293 412.709 449.06 413.153C449.719 413.536 450.36 415.676 451.73 416.092C454.569 416.952 458.249 417.625 461.107 418.424C462.762 418.887 463.698 417.308 463.09 416.667C463.01 416.583 462.07 416.751 461.691 416.448C461.084 415.966 461.35 414.952 460.948 414.344C459.147 411.62 459.966 412.045 458.918 409.381C458.605 408.577 457.576 407.825 457.511 407.484C457.338 406.568 459.175 406.105 458.876 404.983L458.881 404.979ZM450 419.939C450.047 419.873 451.375 419.682 451.393 419.228C451.403 418.995 447.746 416.695 447.512 416.723C446.623 416.831 445.791 418.219 444.388 417.125C443.504 418.069 447.863 421.542 448.012 421.892C448.096 422.084 447.605 422.701 447.652 422.729C450.865 422.836 453.783 424.832 456.374 426.402C458.61 427.753 458.722 425.29 457.744 424.575C457.104 424.103 456.206 424.22 455.616 423.879C454.929 423.481 454.887 422.659 454.326 422.247C453.849 421.897 449.499 420.644 449.99 419.939H450ZM192.207 480.798C191.613 480.228 189.859 480.326 189.046 479.756C188.424 481.574 190.051 482.228 190.392 482.948C191.281 484.817 191.136 486.748 193.479 487.243L194.181 486.304C194.059 487.916 195.069 488.458 196.519 488.645C196.659 489.346 194.662 489.014 196.065 489.799C196.603 490.099 199.465 491.23 199.797 490.973C198.539 489.449 199.816 485.402 196.996 486.771C197.922 484.546 197.066 485.832 196.224 485.229C195.995 485.065 193.175 482.719 193.03 482.565C192.553 482.069 192.567 481.149 192.212 480.807L192.207 480.798ZM377.586 522.65C377.207 522.416 376.15 519.575 374.705 519.949C375.075 521.262 375.72 521.701 375.168 523.22L374.242 522.748V525.552L371.904 525.09C372.301 528.796 371.408 532.217 370.959 535.839C368.714 533.955 370.473 535.89 368.626 535.839C369.051 534.984 369.374 533.759 367.919 534.432C367.709 534.53 367.096 536.965 366.049 537.246C365.581 536.862 366.105 536.063 365.123 536.316C361.952 538.232 361.83 541.433 360.217 544.05C359.632 544.994 356.616 547.069 356.321 547.654C353.482 553.253 353.805 561.628 350.952 568.428C344.339 584.192 340.495 601.176 338.119 618.229C337.853 620.146 336.81 622.576 336.936 624.763C337.053 626.754 338.765 628.75 338.727 630.46C338.676 632.806 335.903 635.55 335.571 638.045C335.468 638.826 336.043 639.807 335.935 640.77C335.697 642.864 334.846 646.35 334.921 648.243C335.024 650.744 339.649 660.708 341.3 662.942C343.114 665.395 345.925 667.367 348.661 668.671C349.605 669.12 354.787 671.153 355.503 671.181C355.942 671.2 358.781 668.896 359.791 668.4C363.35 666.652 366.311 666.288 369.696 665.213C370.37 664.998 370.721 664.124 371.291 663.965C372.732 663.568 374.504 666.007 374.701 665.774C373.817 663.657 374.691 664.619 376.216 663.867C380.612 661.694 384.157 662.096 388.95 661.577C390.564 661.404 392.645 660.521 394.132 660.581C394.726 660.605 395.428 662.357 397.153 661.563C396.396 660.315 397.555 658.221 398.552 659.231C398.832 659.516 397.621 661.049 400.202 660.661C401.46 660.474 400.965 659.063 402.064 658.296C402.162 659.6 402.999 658.745 403.158 658.866C403.406 659.053 402.906 659.89 403.691 659.693C403.5 658.058 403.682 656.964 405.295 658.343C405.595 658.6 405.342 659.408 406.03 659.226C406.156 658.628 405.861 656.632 406.039 656.427C406.806 655.525 406.993 657.301 407.274 657.366C411.665 658.385 408.887 653.379 413.045 655.025C412.834 651.061 412.974 652.767 415.06 652.234C415.715 652.066 415.514 650.057 417.726 651.286C417.305 649.416 418.54 650.169 419.162 649.575C419.41 649.337 421.612 646.079 421.711 645.687C421.954 644.729 422.024 643.845 421.935 642.864C418.217 643.92 422.029 640.831 422.379 638.868C422.524 638.055 422.365 637.148 422.403 636.326C419.672 637.929 421.678 633.923 422.379 633.255C423.534 632.166 424.994 633.26 424.264 630.105C424.175 629.717 423.52 629.731 423.352 629.446C421.949 627.137 424.278 627.025 424.671 625.688C424.895 624.917 424.353 623.931 424.652 622.954C424.905 622.132 425.952 622.44 425.676 621.604C425.195 620.136 423.955 622.052 423.815 621.828C423.427 619.987 426.177 619.454 426.607 618.309C426.986 617.299 424.479 617.084 424.259 616.435C423.628 614.551 425.915 616.323 425.676 614.355L423.343 614.346C426.027 612.172 424.741 613.004 424.446 611.224C424.362 610.724 424.652 610.172 424.535 609.663C424.353 608.859 423.488 607.541 423.511 607.111C423.544 606.531 425.428 604.798 425.583 603.269C425.746 601.666 424.283 599.03 424.329 598.759C424.404 598.325 427.248 596.292 424.517 595.193C424.203 595.067 424.068 597.044 422.88 596.591C422.721 596.422 423.965 594.002 424.133 593.464C424.255 593.067 423.806 592.52 423.829 592.202C423.848 591.912 425.26 592.076 424.746 590.291C424.32 588.828 422.449 591.403 422.426 589.823C422.421 589.403 424.128 587.725 423.834 586.15C423.782 585.87 422.365 585.926 422.875 584.262C423.001 583.851 424.273 584.196 423.815 583.051C420.378 582.364 422.987 579.672 422.908 577.644C422.861 576.429 421.776 575.901 421.935 574.443C422.047 573.419 423.123 572.545 422.875 571.358L421.014 573.223L421.477 566.456C418.334 563.6 420.789 559.791 420.56 556.664C420.537 556.379 419.606 556.417 419.583 556.136C419.517 555.374 420.621 553.655 420.541 552.664L418.675 554.529C419.166 551.963 419.363 550.434 417.74 548.214L417.039 549.388L413.293 545.186C412.844 545.111 413.19 545.906 413.012 546.046C412.058 546.784 405.669 540.569 404.65 539.339C404.542 538.241 404.8 538.727 405.492 538.975C408.064 539.9 408.564 542.774 410.72 543.784L409.794 541.447C410.346 541.709 412.367 543.99 412.128 542.158C411.978 541.008 410.472 535.054 408.85 536.545C408.452 537.204 410.234 539.596 408.625 539.582C407.999 539.578 408.083 537.049 407.858 536.834C407.657 536.643 406.137 536.797 405.585 536.306L406.287 538.638C404.033 535.1 402.101 537.091 399.038 536.306C399.262 538.073 399.501 539.91 400.436 541.443C398.411 541.933 398.065 540.022 397.555 539.676C397.481 539.624 395.867 539.559 395.792 539.61C395.311 539.956 395.736 542.302 394.829 542.377C392.252 539.335 390.891 535.325 388.497 532.114C387.51 530.791 388.127 532.815 387.346 532.563C387.786 531.707 386.556 529.109 385.943 528.581C385.443 528.151 385.186 529.193 384.769 529.188C384.185 529.184 382.483 525.655 381.954 525.071C381.613 524.697 380.261 524.94 379.859 523.912L380.79 523.22C380.074 522.645 377.736 522.734 377.595 522.65H377.586ZM310.625 657.829C310.246 657.436 306.285 658.539 306.005 659.525C305.883 659.951 306.851 663.091 307.127 663.456C307.595 664.063 308.259 663.278 308.647 663.535C308.806 663.643 308.703 664.358 308.993 664.372C310.485 664.442 313.095 660.151 311.565 659.006C311.383 658.871 310.724 659.249 310.667 659.165C310.48 658.871 310.756 657.969 310.621 657.824L310.625 657.829ZM305.93 680.668C306.07 680.524 305.369 677.271 303.465 678.435C301.712 679.509 302.478 680.926 301.618 681.996C300.832 682.973 297.199 684.375 296.605 686.324C298.896 686.029 302.694 686.239 301.281 683.061L304.087 683.052L302.684 681.192C303.395 681.215 305.528 681.098 305.93 680.673V680.668Z" fill="#3C1213"/>
    <path d="M28 433V0" stroke="#FFC3C3" stroke-width="11"/>
    <path d="M77 433V0" stroke="#FFC3C3" stroke-width="11"/>
    <path d="M126 433V0" stroke="#FFC3C3" stroke-width="11"/>
    <path d="M176 433V0" stroke="#FFC3C3" stroke-width="11"/>
    <path d="M225 433V0" stroke="#FFC3C3" stroke-width="11"/>
    <path d="M274 433V0" stroke="#FFC3C3" stroke-width="11"/>
    <path d="M323 433V0" stroke="#FFC3C3" stroke-width="11"/>
    <path d="M372 433V0" stroke="#FFC3C3" stroke-width="11"/>
    <path d="M422 433V0" stroke="#FFC3C3" stroke-width="11"/>
    <path d="M471 433V0" stroke="#FFC3C3" stroke-width="11"/>
    <path d="M520 433V0" stroke="#FFC3C3" stroke-width="11"/>
    <path d="M569 433V0" stroke="#FFC3C3" stroke-width="11"/>
  </g>
  <defs>
    <clipPath id="clip0_3013_6359">
      <rect width="589" height="426" fill="white"/>
    </clipPath>
  </defs>
</svg>
