<svg width="657" height="426" viewBox="0 0 657 426" fill="none" xmlns="http://www.w3.org/2000/svg">
<g clip-path="url(#clip0_2377_1092)">
<rect width="657" height="426" fill="#FF584B"/>
<path d="M291.289 147.931C388.646 147.931 439.482 219.56 451.57 233.91C463.659 248.261 486.614 260.479 498.295 287.048C509.976 313.658 515.715 328.582 509.813 334.609C503.912 340.636 476.52 327.147 435.452 323.334C394.385 319.521 370.209 313.207 347.66 334.281C325.112 355.356 301.342 397.957 291.289 427.067C281.236 456.178 269.554 498.368 269.554 498.368C269.431 498.28 192.614 443.032 174.109 360.85C155.563 278.662 168.84 229.76 168.859 229.688C168.859 229.688 193.932 147.931 291.289 147.931ZM386.934 350.97C418.641 348.226 423.878 352.517 423.891 352.527C423.891 352.527 419.82 395.784 391.207 404.189C362.65 412.578 339.161 403.691 339.069 403.656V403.615C339.069 403.615 355.187 353.717 386.934 350.97ZM327.146 203.487C315.954 203.487 306.918 212.959 306.918 224.645C306.918 236.33 315.994 245.801 327.146 245.801C338.339 245.801 347.375 236.33 347.375 224.645C347.375 212.959 338.339 203.487 327.146 203.487ZM242.892 56.417C260.841 49.8568 276.389 11.3566 311.066 14.1445C345.744 16.9326 346.925 59.2455 372.811 71.5049C398.696 83.7642 411.477 54.5308 445.584 74.252C469.964 88.3563 464.999 130.957 457.51 147.932C450.021 164.947 450.143 175.32 450.143 175.32C450.143 175.32 379.73 111.359 305.084 109.227C230.438 107.095 184.567 156.583 184.567 156.583C191.446 128.948 218.96 61.4189 218.96 61.4189C219.003 61.4299 225.007 62.9535 242.892 56.417Z" fill="#242233"/>
<path d="M190.18 58.2539C210.323 63.137 232.144 60.2885 240.537 58.2539C247.658 75.2939 253.66 113.647 220.699 130.738C187.738 147.828 167.29 175.499 161.186 187.198C159.152 183.638 153.099 165.987 145.164 123.871C135.245 71.2246 165.001 52.15 190.18 58.2539Z" fill="#242233"/>
<path d="M-11.2475 495.445C35.142 312.328 170.173 186.03 233.907 160.122C230.855 172.584 201.168 231.757 208.492 309.276C217.648 406.175 413.735 203.984 320.651 366.5C246.184 496.513 289.623 628.713 320.651 678.561L-54.1746 694.495C-55.2257 700.468 -55.4497 699.69 -56.2637 694.584L-54.1746 694.495C-51.6132 679.938 -44.1402 625.284 -11.2475 495.445Z" fill="#242233"/>
<path d="M60 433V0" stroke="#242233" stroke-width="30"/>
<path d="M167 433V0" stroke="#242233" stroke-width="30"/>
<path d="M276 433V0" stroke="#242233" stroke-width="30"/>
<path d="M384 433V0" stroke="#242233" stroke-width="30"/>
<path d="M493 433V0" stroke="#242233" stroke-width="30"/>
<path d="M600 433V0" stroke="#242233" stroke-width="30"/>
</g>
<defs>
<clipPath id="clip0_2377_1092">
<rect width="657" height="426" fill="white"/>
</clipPath>
</defs>
</svg>
