<svg width="657" height="426" viewBox="0 0 657 426" fill="none" xmlns="http://www.w3.org/2000/svg">
<g clip-path="url(#clip0_2377_1124)">
<rect width="657" height="426" fill="#A1FFF7"/>
<path d="M291.288 147.931C388.645 147.931 439.482 219.56 451.57 233.911C463.659 248.261 486.614 260.479 498.295 287.047C509.976 313.657 515.715 328.582 509.813 334.609C503.912 340.636 476.52 327.147 435.452 323.334C394.385 319.521 370.208 313.207 347.66 334.281C325.112 355.355 301.341 397.956 291.288 427.067C281.235 456.178 269.554 498.368 269.554 498.368C269.397 498.255 192.61 443.015 174.109 360.85C155.55 278.602 168.859 229.687 168.859 229.687C168.902 229.549 194.013 147.932 291.288 147.931ZM386.935 350.969C418.595 348.23 423.863 352.504 423.892 352.527C423.892 352.527 419.821 395.784 391.208 404.189C362.647 412.579 339.155 403.688 339.07 403.656V403.615C339.086 403.565 355.203 353.715 386.935 350.969ZM327.146 203.488C315.954 203.488 306.918 212.959 306.918 224.644C306.918 236.329 315.994 245.8 327.146 245.8C338.339 245.8 347.375 236.329 347.375 224.644C347.375 212.959 338.339 203.488 327.146 203.488ZM242.892 56.4166C260.841 49.8565 276.389 11.3562 311.066 14.1442C345.744 16.9322 346.925 59.2452 372.811 71.5045C398.696 83.7638 411.477 54.5304 445.584 74.2516C469.964 88.356 464.999 130.957 457.51 147.931C450.021 164.947 450.143 175.32 450.143 175.32C450.118 175.298 379.716 111.358 305.083 109.226C230.437 107.094 184.567 156.583 184.567 156.583C191.446 128.948 218.96 61.4186 218.96 61.4186C219.004 61.4299 225.009 62.9525 242.892 56.4166Z" fill="#242233"/>
<path d="M190.18 58.254C210.323 63.1371 232.144 60.2886 240.537 58.254C247.658 75.294 253.66 113.647 220.699 130.738C187.738 147.829 167.29 175.499 161.186 187.199C159.152 183.638 153.099 165.988 145.164 123.871C135.245 71.2247 165.001 52.1501 190.18 58.254Z" fill="#242233"/>
<path d="M-11.2475 495.445C35.142 312.328 170.173 186.03 233.907 160.122C230.855 172.584 201.168 231.757 208.492 309.276C217.648 406.175 413.735 203.984 320.651 366.5C246.184 496.513 289.623 628.713 320.651 678.561L-54.1746 694.495C-55.2257 700.468 -55.4497 699.69 -56.2637 694.584L-54.1746 694.495C-51.6132 679.938 -44.1402 625.284 -11.2475 495.445Z" fill="#242233"/>
</g>
<defs>
<clipPath id="clip0_2377_1124">
<rect width="657" height="426" fill="white"/>
</clipPath>
</defs>
</svg>
