<svg width="214" height="49" viewBox="0 0 214 49" fill="none" xmlns="http://www.w3.org/2000/svg">
<path d="M125.454 13.7722C125.713 13.8531 125.853 14.2453 125.9 14.5207C126.204 16.2842 126.139 18.5537 126.201 20.3591C128.558 17.1645 131.023 13.7094 135.309 13.2064C140.752 12.5686 144.973 14.1165 147.681 18.9579C147.809 19.1884 148.411 21.2633 148.815 20.9579C152.643 10.7902 167.971 10.1674 171.963 20.5806C172.394 21.7034 173.224 24.8171 173.224 25.898V47.7543C173.224 47.7872 172.811 48.2034 172.778 48.2034H160.426V30.389C160.426 29.7842 159.652 27.6824 159.236 27.0956C157.087 24.0627 153.173 25.7393 151.783 28.5836C151.473 29.2154 150.604 31.6345 150.604 32.1854V47.7543C150.604 47.7872 150.19 48.2034 150.158 48.2034H138.103V32.4848C138.103 32.1435 137.827 30.0387 137.734 29.5627C137.08 26.1944 134.996 24.6555 131.686 26.0297C129.835 26.7992 127.984 30.2842 127.984 32.1854V48.2034H115.632C115.599 48.2034 115.186 47.7872 115.186 47.7543V14.2213C115.186 14.1884 115.599 13.7722 115.632 13.7722H125.454Z" fill="#26B3A7"/>
<path d="M50.8957 48.2037H37.7997C37.2074 43.2067 40.8713 39.1168 41.3356 34.2456C41.7999 29.3743 40.3028 26.1498 35.4871 24.6318C34.3055 24.2605 31.7607 24.1258 30.9541 23.5031C29.6445 22.4941 29.6415 17.012 26.7723 15.1348C24.1412 13.4132 18.7391 14.7486 16.5188 16.7695C15.3818 17.8025 15.2985 18.8474 14.5871 19.9162C14.0692 20.6947 11.3994 22.6707 13.2537 23.045C15.3967 23.4761 17.7956 23.3594 19.8047 24.548C17.1349 31.0779 20.1797 35.9611 25.8883 39.0809C26.8973 39.6318 30.7934 40.9641 31.1208 41.6228C31.469 42.3234 29.7517 45.8534 29.0284 46.4162C28.0313 47.1947 25.6621 47.4342 24.3347 47.6827C23.9597 47.7516 23.4328 48.2037 23.3644 48.2037H0L16.2092 4.76953L34.9752 5.0869L50.8957 48.2037Z" fill="#26B3A7"/>
<path d="M77.3847 48.2033V30.9878C77.3847 30.8441 76.977 29.0986 76.8847 28.7962C75.3043 23.6255 69.6581 25.1345 67.9378 29.2692C67.8217 29.5507 67.2651 31.1824 67.2651 31.2872V47.7542C67.2651 47.7872 66.8514 48.2033 66.8187 48.2033H54.4668V13.7722H64.884L65.6281 20.362C69.4795 11.7542 84.0101 10.0207 88.4508 18.9578C89.2366 20.5387 90.1831 24.1914 90.1831 25.898V47.7542C90.1831 47.7872 89.7694 48.2033 89.7366 48.2033H77.3847Z" fill="#26B3A7"/>
<path d="M213.999 38.9222V48.2037C208.931 49.012 201.793 50.0839 198.969 44.6168C197.183 46.6827 194.992 48.1228 192.287 48.6707C186.087 49.9282 177.75 47.7096 177.078 40.2845C176 28.3534 189.677 27.7366 198.225 27.8474C199.513 21.8384 190.852 21.1707 189.694 26.3623L179.176 25.4492C179.619 13.6288 192.778 11.3294 202.019 13.9971C212.755 17.0959 210.109 26.2007 210.71 34.5959C210.874 36.8983 211.008 39.5989 213.996 38.9252L213.999 38.9222ZM198.228 34.1288C196.04 34.1498 190.34 34.1977 189.909 36.9941C189.209 41.512 195.171 41.6767 197.332 38.7695C198.475 37.2306 198.263 35.9701 198.228 34.1288Z" fill="#26B3A7"/>
<path d="M108.935 13.7725V48.2036H96.5832C96.5504 48.2036 96.1367 47.7874 96.1367 47.7545V14.2216C96.1367 14.1886 96.5504 13.7725 96.5832 13.7725H108.935Z" fill="#26B3A7"/>
<path d="M108.935 0H96.1367V9.28144H108.935V0Z" fill="#26B3A7"/>
<path d="M35.3405 47.524C34.4922 48.3473 31.998 47.0539 31.5278 46.2784C30.3819 44.3832 33.7124 40.1258 36.1292 41.6467C37.3852 42.4371 36.0905 46.7964 35.3405 47.524Z" fill="#26B3A7"/>
</svg>
