<svg width="223" height="249" viewBox="0 0 223 249" fill="none" xmlns="http://www.w3.org/2000/svg">
<g filter="url(#filter0_d_1948_6344)">
<path d="M110.589 63.7427C131.195 63.7427 155.273 97.3762 155.273 132.836C155.273 168.296 128.648 177.257 110.589 177.257C94.3598 177.257 67.7344 162.45 67.7344 132.836C67.7344 108.897 86.1518 63.7427 110.589 63.7427Z" fill="#FF584B"/>
<path d="M110.589 63.7427C131.195 63.7427 155.273 97.3762 155.273 132.836C155.273 168.296 128.648 177.257 110.589 177.257C94.3598 177.257 67.7344 162.45 67.7344 132.836C67.7344 108.897 86.1518 63.7427 110.589 63.7427Z" fill="#F2F1F1"/>
<path d="M151.539 132.836C151.539 118.754 146.709 102.139 138.914 89.0965C130.998 75.8517 120.801 67.4858 110.589 67.4858C100.493 67.4858 90.7459 75.9395 83.2534 89.3122C75.8881 102.458 71.4686 119.104 71.4686 132.836C71.4686 149.181 77.6433 159.167 85.3634 165.164C93.2462 171.287 103.094 173.514 110.589 173.514C119.038 173.514 129.346 171.188 137.444 165.022C145.376 158.982 151.539 149.007 151.539 132.836ZM159.007 132.836C159.007 151.213 151.857 163.448 141.962 170.982C132.233 178.39 120.198 181 110.589 181C101.854 181 90.2753 178.451 80.7882 171.081C71.1383 163.585 64 151.36 64 132.836C64 117.741 68.7892 99.8407 76.7418 85.6468C84.5672 71.6797 96.247 60 110.589 60C124.873 60 137.019 71.3589 145.321 85.2499C153.744 99.3431 159.007 117.275 159.007 132.836Z" fill="#3C1212"/>
<mask id="mask0_1948_6344" style="mask-type:alpha" maskUnits="userSpaceOnUse" x="67" y="131" width="92" height="47">
<path d="M99.4761 140.472C82.6719 137.478 72.9627 136.854 67.3613 140.472L77.0704 164.801L110.306 177.152L144.287 165.924L158.851 131.863C145.781 138.351 117.505 143.685 99.4761 140.472Z" fill="#D9D9D9"/>
</mask>
<g mask="url(#mask0_1948_6344)">
<path d="M100.04 129.327C82.0317 116.784 65.0242 124.101 58.7715 129.327L76.2792 163.928L110.461 185.013L150.478 163.928L166.319 116.892C151.729 126.263 118.047 141.87 100.04 129.327Z" fill="#FF584B"/>
<path d="M110.589 60C83.2166 60 64 107.258 64 132.837C64 163.85 91.5515 181 110.589 181C122.165 181 133.599 177.347 141.957 170.984C153.107 162.495 159 149.305 159 132.837C159.007 96.7626 134.578 60 110.589 60ZM136.572 85.6462V165.647C132.703 168.454 128.349 170.43 123.846 171.703V72.3964C128.244 75.5105 132.606 80.0095 136.572 85.6462ZM99.162 71.4832V171.239C94.9198 169.689 90.4835 167.331 86.4355 164.097V85.6687C90.9092 78.5722 95.2708 74.1781 99.162 71.4907V71.4832ZM71.4686 132.837C71.4686 122.701 74.9862 108.882 80.4607 96.8225V158.296C75.158 151.963 71.4686 143.549 71.4686 132.837ZM105.137 172.938V68.429C107.273 67.7103 109.125 67.4858 110.589 67.4858C112.934 67.4858 115.384 68.0247 117.863 69.0503V172.99C115.421 173.35 112.979 173.522 110.589 173.522C108.946 173.522 107.101 173.327 105.137 172.945V172.938ZM142.547 160.137V95.6847C148.32 107.198 151.539 120.29 151.539 132.837C151.539 145.383 147.999 153.767 142.547 160.13V160.137Z" fill="#3C1212"/>
</g>
</g>
<defs>
<filter id="filter0_d_1948_6344" x="0" y="0" width="223.008" height="249" filterUnits="userSpaceOnUse" color-interpolation-filters="sRGB">
<feFlood flood-opacity="0" result="BackgroundImageFix"/>
<feColorMatrix in="SourceAlpha" type="matrix" values="0 0 0 0 0 0 0 0 0 0 0 0 0 0 0 0 0 0 127 0" result="hardAlpha"/>
<feOffset dy="4"/>
<feGaussianBlur stdDeviation="32"/>
<feComposite in2="hardAlpha" operator="out"/>
<feColorMatrix type="matrix" values="0 0 0 0 1 0 0 0 0 0.345098 0 0 0 0 0.294118 0 0 0 1 0"/>
<feBlend mode="normal" in2="BackgroundImageFix" result="effect1_dropShadow_1948_6344"/>
<feBlend mode="normal" in="SourceGraphic" in2="effect1_dropShadow_1948_6344" result="shape"/>
</filter>
</defs>
</svg>
