<svg width="82" height="69" viewBox="0 0 82 69" fill="none" xmlns="http://www.w3.org/2000/svg">
<path fill-rule="evenodd" clip-rule="evenodd" d="M41.007 12.4408C42.9933 8.95563 45.0923 6.21324 47.5997 4.17072C51.0369 1.38548 55.094 0 60.447 0C66.3917 0 71.787 2.44244 75.6891 6.39892C79.5911 10.3554 82 15.8116 82 21.8392C82 32.2803 78.9572 40.1075 72.28 47.3777C65.8141 54.4194 55.9251 60.8754 42.0213 68.7312C41.317 69.1312 40.4717 69.074 39.8378 68.6313C27.3709 60.9468 17.5523 54.5479 10.7906 47.5063C3.74712 40.2361 0 32.3231 0 21.8392C0 15.8116 2.40886 10.3554 6.31094 6.39892C10.213 2.44244 15.5942 0 21.5389 0C31.0335 0 36.2879 4.14216 40.993 12.4408H41.007ZM50.2058 7.47017C47.4448 9.71264 45.1768 13.1835 42.8665 17.8541C42.6693 18.2541 42.3594 18.5826 41.9368 18.7968C40.9084 19.3253 39.6547 18.8968 39.1335 17.8541C34.6538 8.76995 30.2446 4.24214 21.5389 4.24214C16.7494 4.24214 12.4106 6.21323 9.2692 9.39841C6.12781 12.5836 4.18382 16.9828 4.18382 21.8392C4.18382 31.0805 7.52242 38.0793 13.7629 44.5782C20.0598 51.1199 29.3008 57.2046 41.0352 64.4462C54.0234 57.0618 63.2503 50.9914 69.2091 44.5068C75.1115 38.0793 77.8021 31.1233 77.8021 21.8392C77.8021 16.9828 75.8581 12.5836 72.7167 9.39841C69.5753 6.21323 65.2366 4.24214 60.447 4.24214C56.0801 4.24214 52.8542 5.31339 50.1917 7.47017H50.2058Z" fill="black"/>
</svg>
