<svg width="562" height="100" viewBox="0 0 562 100" fill="none" xmlns="http://www.w3.org/2000/svg">
<path d="M420.133 96.6694L418.58 95.9013L418.597 92.0463L418.614 88.1914L419.248 87.3553L419.883 86.5192H421.787H423.691L424.556 87.4747C425.57 88.5954 425.001 88.7658 423.819 87.6959L423.007 86.9612L421.739 87.5389L420.471 88.1166L420.182 89.2691L419.893 90.4215L420.172 92.7818C420.325 94.08 420.581 95.352 420.74 95.6085L421.028 96.0751H422.648H424.269L424.704 95.2971L425.14 94.5191L425.441 95.0061L425.741 95.4931L424.671 96.1931C424.082 96.578 423.17 97.0159 422.644 97.1658L421.689 97.4383L420.133 96.6694ZM430.612 96.5413C429.216 96.3382 428.005 96.0961 427.921 96.0035C427.838 95.911 427.621 95.1449 427.44 94.3006L427.111 92.7655L428.22 92.5206C428.83 92.3858 429.958 92.2165 430.726 92.1448L432.122 92.0139L432.312 91.4369L432.502 90.8599L430.796 90.1474C428.61 89.234 428.641 88.9084 430.914 88.9084H432.736L433.541 90.5968L434.347 92.2852L434.341 93.5829C434.335 95.2157 433.853 97.0493 433.456 96.9708C433.289 96.937 432.009 96.745 430.612 96.5413ZM432.43 95.3642L433.02 94.6536L432.732 93.9018L432.443 93.15L430.652 93.2984L428.86 93.4468L428.69 94.3451L428.519 95.2434L429.164 95.6519C429.518 95.8765 430.265 96.0633 430.824 96.0678L431.841 96.0735L432.43 95.3642ZM520.518 95.8123L519.277 94.5711L519.55 92.8835C519.701 91.9553 520.162 90.6811 520.574 90.052L521.323 88.908H522.485H523.647L523.961 87.2358C524.133 86.3161 524.428 85.5637 524.616 85.5637H524.957L524.853 90.8477C524.795 93.754 524.672 96.1962 524.578 96.2749C524.484 96.3533 523.812 96.5609 523.083 96.7359L521.759 97.0536L520.518 95.8123ZM523.412 95.3067L524.168 95.0166V92.7071V90.3975L523.669 90.0894L523.17 89.7813L521.997 90.5502L520.824 91.319V92.9565V94.5939L521.66 95.0809C522.681 95.6759 522.509 95.6531 523.412 95.3067ZM438.924 94.9776C438.794 94.1356 438.603 91.7804 438.5 89.7439L438.312 86.0411H438.667C439.168 86.0411 439.483 87.015 439.802 89.5634C439.954 90.7794 440.196 92.7154 440.339 93.8655L440.598 95.9565L439.878 96.2324L439.159 96.5084L438.924 94.9776ZM513.499 95.3067L512.155 94.0611L511.084 95.0678L510.012 96.0744H508.82H507.629L506.846 95.4772L506.063 94.88L505.796 90.9321L505.528 86.9844L507.2 86.1871L508.872 85.3899L510.068 86.5137C511.445 87.8076 511.264 88.5291 509.877 87.2739L508.958 86.4421L507.844 86.6001L506.73 86.7581V90.5803V94.4025L508.525 94.5509L510.321 94.6994L510.607 93.9536L510.893 93.2078H511.797H512.702V91.8659V90.5239L513.299 89.7749L513.896 89.026L515.476 88.7348L517.056 88.4436L517.745 90.094L518.435 91.7443L518.418 93.3124L518.401 94.8805L517.766 95.7166L517.132 96.5527H515.985H514.838L513.499 95.3067ZM516.911 92.8141L517.06 90.7483L516.494 90.0669C515.837 89.2752 515.578 89.2428 514.642 89.835L513.955 90.2695L513.85 92.3328C513.792 93.4677 513.852 94.5711 513.984 94.7849L514.225 95.1737L515.494 95.027L516.762 94.8803L516.911 92.8141ZM527.014 95.81L526.398 95.0679V92.9413V90.8148L527.032 89.6303L527.666 88.4458L528.634 88.1383L529.603 87.8308L530.469 88.8999L531.335 89.9691V91.3207V92.6722L529.547 92.8206L527.759 92.969L527.601 93.8066L527.442 94.6442L528.314 94.9274C528.793 95.0832 529.508 95.3208 529.902 95.4551L530.618 95.6994L529.663 96.0921C528.226 96.683 527.691 96.626 527.014 95.81ZM529.437 91.2894L530.344 90.8041L530.072 90.0947C529.725 89.1909 528.752 89.1845 528.008 90.0834L527.43 90.7792L527.739 91.278C528.121 91.8969 528.304 91.8984 529.437 91.2894ZM457.598 95.7559C457.423 95.5809 457.277 94.237 457.273 92.7698L457.267 90.1022L456.804 89.3856L456.34 88.6689L456.335 89.2661L456.329 89.8633H455.645H454.96L454.657 88.9078L454.354 87.9522H453.713H453.072L453.038 91.3232C453.004 94.6631 452.796 95.5966 452.076 95.5966H451.703L451.691 84.6523L451.68 73.708L451.975 73.3051C452.137 73.0833 452.617 72.6313 453.041 72.3L453.813 71.6978L455.138 72.3854L456.463 73.073L454.725 73.3991L452.986 73.7253V75.3443V76.9633H453.392C453.616 76.9633 454.493 76.7212 455.341 76.4255L456.883 75.8878L457.293 74.8726L457.703 73.8575L457.731 75.3785L457.759 76.8995L456.446 77.0508L455.132 77.202L454.987 78.2149L454.843 79.228L456.54 80.2294L458.237 81.2308V81.9636C458.237 82.9442 458.005 82.8978 455.96 81.5082L454.212 80.32L453.892 80.6721C453.716 80.8657 453.43 82.0152 453.258 83.2262L452.944 85.4281L454.244 86.2797L455.543 87.1313L456.695 85.7922L457.847 84.4531L458.239 85.0873L458.631 85.7215L458.682 90.8978L458.733 96.0741H458.328C458.105 96.0741 457.779 95.9308 457.604 95.7558L457.598 95.7559ZM539.457 95.4162C539.457 95.0539 539.799 93.9254 540.217 92.9079L540.977 91.0578L542.465 89.5007L543.953 87.9436L543.152 87.143L542.352 86.3425L541.144 86.9889L539.936 87.6353L539.629 87.3277L539.321 87.0202L539.925 86.292L540.53 85.5638H542.048H543.566L544.139 86.1371L544.713 86.7104V88.2523V89.7942L543.085 91.1428L541.458 92.4914L541.294 93.447L541.129 94.4025L543.194 94.551L545.259 94.6994L544.688 95.3869L544.118 96.0744H541.787H539.457L539.457 95.4162ZM446.679 95.2706C447.024 95.1323 447.436 95.1492 447.595 95.3101L447.884 95.599L446.968 95.5595L446.052 95.52L446.679 95.2706ZM461.907 94.8056L460.69 94.1678L460.445 93.3297C460.31 92.8687 460.286 91.4167 460.388 90.1029C460.493 88.789 460.589 87.1438 460.601 86.4469L460.623 85.1798L462.097 84.6657L463.571 84.1516L465.111 84.795L466.651 85.4384L466.453 89.6815L466.255 93.9246L465.813 94.4692C465.57 94.7682 464.866 95.1102 464.247 95.2284L463.123 95.4433L461.907 94.8056ZM465.399 93.4503L465.992 92.7366L465.658 89.6244L465.325 86.5121L464.442 86.0397L463.56 85.5674L462.875 85.8298L462.191 86.0922L461.905 89.5057L461.619 92.9192L462.135 93.5414L462.652 94.1637H463.729H464.807L465.399 93.4503ZM470.576 92.5776L470.384 89.5581L469.326 88.2132L468.268 86.8684L468.313 85.3801L468.359 83.8918L468.804 85.4335L469.25 86.9753L470.167 87.4662L471.085 87.9572L472.281 87.412L473.477 86.8669L473.67 85.6182L473.863 84.3693L473.934 85.6181L474.006 86.8668L472.755 88.1178L471.504 89.3688L471.837 92.4829L472.171 95.597H471.472H470.773L470.576 92.5776ZM488.813 94.7025V93.7514L487.021 91.5993C486.036 90.4156 485.068 89.4334 484.871 89.4166L484.513 89.3884V92.2551V95.1217L484.154 95.1213L483.796 95.1209L483.69 89.9852L483.584 84.8496L483.88 85.5663C484.042 85.9607 485.024 87.3044 486.061 88.5528L487.947 90.8226L488.345 90.5772L488.743 90.3312L488.472 87.7098L488.202 85.0886H488.687H489.172L489.47 86.5816C489.634 87.4028 489.769 89.6476 489.769 91.57V95.0654L489.291 95.3605L488.813 95.6556L488.813 94.7025ZM475.739 92.9028C475.572 91.6836 475.435 89.2936 475.435 87.5916V84.497L476.51 84.7853C477.102 84.9439 478.445 85.1098 479.496 85.155L481.408 85.2368L479.019 85.5201L476.63 85.8033V87.4755V89.1478L478.421 89.2962L480.213 89.4446V89.8938V90.3424H478.597H476.98L476.73 91.6512L476.48 92.96L476.961 93.8595L477.443 94.7591L479.524 94.4735L481.605 94.188L481.893 94.6536L482.181 95.1191H479.112H476.043L475.739 92.9028ZM15.2998 90.4608C15.1337 88.8964 15.0982 83.7717 15.2501 83.2942C15.3546 82.9658 15.6992 82.697 16.0158 82.697C16.6498 82.697 18.6823 85.2316 18.6823 86.0221V86.5192H19.399H20.1156V84.6081V82.697H21.0265H21.9373L21.6894 83.6449C21.5531 84.1663 21.588 85.1763 21.7669 85.8894L22.0923 87.186L22.5036 86.5208L22.9147 85.8554L22.7161 84.3045L22.5176 82.7536L24.6637 82.432L26.8098 82.1103L28.4924 83.3937L30.175 84.6771L30.0425 85.3281L29.91 85.9791L30.3878 85.8911L30.8656 85.8031L30.7989 84.0114L30.7322 82.2198H31.1356H31.5389L31.7927 83.7725C31.9323 84.6265 32.1033 85.9486 32.1727 86.7104L32.2989 88.0955L33.1098 88.6034L33.9207 89.1113L35.2598 88.6373L36.5989 88.1632V85.5951V83.027L37.1307 82.8447L37.6625 82.6625L37.9449 84.4026L38.2272 86.1428L37.9471 87.5433L37.667 88.9438L36.6683 89.6433L35.6696 90.3428H34.3111C33.564 90.3428 32.5369 90.1204 32.0286 89.8485L31.1045 89.3541V88.1766V86.9989H30.6117C30.3407 86.9989 29.9855 87.3753 29.8224 87.835C29.6593 88.2949 29.2028 89.0474 28.8078 89.5072L28.0897 90.3433H25.2971H22.5044V89.6117V88.88L23.3119 88.5702L24.1194 88.2604L24.3073 88.8242L24.4952 89.3879H25.6444H26.7935L27.7545 88.565C28.917 87.5696 28.9498 86.9204 27.9444 84.8018L27.1733 83.1768H25.7945H24.4156L24.3355 84.0129C24.2915 84.4728 24.2378 85.4882 24.2161 86.2695L24.1766 87.6899L22.9821 87.7012L21.7877 87.7125L21.9252 89.0263L22.0627 90.3402H21.3671C20.1944 90.3402 19.1599 89.7911 19.1599 89.1687C19.1599 88.8431 18.7299 88.1881 18.2044 87.7125C17.6789 87.2368 17.2488 86.5586 17.2488 86.2051C17.2488 85.8519 17.0338 85.5625 16.771 85.5625H16.2933V88.1902V90.818H15.8155C15.5527 90.818 15.3207 90.6577 15.2998 90.4608ZM0.923223 90.0951C0.750491 89.8282 0.472051 87.9472 0.304555 85.9146L0 82.2191L2.53284 82.2248C5.40673 82.2304 5.99516 82.4973 6.46108 83.991L6.79086 85.0479L6.28445 85.9942L5.77805 86.9404L3.74966 87.0871L1.72129 87.2338L1.47931 88.906L1.23736 90.5783L0.923223 90.0951ZM4.2427 85.7753C5.5674 84.8474 5.59134 84.0614 4.3191 83.2669L3.33366 82.6515L2.40801 82.9455L1.48233 83.2395V84.3061V85.3728L2.05566 85.9461C2.7929 86.6834 2.9661 86.6695 4.2427 85.7753ZM8.27818 89.744L7.7904 89.1468L7.6412 86.9968C7.55915 85.8143 7.65191 84.3856 7.84789 83.822L8.20379 82.7971L9.83805 82.4907L11.4723 82.1843L12.3988 82.7629L13.3254 83.3415L13.8681 85.153L14.4109 86.9644L13.9537 87.8169C13.7022 88.2858 13.3801 89.0457 13.2377 89.5055L12.979 90.3415H10.8725H8.76599L8.27818 89.744ZM12.3756 88.8124L12.949 88.239V86.7687V85.2984L12.2052 84.2365C11.3174 82.969 10.6934 82.9059 9.52271 83.9651L8.64898 84.7558V86.4972V88.2388L9.22231 88.812C9.53764 89.1275 10.2471 89.3854 10.799 89.3854C11.3508 89.3854 12.0603 89.1278 12.3756 88.8124ZM49.9195 89.9585L47.9514 89.8146L47.6948 86.3752L47.4383 82.9358L47.8633 82.49L48.2883 82.0442L48.6071 82.363C48.7825 82.5385 49.0549 84.029 49.2123 85.6755L49.4987 88.6692H52.1264H54.7542L54.993 85.437L55.2319 82.2048L55.5903 82.2105C55.7874 82.2145 57.3588 82.2161 59.0823 82.2161H62.2161L61.9066 82.7166L61.5972 83.2172L59.0138 83.1128C57.593 83.0552 56.3471 83.1015 56.2452 83.2093C56.1433 83.3199 56.2429 83.8941 56.4666 84.4854L56.8733 85.5604H59.2494H61.6255L61.9208 86.0383L62.2161 86.5163H59.5883H56.9605L56.6626 86.9982L56.3647 87.4801L56.6666 88.4314L56.9685 89.3826H59.6437C61.115 89.3826 62.2245 89.4769 62.1091 89.5926C61.8375 89.864 52.4811 90.1458 49.9195 89.9585ZM65.7669 88.9464L65.4954 88.5074L66.2303 87.7725L66.9652 87.0376L67.668 87.3074C68.0545 87.4558 68.3708 87.8536 68.3708 88.1915V88.8059L67.6151 89.096C66.5669 89.4983 66.0836 89.4594 65.7669 88.9464ZM79.4557 87.799L78.8819 86.2124V83.5261V80.8399L79.9438 80.0962L81.0056 79.3525H82.7519H84.4982L85.0855 80.0601L85.6728 80.7678L86.0017 83.5569L86.3305 86.3461L85.7104 87.8658L85.0902 89.3857H82.5598H80.0294L79.4557 87.799ZM84.3252 87.6743C84.4847 87.2584 84.6152 85.885 84.6152 84.6217V82.3249L83.7158 81.2141L82.8163 80.1034L81.5658 80.6731L80.3152 81.243V84.2632V87.2834L80.8885 87.8567L81.4619 88.43H82.7485H84.0352L84.3252 87.6743ZM93.1289 88.3106L92.9763 87.2356L90.7069 87.2638L88.4374 87.292L88.4421 86.5453C88.4494 85.3633 93.2512 79.3487 94.1876 79.3487H94.6485L94.7051 81.6182C94.7361 82.8664 94.7232 84.173 94.6758 84.5218L94.5897 85.156L95.5747 85.4134L96.5597 85.6712V86.2765V86.8817L95.6041 87.1317L94.6486 87.3816V88.3819V89.3822H93.9652H93.2817L93.1289 88.3106ZM93.1306 84.9328C93.2215 84.4605 93.1645 83.7313 93.0035 83.3122L92.7111 82.5501L92.0228 83.4595C91.6442 83.9595 91.3276 84.761 91.3193 85.2401L91.304 86.1112L92.1347 85.9515L92.9653 85.7918L93.1306 84.9328ZM97.7744 88.9408L97.4995 88.4961L97.9598 88.2117C98.535 87.8562 101.815 81.7239 101.815 81.0042C101.815 80.713 102.313 80.0071 102.921 79.4358L104.027 78.3969H104.804C105.231 78.3969 105.7 78.5894 105.845 78.8247L106.11 79.2524L105.448 79.5063C104.826 79.745 103.248 82.4047 103.248 83.214C103.248 83.4177 102.471 84.8896 101.52 86.485L99.7923 89.3858H98.9208C98.4415 89.3858 97.9256 89.1851 97.7744 88.9408ZM209.076 88.9069L208.12 88.4961L209.462 88.4622L210.804 88.4284L210.509 88.9064C210.346 89.1693 210.173 89.3691 210.122 89.3505C210.072 89.3335 209.601 89.1327 209.076 88.9069ZM111.818 88.7873C111.802 88.7218 111.753 87.0016 111.711 84.9651L111.633 81.2624H110.546C109.949 81.2624 109.459 81.1445 109.459 81.0006C109.459 80.526 112.075 78.4263 112.684 78.4108L113.282 78.3939V83.6494V88.9048H112.565C112.171 88.9048 111.835 88.8505 111.818 88.7873ZM119.903 88.3229L118.776 87.9431L118.179 86.6575L117.582 85.3719V82.633V79.8942L118.969 78.9061L120.357 77.918H121.762H123.167L123.901 78.7541C125.389 80.4491 125.797 84.4646 124.739 87.0178L124.194 88.3334L122.612 88.5179L121.031 88.7024L119.903 88.3229ZM123.695 84.0309L123.835 80.8274L122.859 79.8505C121.7 78.6917 121.403 78.6585 120.181 79.5519L119.254 80.2302L119.3 83.1174L119.346 86.0045L119.976 86.7634L120.606 87.5224L122.08 87.3785L123.554 87.2346L123.695 84.0309ZM206.607 88.5883L206.926 88.27L207.244 88.5883L207.563 88.9065H206.926H206.289L206.607 88.5883ZM212.405 84.9651L212.42 81.0235L212.898 81.133L213.375 81.2425L213.524 82.9246L213.672 84.6068H215.257H216.842L217.469 83.8514L218.096 83.0959L217.527 82.1856C216.792 81.0078 216.811 80.7847 217.647 80.7847C218.614 80.7847 219.029 81.6325 218.96 83.4687L218.9 85.0471L219.363 85.3332C219.617 85.4906 219.825 86.1008 219.825 86.6897V87.7604L219.252 88.3337L218.679 88.907H215.534H212.389L212.405 84.9651ZM217.662 87.7814L218.547 87.1339L218.246 86.3481L217.944 85.5624H215.779H213.614V86.9957V88.429H215.195H216.776L217.662 87.7814ZM221.189 88.8155C221.151 88.7342 221.07 86.8942 221.009 84.7263L220.899 80.7859H221.578H222.256L222.179 81.3831C222.136 81.7115 222.127 82.2491 222.158 82.5775L222.214 83.1748H222.962H223.709L224.916 81.7414L226.122 80.3081H226.796C227.883 80.3081 227.578 81.0877 225.956 82.4529L224.441 83.7271L225.336 85.2426C225.827 86.0761 226.67 87.1272 227.208 87.5783L228.187 88.3984L227.231 88.4154L226.276 88.4323L224.751 86.6752L223.226 84.9181L222.451 85.5617L221.675 86.2052L221.947 87.2864L222.218 88.3675L221.738 88.6638C221.475 88.8269 221.228 88.8968 221.189 88.8155ZM255.964 88.5751C255.796 88.407 255.659 86.5855 255.659 84.527V80.7859H258.888H262.118L262.68 81.6864L263.242 82.5869L262.977 83.6027L262.711 84.6186L261.552 84.9097L260.392 85.2009L260.108 84.9165L259.823 84.6321L260.951 83.7193L262.078 82.8067L261.437 82.0352L260.797 81.2638H258.883H256.968L257.211 83.4213L257.454 85.5788L256.995 85.8621L256.537 86.1454L256.816 87.2584L257.095 88.3714L256.683 88.6264C256.456 88.767 256.132 88.7439 255.964 88.5751ZM283.453 87.8008L282.414 86.695V84.5627V82.4304L283.194 81.3176L283.973 80.2046L285.876 80.5088L287.779 80.813L288.694 81.8736L289.61 82.9342L289.433 85.4865L289.256 88.0388L288.582 88.4654C288.212 88.7002 287.14 88.8954 286.2 88.8994L284.492 88.905L283.453 87.8008ZM287.311 87.2862L288.147 86.6515V85.1739C288.147 84.3612 287.898 83.1487 287.593 82.4794L287.038 81.2625H285.726H284.414L284.25 83.9264L284.086 86.5903L284.468 87.2708L284.85 87.9513L285.663 87.9344C286.11 87.9287 286.851 87.6354 287.311 87.2862ZM188.532 87.9523L188.236 87.4732L188.531 86.9953C188.694 86.7323 189.135 86.5173 189.511 86.5173H190.195L190.792 85.5618C191.12 85.0364 191.623 84.6062 191.91 84.6062C192.196 84.6062 192.711 84.0831 193.053 83.444L193.675 82.2818L193.387 81.5329L193.1 80.784H191.703H190.306L190.031 81.5007C189.879 81.8951 189.534 82.2174 189.263 82.2174H188.77V81.5289C188.77 80.6439 189.067 80.4859 191.483 80.0863L193.479 79.7562L194.195 80.8673L194.911 81.9785L194.658 83.2615L194.404 84.5446L192.781 85.3145L191.159 86.0844V86.7786V87.4728H192.194C193.734 87.4728 193.097 87.777 190.83 88.1241L188.828 88.4305L188.532 87.9523ZM204.268 84.4875L204.298 80.5458L206.567 80.4002L208.837 80.2547V80.7586V81.2625H207.165H205.492V82.6708V84.0792L207.963 84.2236L210.434 84.3681L210.652 85.0279L210.869 85.6878L208.222 85.3572L205.575 85.0265L205.255 86.0341L204.936 87.0418L205.511 87.7356L206.087 88.4293H205.163H204.238L204.268 84.4875ZM230.372 87.755C230.064 87.3843 229.694 86.3529 229.55 85.4629L229.287 83.8448L230.026 82.0759L230.766 80.3069H232.666H234.567L235.557 81.5658L236.548 82.8247V84.1223C236.548 84.8359 236.312 86.0969 236.023 86.9245L235.499 88.4291H233.215H230.931L230.372 87.755ZM234.19 87.4565L235.114 86.9616V85.036V83.1102L234.62 82.1861L234.125 81.262H232.964H231.804L231.309 82.1861L230.814 83.1102V84.9572V86.8041L231.388 87.3775C232.092 88.0813 232.976 88.1062 234.19 87.4565ZM238.459 87.7121L237.864 86.9955H238.85C239.392 86.9955 239.969 87.2105 240.131 87.4735L240.426 87.9514H241.518H242.611L243.439 87.0356L244.268 86.1198L243.766 85.1807C243.489 84.6644 242.961 84.1258 242.593 83.9843L241.922 83.727L240.618 84.4033L239.315 85.0796L238.859 84.798L238.403 84.5165L238.725 83.0092C238.902 82.1802 239.263 81.2332 239.528 80.9047L240.009 80.3075H242.34H244.67V80.7854V81.2634H242.724H240.778L240.937 82.0995L241.096 82.9356L242.251 83.0992C242.886 83.189 243.905 83.5902 244.515 83.9903L245.625 84.7176V85.3568C245.625 85.7084 245.376 86.5436 245.071 87.213L244.516 88.4299H241.785H239.054L238.459 87.7121ZM264.698 88.0705C264.678 87.8735 264.624 86.1561 264.579 84.2542L264.497 80.7963L265.134 80.5514C265.484 80.4166 267.15 80.3065 268.837 80.3065H271.903V80.7845V81.2624H268.766H265.628L265.78 82.5763L265.931 83.8902L268.917 84.0324L271.903 84.1746V84.6294V85.0842H268.849H265.794L265.519 85.8009C265.368 86.1953 265.364 86.8306 265.511 87.2133L265.778 87.9092L268.96 88.075L272.142 88.241L268.439 88.3346L264.736 88.4283L264.698 88.0705ZM276.442 87.9508L276.147 87.4729H275.056H273.965L273.395 85.5703L272.825 83.6677L273.542 82.2822L274.258 80.8968L275.883 80.592L277.508 80.2874L278.249 80.5712C278.656 80.7275 279.578 81.7051 280.298 82.7436L281.606 84.6319L280.991 85.7812L280.376 86.9306L280.663 87.6795L280.951 88.4284H278.844H276.737L276.442 87.9508ZM278.136 86.5175H279.036L279.564 85.5312L280.092 84.5449L278.84 82.9035C277.432 81.0574 276.9 80.9158 275.643 82.0527L274.77 82.8434V84.346V85.8487L275.353 86.4324L275.937 87.0162L276.587 86.7668C276.944 86.6296 277.642 86.5175 278.136 86.5175ZM295.075 87.9508L294.78 87.4729H293.191H291.603L291.352 86.5111L291.1 85.5493L292.026 85.0538L292.952 84.5584L292.669 84.1013L292.387 83.6442L294.156 81.9755C295.129 81.0577 295.993 80.3067 296.076 80.3067C296.159 80.3067 296.357 81.113 296.517 82.0984C296.677 83.0838 297.005 84.3738 297.245 84.965L297.682 86.04L297.138 87.2345L296.594 88.4289H295.982C295.646 88.4289 295.237 88.2138 295.075 87.9508ZM295.314 84.6064V83.6525H294.836H294.358V84.6081V85.5637H294.836H295.314V84.6064ZM180.931 86.9134L180.17 85.8272V84.0535C180.17 83.078 180.369 81.7564 180.612 81.1168L181.055 79.9537L182.209 79.7331L183.363 79.5125L184.415 79.9018L185.468 80.2912L186.148 81.9177L186.827 83.5442L186.474 85.628L186.12 87.7118L183.906 87.8556L181.692 87.9995L180.931 86.9134ZM185.345 85.3671C185.432 84.603 185.371 83.2713 185.209 82.4079L184.915 80.8381L183.922 80.5232L182.93 80.2084L182.245 80.8934L181.56 81.5785L181.42 83.6897L181.28 85.8009L181.76 86.4225L182.239 87.0441L183.713 86.9002L185.187 86.7563L185.345 85.3671ZM317.646 87.6003C317.541 87.3988 317.473 85.6217 317.493 83.6509L317.53 80.0676L317.889 79.948C318.086 79.8825 319.765 79.8283 321.62 79.8283H324.992L324.683 80.3294L324.373 80.8305L321.668 80.6877L318.964 80.545V81.7394V82.9338L320.588 83.4586L322.212 83.9834L321.782 84.2283C321.546 84.3632 320.761 84.6149 320.039 84.7875L318.725 85.1019V86.2589C318.725 86.8954 318.525 87.5398 318.28 87.691L317.835 87.9658L317.646 87.6003ZM326.316 87.7385C326.001 87.4231 326.233 81.2388 326.573 80.8987C326.719 80.7525 326.599 80.3445 326.307 79.9919L325.775 79.3508H328.643H331.511L332.763 80.9911C333.451 81.8933 334.014 82.8607 334.014 83.1411C334.014 83.4215 334.18 83.6507 334.383 83.6507H334.752V81.7686C334.752 80.7334 334.926 79.7127 335.138 79.5004L335.524 79.1144L337.679 79.1979L339.834 79.2814L340.706 80.0711L341.579 80.8608L341.898 83.1837L342.218 85.5065L341.913 86.4659L341.609 87.4253L338.17 87.3299L334.73 87.2346L334.862 85.9566L334.994 84.6787L334.479 84.3604L333.964 84.0421L333.411 85.5063L332.858 86.9705L332.151 87.242C331.13 87.6336 326.597 88.0192 326.316 87.7385ZM331.103 85.9131L332.253 85.3229L332.411 84.2676L332.568 83.2122L331.499 82.0244L330.43 80.8366L329.236 80.691L328.042 80.5454L327.899 83.5314L327.757 86.5175L328.855 86.5119C329.459 86.508 330.47 86.2377 331.103 85.9131ZM340.268 85.7489L340.905 84.9805L339.996 84.3156C338.79 83.4336 338.157 83.4766 336.857 84.5289L335.773 85.407L336.116 85.9623L336.459 86.5176H338.044H339.63L340.268 85.7489ZM339.659 81.1423L339.81 79.8285L338.226 79.8341C337.354 79.8382 336.328 80.0401 335.944 80.2827L335.246 80.724L336.158 81.7313L337.069 82.7386L338.289 82.5964L339.508 82.4542L339.659 81.1423ZM164.404 83.1728V78.8729H164.853H165.301L165.45 80.6645L165.598 82.4562L167.847 82.7146C169.085 82.8568 170.249 83.1254 170.435 83.3119L170.774 83.6504H168.334H165.893L165.595 84.1323L165.297 84.6143L165.599 85.5655L165.901 86.5168H168.497H171.092V86.9948V87.4727H167.748H164.403L164.404 83.1728ZM172.835 87.1085L172.546 86.6407L173.491 85.5503C174.841 83.9936 174.628 82.7485 172.571 80.1868L171.9 79.3526H172.658H173.417L173.707 80.265C173.866 80.7667 174.335 81.4586 174.749 81.8022L175.502 82.4271L176.415 81.2999C177.626 79.8047 178.044 80.3249 177.1 82.1511C176.686 82.9508 176.348 83.9404 176.348 84.3501V85.0952L177.304 85.9134C178.439 86.8859 178.53 87.4747 177.542 87.4747H176.826V86.8165C176.826 86.4548 176.478 85.8696 176.053 85.5167L175.279 84.8751L174.202 86.2267L173.124 87.5783L172.835 87.1085ZM344.209 86.4324L343.456 85.6005L343.253 83.5506L343.05 81.5006L343.467 80.8872L343.884 80.2738L344.678 80.578L345.471 80.8822L345.3 82.8634L345.13 84.8447L345.603 85.4419C345.862 85.7703 346.452 86.039 346.914 86.039H347.752L348.32 85.3555L348.887 84.672L348.929 83.2041L348.97 81.7362L348.107 80.7822L347.243 79.8281H345.884H344.525V79.3501V78.8721H346.158C347.056 78.8721 348.131 79.0025 348.547 79.1622L349.303 79.4522V80.1178C349.303 80.484 349.5 80.7833 349.742 80.7833H350.182L350.447 82.0971L350.712 83.4111L350.347 85.0832L349.983 86.7554L347.473 87.0094L344.962 87.2633L344.209 86.4324ZM134.105 86.21C133.711 85.1845 134.166 84.7554 134.885 85.4742C135.196 85.7851 135.919 86.0395 136.491 86.0395H137.531L138.121 85.3289L138.711 84.6184L138.433 83.8956L138.156 83.1729H137.424C136.547 83.1729 136.52 82.9596 137.246 81.7964L137.799 80.9106L137.5 80.1307C137.095 79.0755 136.439 79.1499 135.292 80.3812L134.331 81.412L134.036 80.643L133.741 79.874L134.051 79.3735L134.36 78.873H136.454H138.547L138.889 79.426C139.077 79.7302 139.204 80.6891 139.171 81.5572L139.112 83.1356L139.574 83.4217C139.829 83.5791 140.037 84.0915 140.037 84.5608V85.4141L139.163 86.2048L138.29 86.9955H136.348H134.406L134.105 86.21ZM149.006 83.7701L148.786 80.5452L149.277 79.3507L149.769 78.1562L150.039 80.0674L150.309 81.9785H151.743H153.176L153.105 80.4257L153.035 78.8729H153.368C154.05 78.8729 154.848 80.0529 154.848 81.06V82.1004L154.131 82.6951C153.164 83.4977 153.221 83.85 154.569 85.4157L155.722 86.7562L156.121 86.3572L156.52 85.9582V82.5352V79.1121L157.499 78.9722L158.478 78.8322L158.933 80.851L159.387 82.8697L159.954 83.0514L160.52 83.2331L160.67 81.4602L160.82 79.6873L161.633 79.1783L162.447 78.6693L162.826 79.0485L163.206 79.4277L163.377 83.2119L163.549 86.9961H163.072C162.433 86.9961 161.98 85.7312 162.311 84.869L162.577 84.1753L162.253 83.6516L161.93 83.1279L161.256 83.6871L160.581 84.2463V85.4221V86.5978L160.006 86.406L159.431 86.2141L159.033 84.6768L158.634 83.1395L158.175 83.4234L157.715 83.7072V85.3512V86.9953H156.148H154.581L153.003 85.323L151.426 83.6508H150.748H150.07V85.323V86.9953H149.648H149.226L149.006 83.7701ZM354.941 84.4868L354.797 81.9785L353.722 81.8256L352.647 81.6732V81.2184C352.647 80.9684 353.184 80.5187 353.841 80.2194C354.498 79.9203 355.036 79.4947 355.036 79.2741C355.036 79.0534 355.263 78.8729 355.542 78.8729H356.048L355.773 79.3176L355.498 79.7622L355.984 80.0624L356.469 80.3626V83.6788V86.995H355.777H355.086L354.941 84.4868ZM140.993 82.7548V78.9924L142.486 78.6938C143.307 78.5296 144.704 78.3954 145.591 78.3954H147.204V78.8479V79.3005L144.695 79.4449L142.187 79.5894V80.7839V81.9783L144.708 82.1233L147.229 82.2684L146.949 82.7209L146.669 83.1735H144.599H142.528L142.238 83.9293C142.079 84.3451 141.948 85.0974 141.948 85.6015V86.5192H141.47H140.993L140.993 82.7548ZM65.9651 84.8249L65.3536 84.0879L65.897 83.5445L66.4404 83.0011L67.6386 83.6423L68.8368 84.2836L68.3064 84.9227C67.6047 85.7683 66.7174 85.731 65.9651 84.8249ZM247.337 85.2035C247.184 85.05 247.059 84.7459 247.059 84.5267V84.1288H250.642H254.225V84.6068V85.0848L253.389 85.1412C249.011 85.4284 247.575 85.4417 247.337 85.2035ZM196.506 84.5705C196.6 84.2883 196.833 84.0733 197.024 84.0925C197.214 84.1094 198.553 84.1263 199.998 84.1263H202.626V84.6043V85.0823H199.48H196.335L196.506 84.5705ZM309.261 84.2477L309.422 83.4116L312.636 83.3834C314.404 83.3665 316.094 83.5036 316.393 83.6881L316.936 84.0239L316.608 84.5549L316.28 85.0859H312.689H309.099L309.261 84.2477ZM432.858 84.2872C432.83 84.0682 432.841 83.5 432.892 83.0245C432.943 82.5488 432.725 81.8502 432.411 81.4717L431.841 80.7859H430.257H428.674L428.524 82.3019L428.375 83.8178L427.777 84.0142L427.18 84.21V80.3251V76.4402L428.494 75.2837C429.217 74.6477 430.147 74.1205 430.561 74.1122L431.314 74.0953L432.352 75.201L433.391 76.3068V78.4499V80.5929L433.906 81.1081L434.422 81.6234L434.265 82.9585L434.108 84.2938L433.511 84.4902L432.913 84.6865L432.858 84.2872ZM432.248 78.1208L432.557 76.8914L432.138 76.4885C431.908 76.2667 431.318 76.0139 430.828 75.9264L429.936 75.7673L428.978 77.0335L428.02 78.2997L428.345 78.825L428.67 79.3504H430.305H431.94L432.248 78.1208ZM514.385 84.2188C513.965 83.7989 514.106 82.2909 514.593 81.99L515.051 81.7067L516.026 82.3156C516.562 82.6502 517.001 83.1702 517.001 83.4705V84.0167L515.818 84.243C515.167 84.3672 514.523 84.3548 514.385 84.2188ZM532.953 82.8491C532.761 81.8445 532.602 79.3528 532.598 77.3121L532.593 73.6019L533.159 73.0361L533.724 72.4703L533.805 73.4019C533.85 73.9143 533.903 76.0536 533.925 78.1557L533.964 81.978L535.875 82.1292C536.926 82.2127 537.961 82.4514 538.174 82.6608L538.563 83.0406L536.526 83.3661C535.406 83.545 534.223 83.9129 533.897 84.1837L533.304 84.6758L532.953 82.8491ZM323.184 83.8094L323.503 83.4911L323.821 83.8094L324.14 84.1277H323.503H322.866L323.184 83.8094ZM419.726 83.4454L418.245 82.8006L417.935 81.9918C417.764 81.5471 417.624 79.7202 417.624 77.9325V74.6821L418.802 73.9105L419.98 73.1389H421.61H423.241L423.893 73.9245L424.545 74.71L423.528 74.3873L422.512 74.0645L421.264 74.633L420.016 75.2016L419.54 76.9172C419.278 77.8609 419.062 79.1978 419.061 79.8883L419.058 81.1436L419.822 81.7777L420.586 82.4116L422.654 82.4342L424.722 82.4568L423.966 83.2929L423.21 84.129L422.209 84.1121C421.658 84.1008 420.541 83.8003 419.726 83.4454ZM443.879 82.8138C443.868 82.0912 443.739 79.5412 443.598 77.1473L443.34 72.7947L444.457 72.4956C445.897 72.1102 448.388 72.1011 449.37 72.4786L450.138 72.7732L449.589 73.4341L449.041 74.0949H447.22H445.4L445.089 75.0734L444.779 76.0519L445.378 76.7731L445.976 77.4943L447.407 77.3475L448.839 77.2008L449.023 77.7522L449.207 78.3035L447.271 78.6302L445.336 78.9575V81.5432V84.129H444.619H443.902L443.879 82.8138ZM477.114 82.5739L476.391 82.1693V82.4904C476.391 82.667 476.068 82.5412 475.674 82.2167L474.957 81.6219V80.7313V79.8407L476.51 79.1273C479.525 77.7417 480.669 76.791 480.683 75.6584L480.689 75.0721L479.477 74.2779L478.265 73.4836L477.088 74.5891L475.911 75.6945V74.7297V73.7649L476.785 72.9742L477.659 72.1835H478.685H479.711L480.389 73.2585C480.762 73.8498 481.217 74.833 481.399 75.4436L481.731 76.5537L480.852 77.2531C480.368 77.638 479.166 78.4848 478.18 79.1351L476.389 80.3176V81.0283V81.739H478.778H481.167V82.1644V82.5899L479.501 82.7846L477.835 82.9793L477.114 82.5739ZM483.916 82.5074L483.079 81.8727V80.4007V78.9289L483.512 78.662L483.944 78.3951L483.688 76.4886L483.433 74.5822L484.031 73.8609L484.63 73.1397H486.423H488.216L488.947 74.6495L489.678 76.1594L489.163 77.2903L488.648 78.4212L489.208 78.9815C489.516 79.2896 489.768 79.8884 489.768 80.3121V81.0821L488.354 82.1275L486.94 83.1729L485.846 83.156C485.244 83.1503 484.375 82.8565 483.916 82.5074ZM488.207 80.9358L488.797 80.1453L488.315 79.5654L487.834 78.9855L486.389 79.0583L484.944 79.1311L484.548 79.7715L484.152 80.4118L484.401 81.3606L484.649 82.3094L486.134 82.0183L487.619 81.7265L488.207 80.9358ZM488.247 76.1253L488.099 74.3337H486.187H484.276L484.432 75.7609L484.587 77.1882L485.148 77.5454C485.457 77.7418 486.314 77.9054 487.052 77.91L488.395 77.9156L488.247 76.1253ZM492.463 82.3924L491.094 81.6506L491.354 80.0439L491.615 78.4372L491.065 76.9799L490.515 75.5225L491.757 74.2802L492.999 73.0379L494.519 73.3719L496.039 73.706L496.507 74.9385L496.976 76.1711L496.702 76.8853L496.428 77.5994L496.006 77.161C495.774 76.92 495.513 76.1852 495.425 75.5283L495.265 74.3339L493.948 74.1826L492.632 74.0314L492.344 74.7812L492.056 75.5309L492.356 76.7242L492.656 77.9176H494.268H495.88L496.246 78.7537C496.448 79.2136 496.66 80.1585 496.717 80.8535L496.821 82.1174L495.662 82.645C494.216 83.304 494.132 83.297 492.463 82.3924ZM495.746 81.7349L496.044 81.253L495.759 80.3544L495.474 79.4559L494.34 79.2392L493.207 79.0225L492.445 79.4491C491.539 79.9559 491.462 80.8502 492.256 81.6437L492.829 82.217H494.138H495.448L495.746 81.7349ZM499.207 82.8431L498.371 82.6247V78.4183V74.2119L499.019 73.6741L499.667 73.1363L501.169 73.4365L502.671 73.7367L502.693 74.2739C502.705 74.5696 502.832 76.4343 502.976 78.4177L503.237 82.024L501.977 82.5982C500.667 83.1951 500.582 83.2024 499.207 82.8431ZM501.607 81.6197L502.093 81.0224L501.838 77.534L501.583 74.0456L500.574 74.1895L499.565 74.3334L499.422 77.6304C499.344 79.4437 499.389 81.2174 499.527 81.572L499.774 82.2166H500.447C500.817 82.2166 501.339 81.9483 501.607 81.6197ZM505.85 82.2987L505.06 81.425V78.3209V75.2169L506.165 74.1781C507.564 72.8642 508.119 72.8713 508.995 74.212L509.697 75.2869L509.753 78.6017L509.81 81.9165L509.289 82.5433L508.769 83.1701H507.707H506.645L505.85 82.2987ZM508.643 78.4608C508.643 76.5375 508.488 74.7146 508.298 74.4099L507.953 73.8557L507.104 74.3867L506.254 74.9178L506.22 77.7312L506.186 80.5448L506.608 81.4097L507.031 82.2746L507.834 82.1161L508.638 81.9575L508.643 78.4608ZM540.033 82.5991L539.459 82.0258V79.3058V76.5859L540.215 76.2958C540.631 76.1361 541.465 76.0058 542.068 76.0058H543.165L543.684 76.6314C543.969 76.9756 544.321 78.1923 544.464 79.3352L544.725 81.4135L543.93 82.293L543.134 83.1723H541.87H540.606L540.033 82.5991ZM542.637 81.8512L543.186 81.5002L543.336 80.0666L543.485 78.6331L543.116 78.0361L542.747 77.4392H541.871H540.995L540.705 78.1949C540.545 78.6108 540.415 79.4276 540.415 80.0104V81.0703L540.988 81.6435C541.649 82.305 541.881 82.3342 542.637 81.8512ZM437.069 82.389C436.688 82.0075 437.12 81.2612 437.722 81.2612H438.171V81.9779C438.171 82.7167 437.607 82.9268 437.069 82.389ZM468.498 81.703C468.061 80.323 468.496 80.0748 469.78 80.9736L470.873 81.739H471.989H473.105L472.81 82.217L472.515 82.6949H470.664H468.814L468.498 81.703ZM547.9 82.376C547.725 82.2011 547.575 81.0721 547.567 79.8677L547.55 77.678L546.848 76.7506L546.147 75.8232L546.511 75.5563C546.712 75.4096 547.088 74.6618 547.347 73.895C547.607 73.1281 548.059 72.4211 548.352 72.3238L548.885 72.1471L549.151 74.435L549.416 76.7228L548.976 77.1765C548.471 77.6979 548.399 79.391 548.833 80.5228L549.13 81.2957L550.212 80.5867C551.619 79.6646 552.027 80.1167 551.084 81.5551L550.338 82.6948H549.278C548.695 82.6948 548.075 82.551 547.9 82.376ZM461.104 80.5451V78.8735L463.015 76.9042L464.927 74.935V74.0371V73.1391H462.538H460.149V72.364V71.5888L460.762 72.0978L461.375 72.6068L462.076 72.1638C462.461 71.92 463.45 71.7174 464.274 71.7135L465.771 71.7078L466.02 73.0132L466.27 74.3185L465.643 75.5215C465.299 76.1831 464.459 77.2457 463.777 77.8827L462.538 79.041V79.8742C462.538 81.0482 462.035 82.2189 461.531 82.2189H461.104L461.104 80.5451ZM473.049 80.2957V79.3299L471.854 78.7859C470.412 78.1288 470.393 77.9001 471.614 75.8983C472.139 75.0379 472.569 74.0653 472.57 73.7368L472.571 73.1396H470.143H467.714L467.909 72.5556L468.103 71.9717L471.054 71.8481L474.005 71.7239V73.1097V74.4955L473.169 75.9891L472.332 77.4828L473.169 77.9624L474.005 78.4421V79.8517V81.2612H473.527H473.049V80.2957ZM514.56 79.9475C514.532 79.7506 514.543 79.2214 514.588 78.7719C514.634 78.3221 514.451 77.5449 514.183 77.0442L513.696 76.1337L514.263 74.6321L514.83 73.1306L515.321 73.292L515.812 73.4534L515.961 75.7732C516.042 77.0492 515.983 78.5911 515.832 79.1997L515.554 80.3063H515.086C514.828 80.3063 514.591 80.1444 514.56 79.9475ZM168.354 79.4854C169.081 79.3753 170.156 79.3787 170.743 79.491L171.812 79.697L169.423 79.6913L167.034 79.6857L168.354 79.4854ZM436.738 76.9616C436.738 76.6986 436.953 76.4836 437.216 76.4836C437.479 76.4836 437.694 76.6986 437.694 76.9616C437.694 77.2245 437.479 77.4396 437.216 77.4396C436.953 77.4396 436.738 77.2245 436.738 76.9616ZM63.1179 75.5368L62.4012 75.082L62.3426 70.169C62.3104 67.4668 62.2566 64.6678 62.2232 63.9491L62.1623 62.6422L60.6095 63.589C59.7555 64.1098 58.788 64.5365 58.4596 64.5375L57.8623 64.5393V63.8675V63.1956L60.2715 61.4648C61.5965 60.5129 62.802 59.4177 62.9504 59.0311L63.2201 58.3282H64.1245H65.029L65.0419 61.0754C65.0487 62.5864 65.0752 66.3265 65.1009 69.3867L65.1471 74.9508L64.8212 75.4784C64.4252 76.1191 64.0559 76.1319 63.1179 75.5368ZM424.509 75.4544L424.168 74.9031L424.72 75.2439C425.271 75.5842 425.459 76.0062 425.061 76.0062C424.945 76.0062 424.697 75.7574 424.509 75.4544ZM41.7247 73.8218L39.9676 72.1153L39.9569 67.969C39.9416 62.1378 40.5561 60.5275 43.4085 58.9256L44.4719 58.3284H46.4209H48.3699L49.3318 58.8431C49.8609 59.1263 50.7067 59.7114 51.2115 60.1436L52.1292 60.9294V62.0177V63.1059H52.607H53.0848V66.6892V70.2725H52.607H52.1292V71.9101V73.5476L50.8704 74.5378L49.6115 75.528H46.544H43.4792L41.7247 73.8218ZM48.8571 73.2586C49.2411 72.7987 49.812 71.8212 50.1255 71.0862L50.6957 69.7498V66.7214V63.693L50.0104 62.3721C49.1422 60.6986 48.433 60.2558 46.6065 60.2466L45.145 60.241L44.2573 60.8902L43.3696 61.5393L42.7538 63.8762C42.4151 65.1616 42.1284 67.2272 42.1168 68.4666L42.096 70.7202L43.7841 72.4083L45.4722 74.0964H46.8156H48.1589L48.8571 73.2586ZM73.6289 74.9144C73.6289 74.184 74.4042 71.5801 75.0821 70.0337C76.4026 67.0214 77.8844 62.9349 78.4346 60.7883L79.0651 58.3282H80.6981H82.3311L82.1171 58.9254C81.9994 59.2538 81.5186 60.7051 81.0486 62.1504C80.5787 63.5957 79.917 65.5307 79.5783 66.4504C79.2396 67.37 78.4898 69.4125 77.9121 70.9892C77.3345 72.5658 76.704 74.1783 76.5111 74.5725L76.1603 75.2891L74.8946 75.4404L73.6289 75.5916V74.9144ZM94.0026 74.476C93.8409 73.872 93.7056 70.9718 93.702 68.0311L93.6952 62.6843L93.164 62.3559L92.6328 62.0275L92.328 62.4947C91.9523 63.0706 90.118 64.0608 89.4267 64.0608H88.9175V63.361V62.6611L89.9153 62.1273C90.4641 61.8338 91.7526 60.8349 92.7785 59.9081L94.6439 58.2228L95.3697 58.5016L96.0955 58.7804L95.9627 67.0297L95.8298 75.279L95.0632 75.4268L94.2966 75.5747L94.0026 74.476ZM109.433 73.0195C109.417 72.1655 109.429 69.2904 109.459 66.6305L109.513 61.7942L108.786 61.5155L108.059 61.2367L107.775 61.6971C107.618 61.9505 106.859 62.484 106.087 62.883L104.684 63.6085V62.7494V61.8902L106.394 60.9692C107.335 60.4624 108.611 59.4462 109.23 58.7105C111.524 55.9844 111.835 56.9777 111.844 67.0478L111.851 74.5727H110.656H109.462L109.433 73.0195ZM204.914 70.5787L204.177 69.8414L203.86 68.1528L203.543 66.4643L204.046 64.5952L204.55 62.7262L205.3 62.4384C205.713 62.2799 206.571 62.1506 207.206 62.1506H208.361L209.317 63.1062L210.273 64.0617V66.3977V68.7336L209.436 69.7406L208.6 70.7476L207.126 71.0321L205.651 71.3165L204.914 70.5787ZM207.8 69.8561L208.434 69.4543L208.698 67.4833L208.963 65.5124L208.365 64.0701L207.768 62.6277H206.947H206.126L205.571 63.8446C204.494 66.2094 205.138 70.283 206.587 70.2648C206.906 70.2607 207.452 70.0773 207.8 69.8561ZM250.562 69.2486L248.583 67.2694L247.822 67.5612L247.061 67.8535V69.3018V70.7501H246.583H246.106V67.2059C246.106 65.2565 246.231 63.3351 246.384 62.9361L246.662 62.2105L247.331 62.4667L247.999 62.7234L247.497 63.6618L246.995 64.6001L247.585 65.3106L248.174 66.0212L249.644 65.8772L251.114 65.7334L251.29 64.8094L251.465 63.8855L250.605 63.2566L249.745 62.6279H251.046H252.348L252.76 63.7028L253.172 64.7778L252.003 66.0249L250.833 67.2719L252.053 68.7216C253.254 70.15 253.622 71.2278 252.907 71.2278C252.706 71.2278 251.651 70.3372 250.562 69.2486ZM255.542 70.7118L254.706 70.2248V69.5601C254.706 69.1944 254.938 68.7519 255.222 68.5765L255.737 68.2577L256.443 69.265L257.149 70.2723H259.033H260.917V69.345V68.4177L260.326 68.0311C260.001 67.8184 258.765 67.3221 257.579 66.928L255.422 66.2113V64.5391V62.8669L257.534 62.7162C258.695 62.6333 260.147 62.6936 260.759 62.8449L261.872 63.1242V63.8318V64.5393H261.36C261.079 64.5393 260.526 64.2165 260.132 63.8226C259.329 63.02 258.145 62.9092 257.144 63.5428L256.477 63.9648L256.766 64.7155L257.054 65.4661L258.388 65.7759C259.122 65.9463 260.206 66.3877 260.797 66.7567L261.872 67.4276V68.7732V70.1187L260.655 70.6735C259.168 71.351 256.671 71.3686 255.542 70.7118ZM264.829 70.2536L263.783 69.2794V66.7044V64.1294L264.534 63.3786C264.947 62.9656 265.63 62.6279 266.051 62.6279H266.817L265.778 63.7336L264.739 64.8394V66.494V68.1485L265.483 69.2103L266.226 70.2722H267.422H268.617L268.322 70.7501L268.027 71.2281H266.951H265.875L264.829 70.2536ZM272.577 69.1972C272.652 68.0804 272.746 66.038 272.787 64.6584L272.861 62.1501H276.444H280.028V62.6884V63.2268L277.635 62.9965L275.242 62.7668L274.41 63.3857L273.578 64.0047L274.109 64.8688L274.641 65.7328L277.096 65.5698L279.55 65.4061V65.9275V66.4489L277.281 66.4546L275.011 66.4602L274.376 66.8631L273.74 67.266L273.898 68.6475L274.056 70.029L277.056 70.1718L280.056 70.3145L279.775 70.7694L279.494 71.2242H275.967H272.441L272.577 69.1972ZM282.69 70.477L281.939 69.7261V67.1636V64.6012L282.405 63.3756L282.871 62.1501H284.998H287.125L288.153 63.4565L289.18 64.763L288.866 66.862C288.692 68.0165 288.443 69.241 288.312 69.5832L288.073 70.2054L286.607 70.7167C284.589 71.4202 283.57 71.358 282.69 70.477ZM287.096 66.8848L287.237 64.2139L286.505 63.6064L285.773 62.9989L284.573 63.3003L283.372 63.6016V66.3795C283.372 67.9073 283.526 69.3109 283.713 69.4986C283.901 69.6859 284.707 69.7756 285.505 69.6978L286.955 69.5556L287.096 66.8848ZM290.061 70.805C290.061 70.568 291.351 69.0555 292.928 67.4442C294.504 65.8329 295.794 64.3204 295.794 64.0831C295.794 63.8455 295.446 63.3035 295.021 62.8781L294.247 62.1046L294.544 61.8083L294.84 61.5121L296.034 62.1509L297.228 62.7897V63.5973V64.4048L295.283 66.6138L293.339 68.8228L293.639 69.3086L293.939 69.7945L295.464 69.8114L296.989 69.8283L296.272 70.2279C295.878 70.4474 294.319 70.7656 292.808 70.9341L290.061 71.2411L290.061 70.805ZM308.768 70.1124C307.504 68.7662 307.473 68.3611 308.636 68.3611H309.533L310.127 69.0778C311.195 70.3639 313.472 69.6415 313.472 68.0164V67.3851L312.158 66.8078C309.85 65.7937 309.667 64.5389 311.828 64.5389H312.994V63.8223V63.1056H311.785H310.575L310.3 63.8223L310.025 64.5389H309.325H308.628L308.779 63.225L308.931 61.9112L310.935 61.7656L312.939 61.62L313.962 62.6431L314.986 63.6663L314.694 64.8291L314.402 65.992L314.891 66.9064L315.381 67.8208L314.92 69.0332L314.459 70.2456L313.247 70.4979C312.581 70.6367 311.532 70.8533 310.916 70.9792L309.796 71.2083L308.768 70.1124ZM419.727 70.5526L419.424 69.7648L419.704 68.3648L419.984 66.9647L419.534 66.6865L419.083 66.4083L419.361 62.4875C419.514 60.331 419.733 58.4673 419.849 58.3458C419.964 58.2245 420.476 58.3853 420.986 58.7042L421.913 59.2833H424.223H426.534L428.803 60.0568L431.073 60.8302L431.805 62.3638L432.536 63.8973L432.128 66.4368L431.72 68.9762L430.526 69.8321L429.331 70.688L424.679 71.0142L420.028 71.3403L419.727 70.5526ZM429.689 68.7755L430.575 68.3015L430.419 65.353L430.262 62.4045L429.081 61.7961L427.899 61.1879L424.554 61.3103L421.21 61.4328L421.069 64.9408L420.928 68.4489L421.456 69.0859L421.985 69.7228L425.395 69.4858L428.804 69.2488L429.689 68.7755ZM499.685 70.8854L498.371 70.6862V69.5582V68.4302L499.63 67.44C500.322 66.8954 501.263 66.4497 501.721 66.4497H502.554L503.162 65.7167L503.77 64.9837L505.968 65.1197L508.165 65.2557L508.319 63.913L508.473 62.5702L507.903 61.8825L507.332 61.1947H504.34H501.349L501.099 62.1502L500.849 63.1058H499.849H498.849V62.2052V61.3046L500.026 60.533L501.204 59.7614H503.975H506.747L508.412 60.6534L510.076 61.5453L510.186 63.4324L510.295 65.3195L508.472 66.1237L506.65 66.928H505.166H503.683L503.387 67.406L503.092 67.8839H501.652H500.212L500.372 68.7163L500.533 69.5488L501.96 69.854C502.745 70.0222 504.839 70.1852 506.613 70.2163L509.838 70.2727V70.7507V71.2287L505.418 71.157C502.987 71.1175 500.407 70.9949 499.685 70.8854ZM515.571 70.8887C515.176 70.7437 514.478 70.2974 514.018 69.8968L513.182 69.1685V68.287V67.4054H513.898H514.615V66.7473C514.615 66.3856 514.292 65.8215 513.898 65.4944L513.182 64.8996V63.1633V61.4271L515.121 60.8219L517.06 60.2168L517.509 60.4945L517.958 60.7721L518.988 60.0505L520.019 59.3289L521.02 59.8582C521.57 60.1493 522.501 60.8378 523.088 61.3882L524.154 62.3888L524.16 63.4471L524.166 64.5052L523.21 65.0164L522.254 65.5277V66.2108V66.8938L523.21 67.405L524.166 67.9163V68.5836V69.2509L522.778 70.239L521.39 71.2271L518.836 71.1876C517.432 71.165 515.96 71.0313 515.566 70.8862L515.571 70.8887ZM521.573 69.0986L522.342 67.9252L522.034 67.4264L521.726 66.9276H518.633H515.541L515.26 67.662L514.978 68.3965L515.827 69.3342L516.675 70.272H518.74H520.805L521.573 69.0986ZM522.175 63.9127L522.329 62.5699L521.81 61.945L521.292 61.3201L519.069 61.7355C517.846 61.964 516.746 62.0509 516.623 61.9285C516.501 61.806 515.999 61.9228 515.508 62.1835L514.615 62.6615V63.5047C514.615 63.9685 514.878 64.6104 515.199 64.9312L515.782 65.5147L518.902 65.3849L522.021 65.2552L522.175 63.9127ZM541.858 70.6139L540.673 70.0142L540.144 66.7925L539.616 63.5707L540.226 63.0645L540.837 62.5583L540.548 61.8075L540.26 61.0567L541.146 60.4091L542.031 59.7615H544.36H546.689L547.627 60.2632L548.564 60.7649L548.271 61.2395L547.977 61.714L548.522 62.3699L549.066 63.0258L548.964 65.5739C548.842 68.6117 548.631 69.3165 547.844 69.3165C547.518 69.3165 546.863 69.7465 546.388 70.272L545.523 71.2276L544.283 71.222C543.601 71.2181 542.509 70.9435 541.858 70.6139ZM545.978 68.6175L546.976 67.9185L547.277 66.0386L547.578 64.1588L547.276 62.6531L546.975 61.1473L544.77 61.2901L542.565 61.4328L542.137 64.6103L541.709 67.7879L542.003 68.552L542.296 69.3161H543.638H544.98L545.978 68.6175ZM191.977 69.7889L191.729 68.8387H189.801H187.874L187.565 68.3399L187.257 67.8411L188.079 66.5482C189.11 64.9264 191.962 62.1498 192.596 62.1498H193.073V64.682V67.2142L193.67 67.8473L194.267 68.4803L193.67 68.6992C193.341 68.8194 193.073 69.2099 193.073 69.5668C193.073 69.9235 192.882 70.3333 192.649 70.4772L192.226 70.7391L191.977 69.7889ZM191.956 66.6567L192.244 65.9079L191.714 65.378L191.184 64.8482L190.217 65.7231C189.685 66.2044 189.25 66.7797 189.25 67.0018V67.4053H190.46H191.669L191.956 66.6567ZM196.593 70.1712C196.396 69.8518 196.083 68.615 195.899 67.4229L195.563 65.2554L196.205 63.7027L196.846 62.15H199.003H201.161L201.656 63.0741L202.15 63.9983V66.3272V68.6562L201.553 69.4073L200.956 70.1586L198.954 70.4554L196.952 70.7522L196.593 70.1712ZM200.64 68.5774C200.945 67.9081 201.195 66.6611 201.195 65.8063V64.2521L200.621 63.6788L200.048 63.1055H198.966H197.884L197.389 64.0296C197.117 64.5381 196.895 65.627 196.895 66.4499C196.895 67.2727 197.117 68.3619 197.389 68.8702L197.884 69.7943H198.985H200.086L200.64 68.5774ZM213.449 70.3879C213.326 70.1887 213.582 69.0081 214.018 67.7641L214.811 65.5024L215.894 64.7491L216.977 63.9957L216.702 63.5504C216.551 63.3055 215.956 63.0821 215.38 63.0544L214.333 63.0036L216.407 62.5403C217.547 62.2853 218.6 62.1972 218.747 62.344C218.894 62.4907 218.228 63.6198 217.267 64.8531L215.52 67.0956L215.027 68.923L214.535 70.7504H214.104C213.867 70.7504 213.572 70.5865 213.449 70.3879ZM229.449 69.9776L228.347 69.2057L228.831 68.7215L229.315 68.2374L230.574 69.2277L231.833 70.2181L232.878 69.8349L233.922 69.4517L234.07 68.2215L234.218 66.9914L233.354 66.5286C232.878 66.2741 232.279 66.0608 232.023 66.0546C231.767 66.049 231.486 65.8289 231.398 65.5665L231.239 65.0896L232.342 64.9334L233.444 64.777V63.8214V62.8659L232.447 62.7237L231.45 62.5815L230.836 63.3212C230.498 63.7281 230.033 64.0609 229.803 64.0609H229.383V63.1053V62.1498H231.714H234.044L234.64 62.8677L235.236 63.5855L234.953 64.9991L234.67 66.4128L235.132 66.6983L235.594 66.9838V68.123V69.2621L234.532 70.0059L233.471 70.7496H232.009H230.549L229.449 69.9776ZM237.028 66.4895V62.1528H240.93H244.831L244.532 62.4524C244.367 62.6172 242.988 62.7786 241.466 62.8107L238.7 62.8694V64.3027V65.7361L241.089 66.0194L243.478 66.3026L240.997 66.3777L238.516 66.4527L238.369 68.4461L238.222 70.4396L237.625 70.6359L237.028 70.8323L237.028 66.4895ZM316.748 69.9135C316.71 69.4536 316.731 67.5725 316.793 65.733L316.907 62.3886L317.304 61.971L317.7 61.5534L320.915 61.8976L324.13 62.2419L323.47 62.6499L322.81 63.0579L320.87 62.7921L318.929 62.5263L318.275 63.3143L317.621 64.1023L318.055 64.5295C318.293 64.7648 319.439 65.0244 320.601 65.1064L322.714 65.256L322.919 65.8777L323.123 66.4994L321.017 66.3905L318.91 66.2816L318.341 66.6331L317.772 66.9847V68.8676V70.7505H317.294H316.816L316.748 69.9135ZM369.667 70.3345L368.291 70.0326L367.578 68.9576L366.866 67.8826H367.821H368.776L369.371 68.5992C370.517 69.9795 372.716 69.1393 372.716 67.3216V66.4738L371.163 65.6578L369.61 64.8419L370.805 64.549L371.999 64.2561V63.561V62.8659L371.002 62.7237L370.004 62.5815L369.39 63.3212C369.053 63.728 368.573 64.0609 368.324 64.0609H367.871L368.024 62.9859L368.177 61.9109L370.005 61.7603L371.833 61.6096L372.885 62.299L373.938 62.9885L374.031 66.1236L374.124 69.2588L372.63 70.004C371.808 70.4137 371.115 70.7238 371.09 70.6927C371.067 70.6589 370.424 70.5004 369.667 70.3345ZM437.335 70.0185L435.782 69.3133L435.765 68.2397C435.754 67.6492 435.626 66.3304 435.478 65.3091L435.21 63.4521L437.229 61.6063L439.248 59.7606H442.556H445.864L447.274 60.4895L448.683 61.2184V61.8946C448.683 62.2665 448.452 62.7135 448.17 62.8879L447.657 63.2051L446.587 62.1995L445.516 61.1939H443.349C442.157 61.1939 440.5 61.4315 439.667 61.7221L438.152 62.2503L437.684 63.1242C437.427 63.6049 437.217 64.8458 437.217 65.8821V67.7661L437.965 68.3869L438.713 69.0079L441.585 68.9289L444.456 68.8499L445.8 68.0562L447.143 67.2624L447.913 67.5581C448.337 67.7207 448.683 68.0756 448.683 68.3463V68.839H448.04C447.686 68.839 446.665 69.2047 445.771 69.6519L444.144 70.4648L441.517 70.5946L438.889 70.7244L437.335 70.0185ZM552.479 70.409L550.448 70.2165V69.2667V68.3169L551.621 67.1442L552.794 65.9715H553.675C554.16 65.9715 554.794 65.7339 555.085 65.4439L555.612 64.9163L557.688 64.8468L559.764 64.7774L559.921 63.6761L560.077 62.5749L559.504 61.8845L558.931 61.1942H556.181H553.431L552.743 62.2312L552.054 63.2683L551.49 62.9196C551.18 62.7277 550.926 62.2858 550.926 61.9374V61.3039L552.041 60.5733L553.156 59.8427L555.266 59.7371C557.649 59.6181 560.003 60.1299 560.003 60.7682C560.003 61.0023 560.326 61.1942 560.72 61.1942H561.437V62.6275C561.437 63.4158 561.465 64.2188 561.499 64.412C561.533 64.605 560.942 65.1269 560.185 65.5715L558.809 66.3798L557.045 66.4137L555.282 66.4475L554.987 66.9255L554.692 67.4035H553.525H552.359V68.0576V68.7118L554.151 69.008C555.136 69.1711 557.089 69.3066 558.49 69.3094L561.039 69.3146L560.841 69.9118L560.644 70.509L557.576 70.5542C555.889 70.5768 553.595 70.5162 552.479 70.409ZM183.559 69.3939L183.005 68.3604H181.111H179.217V67.6603C179.217 67.0457 180.284 65.6252 183.122 62.4613L183.921 61.57L184.436 61.8876L184.95 62.2054V64.7094V67.2134L185.402 67.6671L185.854 68.1208L184.983 69.2738L184.112 70.4268L183.559 69.3939ZM183.89 66.0456L184.074 65.4942L183.281 65.1895L182.487 64.8848L181.751 65.6209L181.015 66.3571L181.326 66.8599L181.636 67.3626L182.671 66.9795C183.241 66.769 183.789 66.3488 183.89 66.0456ZM269.33 69.5895L269.619 68.8381H270.324H271.029L270.83 69.4354C270.721 69.7638 270.274 70.1019 269.837 70.1868L269.042 70.3408L269.33 69.5895ZM325.698 69.8632C325.554 69.6302 325.348 67.7108 325.24 65.598L325.044 61.7567L327.499 61.553L329.955 61.3493L331.03 61.9993L332.105 62.6493V63.7743V64.8992L331.388 65.494C330.416 66.301 330.488 67.0905 331.627 68.1217C332.153 68.5974 332.583 69.2756 332.583 69.6291V70.2717H331.856H331.13L329.631 68.1452L328.132 66.0188L327.266 66.4827L326.399 66.9465L326.672 68.3125L326.945 69.6785L326.453 69.9832L325.96 70.2879L325.698 69.8632ZM329.916 64.2483C330.946 63.8527 330.865 63.2419 329.698 62.6176L328.724 62.0968L327.787 62.3941L326.849 62.6915V63.6149V64.5382H328.005C328.64 64.5382 329.5 64.408 329.916 64.2483ZM334.613 69.739C334.285 69.401 334.016 68.8454 334.016 68.5038V67.886H334.709H335.402L335.823 68.6389L336.245 69.3919L337.874 69.2361L339.503 69.0804L339.665 68.2213L339.828 67.3623L339.252 66.6685L338.677 65.9748H337.135H335.595L334.766 65.0587L333.937 64.1425L334.095 63.031L334.253 61.9196L336.756 61.5228L339.26 61.1261L340.726 62.1701L342.192 63.2141L342.761 62.5007L343.33 61.7873L345.454 61.5255L347.578 61.2636L348.44 61.7253L349.302 62.1869V62.8867C349.302 63.7757 349.064 63.7654 347.611 62.8133L346.43 62.0398L345 62.6324L343.569 63.2249V65.2429V67.2609L344.443 68.0516L345.317 68.8422H346.296H347.274L347.869 68.1256C348.196 67.7311 348.653 67.4089 348.883 67.4089H349.302V68.3352V69.2615L347.112 69.5899L344.922 69.9184L343.461 68.8377L341.999 67.757L341.173 68.8525L340.346 69.948L337.777 70.1523L335.208 70.3572L334.613 69.739ZM342.201 64.7251L341.681 63.5828H340.92C340.501 63.5828 339.836 63.2605 339.442 62.8661C338.639 62.0634 337.456 61.9526 336.455 62.5862L335.788 63.0083L336.081 63.7732L336.375 64.538H337.577H338.779L340.339 65.9338L341.899 67.3295L342.31 66.5983L342.722 65.8671L342.201 64.7251ZM350.839 65.9547L350.977 61.5027L353.605 61.3453L356.232 61.1878L356.949 61.5275L357.666 61.8672L355.038 62.1279L352.41 62.3887V63.3442V64.2998L354.68 64.4454L356.949 64.5909V65.0424V65.4938L355.158 65.4995C354.172 65.5035 353.078 65.689 352.727 65.9119L352.088 66.3171L352.249 67.4575L352.41 68.5979L354.919 68.7423L357.427 68.8868V69.34V69.7925H356.299C355.679 69.7925 354.165 69.9302 352.936 70.0989L350.7 70.4053L350.839 65.9547ZM157.387 69.2185C156.811 68.9425 156.226 68.4219 156.088 68.061L155.836 67.4049H156.479C156.833 67.4049 157.39 67.7277 157.717 68.1216C158.52 69.0896 159.313 69.023 160.327 67.902L161.175 66.9658L160.878 65.784L160.581 64.6021L159.657 64.3087L158.732 64.0152L157.769 64.6171L156.805 65.2189L156.468 64.882L156.131 64.5451L156.704 62.6309L157.277 60.7168L159.289 60.7732L161.3 60.8296L159.873 61.1349L158.445 61.4402L158.285 62.2726L158.125 63.105H159.137H160.149L161.322 64.2777L162.495 65.4504V66.3444V67.2384L161.42 68.2223C160.828 68.7635 159.915 69.3218 159.389 69.463L158.434 69.7197L157.387 69.2185ZM164.484 69.03L163.45 68.3062L163.466 65.586L163.481 62.8659L164.115 62.0298L164.75 61.1937H167.206H169.661V61.9104C169.661 62.7762 169.445 62.7987 168.257 62.0565L167.343 61.486L166.076 62.0634L164.809 62.6409L165.018 63.2313L165.227 63.8216L166.668 63.7081L168.11 63.5947L169.364 64.8482L170.617 66.1015V66.9018V67.7021L169.643 68.7478C169.107 69.3228 168.361 69.7934 167.986 69.7934H167.303L167.578 69.0768C167.729 68.6823 168.045 68.3601 168.279 68.3601H168.706V67.0223V65.6845L168.133 65.1112L167.559 64.5379H166.449H165.338L164.872 65.7634C164.271 67.3428 164.245 67.2177 165.398 68.291L166.389 69.2148L165.953 69.484L165.517 69.7531L164.484 69.03ZM175.275 69.5175L174.917 69.1569V66.1219V63.087L173.722 63.3866L172.528 63.6863V63.2732C172.528 62.7822 175.347 61.4642 175.681 61.7988C175.809 61.9263 175.85 63.7962 175.773 65.9543L175.634 69.8781L175.275 69.5175ZM359.438 68.6277C358.75 67.1179 358.689 64.5726 359.302 62.9597L359.745 61.7966L360.926 61.5709C361.576 61.4468 362.749 61.4394 363.534 61.554L364.96 61.7634L365.493 62.9342L366.027 64.1051L366.021 66.1131C366.017 67.2175 365.822 68.4243 365.587 68.7948L365.16 69.4686L362.589 69.6819L360.017 69.8952L359.438 68.6277ZM363.843 68.0871L364.594 67.3361L364.296 65.3399L363.998 63.3436L363.377 62.6811L362.756 62.0186L361.995 62.3103L361.235 62.6021L360.737 63.9095L360.24 65.2169L360.544 66.4274C361.145 68.8207 362.452 69.4784 363.843 68.0871ZM452.264 64.035C452.074 60.8677 452.039 58.1555 452.186 58.0076C452.334 57.8598 453.143 57.9794 453.984 58.2717L455.513 58.8044H459.003H462.492L463.663 59.3382L464.835 59.8721L465.023 61.4817L465.21 63.0914L464.841 63.7521C464.638 64.1155 463.821 64.6821 463.026 65.0112L461.582 65.6095V66.0982C461.582 66.3668 462.388 67.2995 463.373 68.1703L465.165 69.7539L464.29 69.7764L463.415 69.799L461.374 68.1268L459.333 66.4546H456.58H453.826L454.101 67.5048L454.376 68.5548L453.859 69.1769C453.575 69.5189 453.178 69.799 452.976 69.799H452.61L452.264 64.035ZM461.257 63.7765C462.486 63.3578 463.631 62.7908 463.8 62.5165L464.108 62.0177L462.964 61.1383L461.821 60.2589L458.803 60.2477L455.786 60.2364L454.857 60.7335L453.929 61.2301L454.245 62.5249C454.646 64.1634 455.192 64.5198 457.316 64.529L459.023 64.5346L461.257 63.7765ZM140.039 65.3342C140.039 61.1384 140.191 60.6204 141.293 61.0433L141.975 61.3052L141.431 61.96L140.888 62.6148L141.165 63.3375L141.443 64.0603H143.608H145.773V64.5382V65.0162H143.957H142.142L141.568 65.5895L140.995 66.1628V67.7395V69.3161H140.517H140.039L140.039 65.3342ZM148.262 65.135L148.4 60.9545L150.48 60.8055L152.559 60.656L153.466 61.4765L154.373 62.2971V63.0637V63.8302L153.417 64.427C152.202 65.1858 152.216 65.678 153.502 67.418L154.544 68.826L154.198 69.1714L153.853 69.5167L152.142 67.5052L150.431 65.4938H149.774H149.117V67.4048V69.3159H148.621H148.124L148.262 65.135ZM152.163 63.8289L153.059 63.1504L152.775 62.4108L152.491 61.6711H150.804H149.117V62.786C149.117 64.6658 150.454 65.1234 152.163 63.8289ZM526.878 68.997C526.345 68.4638 526.521 67.8822 527.216 67.8822C527.577 67.8822 528.653 67.1673 529.607 66.2937C530.56 65.42 532.286 64.2331 533.442 63.6561L535.542 62.6069L535.814 61.9002L536.085 61.1934H536.789C537.176 61.1934 537.65 61.4496 537.844 61.7624L538.195 62.3314L537.606 62.5278C537.282 62.6356 536.653 63.1105 536.208 63.5825C535.762 64.0549 534.485 64.9144 533.368 65.4931C532.251 66.0719 531.337 66.6991 531.337 66.887C531.337 67.1979 527.913 69.3155 527.41 69.3155C527.293 69.3155 527.053 69.172 526.878 68.997ZM8.97949 66.5421L7.69568 65.2022V63.033V60.8637L8.56939 60.073L9.44313 59.2823H10.9241H12.4052L13.22 60.0971L14.0347 60.9118L13.3974 61.124L12.7601 61.3362L12.5769 60.7865L12.3938 60.2369H11.2502H10.1066L9.37521 61.3532L8.64383 62.4694L8.93523 63.9263L9.22664 65.3832L10.3676 65.9938L11.5086 66.6044L12.4718 65.7329L13.4349 64.8613L13.7903 65.2174L14.1457 65.5734L12.8051 66.7273C11.0884 68.2048 10.5484 68.1797 8.97949 66.5421ZM470.847 67.1265C471.007 66.7106 471.137 66.2545 471.137 66.1124C471.137 65.9702 471.46 66.1237 471.854 66.4488C472.249 66.7761 472.571 67.2323 472.571 67.4628V67.8821H471.564H470.557L470.847 67.1265ZM0.526815 63.3472V59.2861H2.6985H4.87021L6.04293 60.4589L7.21566 61.6316V63.283V64.9345L5.74567 66.1714L4.2757 67.4082H2.40125H0.526815V63.3472ZM4.86384 65.6914L5.49566 64.9301V63.3263V61.7225L4.59037 60.7222L3.68506 59.7218L2.70315 59.8623L1.72125 60.0029L1.57463 62.5737C1.49399 63.9876 1.54079 65.4388 1.6791 65.7986L1.9301 66.4528H3.08103H4.23196L4.86384 65.6914ZM15.3378 63.1083V58.8084H16.6063H17.8748L17.0841 59.6821L16.2934 60.5558V61.561V62.5662L17.2309 62.8636L18.1684 63.1609L19.142 62.6401L20.1156 62.1192V61.2043V60.2893L19.3376 59.8536L18.5595 59.418L19.0208 59.1331L19.4821 58.8481L20.5155 59.5719L21.5489 60.2957V61.0021C21.5489 61.3909 21.1981 62.2439 20.7693 62.8983L19.9896 64.0882L20.6966 64.912C21.0854 65.3651 21.5472 65.9898 21.7229 66.3001L22.0422 66.8644L21.5925 67.1426L21.1427 67.4208L19.4908 65.6699L17.8389 63.919L17.0662 64.2152L16.2934 64.5115V65.9598V67.4081H15.8156H15.3378L15.3378 63.1083ZM298.99 66.6249C298.822 66.4568 298.799 66.1346 298.939 65.9083L299.193 65.4969H302.748H306.303V65.9083V66.3196L303.795 66.621C300.591 67.0058 299.372 67.0069 298.99 66.6249ZM25.6269 65.5245L25.3147 65.0195L25.61 64.5415L25.9053 64.0635H27.1066H28.3079L28.1485 64.8996L27.9891 65.7357L26.9641 65.8825L25.9391 66.0292L25.6269 65.5245ZM269.147 63.5861L268.55 62.6306H269.176C269.867 62.6306 270.947 63.5625 270.947 64.1594C270.947 64.9109 269.733 64.5239 269.147 63.5861ZM290.864 63.1527L291.102 62.2414L292.112 61.9773C292.668 61.8323 293.22 61.8108 293.339 61.9321C293.676 62.269 291.895 64.0661 291.224 64.0661H290.626L290.864 63.1527ZM471.454 63.7455C470.904 63.1959 471.105 62.6308 471.852 62.6308H472.569V63.3474C472.569 64.0935 472.003 64.2956 471.454 63.7455ZM25.6011 61.6609L25.2632 61.1141L25.7442 60.6334L26.2252 60.1525L27.112 60.3236L27.9989 60.4945V61.2046V61.9147L26.969 62.0615L25.939 62.2082L25.6011 61.6609ZM145.173 61.359C145.502 61.2264 146.039 61.2264 146.368 61.359L146.965 61.6H145.77H144.576L145.173 61.359ZM461.46 31.2572C460.337 30.9491 460.399 30.1118 461.568 29.8062L462.512 29.5596L462.768 28.0595C462.91 27.2344 463.076 25.8068 463.139 24.8871L463.252 23.2149L462.177 23.329L461.102 23.443V22.9955C461.102 22.3417 463.269 20.1098 463.904 20.1098H464.446L464.503 20.9459C464.531 21.4058 464.587 23.6095 464.623 25.8431C464.657 28.0767 464.795 30.2266 464.926 30.6208L465.164 31.3375L463.731 31.412C462.942 31.4515 461.92 31.3836 461.46 31.2572ZM472.582 31.1167L471.879 30.672L472.582 30.4451C472.968 30.3204 473.569 30.1421 473.917 30.0496L474.549 29.8809L474.678 27.1267L474.806 24.3726L474.285 24.0504C473.998 23.8732 473.172 23.7903 472.449 23.8659L471.135 24.0036V23.4793V22.9551L472.33 22.4111L473.524 21.8671V21.0165C473.524 19.7586 474.114 19.6131 475.304 20.5774L476.363 21.4347L476.278 26.5055L476.194 31.5762L474.74 31.5705C473.94 31.5665 472.969 31.361 472.582 31.1167ZM277.838 30.6601C277.385 30.2127 277.692 29.7617 278.613 29.5207L279.591 29.265L279.292 26.7176C279.127 25.3166 278.9 23.8773 278.787 23.5192L278.581 22.8682L277.87 23.4583L277.158 24.0484L277.174 23.1538L277.189 22.2591L278.345 20.9453C278.981 20.2227 279.714 19.6314 279.973 19.6314H280.444L280.421 23.8636C280.408 26.1912 280.544 28.7638 280.723 29.5803L281.049 31.0649L279.544 30.9622C278.716 30.9058 277.949 30.7696 277.838 30.6601ZM345.564 29.9923L344.525 28.8865V24.9309V20.9754L345.48 20.7254C346.006 20.5883 346.436 20.2858 346.436 20.0535V19.6314H348.086C348.993 19.6314 350.263 19.8718 350.907 20.1652L352.079 20.699L352.284 21.7708C352.397 22.3602 352.448 24.1831 352.398 25.8217L352.308 28.801L350.925 29.9321L349.541 31.0633L348.072 31.0802L346.602 31.0971L345.564 29.9923ZM350.561 28.6558L351.109 28.2015L351.042 25.0092L350.975 21.8169L349.177 21.392L347.38 20.9671L346.669 21.2397L345.958 21.5122V24.6327V27.7532H345.461H344.965L345.581 28.4197C345.92 28.7865 346.343 28.9978 346.522 28.8898C346.701 28.7814 346.993 28.9293 347.172 29.2176L347.496 29.7419L348.755 29.4259C349.447 29.2521 350.26 28.9059 350.561 28.6558ZM429.088 30.7671L427.891 30.5792L427.131 28.5691L426.371 26.5591L426.491 24.2335L426.61 21.9079L427.326 21.1918L428.042 20.4757L430.016 20.1146L431.989 19.7534L432.537 20.7672L433.085 21.781L433.189 25.1254L433.293 28.4698L432.058 29.7836C431.379 30.5062 430.702 31.0653 430.554 31.0259C430.406 30.9864 429.747 30.8704 429.088 30.7671ZM430.84 28.482L431.847 27.7771L432.17 26.0531L432.494 24.3292L432.196 22.9758L431.899 21.6225L431.173 21.3443L430.448 21.0661L429.329 21.3471L428.21 21.6281L428.053 24.9408C427.967 26.7627 427.968 28.4636 428.055 28.7206C428.29 29.4085 429.689 29.288 430.84 28.482ZM439.244 30.7609L438.169 30.5538V29.8704C438.169 29.4946 437.989 29.187 437.768 29.187H437.368L437.306 27.5335L437.244 25.8802L437.661 25.6223L438.079 25.3644L437.82 24.2898L437.561 23.2154L438.199 23.8126L438.838 24.4097H440.622C441.603 24.4097 442.968 24.623 443.654 24.8837L444.901 25.3578L445.564 26.9141L446.227 28.4705L445.602 29.4261L444.977 30.3816L444.234 30.3873C443.826 30.3907 443.333 30.5521 443.139 30.7457C442.774 31.1113 441.099 31.1164 439.244 30.7609ZM444.192 28.4377L444.47 27.3302L444.186 26.8709L443.902 26.4116L441.549 26.3946L439.195 26.3777L438.696 26.9798L438.196 27.582L438.847 28.505L439.498 29.4279L441.706 29.4877L443.914 29.5476L444.192 28.4377ZM494.639 30.0538L493.06 28.9481L493.215 25.4925L493.369 22.0368L494.077 21.3562L494.785 20.6755L497.718 20.4548L500.651 20.2342L501.421 21.133C502.471 22.3591 502.406 22.4986 500.785 22.4986H499.38L499.111 22.0624L498.841 21.6262L497.29 21.7555C496.438 21.8266 495.611 21.9151 495.454 21.9524C495.297 21.9919 495.125 23.4906 495.073 25.2873L494.977 28.5541L495.597 29.0208C495.939 29.2775 497.024 29.5439 498.01 29.6129L499.803 29.7387L500.11 28.9371L500.418 28.1356L499.955 27.8252C499.701 27.6548 499.354 27.1389 499.184 26.679L498.875 25.8429H499.267C499.482 25.8429 500.335 26.0788 501.163 26.3677L502.668 26.8925V28.4898C502.668 29.3683 502.499 30.1913 502.292 30.3187C502.086 30.4463 500.635 30.6878 499.067 30.8554L496.217 31.1607L494.639 30.0538ZM504.86 30.6873C504.506 30.1154 504.854 24.1718 505.279 23.4809L505.592 22.9758H505.085H504.579V21.6192V20.2626L505.672 19.7648L506.765 19.2666L509.602 19.7112L512.439 20.1559L513.287 20.9231L514.135 21.6902V22.7869V23.8835L513.537 24.2655C513.209 24.4754 512.528 25.134 512.025 25.7285L511.109 26.8094L512.622 28.16L514.135 29.5106V30.304V31.0975H513.68C513.43 31.0975 512.516 30.3779 511.649 29.4984C510.783 28.6189 509.471 27.5119 508.735 27.0385L507.397 26.1777L506.975 26.6072C506.743 26.8431 506.486 27.88 506.403 28.9107L506.251 30.7849L505.698 30.9666L505.144 31.1483L504.86 30.6873ZM510.872 24.5741L511.746 23.7834V22.9236V22.0637L509.996 21.7353L508.246 21.4068L507.487 21.8882L506.729 22.3695L506.718 23.509C506.707 25.1871 506.876 25.365 508.51 25.365H509.997L510.872 24.5741ZM519.354 30.7018C518.979 30.585 518.261 30.0587 517.757 29.5323L516.84 28.5754L516.719 25.4174C516.653 23.6804 516.703 21.8832 516.832 21.4235L517.065 20.5878L517.942 21.0568L518.818 21.5257L518.571 20.5784L518.323 19.6312H521.162H524.001L525.083 20.783L526.165 21.9347L526.241 25.0484L526.318 28.1621L524.965 29.5773L523.612 30.9926L521.822 30.9531C520.838 30.9305 519.727 30.8186 519.354 30.7018ZM523.656 27.9282L524.646 26.6693V25.6926C524.646 25.1554 524.388 24.002 524.072 23.1293L523.498 21.5426L522.997 21.4918C522.721 21.4636 521.851 21.4805 521.063 21.5313L519.629 21.6199L518.986 22.2425L518.342 22.8651L518.359 25.3009L518.376 27.7366L519.001 28.4443L519.625 29.152L521.144 29.1689L522.662 29.1859L523.656 27.9282ZM530.618 30.3487C529.83 29.9395 529.001 29.4242 528.777 29.2032L528.369 28.8014L528.864 27.9193L529.359 27.0371L529.681 27.8732L530.003 28.7093H530.669H531.334V29.1873V29.6652H532.745C534.191 29.6652 536.59 28.7894 536.59 28.2615C536.59 28.0996 536.276 27.5177 535.891 26.9688L535.192 25.9708L532.869 25.6627L530.547 25.3546L529.753 24.7627L528.958 24.1708L528.675 22.7273L528.392 21.2838L530.35 20.1831L532.308 19.0824L533.852 19.4102C535.414 19.742 537.067 20.8769 537.067 21.617V22.0205H536.14C535.63 22.0205 535.08 21.8054 534.917 21.5425L534.622 21.0646L533.098 21.0702C532.259 21.0743 531.275 21.266 530.911 21.4968L530.249 21.9161L530.553 23.1269L530.858 24.3378L532.312 24.1538L533.766 23.9699L534.975 24.4298C536.517 25.0159 537.548 26.0488 537.777 27.2347L537.956 28.1669L536.789 29.3346L535.621 30.5022L534.135 30.7996C532.176 31.1913 532.267 31.2041 530.618 30.3487ZM242.794 28.3995L240.706 26.2536L240.307 26.8842C240.087 27.2312 239.903 27.9858 239.899 28.5616C239.895 29.1374 239.695 29.7299 239.455 29.8784L239.018 30.1487L238.858 29.6787C238.77 29.4202 238.805 27.1076 238.937 24.5397L239.175 19.8707L241.803 20.036L244.431 20.2013L245.29 20.9669L246.15 21.7325L246.007 23.3807L245.864 25.029L245.148 25.4014C244.754 25.6063 244.008 25.9081 243.49 26.0722L242.549 26.3707L244.087 27.5746L245.625 28.7784V29.4322C245.625 29.7916 245.458 30.1893 245.254 30.3156L244.883 30.5452L242.794 28.3995ZM243.914 24.5971L244.67 24.307V23.2148V22.1226L243.914 21.8325C243.498 21.6728 242.531 21.5425 241.764 21.5425H240.37V22.341C240.37 23.3106 241.723 24.8869 242.555 24.8869C242.887 24.8869 243.498 24.7568 243.914 24.5971ZM256.614 29.5634V28.5065L258.625 26.4579C259.731 25.3311 260.888 24.4093 261.198 24.4093C261.507 24.4093 262.1 23.8901 262.515 23.256L263.271 22.1027L261.798 21.5892L260.326 21.0757L258.963 21.8811L257.599 22.6865L257.253 22.34L256.906 21.9935L257.837 21.0628L258.768 20.1322L260.207 19.8444L261.646 19.5566L262.952 20.5842L264.259 21.6118V22.6573V23.7029L262.746 24.8921C260.9 26.3442 259.003 28.2621 259.003 28.6771C259.003 28.8458 259.487 29.0196 260.078 29.0636C260.669 29.1088 261.637 29.2651 262.228 29.4135L263.303 29.6827V30.1516V30.6205H259.959H256.614V29.5634ZM266.286 30.0233L266.482 29.4261L267.933 29.281L269.384 29.136L270.687 27.7757L271.991 26.4154L270.394 26.0695C269.516 25.8793 268.206 25.3057 267.484 24.7949L266.17 23.8663V23.135V22.4036L267.619 21.0499L269.068 19.6962L270.605 19.7244L272.142 19.7526L272.978 20.4821L273.814 21.2117V24.0323V26.8529L272.301 28.736L270.787 30.619H268.439H266.09L266.286 30.0233ZM272.292 22.8568L272.142 21.304L270.287 21.1522L268.433 21.0004L267.957 21.4755L267.482 21.9507L267.79 23.1801L268.099 24.4095H270.27H272.441L272.292 22.8568ZM294.922 30.2059L294.291 29.8059L296.741 29.5158L299.191 29.2258L300.075 28.1338C301.184 26.7638 300.979 26.4369 298.761 26.0396L296.986 25.7219L296.15 24.9917L295.314 24.2615V23.2244V22.1873L296.42 21.1485L297.526 20.1097H299.195H300.865L301.72 20.7352L302.576 21.3608L302.748 24.2924L302.92 27.2241L302.008 27.5136L301.096 27.8031L300.792 28.7616L300.488 29.7201L299.303 30.1704C297.846 30.7245 295.766 30.7432 294.922 30.2059ZM301.525 23.4778V22.6465L300.613 21.821L299.701 20.9956L298.282 21.7293C297.502 22.1328 296.738 22.7878 296.586 23.1848L296.309 23.9065L296.996 24.2907L297.683 24.675L299.604 24.4916L301.525 24.3082V23.4778ZM305.445 29.5456C305.148 28.9543 304.803 27.4405 304.68 26.1815L304.455 23.8925L304.925 22.5446L305.395 21.1968L306.588 20.6534C307.244 20.3543 308.285 20.11 308.902 20.11H310.023L310.37 20.9461C310.561 21.406 310.783 23.1739 310.863 24.8748L311.009 27.9674L310.225 29.2942L309.441 30.621H307.714H305.986L305.445 29.5456ZM309.386 28.59C309.515 27.9987 309.697 26.3739 309.79 24.9792L309.96 22.4434L309.047 21.9554L308.134 21.4672L307.276 22.2441L306.417 23.021L306.18 25.746L305.943 28.4711L306.42 29.0682L306.898 29.6655H308.024H309.151L309.386 28.59ZM315.067 29.4223C314.432 28.0521 314.541 27.9884 315.995 28.8829L317.053 29.5339L319.083 29.3105L321.114 29.087V28.1984V27.3099L320.278 26.8314C319.818 26.5684 319.128 26.1437 318.744 25.8882L318.046 25.4238L318.807 24.5586C319.225 24.0829 319.715 23.2096 319.895 22.6183L320.223 21.5433L318.399 21.4869C317.396 21.453 316.434 21.4474 316.262 21.4699C316.091 21.4925 315.688 21.1957 315.368 20.8099L314.786 20.1084H318.428H322.069V21.3847V22.661L321.33 23.4774L320.592 24.2938L321.633 26.2914L322.674 28.2889L322.143 29.4542L321.612 30.6195L318.616 30.6157L315.619 30.612L315.067 29.4223ZM325.13 29.4251L324.347 28.2297L324.548 25.0786L324.748 21.9274L325.917 21.0291L327.086 20.1308L328.383 20.1195L329.68 20.1082L330.109 20.9444C330.701 22.0984 331.122 26.2764 330.809 27.8904L330.551 29.2226L329.201 29.9209C328.458 30.3052 327.414 30.6192 326.882 30.6192H325.914L325.13 29.4251ZM328.754 28.4755L329.345 27.7638L329.512 25.6405L329.679 23.5174L328.86 22.5082L328.042 21.4991L327.216 22.1182L326.39 22.7373L326.091 25.2491L325.792 27.7609L326.066 28.4741L326.339 29.1872H327.251H328.163L328.754 28.4755ZM335.348 30.0994L334.531 29.6395V24.6355V19.6315H337.617H340.703L341.658 20.587C342.721 21.6494 342.853 22.5915 342.13 23.9423L341.647 24.8459L339.861 25.1472C338.878 25.3131 337.709 25.5478 337.263 25.6703L336.451 25.892L336.307 28.2257L336.164 30.5592L335.348 30.0994ZM340.897 22.9592L341.331 22.5388L340.785 21.8805L340.238 21.2222L338.32 21.1471L336.403 21.0721V22.1834C336.403 22.7947 336.56 23.4526 336.753 23.6455L337.104 23.9965L338.784 23.6884C339.708 23.5191 340.659 23.1907 340.897 22.9592ZM354.47 30.3038C354.363 30.0838 354.358 27.5927 354.46 24.7678L354.645 19.6318H355.028C355.238 19.6318 355.537 20.1154 355.692 20.7068C356.01 21.9219 360.152 27.2761 360.774 27.2761H361.178L361.139 23.6847L361.099 20.0932L361.436 19.7569L361.772 19.4206L362.208 20.1234L362.643 20.8262L362.586 24.4095L362.529 27.9927L362.063 29.0359L361.596 30.079L359.975 28.3192C359.084 27.3514 357.907 26.0757 357.359 25.4845C356.256 24.2923 355.724 24.1526 355.245 24.9292L354.924 25.4483L355.416 25.941L355.909 26.4336L355.647 28.1689C355.503 29.1233 355.222 30.0842 355.023 30.3041L354.662 30.7042L354.47 30.3038ZM364.496 30.0234C364.388 29.695 364.33 28.5661 364.369 27.5151C364.409 26.464 364.474 24.2603 364.515 22.6179L364.591 19.6319H367.161H369.73L370.325 20.3485C370.652 20.743 371.206 21.0652 371.556 21.0652H372.193L372.443 22.6179C372.751 24.5274 372.84 25.7618 372.769 27.1374L372.712 28.193L371.403 29.4068L370.094 30.6206H367.393H364.692L364.496 30.0234ZM370.089 28.1734C370.825 27.4146 370.937 26.8231 370.859 24.1279L370.803 22.1741L369.586 21.6194C368.083 20.9348 366.657 20.9061 366.258 21.5522C366.092 21.8203 365.956 23.2032 365.956 24.6254V27.2112L366.463 28.1576L366.97 29.104L368.211 28.9681C368.894 28.893 369.739 28.5353 370.089 28.1734ZM374.983 29.4407L374.147 28.2909V23.7225V19.1541H374.812C375.761 19.1541 375.921 19.8448 376.015 24.3685C376.06 26.5796 376.21 28.5683 376.345 28.7879L376.592 29.1875H378.662H380.733L381.063 28.3513C381.245 27.8914 381.372 25.634 381.346 23.3347L381.301 19.1542H381.735C382.476 19.1542 382.749 20.5287 382.749 24.2557V27.8456L381.929 29.2331L381.109 30.6208L378.465 30.6038L375.821 30.5869L374.983 29.4407ZM230.299 28.8281C230.214 25.8479 230.398 21.2472 230.634 20.4537L230.887 19.6043L233.734 19.6895L236.58 19.7747L236.815 20.1544L237.05 20.5342L235.246 21.0353C234.254 21.3107 233.066 21.5375 232.606 21.5387L231.77 21.5413V22.4013C231.77 23.516 232.68 24.4079 233.816 24.4079H234.716L234.517 25.0052C234.408 25.3336 233.906 25.6793 233.402 25.7733C232.899 25.8669 232.218 26.1621 231.889 26.429L231.292 26.9137V28.5275V30.1411H230.814H230.336L230.299 28.8281ZM290.058 29.4995C290.058 28.5409 288.588 27.4245 286.833 27.0517L285.281 26.7216V25.9009V25.0802L288.198 22.3268C289.803 20.8125 291.214 19.6723 291.335 19.793C291.456 19.9137 291.602 21.3139 291.66 22.9045C291.717 24.495 291.918 25.95 292.106 26.1377C292.294 26.3256 292.447 26.8732 292.447 27.355V28.2309H292.002C291.757 28.2309 291.42 28.6609 291.253 29.1864C290.912 30.2619 290.058 30.4853 290.058 29.4995ZM290.132 24.6476C290.042 24.1223 289.88 23.6022 289.773 23.4923C289.436 23.1453 287.192 24.5456 287.192 25.1029V25.6356L288.745 25.6187L290.297 25.6017L290.132 24.6476ZM395.579 29.3433L395.084 28.7477L395.246 24.0699L395.408 19.3921H396.093H396.779L396.622 22.2588C396.537 23.8354 396.443 25.8779 396.415 26.7976L396.364 28.4698L399.111 28.6132L401.858 28.7565V29.4619V30.1673L398.966 30.0534L396.073 29.9394L395.579 29.3433ZM408.547 29.7061L405.919 29.4256V24.4678V19.5099L406.397 19.3345C406.66 19.238 408.252 19.1042 409.935 19.0371L412.996 18.9146L413.167 19.4135L413.338 19.9123L410.634 19.9755L407.93 20.0387L407.519 20.6709C407.293 21.0185 407.163 21.7332 407.23 22.2588L407.352 23.2143L409.383 23.3611L411.413 23.5078V23.9581C411.413 24.2058 411.252 24.4242 411.055 24.444C410.174 24.5314 408.255 24.9168 407.711 25.1156L407.113 25.334V26.5435C407.113 27.2086 407.275 27.7614 407.472 27.7718C410.245 27.9186 413.009 28.234 413.201 28.4254C413.334 28.5586 413.315 28.999 413.161 29.4045L412.878 30.1417L412.027 30.0639C411.56 30.0187 409.992 29.8602 408.547 29.7061ZM124.421 28.8909C124.308 28.5969 124.282 27.1994 124.363 25.7854L124.509 23.2146L124.987 23.3461L125.465 23.4776L125.51 25.2569C125.534 26.2356 125.588 27.305 125.629 27.6335L125.704 28.2307H127.854H130.004V28.6641V29.0975L127.315 29.2612L124.626 29.4248L124.421 28.8909ZM151.42 28.5518L150.95 27.6739L150.114 28.4302L149.278 29.1865H147.62H145.962L145.388 28.6132L144.815 28.0399V26.2984V24.5569L145.689 23.7662L146.562 22.9755H147.986H149.41L150.337 23.6718L151.265 24.3681L148.757 24.0831L146.248 23.7982V26.0147V28.2313H147.371C147.989 28.2313 149.16 27.9993 149.973 27.7155L151.452 27.1997L151.598 25.207L151.743 23.2143L154.079 23.0659L156.415 22.9175L156.934 23.4366C157.219 23.7222 157.479 24.5413 157.51 25.2571C157.542 25.973 157.601 26.9477 157.641 27.423L157.715 28.2873L158.193 27.9922L158.67 27.6971V26.1271V24.5572L159.544 23.7664L160.418 22.9757H161.62H162.822L163.623 23.8602L164.423 24.7446L164.294 26.9166L164.165 29.0887L162.265 29.3455L160.366 29.6022L159.763 29.1023L159.161 28.6023L157.841 28.9589C157.115 29.1553 155.479 29.3415 154.205 29.3725L151.89 29.4301L151.42 28.5518ZM156.043 26.081V24.1699H154.609H153.176L153.027 26.2328L152.879 28.2958L154.461 28.144L156.043 27.9922V26.081ZM161.537 27.5701V26.9092L162.493 26.6591L163.448 26.4092V25.17V23.9309H162.293C161.657 23.9309 160.797 24.0613 160.382 24.221L159.626 24.511V26.0524C159.626 27.7298 159.919 28.231 160.9 28.231H161.537V27.5701ZM166.434 29.1717L165.359 28.7394V26.0963V23.4531H165.837H166.315V25.5446V27.6361L167.025 28.2257L167.736 28.8153L168.971 28.5049L170.207 28.1946L170.071 25.9768L169.934 23.759L170.513 23.5661L171.093 23.3731V26.0238V28.6746L170.168 29.1689C169.067 29.7583 167.897 29.7596 166.434 29.1717ZM173.78 29.2834C173.65 29.074 173.742 28.59 173.983 28.2084C174.225 27.8269 174.426 26.7083 174.43 25.7229L174.437 23.9313H173.959C173.696 23.9313 173.481 23.718 173.481 23.4573V22.9833L175.034 23.1858C175.888 23.297 176.656 23.4031 176.74 23.4206C176.825 23.4375 176.556 23.7908 176.143 24.2036L175.392 24.9544V26.5413V28.1283L176.229 28.4697L177.065 28.8111L176.109 29.2039C174.846 29.723 174.068 29.75 173.78 29.2834ZM178.919 28.9708C178.787 28.6288 178.746 27.3177 178.828 26.0577L178.976 23.7669L179.573 23.5705L180.17 23.3742V26.0417V28.7093H182.747H185.324L185.614 27.9536C185.773 27.5377 185.904 26.3554 185.904 25.3258V23.4532H186.356H186.809L186.953 25.9615L187.098 28.4698L189.487 28.7159L191.876 28.9619L190.92 29.2785C190.395 29.4528 187.533 29.5945 184.561 29.5939L179.157 29.5924L178.919 28.9708ZM192.773 29.0926L192.42 28.5207L192.548 26.109L192.676 23.6973L193.231 23.3441C193.537 23.1494 194.808 22.9874 196.056 22.9835L198.326 22.9779V23.4558V23.9338H196.692C195.794 23.9338 194.719 24.0641 194.304 24.2238L193.548 24.5139V25.1794V25.8449H195.22H196.892V26.3229V26.8008L195.817 26.8065C195.226 26.8106 194.446 27.0017 194.084 27.2308L193.425 27.6479L193.754 28.1789L194.082 28.7099H196.232H198.382L198.087 29.1878L197.791 29.6658H195.459H193.126L192.773 29.0926ZM447.724 28.9866V28.3085L451.169 25.1643L454.614 22.0201H455.798H456.982L455.936 22.9943C455.361 23.5298 454.891 24.2109 454.891 24.5072V25.0461L454.588 24.7431L454.285 24.4401L451.31 27.0521C448.145 29.8306 447.724 30.0581 447.724 28.9866ZM10.0823 27.2894V25.2009L9.29974 24.3362L8.51717 23.4715L9.65807 23.0471L10.799 22.6233L10.943 25.4982L11.0871 28.373L10.5847 28.8753L10.0823 29.3775V27.2894ZM19.0243 28.2412L18.7717 27.2756H17.5911H16.4104L15.8156 27.9923C15.4885 28.3867 15.0322 28.7089 14.8016 28.7089H14.3823V26.8403V24.9717L15.8523 23.7348C17.6418 22.229 17.7861 22.2216 19.0177 23.5728L19.9975 24.6478L20.3047 26.3733L20.6118 28.0988L19.9443 28.653L19.2767 29.2071L19.0243 28.2412ZM18.6325 25.8832L19.2993 25.4611L19.0058 24.6962L18.7123 23.9313H17.8003H16.8882L16.3108 24.6271L15.7334 25.3228L16.0416 25.8216C16.4161 26.4275 17.724 26.4587 18.6325 25.8832ZM22.1184 28.4327L21.0419 27.6787L21.3559 25.9244L21.6699 24.1701L22.4001 23.334L23.1303 22.4979H24.67H26.2097L26.814 23.2261L27.4184 23.9543L27.1034 24.2692L26.7885 24.5841L26.2231 24.0187C25.4931 23.2886 23.8116 23.2929 23.0778 24.0243L22.5044 24.5977V26.2409V27.8841L25.0128 27.5997L27.5211 27.3153L26.3932 28.2496L25.2652 29.1839H24.23C23.6607 29.1839 22.7104 28.8476 22.1184 28.4327ZM36.3599 28.8045C36.3599 28.5941 36.5885 28.1938 36.8678 27.9144L37.3757 27.4066L37.4152 26.0249C37.4366 25.2651 37.3013 24.1606 37.114 23.5706L36.7736 22.4979H38.2391H39.7046V22.9477C39.7046 23.1949 39.4896 23.5301 39.2268 23.6925L38.749 23.9877V25.8308V27.6738L39.3114 27.8612L39.8738 28.0485L39.5221 28.6175L39.1705 29.1865H37.7653H36.3602L36.3599 28.8045ZM42.0933 26.1094V22.9757H42.3968C42.5637 22.9757 43.2124 23.5281 43.8383 24.2036L44.9763 25.4315L45.8042 25.2735L46.6321 25.1155L46.7848 24.0454L46.9374 22.9752H47.672H48.4066L48.1166 23.731C47.9571 24.1469 47.8265 25.5442 47.8265 26.8365V29.1865H47.4372C47.2232 29.1865 46.6891 28.434 46.2505 27.5143L45.4531 25.8421H44.4779H43.5027L43.214 27.2853C43.0553 28.0791 42.7381 28.8443 42.5093 28.9858L42.0932 29.2431L42.0933 26.1094ZM49.7281 28.4585L49.1237 27.7304L49.4191 27.4347L49.7145 27.139L50.4164 27.7215L51.1183 28.3041L52.2148 28.1478L53.3112 27.9915L53.4705 27.1554L53.6299 26.3193H52.0034H50.3769L49.7346 25.1193L49.0924 23.9193L50.0123 23.2234L50.9321 22.5275L52.1504 22.5106L53.3687 22.4936L53.942 23.0669C54.2574 23.3824 54.5154 23.8553 54.5154 24.118V24.596L53.942 24.0227C53.6267 23.7072 52.9005 23.4493 52.3283 23.4493H51.2879L50.7558 24.0905L50.2237 24.7317L50.5381 25.046C50.711 25.2187 51.4078 25.3671 52.0867 25.3755L53.3209 25.3925L54.157 26.0272C55.2213 26.8351 55.2123 27.4046 54.1192 28.3936L53.2457 29.1865H51.7891H50.3324L49.7281 28.4585ZM56.7848 28.6905L55.9487 28.1837V26.0846V23.9855L57.0106 23.2417L58.0724 22.4979L59.28 22.5149L60.4876 22.5318L61.4431 23.2788L62.3987 24.0258L60.4333 23.7103L58.4678 23.3949L57.6861 24.1767L56.9043 24.9584V26.3065V27.6545L57.6251 27.931L58.3459 28.2075L59.5673 27.7431C60.2391 27.4875 61.0358 27.2787 61.3377 27.2787H61.8868L61.1808 27.9847C60.7925 28.3729 59.8327 28.8053 59.0479 28.9454L57.6209 29.1999L56.7848 28.6905ZM71.1241 28.9139C70.9741 28.7638 71.1518 28.0652 71.5193 27.3612C71.8866 26.6571 72.1885 25.61 72.1901 25.0343L72.1931 23.9875L71.7153 23.6924C71.4525 23.5298 71.2375 23.1947 71.2375 22.9475V22.4978H72.6708H74.1041V22.9475C74.1041 23.1947 73.8891 23.53 73.6263 23.6924L73.1485 23.9875V25.8306V27.6736L73.7109 27.861L74.2733 28.0484L73.9216 28.6173L73.5699 29.1864H72.4833C71.8857 29.1864 71.2741 29.064 71.1241 28.9139ZM78.8086 26.5389L78.9742 23.8658L77.9725 23.6039C77.4216 23.46 76.9708 23.1519 76.9708 22.92V22.4979H79.5704H82.17L82.4653 22.9758L82.7606 23.4538H81.805H80.8495L80.4851 24.0432C80.2848 24.3677 80.1108 25.5998 80.0986 26.7819L80.0766 28.9312L79.3599 29.0717L78.6433 29.2122L78.8086 26.5389ZM83.4305 28.7245L83.1449 28.2623L83.4727 25.7384L83.8006 23.2145L84.3273 22.8635C84.6171 22.6705 85.7679 22.5091 86.8847 22.5051L88.9152 22.4995V22.9498V23.4001L86.8847 23.5468L84.8542 23.6936V24.4102V25.1269L86.5264 25.4033L88.1986 25.6799L87.4819 25.9728C87.0877 26.1336 86.3377 26.3344 85.8152 26.4185L84.8651 26.5715L84.7051 27.4021L84.5452 28.2327H86.7584H88.9716L88.6763 28.7106L88.381 29.1886H86.0485H83.716L83.4305 28.7245ZM97.7889 28.4598L96.8682 27.7633L97.1924 27.4388L97.5166 27.1149L98.7414 27.7704L99.9663 28.4259L100.771 27.918C101.885 27.2153 101.607 26.5885 100.098 26.4018L98.8279 26.245L97.8132 25.2918L96.7985 24.3385L97.9264 23.4182L99.0544 22.4979H100.105C100.682 22.4979 101.572 22.8088 102.082 23.1889L103.01 23.88L100.877 23.7863L98.745 23.6927L98.5728 24.5288L98.4007 25.3649H99.6077C100.271 25.3649 101.378 25.6216 102.066 25.9349L103.317 26.505L103.753 25.8155C103.993 25.4363 104.193 24.6423 104.197 24.051L104.204 22.976H104.682H105.16V25.3367V27.6974L105.665 28.0094L106.169 28.3214L107.337 28.0286L108.504 27.7357V25.3162V22.8966L109.101 23.093L109.699 23.2893L109.937 25.1631L110.176 27.0368L110.568 26.4316L110.959 25.8264L110.807 24.5205L110.654 23.2147L112.483 22.7632L114.312 22.3112L115.079 22.7948C115.501 23.0606 116.075 23.6494 116.355 24.1028L116.865 24.927L115.671 25.869L114.476 26.811L115.531 27.7007L116.586 28.5904L116.29 28.8861L115.994 29.1818L114.431 27.9896C112.489 26.5089 112.411 26.5111 111.821 28.0624L111.34 29.3275L110.709 28.464L110.078 27.6004L108.946 28.3933L107.814 29.1862H106.577H105.34L104.259 28.1798L103.179 27.1734L102.108 28.1798L101.037 29.1862L99.8732 29.1692L98.7095 29.1523L97.7889 28.4598ZM115.104 24.2896L115.263 23.4535H114.092H112.921L112.389 24.0946L111.857 24.7359L112.193 25.0722C112.378 25.2573 113.073 25.3447 113.738 25.2669L114.946 25.1252L115.104 24.2896ZM131.437 27.0715V24.9562L132.696 23.9659C134.324 22.6854 134.863 22.7181 136.129 24.1736L137.17 25.3717V27.2791V29.1866H136.725C136.48 29.1866 136.143 28.7566 135.976 28.2311L135.673 27.2755H134.515H133.356L132.76 28.2311C132.431 28.7564 132 29.1866 131.8 29.1866H131.437L131.437 27.0715ZM136.021 25.7699L136.361 25.2197L135.48 24.5755C134.995 24.2211 134.44 23.9313 134.247 23.9313C133.744 23.9313 132.393 25.349 132.393 25.8765V26.3201H134.037H135.681L136.021 25.7699ZM62.8746 26.1017C62.9621 24.6677 63.1723 23.2702 63.3416 22.9962L63.6495 22.4979H65.2545C66.1372 22.4979 67.1995 22.6283 67.6151 22.788L68.3709 23.078V24.1702V25.2624L67.6542 25.5372L66.9375 25.812V26.52V27.2279L67.7697 27.6934L68.6018 28.159L68.2604 28.5003L67.9191 28.8417L66.2928 27.6014L64.6666 26.3609L64.3688 26.6589C64.205 26.8225 64.0709 27.3509 64.0709 27.8326V28.7085H63.3932H62.7155L62.8746 26.1017ZM66.6596 25.0747L67.4153 24.7846V24.1191V23.4535H66.0102H64.6051L64.2767 23.9846L63.9485 24.5156L64.6069 24.9326C65.3977 25.4337 65.6739 25.4528 66.6596 25.0747ZM444.293 22.8564L444.141 21.7814L441.821 21.6335L439.501 21.4857L438.596 22.3046L437.691 23.1236V22.5717C437.691 22.2682 437.899 22.0199 438.154 22.0199H438.617L438.354 21.3363L438.092 20.6527L439.743 20.1967L441.394 19.7407L442.768 19.9823L444.141 20.2238L445.258 21.3847L446.374 22.5457L446.109 23.2381L445.843 23.9306H445.144H444.446L444.293 22.8564ZM171.32 21.0467C171.152 20.7741 171.062 19.7528 171.12 18.7773C171.178 17.8018 171.196 15.5608 171.159 13.7973L171.093 10.591L170.119 9.68367L169.145 8.77642L170.386 7.96329L171.627 7.15011L172.361 7.29912L173.095 7.44808L173.13 13.9335L173.164 20.4189L172.817 20.9803C172.388 21.6747 171.727 21.7042 171.32 21.0467ZM183.55 21.194C182.912 21.0738 181.891 20.6483 181.28 20.2485L180.17 19.5213V17.6586V15.796L180.763 14.8469L181.356 13.8979L180.763 12.9488L180.17 11.9998V10.571V9.14215L181.255 8.43162L182.339 7.72103L185.074 7.39939L187.809 7.07774L189.677 8.314L191.545 9.55021L191.44 11.0581L191.336 12.5659L190.531 13.0168L189.726 13.4671V14.1433V14.8194L190.658 15.3182L191.59 15.817L191.439 17.6043L191.287 19.3916L189.719 20.4666L188.151 21.5415L186.43 21.4767C185.484 21.4428 184.187 21.3142 183.55 21.194ZM188.186 18.8874L189.248 18.1437V17.3108C189.248 16.8526 188.99 16.2199 188.675 15.9045L188.101 15.3312H186.153H184.205L183.143 16.0749L182.081 16.8187V17.4812V18.1437L183.143 18.8874L184.205 19.6312H185.665H187.124L188.186 18.8874ZM188.186 12.6764C189.454 11.7886 189.517 11.1646 188.457 9.99386L187.666 9.12003H186.283H184.9L183.491 9.84895L182.081 10.5779V11.4974V12.4169L182.917 12.904C183.377 13.172 184.512 13.3977 185.439 13.4056L187.124 13.4225L188.186 12.6764ZM5.18392 20.7029L1.95772 20.5427L2.19629 14.0715C2.32749 10.5124 2.55576 7.40469 2.7035 7.16566L2.9721 6.73113H6.74947H10.5269L12.2157 8.21394L13.9045 9.69676V13.1915C13.9045 17.4092 13.7621 17.829 11.8325 19.2983C9.93705 20.7415 9.18221 20.9012 5.18392 20.7029ZM10.0574 18.314L11.094 17.4747L11.3729 13.7868L11.6519 10.0988L11.0475 9.37059L10.4431 8.64236H7.69465H4.94622L4.64761 10.1355C4.4834 10.9566 4.34897 13.0958 4.34897 14.8894V18.1503L5.18508 18.6373C5.64493 18.9054 6.69612 19.1311 7.52104 19.139L9.02087 19.1559L10.0574 18.314ZM20.8486 20.6132L20.537 20.1087L20.8323 19.6307C20.9947 19.3677 21.5607 19.1528 22.09 19.1528H23.0524L22.8924 19.9833L22.7324 20.814L21.9463 20.9652L21.1603 21.1164L20.8486 20.6132ZM31.8504 19.3403L29.6336 17.6477L29.7718 13.7929L29.91 9.93811L31.709 8.4841L33.508 7.03013L36.2479 6.8676L38.9878 6.70508L40.3706 7.86595L41.7534 9.02686L41.4606 9.79005L41.1677 10.5532H40.4528H39.738L39.2266 9.59765L38.7152 8.6421H36.3961H34.0769L33.0764 9.47822L32.0759 10.3143L31.9485 13.8202L31.8211 17.3261L32.949 18.2396L34.0769 19.1531H36.0999H38.123L38.9877 18.1976C39.4634 17.6722 40.1574 17.242 40.5301 17.242H41.2078L41.0533 18.0275C40.9684 18.4592 40.3614 19.1905 39.7044 19.6521L38.51 20.4913L36.2887 20.7622L34.0673 21.033L31.8504 19.3403ZM48.3043 20.1421V19.1532H49.5338H50.7633L50.6039 19.9894L50.4445 20.8254L49.3744 20.9784L48.3043 21.1313V20.1421ZM84.8201 20.6263C84.7075 20.5168 84.6152 20.0446 84.6152 19.5769V18.7267L89.1541 15.0301L93.693 11.3336V10.5612C93.693 10.1363 93.435 9.5308 93.1196 9.21547L92.5463 8.64214H90.9679H89.3895L87.6321 9.58405L85.8747 10.526L85.2733 10.0271L84.672 9.52829L84.8975 8.94071C85.0215 8.61737 85.7406 7.98829 86.4956 7.54232L87.8682 6.73156H90.7439H93.6196L95.0896 7.96841L96.5596 9.20531V10.2964V11.3875L93.258 14.0365C91.4421 15.4933 89.5071 16.9258 88.958 17.2196L87.9596 17.754V18.496V19.238L91.4235 19.1448C93.3286 19.0941 95.1561 19.0743 95.4846 19.1054L96.0818 19.1561V19.8728V20.5895L95.4846 20.6651C94.087 20.8417 85.0072 20.8063 84.8201 20.6263ZM99.9597 20.075L98.3431 19.0894L98.8966 18.5359L99.4501 17.9823L100.387 18.5676L101.324 19.1528H103.681C104.977 19.1528 106.377 19.0225 106.793 18.8628L107.548 18.5727V16.7133V14.8533H105.45H103.351L103.094 14.1834C102.735 13.2491 103.173 12.9434 104.881 12.9349C105.691 12.9308 106.602 12.7696 106.905 12.5766L107.456 12.2256L107.621 10.5534L107.787 8.88121L104.812 8.73901L101.836 8.59681L100.99 9.03698L100.143 9.47715L99.1873 9.12838L98.2318 8.77965L99.904 7.75715L101.576 6.73466L104.417 6.73285L107.257 6.73108L108.597 8.01487L109.937 9.29869V10.6595V12.0202L109.21 13.1304L108.482 14.2405L109.21 14.8443L109.937 15.448V16.7861V18.1243L108.7 19.5943L107.463 21.0643L104.52 21.0625L101.576 21.0606L99.9597 20.075ZM112.093 20.5958L111.804 20.128L113.737 17.511C114.801 16.0717 115.671 14.7845 115.671 14.6506C115.671 14.5168 116.767 12.68 118.107 10.569L120.544 6.73108H121.742H122.939L122.684 7.39724C122.543 7.76346 120.908 10.3579 119.049 13.1624C117.191 15.9669 115.671 18.4246 115.671 18.624C115.671 19.1702 113.536 21.0643 112.921 21.0643C112.625 21.0643 112.252 20.8537 112.093 20.5958ZM127.257 20.0536L125.704 19.0591V13.8272V8.59526L127.734 7.67359L129.765 6.75192L132.128 6.74064L134.49 6.72932L135.83 8.0131L137.17 9.29697V14.1895V19.082L135.912 20.0723L134.653 21.0625L131.731 21.0569L128.809 21.0512L127.257 20.0536ZM134.765 18.2288L135.259 17.3047L135.255 15.4816C135.253 14.4789 135.116 12.5298 134.95 11.1503L134.648 8.64197H131.638H128.627L128.377 9.04602C128.24 9.26835 127.998 11.3256 127.84 13.6176L127.552 17.785L128.12 18.4689L128.687 19.1528H131.479H134.27L134.765 18.2288ZM141.088 20.4908C140.773 20.1753 140.515 19.6407 140.515 19.3024V18.6874L144.144 18.9943L147.773 19.3013L148.198 18.6302C148.431 18.2611 148.626 17.3908 148.63 16.6962L148.637 15.4335L147.881 15.1434C147.466 14.9837 145.944 14.8534 144.5 14.8534H141.875L140.56 13.5389L139.246 12.2244L139.457 10.4176L139.668 8.61093L141.023 7.90995L142.379 7.20901H145.205H148.03L149.289 8.19922L150.548 9.18947V14.1367V19.084L149.289 20.0742L148.03 21.0644H144.846H141.662L141.088 20.4908ZM148.49 12.1579C148.628 11.7996 148.612 10.9971 148.456 10.3745L148.172 9.24255L145.658 8.99595L143.143 8.74934L142.279 9.20531L141.415 9.66128L141.562 11.1823L141.71 12.7033L144.098 12.9471C146.973 13.2405 148.156 13.0277 148.49 12.1579ZM152.937 20.5952C152.937 20.3373 154.665 17.54 156.776 14.3788C158.888 11.2177 160.738 8.31125 160.888 7.92002L161.161 7.20867H162.305H163.448V7.86685C163.448 8.22913 163.145 8.77622 162.775 9.08326C162.405 9.39024 161.756 10.3304 161.331 11.1723C160.674 12.4775 158.777 15.3715 155.554 19.9891L154.803 21.0641H153.87H152.937V20.5952ZM57.274 14.2778C57.3661 10.784 57.5288 7.65657 57.6356 7.32809L57.8298 6.73091H61.6056H65.3813L67.3262 8.52259L69.2711 10.3142L68.844 11.3687L68.4168 12.4231L66.4827 13.6441L64.5486 14.865V15.4947V16.1244L66.6986 17.6684L68.8486 19.2124V19.8993V20.5863H67.7691H66.6896L66.1591 19.7369C65.8673 19.2696 64.4012 17.9405 62.9011 16.7832L60.1737 14.679L59.7217 15.3632L59.2697 16.0475L59.4008 18.1974L59.532 20.3474L58.3193 20.4891L57.1066 20.6307L57.274 14.2778ZM65.3979 12.1982L66.4598 11.4544V10.5428V9.63114L65.5356 9.13682C64.5181 8.59227 61.7114 8.4776 60.5267 8.93197L59.7709 9.22202V10.7635C59.7709 12.7457 60.0053 12.9419 62.372 12.9419H64.3361L65.3979 12.1982ZM75.7316 18.6027L75.3915 18.0526L76.2516 17.4237L77.1116 16.7948L77.519 17.0465C77.7431 17.1847 77.9264 17.7155 77.9264 18.2255V19.1529H76.999H76.0717L75.7316 18.6027ZM476.179 17.1225C476.053 16.5312 475.885 15.6175 475.806 15.0919L475.661 14.1364L473.11 13.8243L470.559 13.5122L470.081 13.0349L469.604 12.5575L470.728 10.958C471.346 10.0783 472.067 9.20418 472.329 9.01554L472.807 8.67245L472.972 9.15098C473.062 9.41394 472.868 9.95386 472.539 10.3503L471.94 11.0712L472.374 11.4876C472.613 11.7167 473.453 11.9763 474.241 12.0646L475.674 12.2254L475.826 10.3718L475.978 8.51828L474.751 8.753L473.524 8.98777V8.42064C473.524 8.10858 474.022 7.38609 474.63 6.81473L475.735 5.77583H476.541H477.346V8.54695V11.318L477.924 11.8961L478.502 12.4741L477.687 13.8534L476.872 15.2328L477.169 16.7154L477.465 18.198H476.937H476.409L476.179 17.1225ZM231.138 16.4508C230.732 16.0451 230.716 10.4503 231.112 7.55989L231.41 5.38879L232.818 5.18227L234.225 4.97575L235.745 5.79228L237.265 6.60873L237.314 10.7696L237.363 14.9304L236.119 15.4123C235.435 15.677 234.482 15.9732 234.002 16.0703C233.521 16.1674 232.753 16.3654 232.295 16.511L231.462 16.7751L231.138 16.4508ZM235.704 13.2267C236.115 12.6145 236.191 8.07898 235.807 7.07972L235.544 6.39476L234.254 6.63404C233.545 6.76552 232.806 7.11031 232.613 7.39934C232.179 8.05021 232.132 13.6228 232.557 14.0481L232.867 14.3578L234.11 14.0543C234.794 13.8872 235.511 13.5146 235.704 13.2267ZM248.657 11.2858C248.778 8.21898 249.018 5.5681 249.191 5.39503C249.364 5.2218 250.316 5.08019 251.306 5.08019H253.106L254.382 5.91649L255.659 6.7527V8.33983V9.927L254.785 10.7177L253.911 11.5084H252.791H251.67L252.828 12.7535C253.465 13.4383 254.47 14.1855 255.061 14.4139C255.653 14.6424 256.136 15.0494 256.136 15.3187V15.8085H255.413C255.015 15.8085 253.941 15.3249 253.026 14.7336L251.363 13.6586L251.09 12.8225C250.939 12.3626 250.616 11.9864 250.371 11.9864H249.925L249.861 12.8225C249.825 13.2824 249.772 14.2836 249.742 15.0475L249.686 16.4364L249.062 16.6491L248.437 16.8619L248.657 11.2858ZM254.242 9.08924L254.769 8.10312L254.18 7.39284L253.59 6.68261L251.881 6.82593L250.172 6.96929L249.997 7.89324L249.821 8.81719L250.681 9.44598C251.154 9.79189 252.03 10.0748 252.628 10.0748H253.714L254.242 9.08924ZM305.552 15.6055L305.258 14.4339L306.139 13.2222C306.623 12.5557 307.396 11.883 307.856 11.7273C308.315 11.5716 308.692 11.2494 308.692 11.0109C308.692 10.7728 309.35 10.2373 310.154 9.82135L311.617 9.06513L311.468 7.77859L311.319 6.49201L309.254 6.34357L307.188 6.19517L306.506 6.76066L305.825 7.32616V6.64649C305.825 6.27292 306.074 5.71771 306.379 5.41316L306.933 4.85959L309.126 5.14344L311.319 5.42728L312.145 6.14398L312.97 6.86071L312.872 8.04586L312.774 9.23097L309.766 11.8719C308.112 13.3245 306.867 14.622 307 14.7553C307.134 14.8885 308.32 15.0194 309.636 15.0453L312.028 15.0905L311.913 15.5504L311.797 16.0103L309.973 16.104C308.97 16.1547 307.631 16.328 306.998 16.4866L305.846 16.7755L305.552 15.6055ZM358.31 16.2254C358.27 15.8648 358.195 15.2472 358.141 14.853C358.091 14.4586 358.012 12.4648 357.973 10.4218L357.903 6.70728L356.708 6.25303C356.051 6.00304 355.514 5.60854 355.514 5.37588V4.95263L357.854 4.67558L360.194 4.3985L361.557 4.79635L362.919 5.19415L361.364 5.7714L359.808 6.34861L359.528 7.46569L359.247 8.58282L359.522 12.1441L359.797 15.7055L359.088 16.2933L358.38 16.8811L358.31 16.2254ZM445.098 16.2886L444.775 15.7666L444.867 12.324C444.918 10.4304 444.937 8.62704 444.907 8.31628L444.856 7.75121L443.821 7.42281L442.786 7.09436L443.941 6.20692C444.576 5.7188 445.233 5.31463 445.402 5.30876C445.89 5.29183 446.252 7.24806 446.565 11.586L446.855 15.6189L446.137 16.215L445.419 16.8111L445.098 16.2886ZM449.456 15.3935L448.143 14.0226L448.854 13.7495L449.565 13.4764L450.137 14.1646L450.708 14.8529H452.704H454.7L455.253 14.2998L455.806 13.7468L456.58 14.3892L457.354 15.0317L456.242 15.8873L455.129 16.7428L452.949 16.7541L450.769 16.7654L449.456 15.3935ZM460.148 15.5718L459.028 14.3793L459.346 14.061L459.664 13.7428L460.883 14.298L462.102 14.8533H463.963H465.823L466.121 14.3703C466.286 14.1045 466.413 12.0704 466.405 9.84951L466.388 5.81161L466.881 5.50689C467.152 5.33929 467.488 5.31618 467.628 5.45613C468.028 5.85621 468.381 13.3763 468.06 14.6558L467.771 15.8093H466.852C466.347 15.8093 465.801 16.0243 465.639 16.2872L465.344 16.7652H463.305H461.267L460.148 15.5718ZM240.489 15.5549L239.414 14.8016V10.5628V6.32411L240.165 5.57332L240.916 4.82252L242.912 4.83944L244.909 4.85636L245.767 6.03583L246.626 7.21521H245.887H245.148V6.71016V6.20511L243.117 6.35183L241.086 6.49856L240.942 9.5893C240.862 11.2892 240.92 13.1705 241.07 13.7699L241.344 14.8596H242.439H243.534L244.62 13.8483L245.705 12.837L246.149 13.2811L246.594 13.7252L245.446 14.8033L244.298 15.8813L242.931 16.0963L241.564 16.3113L240.489 15.5549ZM268.2 15.7061L267.125 15.1875L267.141 11.3189L267.157 7.45036L268.075 6.34878L268.993 5.24719L270.592 4.98763L272.191 4.72807L272.66 6.32794L273.128 7.92786L273.057 10.9353L272.985 13.9426L271.883 15.1158L270.781 16.2889L270.028 16.255C269.614 16.2381 268.791 15.9911 268.2 15.7061ZM271.204 13.2832C271.355 12.681 271.413 10.9074 271.333 9.34166L271.186 6.49485L270.231 6.64722C269.705 6.7313 269.005 7.1506 268.674 7.57969L268.073 8.35959L268.38 10.7716C268.708 13.3586 269.245 14.3779 270.28 14.3779H270.929L271.204 13.2832ZM278.702 15.9429L277.14 15.7493L276.386 14.5986L275.632 13.4479L275.968 11.0027L276.305 8.55737L277.886 6.92882L279.468 5.30032L280.344 5.31724L281.22 5.33416L279.967 6.39196C279.278 6.97375 278.477 7.90979 278.187 8.472L277.659 9.49428L278.723 9.77925C279.308 9.93612 280.163 10.0671 280.622 10.071L281.459 10.0767L282.414 11.0322L283.37 11.9878V13.6132V15.2386L281.865 15.7635C281.037 16.0518 280.339 16.2533 280.312 16.2115C280.286 16.172 279.561 16.049 278.702 15.9429ZM282.407 13.542C282.403 13.0821 282.233 12.444 282.03 12.124L281.66 11.542L280.232 11.4331C279.446 11.3733 278.541 11.4839 278.22 11.6848L277.636 12.0454V12.8931C277.636 14.147 278.057 14.3778 280.344 14.3778H282.414L282.407 13.542ZM297.225 15.8114V15.3335H297.891H298.556L298.846 14.5777C299.006 14.1618 299.136 12.7909 299.136 11.5307V9.23941L298.419 8.64464C297.529 7.90535 297.533 7.23715 298.436 6.04259L299.14 5.1127L299.585 5.56466L300.031 6.01667L300.129 10.0777L300.227 14.1388L300.707 14.4492L301.186 14.759L300.893 15.5239L300.599 16.2887H298.912H297.225L297.225 15.8114ZM335.073 10.9143L335.208 5.53935H335.686H336.164L336.305 9.05351L336.447 12.5677L337.196 13.7118L337.946 14.8559H340.041H342.136V15.5726V16.2892H338.537H334.938L335.073 10.9143ZM345.73 15.2564L344.417 14.2237L344.734 10.837C344.908 8.97441 345.162 7.07417 345.298 6.61433L345.545 5.7782H346.229H346.914V5.30023V4.82231H348.037C348.655 4.82231 349.828 5.05535 350.645 5.33976L352.13 5.85776L352.413 6.74998C352.569 7.24092 352.758 8.86615 352.833 10.3622L352.97 13.0823L352.45 14.1852L351.93 15.2881L350.833 15.7886C350.229 16.064 349.129 16.2892 348.389 16.2892H347.042L345.73 15.2564ZM351.118 11.0656L351.262 8.05702L350.447 7.15653L349.632 6.256H348.529H347.425L346.931 7.18016L346.436 8.10424V11.0177V13.9311L347.497 14.3239L348.559 14.7166L349.767 14.3956L350.975 14.0745L351.118 11.0656ZM427.494 15.9327C427.367 15.7278 427.253 13.2519 427.24 10.4305L427.217 5.30049H427.677H428.137V6.97265V8.64485H428.864H429.592L431.71 6.69251L433.828 4.74008L434.38 5.08148L434.932 5.42289L432.729 7.47443C430.688 9.3751 429.989 10.5565 430.905 10.5565C431.114 10.5565 432.101 11.6267 433.099 12.9347L434.912 15.313L434.714 15.9066L434.516 16.5L432.401 14.3355C431.238 13.145 429.928 12.0362 429.49 11.8716L428.693 11.5726L428.428 12.2642C428.282 12.6446 428.286 13.5725 428.439 14.3261L428.713 15.6963L428.221 16.001L427.728 16.3057L427.494 15.9327ZM437.9 10.7948L437.917 5.30049H438.313C438.53 5.30049 439.483 5.89169 440.431 6.61433C441.378 7.33697 442.278 7.9282 442.43 7.9282C442.829 7.9282 442.463 10.7199 441.998 11.2002L441.608 11.6053L440.962 10.2798C440.607 9.5507 440.048 8.86667 439.719 8.75968L439.122 8.56499V12.427V16.289H438.501H437.879L437.9 10.7948ZM76.02 15.1005L75.4299 14.3894L76.2003 14.0938L76.9708 13.7981L77.7413 14.0938L78.5118 14.3894L77.9217 15.1005C77.5971 15.4916 77.1693 15.8114 76.9708 15.8114C76.7724 15.8114 76.3445 15.4915 76.02 15.1005ZM406.463 15.4803C406.295 15.3121 406.158 12.8511 406.158 10.0111V4.84754L407.568 4.11857C408.343 3.71792 409.488 3.38965 410.112 3.38965H411.247L412.286 4.49545L413.325 5.60121V7.01691V8.43256L412.581 9.49441L411.837 10.5563H411.148C410.095 10.5563 410.324 11.314 411.636 12.1735C412.283 12.5979 413.043 13.3751 413.325 13.9007L413.836 14.8562H413.169H412.502L410.299 12.8047L408.096 10.7532L407.843 11.4104C407.705 11.7721 407.591 12.7899 407.591 13.6726V15.2776L407.18 15.5315C406.954 15.6714 406.631 15.6479 406.463 15.4803ZM411.886 8.41246L412.475 7.702L412.187 6.55405L411.899 5.4061L411.14 5.11494L410.381 4.82377L409.242 5.10985L408.103 5.39594L407.814 6.30405L407.526 7.21202L407.829 8.16762L408.132 9.12313H409.714H411.296L411.886 8.41246ZM385.136 14.4452V13.6217L387.166 11.4257C388.283 10.2178 389.68 8.98304 390.272 8.68171L391.347 8.13378V6.98436V5.83495L390.778 5.48338C390.465 5.28982 389.229 5.17073 388.031 5.21813L385.852 5.3045L386.78 4.58595L387.707 3.86749H389.453H391.199L391.989 4.7412L392.78 5.6149V6.84169V8.06847L390.988 9.56364C388.123 11.955 387.525 12.5948 387.525 13.2676V13.9007H390.152H392.78V14.3787V14.8566L390.272 14.8905C388.892 14.9074 387.172 15.0017 386.45 15.097L385.136 15.2703V14.4452ZM366.502 13.4229V11.9896H367.678H368.853L368.752 13.4219L368.652 14.8543L367.577 14.8552L366.502 14.8562L366.502 13.4229ZM396.208 14.259L396.124 13.4229H395.616H395.108L395.37 9.08743C395.515 6.70294 395.756 4.55295 395.907 4.30968L396.18 3.86727L399.138 3.87291L402.096 3.87855L402.733 4.2826L403.371 4.68665L402.575 4.99193C402.137 5.16009 400.722 5.29722 399.429 5.29722H397.079V7.20828V9.11938H398.991H400.902V9.56515C400.902 10.1458 399.313 10.6436 398.461 10.3299L397.796 10.085L397.232 10.4461L396.668 10.8073L396.479 12.9494C396.375 14.1276 396.254 14.7188 396.208 14.259ZM287.352 12.5959C288.184 11.6155 289.885 9.75144 291.133 8.45362L293.403 6.09382V6.62767C293.403 7.37847 287.077 14.3786 286.398 14.3786H285.84L287.352 12.5959ZM455.106 12.5118C454.856 12.2737 453.842 11.974 452.852 11.8465C451.059 11.6157 449.936 11.0072 448.799 9.65224L448.202 8.94024V7.60927V6.27826L449.409 5.48738L450.616 4.69651L452.838 5.00123L455.06 5.30596L455.931 6.09421C456.41 6.52759 456.802 7.17168 456.802 7.5251V8.16775H456.07H455.339L455.064 7.45109L454.789 6.7344L453.287 6.74004C452.461 6.74365 451.302 6.87604 450.711 7.0346L449.636 7.32241V7.94925C449.636 8.29404 449.974 8.9139 450.386 9.32685L451.137 10.0776H452.711H454.285L455.543 11.0679C456.236 11.6124 456.802 12.2575 456.802 12.5012C456.802 13.0691 455.697 13.0749 455.106 12.5118ZM366.813 9.23958C366.691 9.04095 366.703 8.2885 366.842 7.56738L367.092 6.25621H367.992H368.892V7.92842V9.60066H367.965C367.454 9.60066 366.936 9.43821 366.813 9.23958Z" fill="#222222"/>
<path d="M30.5699 20.6797H7.29248V31.2603H30.5699V20.6797Z" stroke="#F8C102" stroke-width="2"/>
<path d="M159.802 75.8599H130.159V89.334H159.802V75.8599Z" stroke="#F8C102" stroke-width="2.54695"/>
<path d="M551.028 82.5781H500.042V99.9995H551.028V82.5781Z" stroke="#F8C102" stroke-width="2.52941"/>
<path d="M417.823 1H379.944V18.5638H417.823V1Z" stroke="#F8C102" stroke-width="2"/>
</svg>
