<svg width="47" height="60" viewBox="0 0 47 60" fill="none" xmlns="http://www.w3.org/2000/svg">
<path d="M43.2045 36.037C43.2045 29.0697 40.8206 20.849 36.9734 14.396C33.0666 7.84286 28.034 3.7037 22.9937 3.7037C18.0112 3.70373 13.2003 7.8863 9.50245 14.5027C5.86733 21.0068 3.68609 29.2428 3.68608 36.037C3.68608 44.1239 6.73359 49.0645 10.5438 52.0316C14.4344 55.0612 19.2948 56.1628 22.9937 56.1628C27.1639 56.1628 32.2511 55.0118 36.2481 51.9611C40.1631 48.9729 43.2045 44.0375 43.2045 36.037ZM46.8906 36.037C46.8906 45.129 43.3615 51.1827 38.4778 54.9103C33.6761 58.5752 27.7364 59.8665 22.9937 59.8665C18.6829 59.8665 12.9681 58.6053 8.28576 54.9591C3.52311 51.2503 0 45.2019 0 36.037C1.54992e-05 28.5683 2.3637 19.7118 6.28865 12.6892C10.1509 5.77872 15.9154 2.37242e-05 22.9937 0C30.0438 0 36.0383 5.62001 40.1358 12.4928C44.2929 19.4656 46.8906 28.3377 46.8906 36.037Z" fill="#333333"/>
<path d="M14.8633 21.0928C24.559 21.0929 29.6213 28.2132 30.8252 29.6396C32.029 31.066 34.3151 32.2802 35.4785 34.9209C36.6418 37.5658 37.2136 39.0493 36.626 39.6484C36.0382 40.2475 33.3104 38.9074 29.2207 38.5283C25.1307 38.1493 22.7222 37.5214 20.4766 39.6162C18.2311 41.7111 15.8645 45.9454 14.8633 48.8389C13.8621 51.7325 12.6982 55.9268 12.6982 55.9268C12.6982 55.9268 5.03769 50.4323 3.19336 42.2568C1.35324 34.1178 2.65825 29.2628 2.66992 29.2197C2.66992 29.2197 5.16736 21.0928 14.8633 21.0928ZM24.3887 41.2754C27.5503 41.0024 28.0693 41.4297 28.0693 41.4297C28.0693 41.4297 27.6636 45.7287 24.8145 46.5645C21.9842 47.3943 19.6535 46.5236 19.6221 46.5117V46.5078C19.6337 46.472 21.2385 41.5475 24.3887 41.2754ZM18.4336 26.6152C17.3192 26.6155 16.4201 27.5566 16.4199 28.7178C16.4199 29.8791 17.3231 30.821 18.4336 30.8213C19.5483 30.8213 20.4482 29.8793 20.4482 28.7178C20.448 27.5564 19.5482 26.6152 18.4336 26.6152ZM16.833 7.79492C20.286 8.07237 20.4038 12.2774 22.9814 13.4961C25.5595 14.7147 26.8327 11.8092 30.2295 13.7695C32.6572 15.1716 32.1628 19.4055 31.417 21.0928C30.6712 22.7841 30.6836 23.8154 30.6836 23.8154C30.6836 23.8154 23.6704 17.458 16.2363 17.2461C8.80249 17.0344 4.23438 21.9531 4.23438 21.9531C4.91941 19.2062 7.65918 12.4932 7.65918 12.4932C7.65918 12.4932 8.25538 12.6482 10.043 11.9961C11.8305 11.344 13.3795 7.51779 16.833 7.79492Z" fill="#333333"/>
</svg>
