<svg width="47" height="60" viewBox="0 0 47 60" fill="none" xmlns="http://www.w3.org/2000/svg">
<path d="M43.2045 36.037C43.2045 29.0697 40.8206 20.849 36.9734 14.396C33.0666 7.84286 28.034 3.7037 22.9937 3.7037C18.0112 3.70373 13.2003 7.8863 9.50245 14.5027C5.86733 21.0068 3.68609 29.2428 3.68608 36.037C3.68608 44.1239 6.73359 49.0645 10.5438 52.0316C14.4344 55.0612 19.2948 56.1628 22.9937 56.1628C27.1639 56.1628 32.2511 55.0118 36.2481 51.9611C40.1631 48.9729 43.2045 44.0375 43.2045 36.037ZM46.8906 36.037C46.8906 45.129 43.3615 51.1827 38.4778 54.9103C33.6761 58.5752 27.7364 59.8665 22.9937 59.8665C18.6829 59.8665 12.9681 58.6053 8.28576 54.9591C3.52311 51.2503 0 45.2019 0 36.037C1.54992e-05 28.5683 2.3637 19.7118 6.28865 12.6892C10.1509 5.77872 15.9154 2.37242e-05 22.9937 0C30.0438 0 36.0383 5.62001 40.1358 12.4928C44.2929 19.4656 46.8906 28.3377 46.8906 36.037Z" fill="#666666"/>
</svg>
