<svg width="47" height="60" viewBox="0 0 47 60" fill="none" xmlns="http://www.w3.org/2000/svg">
<path d="M43.2045 36.037C43.2045 29.0697 40.8206 20.849 36.9734 14.396C33.0666 7.84286 28.034 3.7037 22.9937 3.7037C18.0112 3.70373 13.2003 7.8863 9.50245 14.5027C5.86733 21.0068 3.68609 29.2428 3.68608 36.037C3.68608 44.1239 6.73359 49.0645 10.5438 52.0316C14.4344 55.0612 19.2948 56.1628 22.9937 56.1628C27.1639 56.1628 32.2511 55.0118 36.2481 51.9611C40.1631 48.9729 43.2045 44.0375 43.2045 36.037ZM46.8906 36.037C46.8906 45.129 43.3615 51.1827 38.4778 54.9103C33.6761 58.5752 27.7364 59.8665 22.9937 59.8665C18.6829 59.8665 12.9681 58.6053 8.28576 54.9591C3.52311 51.2503 0 45.2019 0 36.037C1.54992e-05 28.5683 2.3637 19.7118 6.28865 12.6892C10.1509 5.77872 15.9154 2.37242e-05 22.9937 0C30.0438 0 36.0383 5.62001 40.1358 12.4928C44.2929 19.4656 46.8906 28.3377 46.8906 36.037Z" fill="#666666"/>
<ellipse cx="8.15708" cy="46.071" rx="5.31968" ry="5.35714" fill="#666666"/>
<ellipse cx="16.6688" cy="39.6423" rx="5.31968" ry="5.35714" fill="#666666"/>
<ellipse cx="27.308" cy="39.6423" rx="5.31968" ry="5.35714" fill="#666666"/>
<ellipse cx="37.9476" cy="43.9284" rx="5.31968" ry="5.35714" fill="#666666"/>
<ellipse cx="18.7967" cy="50.3571" rx="5.31968" ry="5.35714" fill="#666666"/>
<ellipse cx="29.4359" cy="50.3571" rx="5.31968" ry="5.35714" fill="#666666"/>
<path d="M24.1171 6.42773C25.7772 6.42773 27.2514 6.72785 28.5398 7.32809C29.8282 7.92833 30.8316 8.79268 31.5502 9.92113C32.2687 11.0496 32.628 12.4181 32.628 14.0268C32.628 15.6594 32.2563 17.016 31.513 18.0964C30.7697 19.1528 29.7538 19.9451 28.4655 20.4734C27.1771 21.0016 25.7152 21.2777 24.08 21.3017L23.8941 24.0748H19.5087L19.3228 18.0244H20.9209C21.8872 18.0244 22.7792 17.9764 23.5968 17.8803C24.4145 17.7603 25.1082 17.5562 25.6781 17.2681C26.2727 16.98 26.7311 16.5718 27.0532 16.0436C27.3753 15.5154 27.5363 14.8311 27.5363 13.9908C27.5363 13.2705 27.4001 12.6582 27.1275 12.154C26.855 11.6498 26.4585 11.2657 25.9382 11.0016C25.4427 10.7134 24.8109 10.5694 24.0428 10.5694C22.9031 10.5694 21.9987 10.8695 21.3297 11.4698C20.6855 12.046 20.3634 12.8863 20.3634 13.9908H15.6063C15.5815 12.5262 15.9036 11.2297 16.5726 10.1012C17.2416 8.97275 18.2079 8.0844 19.4715 7.43614C20.7599 6.76387 22.3084 6.42773 24.1171 6.42773ZM21.8501 32.142C20.9333 32.142 20.1776 31.8659 19.583 31.3137C19.0131 30.7615 18.7282 30.0772 18.7282 29.2609C18.7282 28.4445 19.0131 27.7603 19.583 27.208C20.1776 26.6318 20.9333 26.3437 21.8501 26.3437C22.742 26.3437 23.4729 26.6318 24.0428 27.208C24.6374 27.7603 24.9348 28.4445 24.9348 29.2609C24.9348 30.0772 24.6374 30.7615 24.0428 31.3137C23.4729 31.8659 22.742 32.142 21.8501 32.142Z" fill="#666666"/>
</svg>
