<svg width="47" height="60" viewBox="0 0 47 60" fill="none" xmlns="http://www.w3.org/2000/svg">
<path d="M43.2045 36.037C43.2045 29.0697 40.8206 20.849 36.9734 14.396C33.0666 7.84286 28.034 3.7037 22.9937 3.7037C18.0112 3.70373 13.2003 7.8863 9.50245 14.5027C5.86733 21.0068 3.68609 29.2428 3.68608 36.037C3.68608 44.1239 6.73359 49.0645 10.5438 52.0316C14.4344 55.0612 19.2948 56.1628 22.9937 56.1628C27.1639 56.1628 32.2511 55.0118 36.2481 51.9611C40.1631 48.9729 43.2045 44.0375 43.2045 36.037ZM46.8906 36.037C46.8906 45.129 43.3615 51.1827 38.4778 54.9103C33.6761 58.5752 27.7364 59.8665 22.9937 59.8665C18.6829 59.8665 12.9681 58.6053 8.28576 54.9591C3.52311 51.2503 0 45.2019 0 36.037C1.54992e-05 28.5683 2.3637 19.7118 6.28865 12.6892C10.1509 5.77872 15.9154 2.37242e-05 22.9937 0C30.0438 0 36.0383 5.62001 40.1358 12.4928C44.2929 19.4656 46.8906 28.3377 46.8906 36.037Z" fill="#666666"/>
<path d="M24.1172 15C26.1923 15 28.0351 15.4002 29.6456 16.2005C31.2561 17.0008 32.5104 18.1533 33.4085 19.6579C34.3067 21.1625 34.7558 22.9872 34.7558 25.1321C34.7558 27.3089 34.2912 29.1176 33.3621 30.5582C32.4329 31.9668 31.1631 33.0232 29.5526 33.7275C27.9422 34.4318 26.1149 34.7999 24.0708 34.8319L23.8385 38.5294H18.3566L18.1244 30.4622H20.122C21.3299 30.4622 22.4448 30.3982 23.4668 30.2701C24.4889 30.11 25.3561 29.8379 26.0684 29.4538C26.8117 29.0696 27.3847 28.5254 27.7873 27.8211C28.1899 27.1168 28.3912 26.2045 28.3912 25.084C28.3912 24.1237 28.2209 23.3073 27.8802 22.6351C27.5395 21.9628 27.044 21.4506 26.3936 21.0984C25.7742 20.7143 24.9844 20.5222 24.0243 20.5222C22.5997 20.5222 21.4692 20.9224 20.633 21.7227C19.8278 22.491 19.4251 23.6114 19.4251 25.084H13.4787C13.4477 23.1313 13.8504 21.4026 14.6866 19.898C15.5228 18.3934 16.7307 17.2089 18.3102 16.3445C19.9207 15.4482 21.8564 15 24.1172 15ZM21.2834 49.2857C20.1375 49.2857 19.1929 48.9176 18.4496 48.1813C17.7372 47.445 17.3811 46.5326 17.3811 45.4442C17.3811 44.3557 17.7372 43.4434 18.4496 42.7071C19.1929 41.9388 20.1375 41.5546 21.2834 41.5546C22.3984 41.5546 23.312 41.9388 24.0243 42.7071C24.7676 43.4434 25.1393 44.3557 25.1393 45.4442C25.1393 46.5326 24.7676 47.445 24.0243 48.1813C23.312 48.9176 22.3984 49.2857 21.2834 49.2857Z" fill="#666666"/>
</svg>
