<svg width="181" height="27" viewBox="0 0 181 27" fill="none" xmlns="http://www.w3.org/2000/svg">
<path d="M180.869 0.143695V2.55918H177.273V12.6662C177.273 12.6707 177.214 12.7298 177.21 12.7298H174.587C174.583 12.7298 174.524 12.6707 174.524 12.6662V2.55918H170.907C170.903 2.55918 170.844 2.50002 170.844 2.49556V0.207311C170.844 0.158327 171.01 0.0737182 171.074 0.0987403C174.258 0.176987 177.456 0.00374109 180.638 0.0995885C180.719 0.101921 180.798 0.0957716 180.869 0.143695Z" fill="black"/>
<path d="M166.487 7.85631V0.20717C166.487 0.202717 166.546 0.143555 166.551 0.143555H169.173C169.178 0.143555 169.237 0.202717 169.237 0.20717V12.6661C169.237 12.6705 169.178 12.7297 169.173 12.7297H166.635L166.528 12.6557C164.937 10.4815 163.365 8.29186 161.767 6.12257C161.419 5.64948 161.072 5.16918 160.693 4.72048V12.6663C160.693 12.6707 160.634 12.7299 160.629 12.7299H157.985V0.143555H160.756C162.671 2.71065 164.533 5.32038 166.487 7.85609V7.85631Z" fill="black"/>
<path d="M140.77 0.164435C140.784 0.117783 140.867 0.0944575 140.915 0.0986986C142.763 0.164435 144.661 0.018755 146.503 0.0991227C149.352 0.223385 151.084 1.76967 150.881 4.74285C150.776 6.27026 149.642 7.5273 148.213 7.96328L150.96 12.6278C150.979 12.6628 150.911 12.7291 150.9 12.7291H147.897C147.876 12.7291 147.808 12.6816 147.79 12.6556L145.359 8.27945H143.477V12.6655C143.477 12.67 143.418 12.7291 143.413 12.7291H140.833C140.829 12.7291 140.77 12.67 140.77 12.6655V0.164435ZM143.477 2.55871V5.80056C143.477 5.80502 143.536 5.86418 143.54 5.86418H146.458C146.495 5.86418 147.027 5.72231 147.095 5.69623C148.116 5.30309 148.425 3.87153 147.666 3.08651C147.448 2.86152 146.805 2.5585 146.501 2.5585H143.476L143.477 2.55871Z" fill="black"/>
<path d="M109.376 0.0287388C113.953 -0.315421 117.052 2.50953 116.789 7.15856C116.439 13.3271 107.749 15.0263 104.629 10.0134C102.142 6.01708 104.534 0.392832 109.376 0.0287388ZM113.006 9.32319C115.031 7.04066 113.939 2.67366 110.592 2.43001C105.726 2.0761 105.1 9.15757 109.088 10.3355C110.441 10.735 112.052 10.3977 113.006 9.32319Z" fill="black"/>
<path d="M94.9944 0.0289268C99.4748 -0.321383 102.798 2.53665 102.447 7.1562C102.098 11.756 97.197 14.0888 93.1306 12.4227C87.1804 9.98476 88.4497 0.540608 94.9944 0.0289268ZM93.116 9.32337C94.9337 11.3591 98.4629 10.6765 99.38 8.06718C100.465 4.97928 98.2787 1.6876 94.8496 2.55362C91.9805 3.27799 91.284 7.2722 93.116 9.32337Z" fill="black"/>
<path d="M131.76 8.23757V12.6661C131.76 12.6705 131.701 12.7297 131.697 12.7297H129.074C129.07 12.7297 129.011 12.6705 129.011 12.6661V0.20716C129.011 0.141212 129.268 0.104527 129.326 0.0996499C131.032 -0.0436972 132.933 0.211613 134.659 0.0996499C137.743 -0.0500587 139.941 2.61183 138.941 5.62212C138.512 6.91627 136.992 8.23778 135.588 8.23778H131.76L131.76 8.23757ZM131.76 5.86449H134.531C135.815 5.86449 136.813 4.63586 136.167 3.42059C135.947 3.00752 135.253 2.55924 134.785 2.55924H131.76V5.86471V5.86449Z" fill="black"/>
<path d="M88.1083 2.55884H81.9326V5.10155H87.9179C87.9223 5.10155 87.9814 5.16071 87.9814 5.16517V7.45363C87.9814 7.45808 87.9223 7.51725 87.9179 7.51725H81.9326V12.6661C81.9326 12.6705 81.8736 12.7297 81.8692 12.7297H79.2466C79.2421 12.7297 79.1831 12.6705 79.1831 12.6661V0.143352C79.3049 0.138051 79.4173 0.106031 79.5408 0.0990333C82.2662 -0.0568249 85.1373 0.222023 87.8779 0.0983971C87.9416 0.073375 88.1081 0.157984 88.1081 0.206968V2.55884H88.1083Z" fill="black"/>
<path d="M127.403 2.55904H123.766V12.6661C123.766 12.6705 123.707 12.7297 123.702 12.7297H121.058V2.55904H117.378V0.143555L127.403 0.16476V2.55904H127.403Z" fill="black"/>
<path d="M0.719405 0.143711L3.91289 11.501L7.15692 0.215384C7.21043 0.111479 7.64087 0.125262 7.76418 0.141802C7.85281 0.153677 7.9114 0.164068 7.94186 0.260339L11.1461 11.5858L14.4031 0.143711H15.0376C15.0666 0.143711 15.1239 0.236589 15.0939 0.281969L11.5689 12.6026C11.5298 12.7873 11.0956 12.7487 10.9323 12.7324C10.8301 12.7222 10.751 12.7317 10.7127 12.6132L7.55055 1.49936L4.35009 12.6592C4.32682 12.7315 4.27479 12.7241 4.21134 12.7322C4.08083 12.7485 3.62628 12.7549 3.55056 12.669L0.00743931 0.281332C-0.0196348 0.236377 0.0336674 0.143923 0.0637028 0.143923H0.719405V0.143711Z" fill="black"/>
<path d="M155.532 0.143555V12.6661C155.532 12.6705 155.473 12.7297 155.468 12.7297H152.888C152.884 12.7297 152.825 12.6705 152.825 12.6661V0.143555H155.532Z" fill="black"/>
<path d="M63.2578 0.143555C65.9443 0.463329 67.2773 3.43905 65.894 5.70864C65.2304 6.79732 63.9996 7.28016 62.7715 7.36859L66.578 12.6663C66.5835 12.6786 66.4786 12.7297 66.4725 12.7297H65.7533L62.1713 7.67352L61.9041 7.34781H58.9645V12.7297C58.8507 12.7197 58.2876 12.7821 58.2876 12.6237V0.20717C58.2876 0.202717 58.3466 0.143555 58.3511 0.143555H63.2576H63.2578ZM58.9645 6.71207C60.1701 6.66373 61.4246 6.77611 62.625 6.71377C63.5448 6.66606 64.4658 6.37682 65.0481 5.62425C66.207 4.12653 65.6985 1.60523 63.8279 0.970981C63.7287 0.937477 63.1491 0.779498 63.0886 0.779498H59.0279C59.0235 0.779498 58.9645 0.838661 58.9645 0.843114V6.71229V6.71207Z" fill="black"/>
<path d="M55.602 12.7296C55.5743 12.7249 55.5123 12.6859 55.4964 12.655L54.1793 9.38745L47.3099 9.37854L45.8312 12.7294H45.1543L50.2887 0.168701C50.4879 0.105085 51.0027 0.0234452 51.1318 0.214928L56.3004 12.6259C56.3101 12.6615 56.2536 12.7296 56.2365 12.7296C56.054 12.7296 55.7652 12.7572 55.602 12.7296ZM53.8889 8.74599L50.6747 1.03345L47.5017 8.74599H53.8887H53.8889Z" fill="black"/>
<path d="M24.872 0.779286H17.8082V5.94932H24.7451V6.58505H17.8082V12.0305C17.8082 12.035 17.8672 12.0942 17.8717 12.0942H24.872C24.8363 12.2468 24.9664 12.6928 24.7663 12.7299L17.1313 12.6875V0.20717C17.1313 0.202717 17.1904 0.143555 17.1948 0.143555H24.8086C24.9169 0.143555 24.8581 0.675805 24.872 0.779286Z" fill="black"/>
<path d="M76.8564 0.779286H69.7926V5.94932H76.7295V6.58505H69.7926V12.0305C69.7926 12.035 69.8516 12.0942 69.856 12.0942H76.8564C76.8207 12.2468 76.9507 12.6928 76.7506 12.7299L69.1157 12.6875V0.20717C69.1157 0.202717 69.1747 0.143555 69.1792 0.143555H76.7929C76.9012 0.143555 76.8424 0.675805 76.8564 0.779286Z" fill="black"/>
<path d="M37.6036 0.779286V5.94932H44.4771C44.5727 5.94932 44.5727 6.58506 44.4771 6.58506H37.6036V12.6661C37.6036 12.7621 36.9268 12.7621 36.9268 12.6661V0.20717C36.9268 0.202717 36.9858 0.143555 36.9902 0.143555H44.604C44.6996 0.143555 44.6996 0.779286 44.604 0.779286H37.6036Z" fill="black"/>
<path d="M128.968 25.2305V20.2511C128.968 20.2467 129.027 20.1875 129.032 20.1875H129.793C129.798 20.1875 129.857 20.2467 129.857 20.2511V26.8196C129.857 26.8241 129.798 26.8833 129.793 26.8833H129.032C127.955 25.2398 126.864 23.5988 125.838 21.9255C125.799 21.9227 125.754 22.1458 125.754 22.1583V26.8835H124.908V20.1879H125.69C126.751 21.7272 127.696 23.3439 128.722 24.9052C128.791 25.01 128.879 25.1468 128.968 25.2309V25.2305Z" fill="black"/>
<path d="M180.657 20.188C180.724 20.4588 180.724 20.7654 180.657 21.0356H177.231V23.1544H180.15C180.204 23.2876 180.248 24.002 180.086 24.002H177.231V26.036H180.594C180.756 26.036 180.711 26.7504 180.657 26.8835H176.343V20.2516C176.343 20.2472 176.402 20.188 176.406 20.188H180.657Z" fill="black"/>
<path d="M135.981 20.1151C136.581 20.0977 137.242 20.2571 137.767 20.5472C137.85 20.593 138.168 20.7839 138.185 20.8526C138.207 20.9393 137.792 21.4962 137.701 21.5038C137.632 21.5095 137.146 21.1978 137.004 21.142C136.452 20.9259 135.873 20.8844 135.313 21.0994C134.519 21.4045 134.325 22.4673 135.144 22.8355C136.351 23.3773 138.362 23.0342 138.35 24.9973C138.336 27.2784 135.287 27.3142 133.819 26.4096C133.746 26.3644 133.453 26.1643 133.451 26.1011C133.449 26.0211 133.877 25.4647 133.947 25.4469C134.004 25.4323 134.4 25.7376 134.514 25.7972C135.273 26.1916 137.024 26.3793 137.393 25.3865C137.614 24.794 137.348 24.3654 136.784 24.1589C135.603 23.7259 133.829 23.9895 133.746 22.2447C133.679 20.8424 134.669 20.1528 135.982 20.1146L135.981 20.1151Z" fill="black"/>
<path d="M164.668 20.188H165.493C165.497 20.188 165.556 20.2472 165.556 20.2516V24.7859C165.556 25.0096 165.415 25.5217 165.323 25.7387C164.487 27.7158 160.819 27.2451 160.819 24.9131V20.188H161.644C161.648 20.188 161.707 20.2472 161.707 20.2516V24.9131C161.707 24.978 161.877 25.4238 161.926 25.4995C162.591 26.5462 164.668 26.1715 164.668 24.7435V20.188Z" fill="black"/>
<path d="M28.2559 0.143328V12.0301C28.2559 12.0346 28.3149 12.0937 28.3194 12.0937H34.5585C34.5445 12.1972 34.6033 12.7295 34.495 12.7295H27.685C27.6806 12.7295 27.6216 12.6703 27.6216 12.6658V0.206944C27.6216 0.0983734 28.1529 0.157324 28.2561 0.143328H28.2559Z" fill="black"/>
<path d="M143.054 21.0356H141.15C141.084 20.7648 141.084 20.4581 141.15 20.188H145.824C145.829 20.188 145.888 20.2472 145.888 20.2516V20.9719C145.888 20.9764 145.829 21.0356 145.824 21.0356H144.005C144.001 21.0356 143.942 21.0947 143.942 21.0992V26.8201C143.942 26.8246 143.883 26.8837 143.879 26.8837H143.117C143.113 26.8837 143.054 26.8246 143.054 26.8201V21.0356H143.054Z" fill="black"/>
<path d="M157.816 20.188C157.882 20.4588 157.882 20.7654 157.816 21.0356H155.912V26.8201C155.912 26.8246 155.853 26.8837 155.849 26.8837H155.024V21.0358H153.142C153.137 21.0358 153.078 20.9766 153.078 20.9722V20.2518C153.078 20.2474 153.137 20.1882 153.142 20.1882H157.815L157.816 20.188Z" fill="black"/>
<path d="M173.255 20.188V21.0356H171.351V26.8201C171.351 26.8246 171.292 26.8837 171.288 26.8837H170.463V21.0358H168.581C168.576 21.0358 168.517 20.9766 168.517 20.9722V20.2518C168.517 20.2474 168.576 20.1882 168.581 20.1882H173.254L173.255 20.188Z" fill="black"/>
<path d="M119.98 20.188H120.741C120.746 20.188 120.805 20.2472 120.805 20.2516V26.8201C120.805 26.8246 120.746 26.8837 120.741 26.8837H119.98C119.976 26.8837 119.917 26.8246 119.917 26.8201V20.2516C119.917 20.2399 119.966 20.2096 119.98 20.188Z" fill="black"/>
<path d="M149.081 20.188H149.842C149.847 20.188 149.906 20.2472 149.906 20.2516V26.8201C149.906 26.8246 149.847 26.8837 149.842 26.8837H149.081C149.077 26.8837 149.018 26.8246 149.018 26.8201V20.2516C149.018 20.2399 149.067 20.2096 149.081 20.188Z" fill="black"/>
</svg>
