<svg width="232" height="70" viewBox="0 0 232 70" fill="none" xmlns="http://www.w3.org/2000/svg">
<path d="M27.3838 0C32.0466 2.26673e-05 36.0725 2.3492 39.2773 5.37793C42.5024 8.42551 45.2587 12.4881 47.4912 16.7715C51.9192 25.2674 54.7685 35.5898 54.7686 42.792C54.7685 57.8182 42.5074 70 27.3838 70C12.2601 69.9999 8.42057e-05 57.8182 0 42.792C4.81753e-05 35.5898 2.84854 25.2674 7.27637 16.7715C9.50889 12.4879 12.2663 8.42556 15.4912 5.37793C18.6961 2.34925 22.7211 8.39477e-05 27.3838 0ZM27.3838 4.08789C25.8914 4.08791 24.4318 4.43794 23.0176 5.07617V15.5576C22.3822 14.5905 21.3884 13.1625 19.8076 12.1533V7.05859C17.2397 8.64505 14.2375 12.9711 13.0576 14.9355C13.7757 14.4253 14.6276 14.1406 15.5791 14.1406C17.735 14.1407 18.908 15.3201 19.877 16.6631C19.9264 16.7315 19.976 16.8 20.0244 16.8691C20.057 16.9157 20.0889 16.963 20.1211 17.0098C20.1582 17.0636 20.1957 17.1179 20.2324 17.1719C20.3289 17.3138 20.4255 17.4561 20.5205 17.5977C21.2424 18.6731 21.9477 19.7066 23.0166 20.2021C23.8277 20.5781 24.8479 20.6452 26.2441 20.1846C28.4948 19.4421 30.1915 19.7955 31.3359 20.7383L31.3428 20.7432C31.3487 20.748 31.3545 20.7539 31.3604 20.7588C31.3937 20.7867 31.4275 20.8148 31.46 20.8438C31.4721 20.8546 31.4841 20.866 31.4961 20.877C31.5265 20.9048 31.5564 20.9332 31.5859 20.9619L31.5957 20.9707C31.6038 20.9785 31.6121 20.9872 31.6201 20.9951C31.6523 21.027 31.6847 21.0589 31.7158 21.0918C31.7224 21.0988 31.7288 21.1063 31.7354 21.1133C31.8062 21.1893 31.875 21.2686 31.9404 21.3496C31.9452 21.3556 31.9494 21.3621 31.9541 21.3682L31.9736 21.3916C33.3541 23.1465 33.4797 26.0047 32.3496 28.2422C31.9135 29.149 31.6387 30.1239 31.5361 31.123C29.0467 28.8083 26.1403 27.0288 23 25.8555C21.9685 25.4701 20.9116 25.1504 19.8359 24.8984C17.948 24.4563 16.0014 24.2233 14.0322 24.2139C13.0847 24.2264 12.1388 24.3067 11.2031 24.4551C9.56219 24.8832 8.44515 25.483 7.69824 25.96C7.18704 27.335 6.72462 28.715 6.31445 30.0791C8.77526 28.9824 11.409 28.2422 14.0322 28.2422C15.9929 28.276 17.9348 28.5676 19.8076 29.1035C19.8297 29.1098 19.852 29.1165 19.874 29.123C19.8883 29.1273 19.9027 29.1316 19.917 29.1357C19.995 29.1585 20.0736 29.1805 20.1514 29.2041C20.1977 29.2182 20.2438 29.2337 20.29 29.248C20.3762 29.2748 20.4621 29.3022 20.5479 29.3301C20.5617 29.3346 20.576 29.3384 20.5898 29.3428C20.6082 29.3486 20.6272 29.3543 20.6455 29.3604C20.766 29.4 20.886 29.4417 21.0059 29.4834C21.0142 29.4863 21.0229 29.4883 21.0312 29.4912L21.2412 29.5664C21.2663 29.5755 21.2914 29.5845 21.3164 29.5938L21.3604 29.6104L21.3984 29.624C21.4258 29.634 21.4532 29.6441 21.4805 29.6543C21.592 29.696 21.7036 29.7388 21.8145 29.7822L21.8584 29.7998L21.8945 29.8135C21.994 29.8529 22.0934 29.8937 22.1924 29.9346C22.2188 29.9454 22.2452 29.9568 22.2715 29.9678C22.3757 30.0113 22.4803 30.0554 22.584 30.1006L22.6084 30.1113C22.6186 30.1157 22.6295 30.1196 22.6396 30.124C22.7624 30.1779 22.885 30.2339 23.0068 30.29L23.0176 30.2949C23.1794 30.3695 23.3408 30.4458 23.501 30.5244C26.447 31.9703 29.0315 34.0466 31.0674 36.6025C32.0662 37.7459 33.1406 38.8232 34.2832 39.8262C36.4121 41.7571 37.843 44.3258 38.3545 47.1387C38.382 47.2729 38.373 47.4121 38.3301 47.542C38.2868 47.6721 38.21 47.7885 38.1074 47.8799C38.0047 47.9714 37.879 48.0347 37.7441 48.0635C37.609 48.0925 37.4685 48.0861 37.3369 48.0449C36.3525 47.7915 35.3604 47.5675 34.3643 47.3711C33.5951 47.2197 32.8228 47.0848 32.0479 46.9678H32.0508C29.4583 46.5758 26.8366 46.3767 24.209 46.373C23.7999 46.373 23.3997 46.4197 23.0088 46.5068C21.8905 46.7563 20.8472 47.3451 19.8818 48.1738C16.6344 50.9615 14.269 56.4633 12.9082 60.8936C14.1381 61.8664 17.2396 63.9808 19.8076 64.6582V58.5127C20.5876 58.6477 21.3797 58.7165 22.1738 58.7158L22.1758 58.7148C22.4622 58.7148 22.7432 58.7034 23.0176 58.6826V65.5059C24.4317 65.7726 25.8915 65.9121 27.3838 65.9121C28.6909 65.9121 29.9733 65.8043 31.2217 65.5986V52.1172C31.3042 51.789 31.3745 51.468 31.4336 51.1592L31.6299 50.1309C32.5682 50.2737 33.5026 50.4449 34.4316 50.6416V64.832C37.5374 63.8527 40.361 62.2431 42.75 60.1543V16.6631C40.361 12.508 37.5375 8.9248 34.4316 6.6582V19.3379C33.6313 18.3516 32.5613 17.5345 31.2217 17.0527V4.85156C29.9733 4.35612 28.6909 4.0879 27.3838 4.08789ZM45.9434 56.7402C48.8431 52.9366 50.5872 48.2147 50.6523 43.0908L50.6543 42.792C50.6543 37.5525 48.8997 30.0964 45.9434 23.125V56.7402ZM24.5664 49.5967C26.0316 49.5967 27.3547 49.5976 28.6367 49.7588C28.1081 52.5238 26.8085 55.2185 23.375 55.5947L23.3672 55.5957L23.3604 55.5967C23.2989 55.6031 23.2367 55.6089 23.1738 55.6143L23.1689 55.6152C23.1076 55.6199 23.0451 55.6247 22.9824 55.6279C22.9775 55.6283 22.9727 55.6286 22.9678 55.6289L22.9502 55.6299C22.8989 55.6327 22.8471 55.6339 22.7949 55.6357C22.7746 55.6361 22.7539 55.6373 22.7334 55.6377L22.6621 55.6387H22.6377C22.6025 55.639 22.5668 55.6406 22.5312 55.6406H22.5078C22.489 55.6403 22.4699 55.6397 22.4512 55.6396C22.3977 55.6393 22.3434 55.6391 22.29 55.6377C22.2474 55.637 22.2047 55.6352 22.1621 55.6338C22.1135 55.632 22.0643 55.6304 22.0156 55.6279C21.9821 55.6265 21.9485 55.6248 21.915 55.623C21.8301 55.618 21.7449 55.6113 21.6602 55.6045L21.6455 55.6035C21.6323 55.6024 21.6187 55.6017 21.6055 55.6006C21.5257 55.5938 21.4458 55.5857 21.3662 55.5771L21.3447 55.5742L21.3281 55.5723C21.239 55.5622 21.1494 55.5513 21.0605 55.5391C21.0511 55.5376 21.0416 55.5366 21.0322 55.5352L21.0312 55.5342L21.0088 55.5312C20.9297 55.5201 20.8503 55.5074 20.7715 55.4941C20.7604 55.4924 20.7494 55.49 20.7383 55.4883C20.2503 55.405 19.7675 55.2882 19.2949 55.1367C19.5657 54.513 19.8569 53.9186 20.165 53.3662L20.1748 53.3496L20.1826 53.335C20.2313 53.2482 20.2805 53.1618 20.3301 53.0771L20.3369 53.0664L20.3545 53.0352C20.4009 52.9563 20.4479 52.8785 20.4951 52.8018C20.5005 52.7928 20.5063 52.784 20.5117 52.7754C20.5192 52.7628 20.5266 52.7505 20.5342 52.7383C20.7108 52.454 20.893 52.1845 21.0791 51.9307C21.0828 51.9256 21.0862 51.9201 21.0898 51.915L21.0986 51.9033C21.151 51.8323 21.2038 51.7624 21.2568 51.6943C21.271 51.6761 21.2857 51.6579 21.2998 51.6396C21.3547 51.5701 21.4102 51.5022 21.4658 51.4355C21.4709 51.4291 21.4764 51.423 21.4814 51.417L21.4893 51.4062C21.5091 51.3826 21.5299 51.3592 21.5498 51.3359L21.5615 51.3223L21.5977 51.2812C21.6134 51.263 21.6287 51.2445 21.6445 51.2266C21.6591 51.2104 21.6739 51.1938 21.6885 51.1777L21.709 51.1553C21.7411 51.1199 21.7734 51.0848 21.8057 51.0508C21.8308 51.0239 21.8566 50.9975 21.8818 50.9717C21.9159 50.9366 21.9501 50.9018 21.9844 50.8682L22.0166 50.835C22.027 50.8246 22.0384 50.8147 22.0488 50.8047C22.0843 50.7707 22.1206 50.7371 22.1562 50.7041C22.178 50.6841 22.1999 50.6638 22.2217 50.6445C22.2582 50.6116 22.2953 50.58 22.332 50.5488C22.3512 50.5324 22.3705 50.5157 22.3896 50.5C22.4315 50.4653 22.4735 50.4313 22.5156 50.3984C22.5301 50.3873 22.5449 50.3754 22.5596 50.3643L22.5781 50.3506C22.613 50.3241 22.6485 50.2976 22.6836 50.2725C22.7013 50.26 22.7196 50.2478 22.7373 50.2354C22.783 50.2035 22.829 50.1729 22.875 50.1436C22.8841 50.1375 22.8933 50.1311 22.9023 50.125C22.9067 50.1222 22.9117 50.119 22.916 50.1162C22.9618 50.0877 23.0076 50.0596 23.0537 50.0332C23.5435 49.7514 24.05 49.597 24.5664 49.5967ZM18.0244 34.21C16.8426 34.21 15.884 35.1617 15.8838 36.3359C15.8838 37.5101 16.8425 38.4629 18.0244 38.4629C19.2063 38.4628 20.1641 37.5101 20.1641 36.3359C20.1638 35.1618 19.2061 34.21 18.0244 34.21Z" fill="#242233"/>
<path d="M65.267 15.9V28.642H72.282V32H61.265V15.9H65.267ZM73.3344 22.11L74.5074 15.9H78.6244L76.0484 22.11H73.3344ZM80.7611 15.9H84.7631V22.156H90.8351V15.9H94.8371V32H90.8351V25.514H84.7631V32H80.7611V15.9ZM109.435 19.258H101.362V22.271H107.388V25.399H101.362V28.642H109.435V32H97.3597V15.9H109.435V19.258ZM111.441 15.9H115.443V25.836C115.443 26.4493 115.566 26.9783 115.811 27.423C116.056 27.8523 116.401 28.182 116.846 28.412C117.291 28.6267 117.812 28.734 118.41 28.734C119.023 28.734 119.56 28.6267 120.02 28.412C120.48 28.182 120.833 27.8523 121.078 27.423C121.339 26.9783 121.469 26.4493 121.469 25.836V15.9H125.471V25.468C125.471 26.5873 125.279 27.5687 124.896 28.412C124.513 29.24 123.984 29.9377 123.309 30.505C122.65 31.057 121.891 31.471 121.032 31.747C120.173 32.023 119.276 32.161 118.341 32.161C117.084 32.161 115.934 31.9157 114.891 31.425C113.848 30.919 113.013 30.1753 112.384 29.194C111.755 28.1973 111.441 26.9553 111.441 25.468V15.9ZM137.221 21.144C137.221 20.5613 137.045 20.1013 136.692 19.764C136.339 19.4267 135.803 19.258 135.082 19.258H131.931V23.053H135.082C135.557 23.053 135.948 22.984 136.255 22.846C136.577 22.6927 136.815 22.4703 136.968 22.179C137.137 21.8877 137.221 21.5427 137.221 21.144ZM135.335 15.9C136.669 15.9 137.773 16.1453 138.647 16.636C139.536 17.1113 140.196 17.7477 140.625 18.545C141.07 19.3423 141.292 20.2087 141.292 21.144C141.292 21.788 141.169 22.4243 140.924 23.053C140.694 23.6817 140.334 24.249 139.843 24.755C139.368 25.261 138.754 25.6673 138.003 25.974C137.252 26.2653 136.362 26.411 135.335 26.411H131.931V32H127.929V15.9H135.335ZM137.359 25.031L141.591 32H137.175L133.173 25.031H137.359ZM155.569 19.258H147.496V22.271H153.522V25.399H147.496V28.642H155.569V32H143.494V15.9H155.569V19.258ZM67.843 37.9C69.5757 37.9 71.0707 38.2373 72.328 38.912C73.6007 39.5867 74.582 40.5297 75.272 41.741C75.9773 42.9523 76.33 44.3553 76.33 45.95C76.33 47.5293 75.9773 48.9247 75.272 50.136C74.582 51.3473 73.6007 52.298 72.328 52.988C71.0707 53.6627 69.5757 54 67.843 54H61.265V37.9H67.843ZM67.59 50.642C69.0467 50.642 70.189 50.2203 71.017 49.377C71.845 48.5337 72.259 47.3913 72.259 45.95C72.259 44.4933 71.845 43.351 71.017 42.523C70.189 41.6797 69.0467 41.258 67.59 41.258H65.267V50.642H67.59ZM90.3205 41.258H82.2475V44.271H88.2735V47.399H82.2475V50.642H90.3205V54H78.2455V37.9H90.3205V41.258ZM95.6159 49.101C95.6925 49.5457 95.8459 49.906 96.0759 50.182C96.3212 50.4427 96.6125 50.6343 96.9499 50.757C97.3025 50.8643 97.6859 50.918 98.0999 50.918C98.8205 50.918 99.3725 50.7723 99.7559 50.481C100.155 50.1743 100.354 49.7833 100.354 49.308C100.354 48.9247 100.231 48.618 99.9859 48.388C99.7559 48.158 99.4262 47.9663 98.9969 47.813C98.5829 47.6443 98.0999 47.4757 97.5479 47.307C96.9345 47.1383 96.3135 46.9467 95.6849 46.732C95.0562 46.502 94.4735 46.2183 93.9369 45.881C93.4002 45.5283 92.9709 45.076 92.6489 44.524C92.3269 43.972 92.1735 43.282 92.1889 42.454C92.1889 41.442 92.4495 40.5833 92.9709 39.878C93.4922 39.1727 94.1975 38.6437 95.0869 38.291C95.9762 37.923 96.9959 37.739 98.1459 37.739C99.1885 37.739 100.116 37.8923 100.929 38.199C101.742 38.5057 102.409 38.958 102.93 39.556C103.467 40.1387 103.842 40.867 104.057 41.741L100.377 42.385C100.316 42.0477 100.178 41.7717 99.9629 41.557C99.7482 41.3423 99.4875 41.189 99.1809 41.097C98.8895 40.9897 98.5982 40.936 98.3069 40.936C97.9389 40.936 97.6015 40.9973 97.2949 41.12C96.9882 41.2427 96.7352 41.419 96.5359 41.649C96.3519 41.879 96.2599 42.1473 96.2599 42.454C96.2599 42.7913 96.3672 43.0673 96.5819 43.282C96.8119 43.4967 97.1185 43.6883 97.5019 43.857C97.8852 44.0257 98.3069 44.1867 98.7669 44.34C99.3955 44.5393 100.04 44.754 100.699 44.984C101.358 45.214 101.972 45.513 102.539 45.881C103.106 46.2337 103.559 46.6937 103.896 47.261C104.249 47.813 104.425 48.5107 104.425 49.354C104.425 50.2587 104.203 51.0713 103.758 51.792C103.313 52.5127 102.646 53.0877 101.757 53.517C100.868 53.9463 99.7405 54.161 98.3759 54.161C97.2259 54.161 96.1909 54 95.2709 53.678C94.3662 53.3407 93.6225 52.85 93.0399 52.206C92.4572 51.562 92.0739 50.7723 91.8899 49.837L95.6159 49.101ZM109.199 45.95C109.199 44.754 109.39 43.6577 109.774 42.661C110.172 41.649 110.724 40.775 111.43 40.039C112.15 39.303 113.009 38.7357 114.006 38.337C115.002 37.9383 116.099 37.739 117.295 37.739C119.104 37.739 120.653 38.1913 121.941 39.096C123.229 39.9853 124.149 41.212 124.701 42.776L121.228 43.535C120.952 42.9677 120.622 42.5077 120.239 42.155C119.855 41.787 119.418 41.5187 118.928 41.35C118.437 41.1813 117.893 41.097 117.295 41.097C116.436 41.097 115.7 41.3117 115.087 41.741C114.473 42.1703 114.006 42.753 113.684 43.489C113.362 44.2097 113.201 45.03 113.201 45.95C113.201 46.8853 113.362 47.721 113.684 48.457C114.006 49.1777 114.473 49.7527 115.087 50.182C115.7 50.596 116.436 50.803 117.295 50.803C117.893 50.803 118.452 50.7187 118.974 50.55C119.495 50.366 119.963 50.0747 120.377 49.676C120.791 49.262 121.143 48.7253 121.435 48.066L124.816 48.756C124.264 50.4733 123.336 51.8073 122.033 52.758C120.729 53.6933 119.15 54.161 117.295 54.161C116.099 54.161 115.002 53.9617 114.006 53.563C113.009 53.1643 112.15 52.6047 111.43 51.884C110.724 51.148 110.172 50.2817 109.774 49.285C109.39 48.273 109.199 47.1613 109.199 45.95ZM134.571 54.161C133.421 54.161 132.348 53.9617 131.351 53.563C130.355 53.1643 129.473 52.6047 128.706 51.884C127.955 51.148 127.365 50.2817 126.935 49.285C126.506 48.273 126.291 47.1613 126.291 45.95C126.291 44.7387 126.506 43.6347 126.935 42.638C127.365 41.626 127.955 40.7597 128.706 40.039C129.473 39.303 130.355 38.7357 131.351 38.337C132.348 37.9383 133.421 37.739 134.571 37.739C135.721 37.739 136.795 37.9383 137.791 38.337C138.803 38.7357 139.685 39.303 140.436 40.039C141.188 40.7597 141.778 41.626 142.207 42.638C142.637 43.6347 142.851 44.7387 142.851 45.95C142.851 47.1613 142.637 48.273 142.207 49.285C141.778 50.2817 141.18 51.148 140.413 51.884C139.662 52.6047 138.788 53.1643 137.791 53.563C136.795 53.9617 135.721 54.161 134.571 54.161ZM134.571 50.734C135.415 50.734 136.151 50.527 136.779 50.113C137.408 49.699 137.899 49.1317 138.251 48.411C138.604 47.6903 138.78 46.87 138.78 45.95C138.78 45.0147 138.604 44.1943 138.251 43.489C137.899 42.7683 137.408 42.201 136.779 41.787C136.151 41.373 135.415 41.166 134.571 41.166C133.713 41.166 132.969 41.373 132.34 41.787C131.712 42.201 131.221 42.7683 130.868 43.489C130.531 44.1943 130.362 45.0147 130.362 45.95C130.362 46.87 130.531 47.6903 130.868 48.411C131.221 49.1317 131.712 49.699 132.34 50.113C132.969 50.527 133.713 50.734 134.571 50.734ZM148.748 54H144.746V37.9H149.484L153.9 48.825L158.316 37.9H163.054V54H159.052V44.777L155.533 54H152.267L148.748 44.777V54ZM172.743 45.053C173.219 45.053 173.61 44.984 173.916 44.846C174.238 44.6927 174.476 44.4703 174.629 44.179C174.798 43.8877 174.882 43.5427 174.882 43.144C174.882 42.5613 174.706 42.1013 174.353 41.764C174.001 41.4267 173.464 41.258 172.743 41.258H169.592V45.053H172.743ZM178.953 43.144C178.953 43.788 178.831 44.4243 178.585 45.053C178.355 45.6817 177.995 46.249 177.504 46.755C177.029 47.261 176.416 47.6673 175.664 47.974C174.913 48.2653 174.024 48.411 172.996 48.411H169.592V54H165.59V37.9H172.996C174.33 37.9 175.434 38.1453 176.308 38.636C177.198 39.1113 177.857 39.7477 178.286 40.545C178.731 41.3423 178.953 42.2087 178.953 43.144ZM180.243 37.9H194.25V41.258H189.236V54H185.234V41.258H180.243V37.9ZM208.212 41.258H200.139V44.271H206.165V47.399H200.139V50.642H208.212V54H196.137V37.9H208.212V41.258ZM213.507 49.101C213.584 49.5457 213.737 49.906 213.967 50.182C214.213 50.4427 214.504 50.6343 214.841 50.757C215.194 50.8643 215.577 50.918 215.991 50.918C216.712 50.918 217.264 50.7723 217.647 50.481C218.046 50.1743 218.245 49.7833 218.245 49.308C218.245 48.9247 218.123 48.618 217.877 48.388C217.647 48.158 217.318 47.9663 216.888 47.813C216.474 47.6443 215.991 47.4757 215.439 47.307C214.826 47.1383 214.205 46.9467 213.576 46.732C212.948 46.502 212.365 46.2183 211.828 45.881C211.292 45.5283 210.862 45.076 210.54 44.524C210.218 43.972 210.065 43.282 210.08 42.454C210.08 41.442 210.341 40.5833 210.862 39.878C211.384 39.1727 212.089 38.6437 212.978 38.291C213.868 37.923 214.887 37.739 216.037 37.739C217.08 37.739 218.008 37.8923 218.82 38.199C219.633 38.5057 220.3 38.958 220.821 39.556C221.358 40.1387 221.734 40.867 221.948 41.741L218.268 42.385C218.207 42.0477 218.069 41.7717 217.854 41.557C217.64 41.3423 217.379 41.189 217.072 41.097C216.781 40.9897 216.49 40.936 216.198 40.936C215.83 40.936 215.493 40.9973 215.186 41.12C214.88 41.2427 214.627 41.419 214.427 41.649C214.243 41.879 214.151 42.1473 214.151 42.454C214.151 42.7913 214.259 43.0673 214.473 43.282C214.703 43.4967 215.01 43.6883 215.393 43.857C215.777 44.0257 216.198 44.1867 216.658 44.34C217.287 44.5393 217.931 44.754 218.59 44.984C219.25 45.214 219.863 45.513 220.43 45.881C220.998 46.2337 221.45 46.6937 221.787 47.261C222.14 47.813 222.316 48.5107 222.316 49.354C222.316 50.2587 222.094 51.0713 221.649 51.792C221.205 52.5127 220.538 53.0877 219.648 53.517C218.759 53.9463 217.632 54.161 216.267 54.161C215.117 54.161 214.082 54 213.162 53.678C212.258 53.3407 211.514 52.85 210.931 52.206C210.349 51.562 209.965 50.7723 209.781 49.837L213.507 49.101Z" fill="#242233"/>
</svg>
