<?xml version="1.0" encoding="UTF-8" standalone="no"?>
<!-- Created with Inkscape (http://www.inkscape.org/) -->

<svg
   version="1.1"
   id="svg1"
   width="80"
   height="80"
   viewBox="0 0 79.999999 80"
   xmlns="http://www.w3.org/2000/svg"
   xmlns:svg="http://www.w3.org/2000/svg">
  <defs
     id="defs1">
    <clipPath
       clipPathUnits="userSpaceOnUse"
       id="clipPath2">
      <path
         d="M 0,70 H 226 V 0 H 0 Z"
         transform="translate(-18.0244,-35.790001)"
         id="path2" />
    </clipPath>
  </defs>
  <g
     id="layer-MC0"
     transform="translate(13.271706,29.448842)">
    <circle
       style="fill:#ffffff;fill-opacity:1;stroke-width:0.8"
       id="path41"
       cx="26.728294"
       cy="10.551158"
       r="40" />
    <path
       id="path1"
       d="m 0,0 c -1.182,0 -2.14,-0.952 -2.141,-2.126 0,-1.174 0.959,-2.127 2.141,-2.127 1.182,0 2.14,0.953 2.14,2.127 C 2.139,-0.952 1.182,0 0,0 m 6.542,-15.387 c 1.465,0 2.788,-10e-4 4.07,-0.162 -0.528,-2.765 -1.828,-5.459 -5.261,-5.836 l -0.008,-10e-4 -0.007,-0.001 c -0.061,-0.006 -0.124,-0.012 -0.187,-0.017 l -0.004,-0.001 c -0.062,-0.005 -0.124,-0.01 -0.187,-0.013 -0.005,0 -0.01,-0.001 -0.015,-0.001 L 4.926,-21.42 c -0.052,-0.003 -0.103,-0.004 -0.155,-0.006 -0.021,0 -0.041,-0.001 -0.062,-0.002 L 4.638,-21.429 H 4.613 c -0.035,0 -0.071,-0.002 -0.106,-0.002 H 4.483 c -0.018,0.001 -0.038,0.001 -0.056,0.001 -0.054,0.001 -0.108,0.001 -0.161,0.002 -0.043,0.001 -0.086,0.003 -0.128,0.004 -0.049,0.002 -0.098,0.004 -0.147,0.006 -0.033,10e-4 -0.067,0.003 -0.1,0.005 -0.085,0.005 -0.17,0.012 -0.255,0.018 l -0.015,0.001 c -0.013,0.002 -0.027,0.002 -0.04,0.003 -0.08,0.007 -0.16,0.015 -0.239,0.024 l -0.022,0.003 -0.016,0.002 c -0.089,0.01 -0.179,0.021 -0.268,0.033 -0.009,0.001 -0.019,0.002 -0.028,0.004 l -10e-4,10e-4 -0.023,0.003 c -0.079,0.011 -0.158,0.024 -0.237,0.037 -0.011,0.002 -0.022,0.004 -0.033,0.006 -0.488,0.083 -0.971,0.2 -1.443,0.351 0.27,0.624 0.562,1.218 0.87,1.771 l 0.009,0.016 0.008,0.015 c 0.049,0.087 0.098,0.173 0.148,0.258 l 0.007,0.011 0.017,0.031 c 0.046,0.079 0.094,0.156 0.141,0.233 0.005,0.009 0.011,0.018 0.016,0.027 0.008,0.012 0.015,0.024 0.023,0.037 0.176,0.284 0.359,0.553 0.545,0.807 0.003,0.005 0.007,0.011 0.01,0.016 l 0.009,0.012 c 0.053,0.071 0.105,0.141 0.158,0.209 0.015,0.018 0.029,0.036 0.043,0.054 0.055,0.07 0.111,0.138 0.166,0.204 0.006,0.007 0.011,0.013 0.016,0.019 l 0.008,0.011 c 0.02,0.023 0.041,0.047 0.06,0.07 l 0.012,0.014 0.036,0.041 c 0.016,0.018 0.031,0.036 0.047,0.054 0.015,0.017 0.03,0.033 0.044,0.049 l 0.021,0.023 c 0.032,0.035 0.064,0.07 0.096,0.104 0.025,0.027 0.051,0.053 0.076,0.079 0.034,0.035 0.069,0.07 0.103,0.104 l 0.032,0.033 c 0.011,0.01 0.022,0.02 0.032,0.03 0.036,0.034 0.072,0.068 0.108,0.101 0.022,0.02 0.044,0.04 0.065,0.059 0.037,0.033 0.074,0.065 0.111,0.096 0.019,0.017 0.038,0.033 0.057,0.049 0.042,0.035 0.084,0.069 0.126,0.102 0.015,0.011 0.03,0.023 0.044,0.034 l 0.019,0.013 c 0.035,0.027 0.07,0.053 0.105,0.079 0.018,0.012 0.036,0.024 0.054,0.037 0.046,0.032 0.092,0.062 0.138,0.091 0.009,0.006 0.018,0.013 0.027,0.019 0.004,0.003 0.009,0.006 0.014,0.009 0.045,0.028 0.091,0.056 0.137,0.083 0.49,0.282 0.997,0.436 1.513,0.436 m 21.377,-7.143 c 2.9,3.803 4.644,8.525 4.709,13.649 l 0.002,0.299 c 0,5.239 -1.755,12.696 -4.711,19.667 z M 9.359,30.122 c -1.492,0 -2.952,-0.35 -4.366,-0.988 V 18.652 c -0.635,0.967 -1.629,2.396 -3.21,3.405 v 5.094 c -2.568,-1.586 -5.57,-5.912 -6.75,-7.877 0.718,0.511 1.57,0.795 2.522,0.795 2.156,0 3.329,-1.179 4.298,-2.522 C 1.902,17.479 1.952,17.41 2,17.341 2.033,17.294 2.064,17.247 2.097,17.2 c 0.037,-0.054 0.074,-0.108 0.111,-0.162 0.097,-0.142 0.193,-0.284 0.288,-0.426 0.722,-1.075 1.427,-2.109 2.496,-2.604 0.811,-0.376 1.832,-0.443 3.228,0.017 2.25,0.743 3.947,0.389 5.092,-0.553 l 0.006,-0.005 c 0.006,-0.005 0.012,-0.011 0.018,-0.016 0.033,-0.028 0.067,-0.056 0.1,-0.085 0.012,-0.011 0.024,-0.022 0.036,-0.033 0.03,-0.028 0.06,-0.056 0.09,-0.085 l 0.009,-0.009 c 0.008,-0.008 0.017,-0.016 0.025,-0.024 0.032,-0.032 0.064,-0.064 0.095,-0.097 0.007,-0.007 0.013,-0.014 0.02,-0.021 0.071,-0.076 0.14,-0.156 0.205,-0.237 0.005,-0.006 0.009,-0.012 0.014,-0.018 l 0.019,-0.024 C 15.33,11.063 15.455,8.205 14.325,5.968 13.889,5.061 13.614,4.086 13.512,3.087 11.022,5.402 8.116,7.181 4.976,8.354 3.944,8.74 2.887,9.06 1.812,9.312 -0.076,9.754 -2.023,9.987 -3.992,9.996 -4.94,9.984 -5.886,9.903 -6.821,9.755 -8.462,9.327 -9.579,8.727 -10.326,8.25 -10.837,6.875 -11.3,5.495 -11.71,4.131 -9.249,5.228 -6.615,5.968 -3.992,5.968 -2.031,5.934 -0.09,5.642 1.783,5.106 1.805,5.1 1.828,5.093 1.85,5.087 1.864,5.083 1.878,5.078 1.893,5.074 1.971,5.051 2.049,5.029 2.127,5.006 2.173,4.992 2.219,4.976 2.266,4.962 2.352,4.935 2.438,4.908 2.523,4.88 2.537,4.875 2.552,4.872 2.565,4.867 2.584,4.861 2.603,4.856 2.621,4.85 2.742,4.81 2.862,4.768 2.982,4.727 2.99,4.724 2.999,4.722 3.007,4.719 L 3.217,4.644 C 3.242,4.634 3.267,4.625 3.292,4.616 L 3.336,4.6 3.374,4.586 C 3.401,4.576 3.429,4.566 3.456,4.556 3.568,4.514 3.679,4.471 3.79,4.428 L 3.834,4.41 3.87,4.396 C 3.97,4.357 4.069,4.316 4.168,4.275 4.194,4.265 4.221,4.253 4.247,4.242 4.351,4.199 4.456,4.155 4.56,4.109 L 4.584,4.099 C 4.594,4.094 4.605,4.09 4.615,4.086 4.738,4.032 4.861,3.976 4.982,3.92 L 4.993,3.915 C 5.155,3.84 5.316,3.764 5.477,3.686 c 2.946,-1.446 5.53,-3.523 7.566,-6.079 0.999,-1.143 2.073,-2.22 3.216,-3.223 2.129,-1.931 3.56,-4.5 4.071,-7.313 0.028,-0.134 0.019,-0.273 -0.024,-0.403 -0.044,-0.13 -0.12,-0.247 -0.223,-0.338 -0.103,-0.091 -0.228,-0.155 -0.363,-0.184 -0.135,-0.029 -0.276,-0.022 -0.408,0.019 -0.984,0.253 -1.976,0.477 -2.972,0.674 -0.769,0.151 -1.542,0.286 -2.317,0.403 h 0.003 c -2.592,0.392 -5.214,0.591 -7.841,0.595 -0.41,0 -0.81,-0.047 -1.201,-0.134 -1.118,-0.249 -2.161,-0.838 -3.127,-1.667 -3.247,-2.788 -5.612,-8.289 -6.973,-12.72 1.23,-0.972 4.331,-3.087 6.899,-3.764 v 6.145 c 0.78,-0.135 1.572,-0.204 2.366,-0.203 l 0.002,0.001 c 0.287,0 0.568,0.012 0.842,0.032 v -6.823 c 1.414,-0.267 2.874,-0.406 4.366,-0.406 1.308,0 2.59,0.108 3.838,0.313 v 13.482 c 0.083,0.328 0.153,0.649 0.212,0.958 l 0.196,1.028 c 0.939,-0.143 1.873,-0.314 2.802,-0.511 v -14.19 c 3.106,0.979 5.93,2.589 8.319,4.678 v 43.491 c -2.389,4.155 -5.213,7.738 -8.319,10.005 v -12.68 c -0.8,0.986 -1.87,1.803 -3.21,2.285 v 12.201 c -1.248,0.496 -2.53,0.764 -3.838,0.764 m 0,4.088 c 4.663,0 8.689,-2.349 11.894,-5.378 3.225,-3.048 5.981,-7.11 8.214,-11.394 4.428,-8.495 7.277,-18.818 7.277,-26.02 0,-15.026 -12.261,-27.208 -27.385,-27.208 -15.123,0 -27.383,12.182 -27.383,27.208 0,7.202 2.848,17.525 7.276,26.02 2.232,4.284 4.99,8.346 8.215,11.394 3.205,3.029 7.23,5.378 11.892,5.378"
       style="fill:#000000;fill-opacity:1;fill-rule:nonzero;stroke:none"
       transform="matrix(0.91294186,0,0,-0.91294186,18.183159,9.8299331)"
       clip-path="url(#clipPath2)" />
  </g>
</svg>
