<svg width="505" height="423" viewBox="0 0 505 423" fill="none" xmlns="http://www.w3.org/2000/svg">
<circle cx="217" cy="211" r="168" fill="#FF584B"/>
<path d="M370.888 278.399C357.067 309.953 333.881 336.497 304.471 354.432C275.06 372.368 240.847 380.829 206.467 378.669C172.086 376.51 139.201 363.833 112.266 342.358C85.3317 320.882 65.6498 291.646 55.8874 258.61C46.125 225.574 46.7541 190.336 57.6894 157.67C68.6247 125.003 89.3376 96.4881 117.022 75.9877C144.706 55.4873 178.023 43.9927 212.458 43.0614C246.894 42.1301 280.783 51.807 309.535 70.7811L217 211L370.888 278.399Z" fill="#3C1212"/>
<g filter="url(#filter0_d_2476_4067)">
<path d="M325.521 180.547L332.658 173.761C333.958 172.539 334.972 171.538 335.7 170.758C336.454 169.952 336.987 169.224 337.299 168.574C337.637 167.924 337.806 167.235 337.806 166.507C337.806 165.623 337.572 164.947 337.104 164.479C336.636 163.985 335.934 163.738 334.998 163.738C334.426 163.738 333.919 163.894 333.477 164.206C333.035 164.492 332.684 164.934 332.424 165.532C332.164 166.104 332.021 166.832 331.995 167.716H325.443C325.495 165.428 325.976 163.569 326.886 162.139C327.796 160.709 328.992 159.656 330.474 158.98C331.956 158.278 333.581 157.927 335.349 157.927C337.533 157.927 339.314 158.304 340.692 159.058C342.07 159.812 343.084 160.813 343.734 162.061C344.384 163.309 344.709 164.674 344.709 166.156C344.709 167.326 344.527 168.405 344.163 169.393C343.825 170.355 343.227 171.369 342.369 172.435C341.511 173.475 340.302 174.71 338.742 176.14L334.725 179.806H345.177V185.5H325.521V180.547ZM366.742 158.2V163.27L357.031 185.5H350.011L359.8 163.894H347.905V158.2H366.742ZM369.086 164.557C369.086 162.373 369.71 160.722 370.958 159.604C372.206 158.486 373.779 157.927 375.677 157.927C377.523 157.927 379.07 158.486 380.318 159.604C381.566 160.722 382.19 162.373 382.19 164.557C382.19 166.767 381.566 168.431 380.318 169.549C379.07 170.667 377.523 171.226 375.677 171.226C373.779 171.226 372.206 170.667 370.958 169.549C369.71 168.431 369.086 166.767 369.086 164.557ZM375.638 161.983C375.04 161.983 374.585 162.191 374.273 162.607C373.961 162.997 373.805 163.647 373.805 164.557C373.805 165.441 373.961 166.104 374.273 166.546C374.585 166.962 375.04 167.17 375.638 167.17C376.21 167.17 376.665 166.962 377.003 166.546C377.341 166.104 377.51 165.441 377.51 164.557C377.51 163.647 377.341 162.997 377.003 162.607C376.665 162.191 376.21 161.983 375.638 161.983ZM389.21 158.2H395.801L380.825 185.5H374.234L389.21 158.2ZM387.884 179.104C387.884 176.92 388.508 175.269 389.756 174.151C391.004 173.033 392.564 172.474 394.436 172.474C396.308 172.474 397.855 173.033 399.077 174.151C400.325 175.269 400.949 176.92 400.949 179.104C400.949 181.314 400.325 182.978 399.077 184.096C397.855 185.214 396.308 185.773 394.436 185.773C392.564 185.773 391.004 185.214 389.756 184.096C388.508 182.978 387.884 181.314 387.884 179.104ZM394.397 176.53C393.825 176.53 393.37 176.738 393.032 177.154C392.72 177.57 392.564 178.22 392.564 179.104C392.564 180.014 392.72 180.677 393.032 181.093C393.37 181.509 393.825 181.717 394.397 181.717C394.969 181.717 395.411 181.509 395.723 181.093C396.061 180.677 396.23 180.014 396.23 179.104C396.23 178.22 396.061 177.57 395.723 177.154C395.411 176.738 394.969 176.53 394.397 176.53Z" fill="#242233"/>
</g>
<defs>
<filter id="filter0_d_2476_4067" x="221.443" y="57.927" width="283.506" height="235.846" filterUnits="userSpaceOnUse" color-interpolation-filters="sRGB">
<feFlood flood-opacity="0" result="BackgroundImageFix"/>
<feColorMatrix in="SourceAlpha" type="matrix" values="0 0 0 0 0 0 0 0 0 0 0 0 0 0 0 0 0 0 127 0" result="hardAlpha"/>
<feOffset dy="4"/>
<feGaussianBlur stdDeviation="52"/>
<feComposite in2="hardAlpha" operator="out"/>
<feColorMatrix type="matrix" values="0 0 0 0 1 0 0 0 0 0.345098 0 0 0 0 0.294118 0 0 0 1 0"/>
<feBlend mode="normal" in2="BackgroundImageFix" result="effect1_dropShadow_2476_4067"/>
<feBlend mode="normal" in="SourceGraphic" in2="effect1_dropShadow_2476_4067" result="shape"/>
</filter>
</defs>
</svg>
