<svg width="518" height="433" viewBox="0 0 518 433" fill="none" xmlns="http://www.w3.org/2000/svg">
<circle cx="232" cy="216" r="155" fill="#A1FFF7"/>
<path d="M83.5403 260.55C71.7249 221.176 76.0346 178.721 95.5215 142.525C115.008 106.328 148.076 79.3557 187.45 67.5403L232 216L83.5403 260.55Z" fill="#3C1212"/>
<g filter="url(#filter0_d_2476_4052)">
<path d="M336.85 180.336C335.758 179.79 334.874 179.049 334.198 178.113C333.548 177.151 333.223 175.968 333.223 174.564C333.223 173.264 333.574 172.081 334.276 171.015C334.978 169.923 336.057 169.052 337.513 168.402C338.969 167.752 340.828 167.427 343.09 167.427C345.326 167.427 347.172 167.765 348.628 168.441C350.11 169.091 351.202 169.962 351.904 171.054C352.632 172.12 352.996 173.29 352.996 174.564C352.996 175.942 352.645 177.112 351.943 178.074C351.267 179.036 350.409 179.79 349.369 180.336C350.721 180.96 351.774 181.831 352.528 182.949C353.282 184.067 353.659 185.393 353.659 186.927C353.659 188.721 353.178 190.242 352.216 191.49C351.28 192.738 350.006 193.687 348.394 194.337C346.808 194.961 345.04 195.273 343.09 195.273C341.14 195.273 339.372 194.961 337.786 194.337C336.2 193.687 334.926 192.738 333.964 191.49C333.028 190.242 332.56 188.721 332.56 186.927C332.56 185.393 332.924 184.067 333.652 182.949C334.406 181.831 335.472 180.96 336.85 180.336ZM346.21 175.578C346.21 174.59 345.924 173.875 345.352 173.433C344.78 172.965 344.026 172.731 343.09 172.731C342.154 172.731 341.4 172.965 340.828 173.433C340.282 173.875 340.009 174.59 340.009 175.578C340.009 176.54 340.295 177.294 340.867 177.84C341.439 178.36 342.18 178.62 343.09 178.62C344 178.62 344.741 178.36 345.313 177.84C345.911 177.294 346.21 176.54 346.21 175.578ZM343.09 183.144C342.336 183.144 341.686 183.287 341.14 183.573C340.594 183.833 340.178 184.223 339.892 184.743C339.606 185.237 339.463 185.848 339.463 186.576C339.463 187.564 339.749 188.383 340.321 189.033C340.919 189.657 341.842 189.969 343.09 189.969C344.338 189.969 345.261 189.644 345.859 188.994C346.457 188.344 346.756 187.538 346.756 186.576C346.756 185.848 346.613 185.237 346.327 184.743C346.041 184.223 345.625 183.833 345.079 183.573C344.533 183.287 343.87 183.144 343.09 183.144ZM356.901 181.35C356.901 179.27 357.096 177.372 357.486 175.656C357.876 173.94 358.5 172.471 359.358 171.249C360.216 170.027 361.347 169.091 362.751 168.441C364.181 167.765 365.91 167.427 367.938 167.427C369.966 167.427 371.682 167.765 373.086 168.441C374.49 169.091 375.621 170.027 376.479 171.249C377.363 172.471 378 173.94 378.39 175.656C378.78 177.372 378.975 179.27 378.975 181.35C378.975 183.456 378.78 185.367 378.39 187.083C378 188.799 377.363 190.268 376.479 191.49C375.621 192.712 374.49 193.648 373.086 194.298C371.682 194.948 369.966 195.273 367.938 195.273C365.91 195.273 364.181 194.948 362.751 194.298C361.347 193.648 360.216 192.712 359.358 191.49C358.5 190.268 357.876 188.799 357.486 187.083C357.096 185.367 356.901 183.456 356.901 181.35ZM372.072 181.35C372.072 180.284 372.033 179.27 371.955 178.308C371.877 177.32 371.695 176.449 371.409 175.695C371.149 174.941 370.746 174.343 370.2 173.901C369.654 173.459 368.9 173.238 367.938 173.238C366.976 173.238 366.222 173.459 365.676 173.901C365.13 174.343 364.714 174.941 364.428 175.695C364.168 176.449 363.999 177.32 363.921 178.308C363.843 179.27 363.804 180.284 363.804 181.35C363.804 182.468 363.843 183.521 363.921 184.509C363.999 185.471 364.168 186.329 364.428 187.083C364.714 187.811 365.13 188.396 365.676 188.838C366.222 189.254 366.976 189.462 367.938 189.462C368.9 189.462 369.654 189.254 370.2 188.838C370.746 188.396 371.149 187.811 371.409 187.083C371.695 186.329 371.877 185.471 371.955 184.509C372.033 183.521 372.072 182.468 372.072 181.35ZM381.989 174.057C381.989 171.873 382.613 170.222 383.861 169.104C385.109 167.986 386.682 167.427 388.58 167.427C390.426 167.427 391.973 167.986 393.221 169.104C394.469 170.222 395.093 171.873 395.093 174.057C395.093 176.267 394.469 177.931 393.221 179.049C391.973 180.167 390.426 180.726 388.58 180.726C386.682 180.726 385.109 180.167 383.861 179.049C382.613 177.931 381.989 176.267 381.989 174.057ZM388.541 171.483C387.943 171.483 387.488 171.691 387.176 172.107C386.864 172.497 386.708 173.147 386.708 174.057C386.708 174.941 386.864 175.604 387.176 176.046C387.488 176.462 387.943 176.67 388.541 176.67C389.113 176.67 389.568 176.462 389.906 176.046C390.244 175.604 390.413 174.941 390.413 174.057C390.413 173.147 390.244 172.497 389.906 172.107C389.568 171.691 389.113 171.483 388.541 171.483ZM402.113 167.7H408.704L393.728 195H387.137L402.113 167.7ZM400.787 188.604C400.787 186.42 401.411 184.769 402.659 183.651C403.907 182.533 405.467 181.974 407.339 181.974C409.211 181.974 410.758 182.533 411.98 183.651C413.228 184.769 413.852 186.42 413.852 188.604C413.852 190.814 413.228 192.478 411.98 193.596C410.758 194.714 409.211 195.273 407.339 195.273C405.467 195.273 403.907 194.714 402.659 193.596C401.411 192.478 400.787 190.814 400.787 188.604ZM407.3 186.03C406.728 186.03 406.273 186.238 405.935 186.654C405.623 187.07 405.467 187.72 405.467 188.604C405.467 189.514 405.623 190.177 405.935 190.593C406.273 191.009 406.728 191.217 407.3 191.217C407.872 191.217 408.314 191.009 408.626 190.593C408.964 190.177 409.133 189.514 409.133 188.604C409.133 187.72 408.964 187.07 408.626 186.654C408.314 186.238 407.872 186.03 407.3 186.03Z" fill="#242233"/>
</g>
<defs>
<filter id="filter0_d_2476_4052" x="228.56" y="67.4268" width="289.293" height="235.846" filterUnits="userSpaceOnUse" color-interpolation-filters="sRGB">
<feFlood flood-opacity="0" result="BackgroundImageFix"/>
<feColorMatrix in="SourceAlpha" type="matrix" values="0 0 0 0 0 0 0 0 0 0 0 0 0 0 0 0 0 0 127 0" result="hardAlpha"/>
<feOffset dy="4"/>
<feGaussianBlur stdDeviation="52"/>
<feComposite in2="hardAlpha" operator="out"/>
<feColorMatrix type="matrix" values="0 0 0 0 1 0 0 0 0 0.345098 0 0 0 0 0.294118 0 0 0 1 0"/>
<feBlend mode="normal" in2="BackgroundImageFix" result="effect1_dropShadow_2476_4052"/>
<feBlend mode="normal" in="SourceGraphic" in2="effect1_dropShadow_2476_4052" result="shape"/>
</filter>
</defs>
</svg>
