<svg width="407" height="61" viewBox="0 0 407 61" fill="none" xmlns="http://www.w3.org/2000/svg">
<g clip-path="url(#clip0_1955_14373)">
<path d="M407 0.323769V5.78545H398.909V28.6386C398.909 28.6486 398.777 28.7824 398.767 28.7824H392.865C392.855 28.7824 392.722 28.6486 392.722 28.6386V5.78545H384.584C384.574 5.78545 384.441 5.65167 384.441 5.6416V0.467611C384.441 0.356853 384.816 0.165543 384.959 0.222121C392.124 0.399046 399.32 0.00731693 406.481 0.224039C406.662 0.229313 406.841 0.215408 407 0.323769Z" fill="black"/>
<path d="M374.637 17.7631V0.467572C374.637 0.457503 374.77 0.32373 374.78 0.32373H380.682C380.692 0.32373 380.824 0.457503 380.824 0.467572V28.6385C380.824 28.6486 380.692 28.7824 380.682 28.7824H374.971L374.729 28.615C371.149 23.699 367.612 18.748 364.017 13.843C363.233 12.7732 362.451 11.6872 361.598 10.6727V28.639C361.598 28.6491 361.465 28.7829 361.455 28.7829H355.506V0.32373H361.74C366.049 6.12823 370.239 12.0291 374.637 17.7626V17.7631Z" fill="black"/>
<path d="M316.768 0.371957C316.8 0.266473 316.987 0.213731 317.096 0.22332C321.253 0.371957 325.525 0.042559 329.669 0.224279C336.081 0.505251 339.977 4.00157 339.52 10.7243C339.286 14.1779 336.733 17.0202 333.517 18.006L339.699 28.553C339.742 28.6321 339.589 28.7822 339.564 28.7822H332.806C332.759 28.7822 332.605 28.6748 332.564 28.6158L327.095 18.7209H322.859V28.6383C322.859 28.6484 322.727 28.7822 322.717 28.7822H316.91C316.9 28.7822 316.768 28.6484 316.768 28.6383V0.371957ZM322.859 5.78569V13.1159C322.859 13.1259 322.992 13.2597 323.002 13.2597H329.569C329.652 13.2597 330.849 12.9389 331 12.88C333.298 11.991 333.993 8.75411 332.286 6.9791C331.796 6.47038 330.348 5.78521 329.664 5.78521H322.859L322.859 5.78569Z" fill="black"/>
<path d="M246.122 0.0648542C256.421 -0.713331 263.395 5.67421 262.803 16.1862C262.016 30.134 242.461 33.9761 235.441 22.6413C229.845 13.6052 235.226 0.888109 246.122 0.0648542ZM254.29 21.0806C258.847 15.9196 256.391 6.04532 248.858 5.49441C237.909 4.69417 236.5 20.7062 245.474 23.3696C248.519 24.273 252.145 23.5101 254.29 21.0806Z" fill="black"/>
<path d="M213.761 0.0649185C223.843 -0.727171 231.32 5.73517 230.53 16.1805C229.745 26.5812 218.717 31.8559 209.566 28.0887C196.177 22.5762 199.033 1.22189 213.761 0.0649185ZM209.534 21.0807C213.624 25.6836 221.566 24.1402 223.629 18.2403C226.072 11.2582 221.151 3.81536 213.435 5.77352C206.979 7.41141 205.411 16.4428 209.534 21.0807Z" fill="black"/>
<path d="M296.494 18.6255V28.6388C296.494 28.6488 296.361 28.7826 296.351 28.7826H290.449C290.439 28.7826 290.307 28.6488 290.307 28.6388V0.467805C290.307 0.318689 290.886 0.23574 291.017 0.224712C294.854 -0.0994119 299.133 0.477874 303.017 0.224712C309.956 -0.113796 314.903 5.90503 312.653 12.7116C311.686 15.6379 308.267 18.6259 305.107 18.6259H296.493L296.494 18.6255ZM296.494 13.2597H302.728C305.618 13.2597 307.863 10.4816 306.409 7.73374C305.915 6.79973 304.354 5.78612 303.299 5.78612H296.494V13.2601V13.2597Z" fill="black"/>
<path d="M198.266 5.78538H184.369V11.5347H197.837C197.847 11.5347 197.98 11.6685 197.98 11.6786V16.8531C197.98 16.8631 197.847 16.9969 197.837 16.9969H184.369V28.639C184.369 28.649 184.236 28.7828 184.226 28.7828H178.324C178.314 28.7828 178.182 28.649 178.182 28.639V0.323698C178.456 0.311712 178.709 0.239311 178.986 0.223489C185.119 -0.128924 191.58 0.501583 197.747 0.22205C197.89 0.165472 198.265 0.356782 198.265 0.46754V5.78538H198.266Z" fill="black"/>
<path d="M286.689 5.78541H278.504V28.6385C278.504 28.6486 278.371 28.7824 278.361 28.7824H272.412V5.78541H264.131V0.32373L286.689 0.371678V5.78541H286.689Z" fill="black"/>
<path d="M1.61884 0.324108L8.80499 26.0042L16.1049 0.48617C16.2253 0.251228 17.1939 0.282394 17.4714 0.319792C17.6708 0.346643 17.8027 0.370137 17.8712 0.587818L25.0816 26.196L32.4106 0.324108H33.8385C33.9037 0.324108 34.0326 0.534117 33.9651 0.636724L26.0331 28.4951C25.945 28.9127 24.9679 28.8254 24.6004 28.7885C24.3705 28.7655 24.1925 28.7871 24.1064 28.519L16.9907 3.38938L9.78881 28.6231C9.73645 28.7866 9.61937 28.7698 9.47658 28.788C9.18291 28.8249 8.16005 28.8393 7.98966 28.6451L0.0167403 0.635286C-0.0441834 0.533637 0.0757602 0.324587 0.143347 0.324587H1.61884V0.324108Z" fill="black"/>
<path d="M349.986 0.32373V28.6385C349.986 28.6486 349.854 28.7824 349.844 28.7824H344.037C344.027 28.7824 343.895 28.6486 343.895 28.6385V0.32373H349.986Z" fill="black"/>
<path d="M142.346 0.32373C148.392 1.04678 151.391 7.77522 148.278 12.907C146.785 15.3686 144.016 16.4604 141.252 16.6603L149.818 28.639C149.83 28.6668 149.594 28.7824 149.58 28.7824H147.962L139.901 17.3498L139.3 16.6133H132.685V28.7824C132.429 28.7598 131.162 28.9008 131.162 28.5426V0.467572C131.162 0.457503 131.295 0.32373 131.305 0.32373H142.346H142.346ZM132.685 15.1759C135.398 15.0666 138.221 15.3207 140.922 15.1797C142.992 15.0718 145.065 14.4178 146.375 12.7162C148.983 9.32967 147.839 3.62874 143.629 2.19463C143.406 2.11888 142.102 1.76167 141.966 1.76167H132.828C132.818 1.76167 132.685 1.89544 132.685 1.90551V15.1764V15.1759Z" fill="black"/>
<path d="M125.117 28.7825C125.055 28.7719 124.916 28.6837 124.88 28.6137L121.916 21.2255L106.458 21.2054L103.131 28.782H101.607L113.161 0.380876C113.609 0.237034 114.768 0.0524371 115.058 0.485401L126.689 28.548C126.711 28.6286 126.584 28.7825 126.545 28.7825C126.134 28.7825 125.485 28.8448 125.117 28.7825ZM121.262 19.7751L114.03 2.33617L106.89 19.7751H121.262H121.262Z" fill="black"/>
<path d="M55.9673 1.76119H40.0719V13.4512H55.6817V14.8887H40.0719V27.2015C40.0719 27.2116 40.2047 27.3454 40.2147 27.3454H55.9673C55.8869 27.6906 56.1796 28.6989 55.7293 28.7829L38.5488 28.687V0.467572C38.5488 0.457503 38.6816 0.32373 38.6916 0.32373H55.8245C56.0682 0.32373 55.9359 1.52721 55.9673 1.76119Z" fill="black"/>
<path d="M172.948 1.76119H157.052V13.4512H172.662V14.8887H157.052V27.2015C157.052 27.2116 157.185 27.3454 157.195 27.3454H172.948C172.867 27.6906 173.16 28.6989 172.71 28.7829L155.529 28.687V0.467572C155.529 0.457503 155.662 0.32373 155.672 0.32373H172.805C173.049 0.32373 172.916 1.52721 172.948 1.76119Z" fill="black"/>
<path d="M84.6188 1.76119V13.4512H100.086C100.301 13.4512 100.301 14.8887 100.086 14.8887H84.6188V28.6385C84.6188 28.8557 83.0957 28.8557 83.0957 28.6385V0.467572C83.0957 0.457503 83.2285 0.32373 83.2385 0.32373H100.371C100.587 0.32373 100.587 1.76119 100.371 1.76119H84.6188Z" fill="black"/>
<path d="M290.212 57.0488V45.7898C290.212 45.7798 290.345 45.646 290.355 45.646H292.068C292.078 45.646 292.211 45.7798 292.211 45.7898V60.642C292.211 60.6521 292.078 60.7858 292.068 60.7858H290.355C287.931 57.0699 285.475 53.3593 283.167 49.5758C283.079 49.5695 282.978 50.0739 282.978 50.1022V60.7863H281.074V45.647H282.835C285.222 49.1275 287.349 52.783 289.658 56.3133C289.813 56.5502 290.01 56.8594 290.212 57.0498V57.0488Z" fill="black"/>
<path d="M406.525 45.6465C406.675 46.2588 406.675 46.9521 406.525 47.5629H398.815V52.3538H405.383C405.504 52.6549 405.605 54.2703 405.24 54.2703H398.815V58.8694H406.382C406.747 58.8694 406.647 60.4847 406.525 60.7858H396.816V45.7903C396.816 45.7803 396.949 45.6465 396.959 45.6465H406.525Z" fill="black"/>
<path d="M305.992 45.4819C307.342 45.4426 308.83 45.8032 310.01 46.4591C310.198 46.5626 310.912 46.9942 310.952 47.1495C311.001 47.3456 310.067 48.6047 309.862 48.622C309.707 48.6349 308.614 47.9301 308.294 47.804C307.052 47.3154 305.749 47.2214 304.489 47.7076C302.702 48.3976 302.264 50.8007 304.109 51.6331C306.824 52.8581 311.349 52.0823 311.322 56.5213C311.291 61.679 304.43 61.76 301.126 59.7146C300.961 59.6125 300.303 59.1598 300.299 59.017C300.294 58.8362 301.258 57.5781 301.414 57.5378C301.543 57.5047 302.434 58.1951 302.692 58.3299C304.399 59.2217 308.339 59.646 309.17 57.4011C309.666 56.0615 309.067 55.0925 307.799 54.6255C305.141 53.6464 301.15 54.2424 300.962 50.2973C300.811 47.1265 303.039 45.5673 305.993 45.481L305.992 45.4819Z" fill="black"/>
<path d="M370.544 45.6465H372.401C372.411 45.6465 372.544 45.7803 372.544 45.7903V56.0429C372.544 56.5487 372.225 57.7067 372.018 58.1972C370.137 62.6678 361.883 61.6033 361.883 56.3306V45.6465H363.739C363.749 45.6465 363.882 45.7803 363.882 45.7903V56.3306C363.882 56.4773 364.265 57.4852 364.373 57.6563C365.87 60.023 370.544 59.1758 370.544 55.947V45.6465Z" fill="black"/>
<path d="M63.5817 0.32375V27.2011C63.5817 27.2112 63.7145 27.3449 63.7245 27.3449H77.7641C77.7327 27.5789 77.865 28.7824 77.6213 28.7824H62.2971C62.2871 28.7824 62.1543 28.6486 62.1543 28.6386V0.467592C62.1543 0.222102 63.3499 0.355396 63.5822 0.32375H63.5817Z" fill="black"/>
<path d="M321.907 47.5629H317.624C317.474 46.9506 317.474 46.2573 317.624 45.6465H328.141C328.151 45.6465 328.284 45.7803 328.284 45.7903V47.4191C328.284 47.4292 328.151 47.5629 328.141 47.5629H324.048C324.038 47.5629 323.906 47.6967 323.906 47.7068V60.6425C323.906 60.6526 323.773 60.7863 323.763 60.7863H322.049C322.039 60.7863 321.907 60.6526 321.907 60.6425V47.5629H321.907Z" fill="black"/>
<path d="M355.126 45.6465C355.275 46.2588 355.275 46.9521 355.126 47.5629H350.842V60.6425C350.842 60.6526 350.71 60.7863 350.7 60.7863H348.843V47.5634H344.608C344.598 47.5634 344.465 47.4296 344.465 47.4196V45.7908C344.465 45.7807 344.598 45.647 344.608 45.647H355.125L355.126 45.6465Z" fill="black"/>
<path d="M389.868 45.6465V47.5629H385.584V60.6425C385.584 60.6526 385.452 60.7863 385.442 60.7863H383.585V47.5634H379.35C379.34 47.5634 379.207 47.4296 379.207 47.4196V45.7908C379.207 45.7807 379.34 45.647 379.35 45.647H389.867L389.868 45.6465Z" fill="black"/>
<path d="M269.985 45.6465H271.698C271.708 45.6465 271.841 45.7803 271.841 45.7903V60.6425C271.841 60.6526 271.708 60.7863 271.698 60.7863H269.985C269.975 60.7863 269.842 60.6526 269.842 60.6425V45.7903C269.842 45.764 269.953 45.6954 269.985 45.6465Z" fill="black"/>
<path d="M335.471 45.6465H337.184C337.194 45.6465 337.327 45.7803 337.327 45.7903V60.6425C337.327 60.6526 337.194 60.7863 337.184 60.7863H335.471C335.461 60.7863 335.328 60.6526 335.328 60.6425V45.7903C335.328 45.764 335.44 45.6954 335.471 45.6465Z" fill="black"/>
</g>
<defs>
<clipPath id="clip0_1955_14373">
<rect width="407" height="61" fill="white"/>
</clipPath>
</defs>
</svg>
